<svg  viewBox="0 0 26 26" id="arrow-up"  xmlns="http://www.w3.org/2000/svg">
<path fill-rule="evenodd" clip-rule="evenodd" d="M13.001 24.3764C13.2165 24.3764 13.4232 24.2908 13.5756 24.1385C13.7279 23.9861 13.8135 23.7794 13.8135 23.5639V4.40033L18.9258 9.5142C19.0783 9.66676 19.2853 9.75247 19.501 9.75247C19.7168 9.75247 19.9237 9.66676 20.0763 9.5142C20.2288 9.36163 20.3146 9.15471 20.3146 8.93895C20.3146 8.72319 20.2288 8.51626 20.0763 8.3637L13.5763 1.8637C13.5008 1.78804 13.4111 1.728 13.3124 1.68704C13.2137 1.64608 13.1079 1.625 13.001 1.625C12.8942 1.625 12.7883 1.64608 12.6896 1.68704C12.5909 1.728 12.5013 1.78804 12.4258 1.8637L5.92578 8.3637C5.85023 8.43924 5.79031 8.52892 5.74943 8.62762C5.70854 8.72633 5.6875 8.83211 5.6875 8.93895C5.6875 9.15471 5.77321 9.36163 5.92578 9.5142C6.07834 9.66676 6.28527 9.75247 6.50103 9.75247C6.71679 9.75247 6.92371 9.66676 7.07628 9.5142L12.1885 4.40033V23.5639C12.1885 23.7794 12.2741 23.9861 12.4265 24.1385C12.5789 24.2908 12.7855 24.3764 13.001 24.3764Z"/>
</svg>
