<svg id="arrow-down" viewBox="0 0 26 26" fill="none" xmlns="http://www.w3.org/2000/svg">
<path fill-rule="evenodd" clip-rule="evenodd" d="M13.001 1.62454C13.2165 1.62454 13.4232 1.71014 13.5756 1.86251C13.7279 2.01489 13.8135 2.22155 13.8135 2.43704V21.6007L18.9258 16.4868C19.0783 16.3342 19.2853 16.2485 19.501 16.2485C19.7168 16.2485 19.9237 16.3342 20.0763 16.4868C20.2288 16.6393 20.3146 16.8463 20.3146 17.062C20.3146 17.2778 20.2288 17.4847 20.0763 17.6373L13.5763 24.1373C13.5008 24.2129 13.4111 24.273 13.3124 24.3139C13.2137 24.3549 13.1079 24.376 13.001 24.376C12.8942 24.376 12.7883 24.3549 12.6896 24.3139C12.5909 24.273 12.5013 24.2129 12.4258 24.1373L5.92578 17.6373C5.85023 17.5617 5.79031 17.4721 5.74943 17.3734C5.70854 17.2747 5.6875 17.1689 5.6875 17.062C5.6875 16.8463 5.77321 16.6393 5.92578 16.4868C6.07834 16.3342 6.28527 16.2485 6.50103 16.2485C6.71679 16.2485 6.92371 16.3342 7.07628 16.4868L12.1885 21.6007V2.43704C12.1885 2.22155 12.2741 2.01489 12.4265 1.86251C12.5789 1.71014 12.7855 1.62454 13.001 1.62454Z" fill="white"/>
</svg>
