<svg  id="arrow-right" viewBox="0 0 8 13"  xmlns="http://www.w3.org/2000/svg">
<path d="M6.31535 6.4997L1.00785 1.04532C0.964152 1.00137 0.929606 0.949183 0.906209 0.891788C0.882813 0.834393 0.871031 0.772928 0.871546 0.71095C0.872061 0.648972 0.884862 0.587711 0.909209 0.530713C0.933556 0.473714 0.968964 0.42211 1.01339 0.378887C1.05781 0.335664 1.11036 0.301679 1.168 0.2789C1.22565 0.25612 1.28723 0.244999 1.3492 0.246179C1.41117 0.247359 1.47229 0.260816 1.52903 0.285773C1.58576 0.31073 1.63698 0.34669 1.67972 0.391573L7.30473 6.17282C7.38986 6.26033 7.4375 6.37761 7.4375 6.4997C7.4375 6.62179 7.38986 6.73906 7.30473 6.82657L1.67972 12.6078C1.63698 12.6527 1.58576 12.6887 1.52903 12.7136C1.47229 12.7386 1.41117 12.752 1.3492 12.7532C1.28723 12.7544 1.22565 12.7433 1.168 12.7205C1.11036 12.6977 1.05781 12.6637 1.01339 12.6205C0.968964 12.5773 0.933556 12.5257 0.909209 12.4687C0.884862 12.4117 0.872061 12.3504 0.871546 12.2884C0.871031 12.2265 0.882813 12.165 0.906209 12.1076C0.929606 12.0502 0.964152 11.998 1.00785 11.9541L6.31598 6.4997H6.31535Z"/>
</svg>
