<svg id="arrow-left" viewBox="0 0 8 13"  xmlns="http://www.w3.org/2000/svg">
<path d="M1.68465 6.4997L6.99215 1.04532C7.03585 1.00137 7.07039 0.949183 7.09379 0.891788C7.11719 0.834393 7.12897 0.772928 7.12845 0.71095C7.12794 0.648972 7.11514 0.587711 7.09079 0.530713C7.06644 0.473714 7.03104 0.42211 6.98661 0.378887C6.94219 0.335664 6.88964 0.301679 6.832 0.2789C6.77435 0.25612 6.71277 0.244999 6.6508 0.246179C6.58883 0.247359 6.52771 0.260816 6.47097 0.285773C6.41424 0.31073 6.36302 0.34669 6.32028 0.391573L0.695275 6.17282C0.610136 6.26033 0.5625 6.37761 0.5625 6.4997C0.5625 6.62179 0.610136 6.73906 0.695275 6.82657L6.32028 12.6078C6.36302 12.6527 6.41424 12.6887 6.47097 12.7136C6.52771 12.7386 6.58883 12.752 6.6508 12.7532C6.71277 12.7544 6.77435 12.7433 6.832 12.7205C6.88964 12.6977 6.94219 12.6637 6.98661 12.6205C7.03104 12.5773 7.06644 12.5257 7.09079 12.4687C7.11514 12.4117 7.12794 12.3504 7.12845 12.2884C7.12897 12.2265 7.11719 12.165 7.09379 12.1076C7.07039 12.0502 7.03585 11.998 6.99215 11.9541L1.68402 6.4997H1.68465Z"/>
</svg>
