<svg id="rose"  viewBox="0 0 65 78" fill="none" xmlns="http://www.w3.org/2000/svg">
<g clip-path="url(#clip0_159:269)">
<path d="M51.1596 10.6376L48.7547 10.6657C46.7617 10.6871 44.8044 11.3988 43.1145 12.7165C42.5648 12.4438 41.9998 12.2167 41.4233 12.037C40.528 11.1687 39.4422 10.6311 38.2924 10.4868C37.9155 9.37202 37.3155 8.39209 36.5455 7.63366C35.7755 6.87524 34.8592 6.36169 33.8777 6.13844C32.8962 5.91518 31.8797 5.98909 30.918 6.35362C29.9563 6.71816 29.0791 7.36209 28.364 8.22849C27.6918 9.04312 27.183 10.0326 26.8779 11.1183C25.1754 8.78443 22.8052 7.31526 20.2266 6.99554L16.7578 6.56924C16.6279 6.55329 16.4962 6.57295 16.3724 6.62678C16.2486 6.6806 16.1358 6.76722 16.0424 6.88021C15.949 6.99319 15.8774 7.12966 15.8329 7.2795C15.7885 7.42934 15.7722 7.58873 15.7854 7.74585L16.1377 11.9431C16.2553 13.3559 16.5685 14.7302 17.0643 16.0086C16.5697 16.5619 16.1092 17.1583 15.6866 17.7929C14.2668 18.4437 12.9745 19.4565 11.8988 20.7616L10.3673 22.6147C10.2022 22.8146 10.1081 23.084 10.1059 23.3639C10.1037 23.6438 10.1934 23.9111 10.3554 24.1071L12.0396 26.145C12.264 26.4165 12.4979 26.6736 12.7412 26.9163C12.5656 30.2124 13.2322 33.4745 14.6505 36.2589L14.6943 36.2253C14.8162 37.4287 15.1828 38.5712 15.7614 39.5512C16.3399 40.5311 17.1126 41.318 18.0105 41.8418L26.2204 56.6542C26.0466 56.8126 25.9264 57.0422 25.883 57.2986C25.8396 57.5551 25.8762 57.8201 25.9856 58.0422L27.5635 61.2577L26.5245 63.7362C26.4568 63.8979 26.424 64.077 26.4292 64.2566C26.4345 64.4362 26.4776 64.6103 26.5545 64.7624C26.6315 64.9145 26.7396 65.0395 26.8688 65.1256C26.9979 65.2117 27.1437 65.256 27.2924 65.2542L27.7269 65.2492L27.1872 67.1591C26.9477 68.0067 26.8771 68.9071 26.9811 69.7862C27.0851 70.6653 27.3607 71.4979 27.7853 72.2154C28.2099 72.9328 28.7713 73.5146 29.4232 73.9127C30.0752 74.3109 30.799 74.514 31.535 74.5054C32.271 74.4968 32.9982 74.2767 33.6566 73.8632C34.315 73.4498 34.8857 72.8547 35.3218 72.1272C35.758 71.3997 36.0469 70.5606 36.165 69.6789C36.283 68.7972 36.2267 67.8982 36.0007 67.056L35.4914 65.1585L35.9258 65.1534C36.0745 65.1517 36.221 65.104 36.3516 65.0149C36.4821 64.9258 36.5923 64.7982 36.6717 64.6442C36.7511 64.4903 36.797 64.3151 36.8051 64.1354C36.8133 63.9556 36.7833 63.7772 36.7181 63.617L35.7185 61.1623L37.348 57.9095C37.461 57.6848 37.5017 57.4189 37.4624 57.1634C37.4231 56.9079 37.3066 56.681 37.1353 56.5267L47.2112 38.6275C48.4448 37.1212 49.4238 35.3394 50.0914 33.3852L50.0776 33.3786C51.5228 32.9169 52.8758 32.0893 54.0464 30.951L56.7957 28.2783C56.8987 28.1782 56.9821 28.0519 57.0399 27.9086C57.0977 27.7653 57.1284 27.6087 57.1297 27.4504C57.1309 27.2922 57.1028 27.1363 57.0472 26.9943C56.9917 26.8523 56.9103 26.7279 56.8089 26.6302L54.1017 24.0211C52.9055 22.8656 51.5067 22.0514 50.0067 21.6373C50.0285 21.6004 50.0516 21.5649 50.0732 21.5277C51.312 19.3936 51.9856 16.8627 52.0027 14.2783L52.0233 11.6826C52.0256 11.4028 51.9358 11.1354 51.7738 10.9395C51.6119 10.7435 51.3909 10.6349 51.1596 10.6376ZM27.1127 18.7348C27.1082 20.0024 27.3736 21.2438 27.8834 22.3394C28.3932 23.4349 29.1301 24.3476 30.0232 24.9896C30.9163 25.6316 31.9355 25.9812 32.9825 26.0048C34.0296 26.0284 35.0692 25.7251 36.0012 25.1242C35.7435 25.7444 35.4049 26.3117 34.9986 26.8037C34.9063 26.9154 34.8091 27.022 34.7103 27.1256C33.8642 27.3946 33.0721 27.8792 32.3879 28.5469C32.1368 28.6147 31.8823 28.6603 31.6265 28.6833C31.3143 27.1838 30.6152 25.852 29.6298 24.8792C28.6443 23.9065 27.4232 23.3429 26.142 23.2697C25.9824 21.6749 26.3293 20.0546 27.1127 18.7348ZM42.9499 34.918C42.7376 35.1748 42.4914 35.3869 42.2219 35.545C42.4223 35.0462 42.5126 34.4952 42.4839 33.9465C42.4552 33.3979 42.3085 32.8705 42.0583 32.4166C41.8081 31.9628 41.463 31.5981 41.0572 31.3586C40.6514 31.1192 40.1989 31.0133 39.7445 31.0513C39.5792 30.8739 39.3999 30.7164 39.2091 30.5811C39.234 30.5484 39.2593 30.5159 39.2855 30.4841C39.7809 29.8847 40.4491 29.5434 41.143 29.5353C41.8369 29.5272 42.4997 29.853 42.9856 30.4409C43.4715 31.0289 43.7407 31.8309 43.734 32.6705C43.7273 33.5101 43.4453 34.3186 42.9499 34.918ZM21.9472 39.64C21.8768 39.5548 21.8099 39.4665 21.7451 39.3763C22.5566 39.4256 23.3624 39.1295 24.0227 38.5393C24.9768 38.9967 26.0406 39.0258 27.0245 38.6215C28.0084 38.2173 28.8483 37.4059 29.3945 36.3322C29.3072 37.3286 28.988 38.28 28.4742 39.0752C27.9603 39.8705 27.2729 40.4768 26.4922 40.8236C25.7115 41.1703 24.8697 41.2432 24.0649 41.0336C23.2602 40.824 22.5257 40.3407 21.9472 39.64ZM23.8627 31.4104C24.1348 31.0813 24.4618 30.8266 24.821 30.6643C25.1802 30.502 25.5628 30.4359 25.9422 30.4706C26.3215 30.5054 26.6884 30.6401 27.0172 30.8655C27.346 31.0908 27.6288 31.4013 27.8457 31.7752C28.0627 32.1491 28.2086 32.5774 28.2732 33.0302C28.3379 33.483 28.3197 33.9494 28.22 34.3966C28.1203 34.8439 27.9415 35.2613 27.6961 35.6196C27.4506 35.978 27.1445 36.2687 26.799 36.4713C26.9994 35.9725 27.0898 35.4215 27.0611 34.8728C27.0324 34.3241 26.8857 33.7968 26.6355 33.3429C26.3852 32.889 26.0402 32.5243 25.6344 32.2849C25.2286 32.0454 24.7761 31.9395 24.3217 31.9776C24.1564 31.8001 23.9771 31.6427 23.7862 31.5074C23.8112 31.4746 23.8365 31.4421 23.8627 31.4104ZM23.8389 34.3951C23.962 34.2461 24.1182 34.1438 24.2877 34.1011C24.4572 34.0584 24.6324 34.0772 24.7911 34.1553C24.9499 34.2333 25.085 34.3669 25.1794 34.5393C25.2739 34.7118 25.3234 34.9152 25.3217 35.1239C25.3201 35.3326 25.2673 35.5372 25.1701 35.7119C25.0729 35.8865 24.9356 36.0234 24.7756 36.1051C24.6156 36.1868 24.4401 36.2098 24.2712 36.171C24.1024 36.1323 23.9478 36.0336 23.827 35.8875C23.6653 35.6913 23.5757 35.424 23.5779 35.1443C23.5802 34.8645 23.674 34.5951 23.8389 34.3951ZM22.4286 37.1905C22.1692 37.2799 21.8973 37.296 21.6342 37.2375C21.3711 37.179 21.1239 37.0475 20.9119 36.8532C20.6999 36.6589 20.5288 36.4071 20.4119 36.1175C20.295 35.8278 20.2356 35.5081 20.2382 35.1833C20.2408 34.8584 20.3053 34.5373 20.4268 34.2448C20.5484 33.9524 20.7235 33.6965 20.9387 33.4973C21.1538 33.298 21.4032 33.1607 21.6672 33.096C21.9313 33.0313 22.203 33.0411 22.4611 33.1245C22.0626 33.6993 21.841 34.4214 21.8351 35.1646C21.8292 35.9078 22.0393 36.6249 22.4286 37.1905ZM34.5207 36.6752C34.7074 37.7018 35.0757 38.6632 35.6006 39.4939C34.9863 39.4101 34.3964 39.1685 33.8701 38.7852C33.3438 38.4019 32.8933 37.8856 32.5485 37.2708C32.2037 36.656 31.9726 35.9568 31.8707 35.2198C31.7687 34.4828 31.7982 33.7249 31.9571 32.9967C32.116 32.2684 32.4008 31.5866 32.7924 30.9965C33.184 30.4064 33.6734 29.9217 34.2281 29.5747C34.7828 29.2277 35.39 29.0263 36.0092 28.9839C36.6284 28.9416 37.2454 29.0593 37.819 29.3292C37.666 29.5456 37.5275 29.7763 37.4048 30.019C36.7709 30.0332 36.1488 30.2563 35.6056 30.6643C35.0624 31.0722 34.6186 31.6496 34.3219 32.3343C34.0253 33.0189 33.887 33.7849 33.922 34.5498C33.9571 35.3147 34.164 36.0495 34.5207 36.6752ZM40.4832 34.9468C40.36 35.0958 40.2038 35.1981 40.0343 35.2408C39.8648 35.2835 39.6896 35.2647 39.5309 35.1866C39.3722 35.1086 39.2371 34.975 39.1426 34.8026C39.0482 34.6301 38.9987 34.4267 39.0003 34.218C39.002 34.0093 39.0548 33.8047 39.152 33.63C39.2492 33.4554 39.3865 33.3185 39.5465 33.2368C39.7065 33.1551 39.882 33.1321 40.0508 33.1709C40.2197 33.2096 40.3743 33.3083 40.4951 33.4544C40.6568 33.6506 40.7464 33.9179 40.7441 34.1976C40.7419 34.4774 40.6481 34.7468 40.4832 34.9468ZM36.1843 32.7587C36.4044 32.493 36.6776 32.3012 36.9761 32.2027C37.2746 32.1043 37.5878 32.1027 37.8839 32.1982C37.4854 32.7731 37.2639 33.4952 37.2579 34.2384C37.252 34.9816 37.4621 35.6986 37.8514 36.2643C37.4794 36.3925 37.0851 36.3689 36.7301 36.1972C36.3751 36.0254 36.0794 35.7152 35.889 35.3149C35.6987 34.9146 35.6244 34.4468 35.6778 33.9844C35.7312 33.5219 35.9093 33.091 36.1843 32.7587ZM36.2676 22.3122C35.6778 23.0266 34.9355 23.5272 34.1273 23.7556C33.3191 23.984 32.4782 23.9308 31.7029 23.6023C30.9276 23.2737 30.2498 22.6833 29.7485 21.8999C29.2472 21.1165 28.9431 20.1724 28.8718 19.1778C29.4009 20.239 30.228 21.0309 31.2056 21.4122C32.1832 21.7936 33.2478 21.7395 34.2093 21.2598C34.8603 21.8347 35.6615 22.1121 36.474 22.0438C36.4077 22.1355 36.3394 22.2254 36.2676 22.3122ZM34.4474 18.6029C34.3242 18.7519 34.168 18.8543 33.9985 18.897C33.8291 18.9396 33.6539 18.9208 33.4951 18.8428C33.3364 18.7648 33.2013 18.6311 33.1069 18.4587C33.0124 18.2863 32.9629 18.0829 32.9646 17.8742C32.9662 17.6654 33.019 17.4608 33.1162 17.2862C33.2134 17.1115 33.3507 16.9747 33.5107 16.8929C33.6707 16.8112 33.8462 16.7883 34.0151 16.827C34.1839 16.8657 34.3385 16.9644 34.4593 17.1106C34.621 17.3067 34.7106 17.574 34.7084 17.8538C34.7061 18.1336 34.6123 18.403 34.4474 18.6029ZM37.5248 19.3131C37.3047 19.5788 37.0315 19.7706 36.733 19.8691C36.4345 19.9675 36.1213 19.9691 35.8252 19.8736C36.2237 19.2987 36.4452 18.5766 36.4512 17.8334C36.4571 17.0902 36.247 16.3732 35.8577 15.8075C36.2297 15.6793 36.624 15.7029 36.979 15.8746C37.334 16.0464 37.6297 16.3566 37.8201 16.7569C38.0105 17.1572 38.0847 17.625 38.0313 18.0874C37.9779 18.5498 37.7998 18.9808 37.5248 19.3131ZM34.5581 14.2211C34.365 14.3609 34.1831 14.5226 34.015 14.7039C33.5611 14.6764 33.1069 14.7929 32.6972 15.0419C32.2875 15.2909 31.9365 15.6637 31.679 16.1235C31.4215 16.5833 31.2663 17.1142 31.2289 17.6636C31.1914 18.2131 31.273 18.7621 31.4655 19.2563C31.1232 19.0617 30.8216 18.7782 30.5818 18.4255C30.3419 18.0728 30.1697 17.6595 30.0771 17.2144C29.9845 16.7694 29.9738 16.3034 30.0457 15.849C30.1176 15.3945 30.2704 14.9627 30.4933 14.5836C30.7163 14.2045 31.0041 13.8874 31.3366 13.6543C31.669 13.4212 32.0382 13.2779 32.4182 13.2343C32.7982 13.1907 33.1798 13.2479 33.5365 13.4019C33.8932 13.5559 34.2163 13.803 34.4831 14.1259C34.5088 14.157 34.5336 14.1889 34.5581 14.2211ZM28.8318 26.8757C29.3135 27.463 29.6714 28.1823 29.8767 28.975C30.0819 29.7678 30.1285 30.6116 30.0127 31.4378C29.8327 31.1403 29.6342 30.86 29.4187 30.5994C29.3089 30.4665 29.1934 30.3395 29.0758 30.2178C28.9917 30.095 28.903 29.9753 28.808 29.8604C28.1909 29.1156 27.3986 28.6182 26.5349 28.4334C25.6712 28.2486 24.7765 28.385 23.968 28.8248C23.3695 28.3912 22.7109 28.0892 22.0219 27.9323C22.3712 27.2473 22.8429 26.6642 23.4015 26.2269C23.9601 25.7896 24.5911 25.5096 25.2467 25.4078C25.9024 25.3061 26.5657 25.3854 27.1868 25.6396C27.8078 25.8939 28.3703 26.3165 28.8318 26.8757ZM22.3962 30.2554C22.2432 30.4719 22.1047 30.7026 21.982 30.9453C21.3481 30.9595 20.726 31.1826 20.1828 31.5905C19.6396 31.9985 19.1958 32.5759 18.8991 33.2605C18.6025 33.9452 18.4642 34.7112 18.4992 35.4761C18.5342 36.241 18.7412 36.9758 19.0979 37.6014C19.2845 38.628 19.6529 39.5895 20.1778 40.4202C19.5635 40.3364 18.9736 40.0948 18.4473 39.7115C17.921 39.3281 17.4704 38.8119 17.1257 38.1971C16.7809 37.5823 16.5498 36.8831 16.4478 36.1461C16.3459 35.4091 16.3753 34.6512 16.5343 33.9229C16.6932 33.1947 16.978 32.5128 17.3696 31.9228C17.7612 31.3327 18.2506 30.848 18.8053 30.501C19.36 30.1539 19.9672 29.9525 20.5864 29.9102C21.2055 29.8678 21.8225 29.9855 22.3962 30.2554ZM29.3354 41.0459C30.0374 40.1978 30.5618 39.1599 30.8636 38.0217C31.2628 38.8632 31.7978 39.5971 32.4375 40.1808C33.0772 40.7644 33.8088 41.1862 34.5898 41.4215L28.9355 41.4876C29.0724 41.348 29.2064 41.2019 29.3354 41.0459ZM37.7732 43.4947C39.6409 43.4769 41.4917 42.9786 43.2029 42.0328L35.1506 56.3371L30.7017 56.3891L30.8039 43.5761L37.7732 43.4947ZM43.5368 38.6417C42.7105 39.6392 41.5972 40.2071 40.4411 40.2206C39.285 40.2341 38.1806 39.6922 37.37 38.7137C37.2997 38.6286 37.2328 38.5402 37.1679 38.45C37.9795 38.4994 38.7852 38.2033 39.4456 37.6131C40.3996 38.0704 41.4635 38.0995 42.4473 37.6953C43.4312 37.291 44.2712 36.4797 44.8173 35.406C44.7121 36.6248 44.2592 37.7692 43.5368 38.6417ZM44.4987 29.2915C44.4146 29.1687 44.3258 29.0491 44.2308 28.9342C43.6137 28.1894 42.8214 27.692 41.9577 27.5072C41.094 27.3224 40.1993 27.4588 39.3908 27.8985C38.7923 27.465 38.1337 27.1629 37.4447 27.006C37.9799 25.9565 38.7963 25.1576 39.7543 24.746C40.7124 24.3345 41.7524 24.336 42.6964 24.7501C43.6405 25.1643 44.4299 25.9654 44.9296 27.0164C45.4292 28.0674 45.6081 29.3029 45.4356 30.5115C45.2555 30.214 45.057 29.9337 44.8416 29.6731C44.7317 29.5402 44.6162 29.4132 44.4987 29.2915ZM40.5903 21.5156C39.8954 22.3565 38.9923 22.8971 38.0249 23.0512C38.5632 22.2082 38.947 21.2379 39.15 20.2068C39.5167 19.5727 39.7355 18.8329 39.7827 18.067C39.83 17.3012 39.7039 16.5382 39.4181 15.8604C39.1323 15.1825 38.6976 14.6154 38.1608 14.2201C37.624 13.8247 37.0054 13.6161 36.3716 13.6167C36.2527 13.3768 36.1179 13.1493 35.9683 12.9364C36.9043 12.4777 37.9362 12.4205 38.8899 12.7746C39.8437 13.1287 40.661 13.8724 41.204 14.8803C41.747 15.8882 41.9824 17.0985 41.8706 18.3073C41.7589 19.516 41.3067 20.6492 40.5903 21.5156ZM35.7522 9.63441C35.9926 9.92599 36.2032 10.2515 36.3797 10.6041C35.6882 10.7771 35.0246 11.0946 34.419 11.5423C33.6174 11.1213 32.7247 11.0058 31.8579 11.2108C30.9911 11.4158 30.1907 11.9318 29.5616 12.6911C29.4647 12.8084 29.374 12.9302 29.2879 13.055C29.1682 13.1798 29.0506 13.3095 28.939 13.4445C28.7194 13.7102 28.5163 13.9952 28.3315 14.297C28.1916 13.1973 28.3445 12.0655 28.7683 11.0645C29.1922 10.0636 29.865 9.24499 30.6899 8.72665C31.5149 8.20831 32.4495 8.01693 33.3592 8.18005C34.2688 8.34318 35.1067 8.85239 35.7522 9.63441ZM17.8731 11.6898L17.6307 8.8021L20.0172 9.09541C21.3749 9.26379 22.6747 9.81631 23.8122 10.7085C24.9496 11.6007 25.8929 12.8076 26.5661 14.2322C26.6109 14.8293 26.7161 15.4161 26.8791 15.9795C26.7307 16.1322 26.5863 16.2912 26.4485 16.458C26.2404 16.7101 26.0456 16.9776 25.865 17.2588L21.5508 12.0386L20.3055 13.5454L24.94 19.1531C24.7589 19.6625 24.6187 20.1911 24.5215 20.7313C22.7596 20.268 21.1719 19.1477 19.98 17.5268C18.7882 15.9059 18.0516 13.8652 17.8731 11.6898ZM12.2114 23.3393L13.1202 22.2396C14.6391 20.3956 16.6549 19.2794 18.7835 19.1037C19.7979 20.437 21.0443 21.4816 22.4361 22.1647L16.916 22.2292L16.899 24.3397L22.7323 24.2716C21.6288 25.0447 20.7452 26.2101 20.2044 27.6057C18.9323 27.7541 17.6541 27.5654 16.459 27.0529C15.2639 26.5404 14.1807 25.7163 13.2848 24.6382L12.2114 23.3393ZM14.4628 28.3073C15.2603 28.8179 16.1109 29.2005 16.9936 29.4457C16.156 30.2504 15.5042 31.3041 15.1041 32.5004C14.7135 31.1548 14.4972 29.7406 14.4628 28.3073ZM20.9129 42.5563C22.461 43.29 24.1165 43.656 25.7903 43.6347L29.0596 43.5965L28.9574 56.4095L28.2085 56.4182L20.5293 42.5633C20.6568 42.5659 20.7847 42.5636 20.9129 42.5563ZM28.8367 67.807L29.5655 65.2277L29.6077 65.2272L30.8526 72.2983C30.4653 72.1863 30.1029 71.9781 29.7882 71.6868C29.4735 71.3954 29.2132 71.0273 29.0239 70.6054C28.8345 70.1836 28.7202 69.7172 28.6879 69.2356C28.6557 68.754 28.7063 68.2676 28.8367 67.807ZM34.3406 67.7427C34.569 68.5926 34.5174 69.5225 34.1962 70.3404C33.8751 71.1584 33.309 71.802 32.6149 72.1384L31.3944 65.2063L33.6528 65.1799L34.3406 67.7427ZM33.9812 60.5936C33.9045 60.7467 33.8606 60.9201 33.8536 61.0975C33.8465 61.275 33.8766 61.4509 33.9409 61.6089L34.5316 63.0593L28.7203 63.1272L29.3343 61.6626C29.4012 61.5031 29.434 61.3265 29.4298 61.1492C29.4256 60.9718 29.3844 60.7996 29.3101 60.6482L28.2696 58.5279L35.0558 58.4485L33.9812 60.5936ZM46.3999 36.6203C46.5935 35.6816 46.6355 34.7099 46.5234 33.759C47.0236 33.8091 47.5268 33.8155 48.0291 33.7782C47.5848 34.8018 47.0375 35.7565 46.3999 36.6203ZM52.97 29.3157C51.2733 30.9652 49.1436 31.8071 46.9923 31.6788C47.2311 30.683 47.2972 29.6419 47.1864 28.6217L50.1443 28.5871L50.1612 26.4766L46.6892 26.5171C46.5671 26.1948 46.4255 25.8841 46.2655 25.5875C47.1413 25.0322 47.9501 24.331 48.6677 23.505C50.2577 23.7285 51.7569 24.482 52.999 25.6818L54.8614 27.4769L52.97 29.3157ZM50.2584 14.2987C50.2359 16.3241 49.735 18.3107 48.8148 20.0238C47.8946 21.737 46.5935 23.1052 45.0652 23.967C44.5249 23.43 43.9094 23.0133 43.2464 22.7356L47.4035 17.7055L46.1821 16.2275L43.4433 19.5415C43.7525 18.0836 43.6922 16.5552 43.2702 15.1566C44.8272 13.6374 46.7563 12.7975 48.7378 12.7762L50.2707 12.7583L50.2584 14.2987Z" fill="white"/>
</g>
<defs>
<clipPath id="clip0_159:269">
<rect width="64.4628" height="78" fill="white"/>
</clipPath>
</defs>
</svg>
