<svg id="hearts-white" viewBox="0 0 44 44" fill="none" xmlns="http://www.w3.org/2000/svg">
<g clip-path="url(#clip0_171:66)">
<path d="M20.0246 38.5022C19.665 38.5022 19.3367 38.2696 19.2155 37.9319C19.0958 37.5988 19.1984 37.2166 19.4684 36.9877C19.7503 36.7488 20.1633 36.7179 20.4776 36.9127C20.778 37.0988 20.9364 37.4642 20.8667 37.8104C20.7869 38.2067 20.4298 38.5022 20.0246 38.5022Z" fill="white"/>
<path d="M15.4075 42.5564C15.2107 42.5564 15.0143 42.489 14.8548 42.3551C14.4078 41.9798 3.88456 33.1263 1.78926 29.947C0.447363 27.9106 -0.0999655 26.0434 0.0148454 23.8927C0.130602 21.7306 1.046 19.7003 2.59259 18.176C4.16179 16.6291 6.2106 15.7773 8.3615 15.7773C11.6859 15.7773 14.2373 18.2494 15.4091 19.6392C16.616 18.2579 19.2286 15.7773 22.4254 15.7773C24.5765 15.7773 26.6254 16.6291 28.1947 18.1759C29.7413 19.7003 30.6568 21.7306 30.7725 23.8926C30.92 26.6424 29.9022 28.5721 28.999 29.9462C28.4531 30.7762 24.2593 34.8018 23.4241 35.6004C23.081 35.9283 22.537 35.9163 22.209 35.5732C21.881 35.2301 21.8932 34.6862 22.2362 34.3582C24.6255 32.0737 27.2711 29.4456 27.5628 29.002C28.7049 27.2644 29.1515 25.7637 29.0562 23.9844C28.8646 20.4066 25.8901 17.496 22.4253 17.496C18.9715 17.496 16.1254 21.4839 16.0971 21.5242C15.9338 21.7562 15.6666 21.893 15.3827 21.8889C15.0988 21.885 14.8353 21.7413 14.6783 21.5048C14.6522 21.4658 11.9588 17.496 8.3615 17.496C4.89706 17.496 1.92263 20.4066 1.73108 23.9843C1.63724 25.7442 2.09786 27.2915 3.2244 29.0013C4.93101 31.5907 13.2488 38.7363 15.4341 40.5937L16.6709 39.6453C17.0475 39.3565 17.587 39.4276 17.8759 39.8044C18.1646 40.181 18.0934 40.7204 17.7168 41.0093L15.9304 42.379C15.7758 42.4975 15.5915 42.5564 15.4075 42.5564Z" fill="white"/>
<path d="M12.7668 13.8482C12.5703 13.8482 12.374 13.7812 12.2141 13.6469C11.7306 13.2409 7.46416 9.64008 6.54713 8.24877C6.15355 7.65151 5.63862 6.7032 5.70977 5.36921C5.82768 3.16658 7.6075 1.44141 9.76167 1.44141C11.0726 1.44141 12.1226 2.21612 12.7679 2.8585C13.4216 2.21621 14.4762 1.44141 15.7598 1.44141C17.914 1.44141 19.6939 3.16658 19.8118 5.36904C19.8832 6.69994 19.3686 7.64945 18.9752 8.24782C18.0525 9.65099 13.8013 13.2418 13.3195 13.6467C13.1599 13.7811 12.9634 13.8482 12.7668 13.8482ZM9.76175 3.16013C8.5418 3.16013 7.49398 4.19231 7.42601 5.46082C7.39155 6.10792 7.55792 6.65886 7.98236 7.30304C8.51654 8.1135 10.9571 10.3166 12.7666 11.8623C14.5694 10.3206 17.0016 8.12115 17.5392 7.30364C17.9639 6.65757 18.1304 6.10637 18.0959 5.46099C18.0279 4.19231 16.9801 3.16022 15.7599 3.16022C14.7524 3.16022 13.7394 4.27756 13.4641 4.669C13.3008 4.90094 13.0369 5.03922 12.7496 5.03372C12.4657 5.02985 12.2023 4.88616 12.0453 4.64967C11.7672 4.23709 10.8111 3.16013 9.76175 3.16013Z" fill="white"/>
<path d="M33.7643 20.3106C33.5678 20.3106 33.3714 20.2436 33.2116 20.1093C32.4847 19.4989 26.0705 14.0859 24.7166 12.0318C24.1551 11.1795 23.4203 9.82809 23.5211 7.93861C23.5999 6.46644 24.223 5.08432 25.2758 4.04664C26.3464 2.99134 27.7452 2.41016 29.2146 2.41016C31.2814 2.41016 32.8998 3.7976 33.7689 4.75235C34.6594 3.80293 36.305 2.41016 38.2958 2.41016C39.7653 2.41016 41.1641 2.99134 42.2347 4.04664C43.2875 5.08432 43.9108 6.46644 43.9896 7.93844C44.0894 9.80248 43.4036 11.1047 42.7949 12.0308C41.4089 14.1381 34.6061 19.8663 34.3172 20.1091C34.1573 20.2435 33.9608 20.3106 33.7643 20.3106ZM29.2147 4.12888C27.1368 4.12888 25.3526 5.87906 25.2374 8.03022C25.1797 9.11173 25.4533 10.0257 26.1519 11.086C27.0945 12.5162 31.5442 16.4349 33.7641 18.3253C35.9766 16.4392 40.4102 12.529 41.3589 11.0866C42.0576 10.0233 42.3312 9.10924 42.2735 8.03039C42.1583 5.87915 40.374 4.12897 38.2959 4.12897C36.2361 4.12897 34.4753 6.57729 34.4578 6.60204C34.2965 6.82943 34.0346 6.96487 33.7563 6.96487C33.752 6.96487 33.7475 6.96478 33.7431 6.96478C33.4599 6.96031 33.1966 6.8174 33.0399 6.58142C33.0244 6.55847 31.3706 4.12888 29.2147 4.12888Z" fill="white"/>
</g>
<defs>
<clipPath id="clip0_171:66">
<rect width="44" height="44" fill="white"/>
</clipPath>
</defs>
</svg>
