<svg id="heart" viewBox="0 0 18 18" xmlns="http://www.w3.org/2000/svg">
<path d="M13.3125 0.749023C11.3159 0.749023 9.66688 2.60352 9 3.47877C8.33312 2.60352 6.68408 0.749023 4.68749 0.749023C2.1028 0.749023 0 3.12537 0 6.04591C0 7.6393 0.632461 9.12426 1.7395 10.1405C1.7556 10.1684 1.77539 10.194 1.79845 10.2171L8.73524 17.1395C8.80847 17.2124 8.90406 17.249 9 17.249C9.09594 17.249 9.19188 17.2124 9.26515 17.1392L16.4326 9.97427L16.5066 9.90248C16.5652 9.84718 16.6231 9.79114 16.6879 9.71939C16.715 9.69267 16.7373 9.66261 16.7545 9.63002C17.5584 8.64564 18 7.37598 18 6.04591C18 3.12537 15.8972 0.749023 13.3125 0.749023ZM16.1305 9.20814C16.1202 9.22024 16.1107 9.23304 16.1023 9.24622C16.0671 9.28651 16.0287 9.32201 15.9906 9.3583L8.99965 16.3441L2.41407 9.77173C2.39284 9.72997 2.36317 9.69189 2.32692 9.66004C1.32458 8.78479 0.749988 7.46752 0.749988 6.04591C0.749988 3.53881 2.51624 1.49905 4.68749 1.49905C6.83423 1.49905 8.66637 4.2991 8.68468 4.3273C8.82313 4.54115 9.17687 4.54115 9.31532 4.3273C9.33363 4.2991 11.1658 1.49905 13.3125 1.49905C15.4838 1.49905 17.25 3.53885 17.25 6.04591C17.25 7.2273 16.8523 8.35047 16.1305 9.20814Z"/>
</svg>
