<svg width="82" height="82" viewBox="0 0 82 82" fill="none" xmlns="http://www.w3.org/2000/svg">
<g clip-path="url(#clip0_150:6)">
<path d="M37.3168 71.7576C36.6467 71.7576 36.0349 71.3241 35.8089 70.6948C35.586 70.074 35.7771 69.3617 36.2803 68.9352C36.8057 68.4899 37.5753 68.4323 38.1611 68.7953C38.7209 69.1421 39.0162 69.8231 38.8862 70.4683C38.7376 71.2068 38.0719 71.7576 37.3168 71.7576Z" fill="#1E7B67"/>
<path d="M28.714 79.3127C28.3472 79.3127 27.9811 79.1871 27.6839 78.9376C26.8509 78.238 7.2394 61.7383 3.33453 55.8134C0.833722 52.0182 -0.186299 48.5384 0.0276665 44.5304C0.243394 40.5009 1.94936 36.7173 4.83165 33.8765C7.75606 30.9937 11.5743 29.4062 15.5828 29.4062C21.7782 29.4062 26.5332 34.0132 28.717 36.6034C30.9662 34.0291 35.8351 29.4062 41.7928 29.4062C45.8016 29.4062 49.62 30.9937 52.5446 33.8763C55.427 36.7173 57.1332 40.5009 57.3487 44.5301C57.6236 49.6547 55.7269 53.2511 54.0436 55.8118C53.0262 57.3587 45.2105 64.861 43.654 66.3491C43.0146 66.9603 42.0007 66.9379 41.3895 66.2985C40.7782 65.6592 40.801 64.6454 41.4402 64.0341C45.8929 59.7767 50.8234 54.8789 51.367 54.0522C53.4954 50.8139 54.3277 48.0173 54.1501 44.7013C53.7932 38.0336 48.2497 32.6092 41.7926 32.6092C35.3561 32.6092 30.0519 40.0411 29.9992 40.1162C29.6948 40.5486 29.1968 40.8036 28.6677 40.7959C28.1387 40.7887 27.6477 40.5209 27.3551 40.0802C27.3064 40.0075 22.2868 32.6092 15.5828 32.6092C9.12634 32.6092 3.58309 38.0336 3.2261 44.7011C3.05122 47.9809 3.90964 50.8645 6.0091 54.0509C9.1896 58.8767 24.6909 72.1935 28.7635 75.6549L31.0686 73.8874C31.7704 73.3493 32.7758 73.4818 33.3141 74.1839C33.8522 74.8858 33.7196 75.8911 33.0176 76.4294L29.6885 78.9821C29.4004 79.203 29.0569 79.3127 28.714 79.3127Z" fill="#1E7B67"/>
<path d="M23.791 25.8093C23.4249 25.8093 23.059 25.6843 22.7611 25.4342C21.8601 24.6775 13.9089 17.9668 12.1999 15.3739C11.4664 14.2609 10.5067 12.4936 10.6393 10.0075C10.8591 5.90259 14.176 2.6875 18.1906 2.6875C20.6338 2.6875 22.5905 4.13129 23.7931 5.32844C25.0114 4.13145 26.9768 2.6875 29.3689 2.6875C33.3836 2.6875 36.7007 5.90259 36.9205 10.0072C37.0534 12.4875 36.0944 14.257 35.3614 15.3722C33.6416 17.9872 25.719 24.6792 24.8211 25.4337C24.5237 25.6842 24.1575 25.8093 23.791 25.8093ZM18.1908 5.89058C15.9172 5.89058 13.9645 7.81419 13.8378 10.1782C13.7736 11.3842 14.0836 12.4109 14.8746 13.6114C15.8701 15.1219 20.4185 19.2276 23.7907 22.1083C27.1504 19.2351 31.6833 15.1361 32.6852 13.6126C33.4765 12.4085 33.7869 11.3813 33.7225 10.1785C33.5958 7.81419 31.6431 5.89074 29.3692 5.89074C27.4916 5.89074 25.6037 7.97306 25.0905 8.70257C24.7862 9.13482 24.2944 9.39251 23.759 9.38226C23.23 9.37505 22.739 9.10728 22.4464 8.66653C21.9281 7.89763 20.1464 5.89058 18.1908 5.89058Z" fill="#1E7B67"/>
<path d="M62.9254 37.8521C62.5592 37.8521 62.1933 37.7272 61.8954 37.477C60.5407 36.3393 48.5871 26.2515 46.0639 22.4234C45.0174 20.8351 43.6479 18.3165 43.8358 14.7952C43.9827 12.0516 45.1439 9.47586 47.106 7.542C49.1012 5.57531 51.708 4.49219 54.4465 4.49219C58.2982 4.49219 61.3144 7.07787 62.934 8.85719C64.5935 7.0878 67.6603 4.49219 71.3704 4.49219C74.1091 4.49219 76.7159 5.57531 78.7113 7.542C80.6733 9.47586 81.8349 12.0516 81.9816 14.7949C82.1677 18.2688 80.8895 20.6956 79.7551 22.4216C77.1722 26.3489 64.4942 37.0241 63.9558 37.4766C63.6579 37.727 63.2916 37.8521 62.9254 37.8521ZM54.4466 7.69527C50.5741 7.69527 47.2492 10.957 47.0344 14.9659C46.9269 16.9815 47.4367 18.6847 48.7388 20.6609C50.4953 23.3261 58.7879 30.6292 62.925 34.1522C67.0484 30.6372 75.311 23.35 77.079 20.662C78.3812 18.6804 78.891 16.9768 78.7835 14.9663C78.5687 10.9571 75.2435 7.69543 71.3708 7.69543C67.532 7.69543 64.2505 12.2582 64.2178 12.3043C63.9172 12.7281 63.4292 12.9805 62.9106 12.9805C62.9025 12.9805 62.8941 12.9804 62.886 12.9804C62.3581 12.972 61.8675 12.7057 61.5754 12.2659C61.5466 12.2231 58.4644 7.69527 54.4466 7.69527Z" fill="#1E7B67"/>
</g>
<defs>
<clipPath id="clip0_150:6">
<rect width="82" height="82" fill="white"/>
</clipPath>
</defs>
</svg>
