<svg width="45" height="45" viewBox="0 0 45 45" fill="none" xmlns="http://www.w3.org/2000/svg">
<rect width="45" height="45" fill="#1E7B67"/>
<path d="M25.9056 19.863C26.3281 19.863 26.6706 19.5205 26.6706 19.098C26.6706 18.6755 26.3281 18.333 25.9056 18.333C25.4831 18.333 25.1406 18.6755 25.1406 19.098C25.1406 19.5205 25.4831 19.863 25.9056 19.863Z" fill="white"/>
<path d="M22.5001 19.2256C21.8527 19.2256 21.2198 19.4176 20.6814 19.7773C20.1431 20.137 19.7235 20.6482 19.4757 21.2464C19.228 21.8446 19.1632 22.5028 19.2895 23.1378C19.4158 23.7728 19.7276 24.3561 20.1854 24.8139C20.6432 25.2717 21.2265 25.5835 21.8615 25.7098C22.4965 25.8361 23.1547 25.7713 23.7529 25.5235C24.351 25.2758 24.8623 24.8562 25.222 24.3178C25.5817 23.7795 25.7737 23.1466 25.7737 22.4991C25.7737 21.6309 25.4288 20.7983 24.8149 20.1844C24.201 19.5705 23.3683 19.2256 22.5001 19.2256ZM22.5001 24.6241C22.0798 24.6241 21.669 24.4995 21.3195 24.266C20.9701 24.0325 20.6977 23.7006 20.5369 23.3124C20.376 22.9241 20.334 22.4968 20.416 22.0846C20.498 21.6724 20.7003 21.2937 20.9975 20.9965C21.2947 20.6994 21.6734 20.497 22.0856 20.415C22.4978 20.333 22.925 20.3751 23.3133 20.5359C23.7016 20.6967 24.0335 20.9691 24.267 21.3186C24.5005 21.668 24.6251 22.0789 24.6251 22.4991C24.6251 23.0627 24.4012 23.6032 24.0027 24.0018C23.6042 24.4003 23.0637 24.6241 22.5001 24.6241Z" fill="white"/>
<path d="M22.5 17.2736C24.2021 17.2736 24.404 17.2799 25.076 17.3107C25.4802 17.3155 25.8806 17.3898 26.2597 17.5302C26.5347 17.6362 26.7844 17.7987 26.9928 18.0072C27.2013 18.2156 27.3638 18.4653 27.4698 18.7403C27.6102 19.1194 27.6845 19.5198 27.6892 19.924C27.7201 20.596 27.7264 20.7979 27.7264 22.5005C27.7264 24.2032 27.7201 24.404 27.6892 25.076C27.6845 25.4802 27.6102 25.8806 27.4698 26.2597C27.3638 26.5347 27.2013 26.7844 26.9928 26.9928C26.7844 27.2013 26.5347 27.3638 26.2597 27.4698C25.8806 27.6102 25.4802 27.6845 25.076 27.6892C24.404 27.7201 24.2021 27.7264 22.5 27.7264C20.7979 27.7264 20.596 27.7201 19.924 27.6892C19.5198 27.6845 19.1194 27.6102 18.7403 27.4698C18.4653 27.3638 18.2156 27.2013 18.0072 26.9928C17.7987 26.7844 17.6362 26.5347 17.5302 26.2597C17.3898 25.8806 17.3155 25.4802 17.3107 25.076C17.2799 24.404 17.2736 24.2021 17.2736 22.5C17.2736 20.7979 17.2799 20.596 17.3107 19.924C17.3155 19.5198 17.3898 19.1194 17.5302 18.7403C17.6362 18.4653 17.7987 18.2156 18.0072 18.0072C18.2156 17.7987 18.4653 17.6362 18.7403 17.5302C19.1194 17.3898 19.5198 17.3155 19.924 17.3107C20.596 17.2799 20.7979 17.2736 22.5 17.2736ZM22.5 16.125C20.7687 16.125 20.5514 16.1324 19.8714 16.1633C19.3427 16.1739 18.8196 16.2742 18.3244 16.4597C17.9008 16.6235 17.5162 16.8739 17.1951 17.1951C16.8739 17.5162 16.6235 17.9008 16.4597 18.3244C16.2741 18.8198 16.1739 19.343 16.1633 19.8719C16.1324 20.5519 16.125 20.7681 16.125 22.5C16.125 24.2319 16.1324 24.4486 16.1633 25.1286C16.1739 25.6573 16.2742 26.1804 16.4597 26.6756C16.6235 27.0992 16.8739 27.4838 17.1951 27.8049C17.5162 28.1261 17.9008 28.3765 18.3244 28.5403C18.8198 28.7259 19.343 28.8261 19.8719 28.8368C20.5519 28.8676 20.7687 28.875 22.5 28.875C24.2313 28.875 24.4486 28.8676 25.1286 28.8368C25.6575 28.8261 26.1808 28.7259 26.6762 28.5403C27.0997 28.3765 27.4844 28.1261 27.8055 27.8049C28.1266 27.4838 28.3771 27.0992 28.5408 26.6756C28.7263 26.1802 28.8263 25.657 28.8368 25.1281C28.8676 24.4481 28.875 24.2319 28.875 22.5C28.875 20.7681 28.8676 20.5514 28.8368 19.8714C28.8261 19.3427 28.7258 18.8196 28.5403 18.3244C28.3765 17.9008 28.1261 17.5162 27.8049 17.1951C27.4838 16.8739 27.0992 16.6235 26.6756 16.4597C26.1802 16.2743 25.657 16.1742 25.1281 16.1638C24.4481 16.1319 24.2319 16.125 22.5 16.125Z" fill="white"/>
</svg>
