<svg id="pin" viewBox="0 0 13 16" xmlns="http://www.w3.org/2000/svg">
<path d="M5.648 10.2527C5.24212 12.3635 4.748 14.3877 3.28169 15.4447C2.83009 12.2544 3.94666 9.85777 4.46484 7.31405C3.58089 5.83505 4.57153 2.85769 6.4357 3.591C8.72982 4.49388 4.4488 9.09039 7.32287 9.66496C10.3237 10.2643 11.5493 4.49001 9.68837 2.61145C6.9996 -0.0995266 1.86191 2.55028 2.49399 6.43207C2.648 7.38141 3.63383 7.66947 2.88784 8.97966C1.16725 8.59946 0.653885 7.25055 0.720463 5.45175C0.826345 2.50924 3.38116 0.447935 5.94319 0.162976C9.18383 -0.197868 12.2247 1.3454 12.6443 4.37541C13.1175 7.79491 11.182 11.4994 7.71752 11.2322C6.77821 11.1602 6.38356 10.6979 5.648 10.2527Z"/>
</svg>
