<svg width="45" height="45" viewBox="0 0 45 45" fill="none" xmlns="http://www.w3.org/2000/svg">
<rect width="45" height="45" fill="#1E7B67"/>
<path d="M22.6716 15.7002C18.9316 15.7002 16.9766 18.0802 16.9766 20.7152C16.9766 21.9902 17.6566 23.2652 18.7616 23.9452C19.1016 24.1152 19.0166 23.9452 19.2716 22.9252C19.2716 22.8402 19.2716 22.7552 19.1866 22.6702C17.6566 20.8002 18.9316 17.1452 22.5016 17.1452C27.6866 17.1452 26.6666 24.2852 23.4366 24.2852C22.7566 24.3702 22.1616 23.8602 22.1616 23.1802V22.8402C22.5016 21.9052 22.7566 21.0552 22.8416 20.1202C22.8416 18.3352 20.2066 18.5902 20.2066 20.9702C20.2066 21.3952 20.2916 21.8202 20.4616 22.1602C20.4616 22.1602 19.6116 25.6452 19.4416 26.2402C19.2716 27.2602 19.3566 28.2802 19.5266 29.2152C19.4416 29.3002 19.5266 29.3002 19.5266 29.3002H19.6116C20.2066 28.4502 20.7166 27.6002 21.0566 26.6652C21.1416 26.2402 21.5666 24.7102 21.5666 24.7102C21.9916 25.3052 22.7566 25.6452 23.5216 25.6452C26.1566 25.6452 28.0266 23.3502 28.0266 20.5452C28.0266 17.7402 25.6466 15.7002 22.6716 15.7002Z" fill="white"/>
</svg>
