<svg id="quote-left" viewBox="0 0 102 102" fill="none" xmlns="http://www.w3.org/2000/svg">
<path d="M8.71387 37.0642L8.82013 36.3503L8.93063 36.3757C9.68582 32.8442 11.4255 29.5986 13.9484 27.0145C16.4713 24.4304 19.6743 22.6135 23.1868 21.774C26.6993 20.9344 30.3778 21.1065 33.7965 22.2705C37.2152 23.4344 40.2346 25.5425 42.5051 28.3509C44.7757 31.1593 46.2047 34.5531 46.6267 38.1398C47.0488 41.7265 46.4467 45.3594 44.8901 48.6182C43.3336 51.8769 40.8861 54.6284 37.8309 56.5541C34.7758 58.4799 31.2378 59.5012 27.6264 59.5C26.6786 59.5 25.7691 59.3555 24.8639 59.2237C25.1571 60.2097 25.4589 61.2127 25.9434 62.1137C26.4279 63.4227 27.1844 64.5575 27.9366 65.7007C28.5656 66.9375 29.6749 67.7747 30.4909 68.833C31.3451 69.8615 32.5096 70.5457 33.4319 71.4C34.3371 72.2925 35.5229 72.7387 36.4664 73.3677C37.4524 73.933 38.3109 74.5577 39.2289 74.8552L41.5196 75.7987L43.5341 76.636L41.4771 84.8767L38.9399 84.2647C38.1281 84.0607 37.1379 83.8227 36.0116 83.538C34.8599 83.3255 33.6316 82.7432 32.2631 82.212C30.9159 81.6042 29.3476 81.2005 27.8941 80.2272C26.4321 79.3007 24.7449 78.5272 23.2574 77.2862C21.8166 76.007 20.0784 74.8977 18.7949 73.2742C17.3924 71.7527 16.0069 70.1547 14.9316 68.3357C13.6864 66.6017 12.8406 64.6977 11.9481 62.815C11.1406 60.9322 10.4904 59.007 9.95913 57.137C8.95188 53.3885 8.50137 49.827 8.32713 46.7797C8.18262 43.7282 8.26762 41.191 8.44613 39.355C8.50585 38.5883 8.59517 37.8241 8.71387 37.0642ZM55.4639 37.0642L55.5701 36.3503L55.6806 36.3757C56.4358 32.8442 58.1755 29.5986 60.6984 27.0145C63.2213 24.4304 66.4243 22.6135 69.9368 21.774C73.4493 20.9344 77.1278 21.1065 80.5465 22.2705C83.9652 23.4344 86.9846 25.5425 89.2551 28.3509C91.5257 31.1593 92.9547 34.5531 93.3767 38.1398C93.7988 41.7265 93.1967 45.3594 91.6401 48.6182C90.0836 51.8769 87.6361 54.6284 84.5809 56.5541C81.5258 58.4799 77.9878 59.5012 74.3764 59.5C73.4286 59.5 72.5191 59.3555 71.6139 59.2237C71.9071 60.2097 72.2089 61.2127 72.6934 62.1137C73.1779 63.4227 73.9344 64.5575 74.6866 65.7007C75.3156 66.9375 76.4249 67.7747 77.2409 68.833C78.0951 69.8615 79.2596 70.5457 80.1819 71.4C81.0871 72.2925 82.2729 72.7387 83.2164 73.3677C84.2024 73.933 85.0609 74.5577 85.9789 74.8552L88.2696 75.7987C89.5489 76.3215 90.2799 76.6275 90.2799 76.6275L88.2229 84.8682L85.6856 84.2562C84.8739 84.0522 83.8836 83.8142 82.7574 83.5295C81.6056 83.317 80.3774 82.7347 79.0089 82.2035C77.6616 81.5957 76.0934 81.192 74.6399 80.2187C73.1779 79.2922 71.4906 78.5187 70.0031 77.2777C68.5624 75.9985 66.8241 74.8892 65.5406 73.2657C64.1381 71.7442 62.7526 70.1462 61.6774 68.3272C60.4321 66.5932 59.5864 64.6892 58.6939 62.8065C57.8864 60.9237 57.2361 58.9985 56.7049 57.1285C55.6976 53.38 55.2471 49.8185 55.0729 46.7712C54.9284 43.7197 55.0134 41.1825 55.1919 39.3465C55.2553 38.5828 55.3461 37.8215 55.4639 37.0642Z" fill="white" fill-opacity="0.2"/>
</svg>
