<svg id="quote-right" viewBox="0 0 102 102" fill="none" xmlns="http://www.w3.org/2000/svg">
<path d="M93.2861 37.0642L93.1799 36.3503L93.0694 36.3757C92.3142 32.8442 90.5745 29.5986 88.0516 27.0145C85.5287 24.4304 82.3257 22.6135 78.8132 21.774C75.3007 20.9344 71.6222 21.1065 68.2035 22.2705C64.7848 23.4344 61.7654 25.5425 59.4949 28.3509C57.2243 31.1593 55.7953 34.5531 55.3733 38.1398C54.9512 41.7265 55.5533 45.3594 57.1099 48.6182C58.6664 51.8769 61.1139 54.6284 64.1691 56.5541C67.2242 58.4799 70.7622 59.5012 74.3736 59.5C75.3214 59.5 76.2309 59.3555 77.1361 59.2237C76.8429 60.2097 76.5411 61.2127 76.0566 62.1137C75.5721 63.4227 74.8156 64.5575 74.0634 65.7007C73.4344 66.9375 72.3251 67.7747 71.5091 68.833C70.6549 69.8615 69.4904 70.5457 68.5681 71.4C67.6629 72.2925 66.4771 72.7387 65.5336 73.3677C64.5476 73.933 63.6891 74.5577 62.7711 74.8552L60.4804 75.7987L58.4659 76.636L60.5229 84.8767L63.0601 84.2647C63.8719 84.0607 64.8621 83.8227 65.9884 83.538C67.1401 83.3255 68.3684 82.7432 69.7369 82.212C71.0841 81.6042 72.6524 81.2005 74.1059 80.2272C75.5679 79.3007 77.2551 78.5272 78.7426 77.2862C80.1834 76.007 81.9216 74.8977 83.2051 73.2742C84.6076 71.7527 85.9931 70.1547 87.0684 68.3357C88.3136 66.6017 89.1594 64.6977 90.0519 62.815C90.8594 60.9322 91.5096 59.007 92.0409 57.137C93.0481 53.3885 93.4986 49.827 93.6729 46.7797C93.8174 43.7282 93.7324 41.191 93.5539 39.355C93.4941 38.5883 93.4048 37.8241 93.2861 37.0642ZM46.5361 37.0642L46.4299 36.3503L46.3194 36.3757C45.5642 32.8442 43.8245 29.5986 41.3016 27.0145C38.7787 24.4304 35.5757 22.6135 32.0632 21.774C28.5507 20.9344 24.8722 21.1065 21.4535 22.2705C18.0348 23.4344 15.0154 25.5425 12.7449 28.3509C10.4743 31.1593 9.04534 34.5531 8.62326 38.1398C8.20119 41.7265 8.80327 45.3594 10.3599 48.6182C11.9164 51.8769 14.3639 54.6284 17.4191 56.5541C20.4742 58.4799 24.0122 59.5012 27.6236 59.5C28.5714 59.5 29.4809 59.3555 30.3861 59.2237C30.0929 60.2097 29.7911 61.2127 29.3066 62.1137C28.8221 63.4227 28.0656 64.5575 27.3134 65.7007C26.6844 66.9375 25.5751 67.7747 24.7591 68.833C23.9049 69.8615 22.7404 70.5457 21.8181 71.4C20.9129 72.2925 19.7271 72.7387 18.7836 73.3677C17.7976 73.933 16.9391 74.5577 16.0211 74.8552L13.7304 75.7987C12.4511 76.3215 11.7201 76.6275 11.7201 76.6275L13.7771 84.8682L16.3144 84.2562C17.1261 84.0522 18.1164 83.8142 19.2426 83.5295C20.3944 83.317 21.6226 82.7347 22.9911 82.2035C24.3384 81.5957 25.9066 81.192 27.3601 80.2187C28.8221 79.2922 30.5094 78.5187 31.9969 77.2777C33.4376 75.9985 35.1759 74.8892 36.4594 73.2657C37.8619 71.7442 39.2474 70.1462 40.3226 68.3272C41.5679 66.5932 42.4136 64.6892 43.3061 62.8065C44.1136 60.9237 44.7639 58.9985 45.2951 57.1285C46.3024 53.38 46.7529 49.8185 46.9271 46.7712C47.0716 43.7197 46.9866 41.1825 46.8081 39.3465C46.7447 38.5828 46.6539 37.8215 46.5361 37.0642Z" fill="white" fill-opacity="0.2"/>
</svg>
