<svg  id="select-arrow" width="10" height="6" viewBox="0 0 10 6" fill="none" xmlns="http://www.w3.org/2000/svg">
<path d="M5.00008 5.99898C4.86378 5.99933 4.73169 5.9383 4.62675 5.82649L1.12675 2.07649C1.00762 1.94918 0.932706 1.76625 0.918484 1.56793C0.904262 1.36961 0.951899 1.17215 1.05091 1.01899C1.14993 0.865823 1.29221 0.769505 1.44646 0.751221C1.60071 0.732936 1.75429 0.794182 1.87341 0.921486L5.00008 4.28149L8.12675 1.04149C8.18641 0.979187 8.25507 0.932663 8.32877 0.904589C8.40247 0.876515 8.47975 0.867445 8.55619 0.877899C8.63262 0.888354 8.70669 0.918126 8.77415 0.965507C8.8416 1.01289 8.90111 1.07694 8.94925 1.15399C9.00267 1.2311 9.04313 1.32157 9.06809 1.41973C9.09305 1.51788 9.10198 1.62161 9.09431 1.72441C9.08665 1.8272 9.06255 1.92686 9.02354 2.01712C8.98452 2.10739 8.93143 2.18633 8.86758 2.24899L5.36758 5.87148C5.25961 5.96562 5.13022 6.01051 5.00008 5.99898Z" fill="black"/>
</svg>
