<svg width="45" height="45" viewBox="0 0 45 45" fill="none" xmlns="http://www.w3.org/2000/svg">
<rect width="45" height="45" fill="#1E7B67"/>
<path d="M27.908 19.6644C27.9172 19.7884 27.9172 19.9116 27.9172 20.0349C27.9172 23.8068 25.0463 28.1531 19.7997 28.1531C18.1833 28.1531 16.6816 27.6849 15.418 26.8717C15.6475 26.8979 15.8685 26.9071 16.1072 26.9071C17.3914 26.9102 18.6392 26.4808 19.6496 25.6881C19.0541 25.6773 18.477 25.4809 17.9986 25.1262C17.5202 24.7715 17.1646 24.2763 16.9813 23.7097C17.1576 23.7359 17.3347 23.7536 17.5203 23.7536C17.776 23.7536 18.0331 23.7182 18.2718 23.6566C17.6257 23.5261 17.0446 23.1759 16.6275 22.6654C16.2104 22.1549 15.983 21.5158 15.9839 20.8566V20.8211C16.3643 21.0329 16.8056 21.1654 17.2731 21.1831C16.8814 20.9228 16.5603 20.5697 16.3383 20.1552C16.1164 19.7406 16.0004 19.2776 16.0009 18.8073C16.0009 18.2775 16.1419 17.7916 16.3891 17.368C17.106 18.2499 18.0002 18.9714 19.0137 19.4857C20.0272 20 21.1374 20.2957 22.2725 20.3536C22.2286 20.1411 22.2017 19.9208 22.2017 19.6998C22.2015 19.3251 22.2752 18.954 22.4185 18.6078C22.5618 18.2615 22.772 17.9469 23.0369 17.6819C23.3019 17.417 23.6165 17.2068 23.9628 17.0635C24.309 16.9202 24.6801 16.8465 25.0548 16.8467C25.8765 16.8467 26.6181 17.1909 27.1395 17.7477C27.7782 17.6242 28.3908 17.391 28.95 17.0585C28.7371 17.7178 28.291 18.2769 27.6955 18.631C28.262 18.5664 28.8157 18.4174 29.3381 18.189C28.9479 18.7578 28.4644 19.2567 27.908 19.6644Z" fill="white"/>
</svg>
