<svg id="twit" viewBox="0 0 15 13" xmlns="http://www.w3.org/2000/svg">
<path d="M13.1495 3.01326C13.1592 3.14582 13.1592 3.27762 13.1592 3.40942C13.1592 7.44301 10.1368 12.0909 4.61311 12.0909C2.91135 12.0909 1.33039 11.5902 0 10.7206C0.241618 10.7487 0.474287 10.7585 0.7256 10.7585C2.07761 10.7618 3.39134 10.3026 4.45502 9.45488C3.82817 9.44335 3.22051 9.23328 2.71689 8.85399C2.21327 8.47471 1.83882 7.94514 1.64584 7.33923C1.83152 7.36726 2.01796 7.3862 2.21334 7.3862C2.48255 7.3862 2.75325 7.34832 3.00456 7.28242C2.32428 7.1429 1.71256 6.76836 1.27343 6.22247C0.834301 5.67658 0.594867 4.99305 0.595842 4.2881V4.25023C0.996301 4.47671 1.46089 4.61836 1.95308 4.6373C1.54075 4.35899 1.20266 3.98134 0.968962 3.53803C0.735264 3.09473 0.613227 2.59956 0.613739 2.09671C0.613739 1.53011 0.762141 1.01048 1.0224 0.557506C1.77719 1.50058 2.71858 2.27211 3.7856 2.82212C4.85262 3.37212 6.02148 3.68834 7.21647 3.75029C7.17024 3.52304 7.1419 3.28747 7.1419 3.05113C7.1417 2.6504 7.21926 2.25355 7.37015 1.88328C7.52104 1.51301 7.74229 1.17658 8.02126 0.893212C8.30023 0.609849 8.63144 0.385112 8.99597 0.231849C9.3605 0.0785853 9.75119 -0.000198747 10.1457 3.76516e-07C11.0108 3.76516e-07 11.7916 0.368136 12.3404 0.963516C13.0129 0.831424 13.6578 0.582065 14.2465 0.226487C14.0224 0.931562 13.5528 1.52943 12.9258 1.90809C13.5222 1.839 14.1051 1.67968 14.6552 1.43543C14.2444 2.04376 13.7353 2.57721 13.1495 3.01326Z"/>
</svg>
