<svg  aria-hidden="true" style="position: absolute; width: 0; height: 0; overflow: hidden;" version="1.1" xmlns="http://www.w3.org/2000/svg" xmlns:xlink="http://www.w3.org/1999/xlink">
<defs>

<symbol id="icon-cake" viewBox="0 0 78 78" >
<g clip-path="url(#clip0_216:6191)">
<path d="M74.4566 70.8691H71.7458V53.1171C71.7458 50.3871 69.5248 48.166 66.7947 48.166H65.6521V35.4414C65.6521 32.7114 63.4311 30.4903 60.7009 30.4903H57.832V29.0046C57.832 28.3736 57.3206 27.862 56.6894 27.862C56.0582 27.862 55.5468 28.3736 55.5468 29.0046V30.4903H52.7501V22.5394H55.5468V24.0249C55.5468 24.656 56.0582 25.1675 56.6894 25.1675C57.3206 25.1675 57.832 24.656 57.832 24.0249V22.1586C57.832 21.1085 56.9778 20.2543 55.9277 20.2543H55.2872V18.5078C57.2445 18.1798 58.9439 17.0147 59.964 15.2478C61.1779 13.1453 61.1779 10.635 59.964 8.5325L55.5182 0.831984C55.2365 0.34418 54.7118 0.041168 54.1486 0.041168C53.5852 0.041168 53.0604 0.34418 52.779 0.831832L48.3329 8.53266C47.119 10.6352 47.1189 13.1455 48.3329 15.248C49.3518 17.0127 51.0481 18.1771 53.0021 18.5068V20.2544H52.3692C51.3191 20.2544 50.4649 21.1086 50.4649 22.1587V30.4904H42.6835V22.1587C42.6835 21.1086 41.8293 20.2544 40.7792 20.2544H40.1409V18.5077C42.0971 18.1792 43.7958 17.0144 44.8156 15.248C46.0296 13.1455 46.0296 10.6352 44.8157 8.53266L40.3696 0.83168C40.0879 0.344027 39.5631 0.041168 39 0.041168C38.4369 0.041168 37.9121 0.34418 37.6306 0.831832L33.1844 8.53266C31.9706 10.6352 31.9706 13.1455 33.1844 15.248C34.2036 17.0133 35.9007 18.1778 37.8556 18.5071V20.2544H37.2208C36.1707 20.2544 35.3165 21.1086 35.3165 22.1587V30.4904H27.5351V22.1587C27.5351 21.1086 26.6809 20.2544 25.6308 20.2544H24.9941V18.5074C26.9498 18.1786 28.6478 17.0138 29.6673 15.2478C30.8811 13.1453 30.881 10.635 29.6671 8.5325L25.2211 0.83168C24.9394 0.344027 24.4146 0.0410156 23.8515 0.0410156C23.2885 0.0410156 22.7637 0.344027 22.482 0.83168L18.036 8.53266C16.8221 10.6352 16.8221 13.1455 18.036 15.248C19.0555 17.0138 20.7535 18.1786 22.709 18.5074V20.2544H22.0723C21.0222 20.2544 20.168 21.1086 20.168 22.1587V30.4904H17.2989C14.5689 30.4904 12.3478 32.7116 12.3478 35.4416V48.1661H11.2052C8.47519 48.1661 6.25402 50.3873 6.25402 53.1173V63.3336C6.25402 63.9646 6.76559 64.4762 7.39659 64.4762C8.0276 64.4762 8.53917 63.9646 8.53917 63.3336V61.6333C10.1223 61.8064 11.0493 62.3411 12.0915 62.9441C13.4503 63.7301 14.9905 64.6211 17.9307 64.6211C20.8708 64.6211 22.411 63.7301 23.7697 62.9441C25.0404 62.209 26.1378 61.5742 28.4645 61.5742C30.7914 61.5742 31.8889 62.209 33.1594 62.9441C34.5182 63.7301 36.0584 64.6211 38.9986 64.6211C41.9389 64.6211 43.4792 63.7301 44.838 62.9441C46.1088 62.209 47.2063 61.5742 49.5332 61.5742C51.8602 61.5742 52.9577 62.209 54.2286 62.9441C55.5875 63.7301 57.1277 64.6211 60.0681 64.6211C63.0086 64.6211 64.5488 63.7301 65.9077 62.9441C66.9501 62.3411 67.8772 61.8064 69.4605 61.6333V70.869H8.53932V68.313C8.53932 67.6819 8.02775 67.1704 7.39675 67.1704C6.76574 67.1704 6.25417 67.6819 6.25417 68.313V70.869H3.54336C1.58955 70.8691 0 72.4585 0 74.4123C0 76.3661 1.58955 77.9557 3.54336 77.9557H74.4566C76.4104 77.9557 78 76.3661 78 74.4123C78 72.4585 76.4104 70.8691 74.4566 70.8691ZM52.725 15.4986C52.4279 14.984 52.4279 14.3694 52.725 13.8548L54.1486 11.3891L55.5721 13.8548C55.8692 14.3694 55.8692 14.984 55.5721 15.4986C55.275 16.0132 54.7429 16.3205 54.1485 16.3205C53.5542 16.3205 53.022 16.0132 52.725 15.4986ZM50.3118 9.67523L54.1483 3.03L57.9851 9.67523C58.7712 11.0367 58.7837 12.6569 58.0265 14.0278C57.949 13.5743 57.7919 13.1295 57.5509 12.7122L55.3279 8.86172C55.0852 8.44171 54.6332 8.18089 54.1485 8.18089C53.6634 8.18089 53.2115 8.44171 52.9689 8.86187L50.7459 12.7124C50.5048 13.1296 50.3478 13.5745 50.2702 14.0282C49.5132 12.6569 49.5257 11.0367 50.3118 9.67523ZM37.5765 15.4986C37.2793 14.984 37.2793 14.3694 37.5763 13.8548L39 11.3891L40.4237 13.8548C40.7207 14.3696 40.7207 14.9841 40.4235 15.4987C40.1264 16.0133 39.5943 16.3206 39 16.3206C38.4057 16.3205 37.8736 16.0132 37.5765 15.4986ZM35.1634 9.67523L39 3.02985L42.8368 9.67523C43.6227 11.0367 43.6352 12.6568 42.8782 14.0278C42.8007 13.5743 42.6436 13.1295 42.4027 12.7124L40.1797 8.86218C39.9374 8.44201 39.4854 8.18105 39.0003 8.18089H39.0002C38.5151 8.18089 38.0632 8.44171 37.8206 8.86187L35.5976 12.7124C35.3567 13.1296 35.1995 13.5745 35.1221 14.028C34.3648 12.6569 34.3773 11.0367 35.1634 9.67523ZM22.428 15.4986C22.1308 14.984 22.131 14.3694 22.428 13.8548L23.8517 11.3891L25.2752 13.8548C25.5723 14.3694 25.5723 14.984 25.275 15.4986C24.978 16.0132 24.4458 16.3205 23.8515 16.3205C23.2573 16.3205 22.7251 16.0132 22.428 15.4986ZM20.0149 9.67523L23.8515 3.03L27.6882 9.67523C28.4743 11.0367 28.4868 12.6569 27.7296 14.0278C27.6521 13.5743 27.495 13.1295 27.2541 12.7122L25.031 8.86172C24.7885 8.44171 24.3365 8.18089 23.8515 8.18089C23.8514 8.18089 23.8512 8.18089 23.8512 8.18089C23.3662 8.18089 22.9143 8.44201 22.6719 8.86187L20.4489 12.7124C20.2081 13.1296 20.0509 13.5745 19.9733 14.0282C19.2163 12.6569 19.2288 11.0367 20.0149 9.67523ZM37.6016 22.5394H40.3984V30.4903H37.6016V22.5394ZM22.4532 22.5394H25.2499V30.4903H22.4532V22.5394ZM14.6331 40.9506C15.6585 41.1458 16.3066 41.6095 17.0762 42.1612C18.2125 42.9754 19.5003 43.8985 21.9931 43.8985C24.4859 43.8985 25.7738 42.9754 26.91 42.1612C27.9309 41.4295 28.7372 40.8516 30.4957 40.8516C32.2544 40.8516 33.0607 41.4296 34.0817 42.1612C34.6536 42.5711 35.2452 42.9949 36.0231 43.3295C36.6032 43.5786 37.2749 43.3109 37.5241 42.7312C37.7733 42.1514 37.5055 41.4794 36.9258 41.2302C36.3751 40.9935 35.9077 40.6585 35.4129 40.3038C34.2766 39.4895 32.9887 38.5665 30.4957 38.5665C28.0029 38.5665 26.715 39.4895 25.5788 40.3038C24.558 41.0355 23.7516 41.6133 21.9931 41.6133C20.2346 41.6133 19.4284 41.0355 18.4074 40.3038C17.4595 39.6245 16.4035 38.8716 14.6331 38.6399V35.4414C14.6331 33.9715 15.8291 32.7754 17.2991 32.7754H60.7011C62.171 32.7754 63.3671 33.9715 63.3671 35.4414V38.6399C61.5965 38.8715 60.5402 39.6243 59.5923 40.3036C58.5711 41.0353 57.7646 41.6133 56.0057 41.6133C54.2469 41.6133 53.4404 41.0355 52.4192 40.3038C51.2829 39.4895 49.995 38.5665 47.5019 38.5665C45.009 38.5665 43.7213 39.4894 42.585 40.3036C42.0825 40.6636 41.6081 41.0038 41.0457 41.2413C40.4645 41.4869 40.1921 42.1571 40.4377 42.7384C40.6831 43.3197 41.3542 43.5918 41.9347 43.3464C42.732 43.0096 43.3611 42.5588 43.9163 42.161C44.9371 41.4295 45.7435 40.8515 47.502 40.8515C49.2608 40.8515 50.0673 41.4295 51.0885 42.161C52.2248 42.9753 53.5127 43.8983 56.0058 43.8983C58.4989 43.8983 59.787 42.9753 60.9233 42.161C61.6931 41.6094 62.3415 41.1456 63.3672 40.9505V48.1658H14.6331V40.9506ZM64.7638 60.966C63.4929 61.7011 62.3953 62.3359 60.0682 62.3359C57.7412 62.3359 56.6437 61.7011 55.3728 60.966C54.0139 60.1799 52.4737 59.289 49.5334 59.289C46.593 59.289 45.0528 60.1799 43.6939 60.966C42.4232 61.7011 41.3257 62.3359 38.9988 62.3359C36.6719 62.3359 35.5746 61.7011 34.3039 60.966C32.9451 60.1799 31.4049 59.289 28.4647 59.289C25.5246 59.289 23.9844 60.1799 22.6256 60.966C21.3551 61.7011 20.2578 62.3359 17.931 62.3359C15.6041 62.3359 14.5068 61.7011 13.2361 60.966C12.0656 60.2889 10.7581 59.5355 8.53948 59.3393V53.1173C8.53948 51.6473 9.73553 50.4513 11.2055 50.4513H66.795C68.2649 50.4513 69.461 51.6473 69.461 53.1173V59.3393C67.2419 59.5354 65.9344 60.2889 64.7638 60.966ZM74.4566 75.6705H3.54336C2.84959 75.6705 2.28516 75.1061 2.28516 74.4123C2.28516 73.7186 2.84959 73.1543 3.54336 73.1543H74.4566C75.1504 73.1543 75.7148 73.7187 75.7148 74.4123C75.7148 75.1061 75.1504 75.6705 74.4566 75.6705Z" fill="#B378D4"/>
<path d="M30.4238 43.4863C29.7928 43.4863 29.2812 43.9979 29.2812 44.6289C29.2812 45.2599 29.7928 45.7715 30.4238 45.7715C31.0548 45.7715 31.5664 45.2599 31.5664 44.6289C31.5664 43.9979 31.0548 43.4863 30.4238 43.4863Z" fill="#B378D4"/>
<path d="M32.373 66.9668C32.373 66.3358 31.8615 65.8242 31.2305 65.8242C30.5995 65.8242 30.0879 66.3358 30.0879 66.9668C30.0879 67.5978 30.5995 68.1094 31.2305 68.1094C31.8615 68.1094 32.373 67.5978 32.373 66.9668Z" fill="#B378D4"/>
<path d="M47.9121 66.9668C47.9121 66.3358 47.4005 65.8242 46.7695 65.8242C46.1385 65.8242 45.627 66.3358 45.627 66.9668C45.627 67.5978 46.1385 68.1094 46.7695 68.1094C47.4005 68.1094 47.9121 67.5978 47.9121 66.9668Z" fill="#B378D4"/>
<path d="M16.832 66.9668C16.832 66.3358 16.3205 65.8242 15.6895 65.8242C15.0584 65.8242 14.5469 66.3358 14.5469 66.9668C14.5469 67.5978 15.0584 68.1094 15.6895 68.1094C16.3205 68.1094 16.832 67.5978 16.832 66.9668Z" fill="#B378D4"/>
<path d="M63.4531 66.9668C63.4531 66.3358 62.9416 65.8242 62.3105 65.8242C61.6795 65.8242 61.168 66.3358 61.168 66.9668C61.168 67.5978 61.6795 68.1094 62.3105 68.1094C62.9416 68.1094 63.4531 67.5978 63.4531 66.9668Z" fill="#B378D4"/>
<path d="M47.5996 43.4863C46.9686 43.4863 46.457 43.9979 46.457 44.6289C46.457 45.2599 46.9686 45.7715 47.5996 45.7715C48.2306 45.7715 48.7422 45.2599 48.7422 44.6289C48.7422 43.9979 48.2308 43.4863 47.5996 43.4863Z" fill="#B378D4"/>
</g>
<defs>
<clipPath id="clip0_216:6191">
<rect width="78" height="78" fill="white"/>
</clipPath>
</defs>
</symbol>

<symbol id="icon-flower" viewBox="0 0 78 78" >
<g clip-path="url(#clip0_220:6305)">
<path d="M65.2827 29.4092H53.3649L51.5124 22.0849C51.082 20.3753 49.5332 19.1797 47.7506 19.1797H31.1052C29.3225 19.1797 27.7738 20.3753 27.3421 22.0849L25.4909 29.4092H13.5731C10.009 29.4092 7.10938 32.2773 7.10938 35.8026V63.9338C7.10938 67.4591 10.009 70.3272 13.5731 70.3272H65.2827C68.8468 70.3272 71.7464 67.4591 71.7464 63.9338V35.8026C71.7464 32.2773 68.8468 29.4092 65.2827 29.4092ZM69.1609 63.9338C69.1609 66.0487 67.4209 67.7698 65.2827 67.7698H13.5731C11.4349 67.7698 9.69486 66.0487 9.69486 63.9338V35.8026C9.69486 33.6877 11.4349 31.9666 13.5731 31.9666H26.5005C27.0939 31.9666 27.6097 31.5676 27.7544 30.9986L29.85 22.7063C29.9948 22.136 30.5106 21.7371 31.1052 21.7371H47.7519C48.3452 21.7371 48.861 22.136 49.0058 22.7063L51.1013 30.9986C51.2461 31.5676 51.7619 31.9666 52.3553 31.9666H65.2827C67.4209 31.9666 69.1609 33.6877 69.1609 35.8026V63.9338Z" fill="#B378D4"/>
<path d="M39.4289 34.5254C30.8748 34.5254 23.916 41.4086 23.916 49.8697C23.916 58.3307 30.8748 65.2139 39.4289 65.2139C47.983 65.2139 54.9418 58.3307 54.9418 49.8697C54.9418 41.4086 47.983 34.5254 39.4289 34.5254ZM39.4289 62.6565C32.3007 62.6565 26.5015 56.9203 26.5015 49.8697C26.5015 42.819 32.3007 37.0828 39.4289 37.0828C46.5571 37.0828 52.3563 42.819 52.3563 49.8697C52.3563 56.9203 46.5571 62.6565 39.4289 62.6565Z" fill="#B378D4"/>
<path d="M39.4279 39.6387C33.7256 39.6387 29.0859 44.2279 29.0859 49.8682C29.0859 55.5085 33.7256 60.0977 39.4279 60.0977C45.1301 60.0977 49.7698 55.5085 49.7698 49.8682C49.7698 44.2279 45.1301 39.6387 39.4279 39.6387ZM39.4279 57.5403C35.1502 57.5403 31.6714 54.0994 31.6714 49.8682C31.6714 45.637 35.1502 42.196 39.4279 42.196C43.7055 42.196 47.1843 45.637 47.1843 49.8682C47.1843 54.0994 43.7055 57.5403 39.4279 57.5403Z" fill="#B378D4"/>
<path d="M1.93922 12.7871C1.22434 12.7871 0.646484 13.36 0.646484 14.0658V26.8527H3.23197V15.3445H14.8666V12.7871H1.93922Z" fill="#B378D4"/>
<path d="M75.6249 63.9336V75.4418H63.9902V77.9992H76.9176C77.6325 77.9992 78.2104 77.4263 78.2104 76.7205V63.9336H75.6249Z" fill="#B378D4"/>
<path d="M3.23197 75.4418V63.9336H0.646484V76.7205C0.646484 77.4263 1.22434 77.9992 1.93922 77.9992H14.8666V75.4418H3.23197Z" fill="#B378D4"/>
<path d="M20.0377 34.5254H13.574C12.8591 34.5254 12.2812 35.0982 12.2812 35.8041V42.1975C12.2812 42.9034 12.8591 43.4762 13.574 43.4762H20.0377C20.7526 43.4762 21.3304 42.9034 21.3304 42.1975V35.8041C21.3304 35.0982 20.7526 34.5254 20.0377 34.5254ZM18.745 40.9188H14.8667V37.0828H18.745V40.9188Z" fill="#B378D4"/>
<path d="M76.9174 7.67274C74.0656 7.67274 71.7465 5.37877 71.7465 2.55799C71.7465 1.85215 71.1686 1.2793 70.4537 1.2793C69.7388 1.2793 69.161 1.85215 69.161 2.55799C69.161 5.37877 66.8418 7.67274 63.99 7.67274C63.2751 7.67274 62.6973 8.24559 62.6973 8.95143C62.6973 9.65726 63.2751 10.2301 63.99 10.2301C66.8418 10.2301 69.161 12.5241 69.161 15.3449C69.161 16.0507 69.7388 16.6236 70.4537 16.6236C71.1686 16.6236 71.7465 16.0507 71.7465 15.3449C71.7465 12.5241 74.0656 10.2301 76.9174 10.2301C77.6323 10.2301 78.2102 9.65726 78.2102 8.95143C78.2102 8.24559 77.6323 7.67274 76.9174 7.67274ZM70.4537 11.1086C69.8797 10.2544 69.1364 9.51916 68.2729 8.95143C69.1364 8.38369 69.8797 7.64844 70.4537 6.79428C71.0277 7.64844 71.771 8.38369 72.6346 8.95143C71.771 9.51916 71.0277 10.2544 70.4537 11.1086Z" fill="#B378D4"/>
<path d="M65.2826 15.3446C62.4309 15.3446 60.1117 13.0506 60.1117 10.2299C60.1117 9.52402 59.5338 8.95117 58.8189 8.95117C58.1041 8.95117 57.5262 9.52402 57.5262 10.2299C57.5262 13.0506 55.207 15.3446 52.3552 15.3446C51.6404 15.3446 51.0625 15.9175 51.0625 16.6233C51.0625 17.3291 51.6404 17.902 52.3552 17.902C55.207 17.902 57.5262 20.196 57.5262 23.0167C57.5262 23.7226 58.1041 24.2954 58.8189 24.2954C59.5338 24.2954 60.1117 23.7226 60.1117 23.0167C60.1117 20.196 62.4309 17.902 65.2826 17.902C65.9975 17.902 66.5754 17.3291 66.5754 16.6233C66.5754 15.9175 65.9975 15.3446 65.2826 15.3446ZM58.8189 18.7804C58.245 17.9263 57.5016 17.1923 56.6381 16.6233C57.5016 16.0556 58.245 15.3203 58.8189 14.4662C59.3929 15.3203 60.1362 16.0543 60.9998 16.6233C60.1362 17.191 59.3942 17.9263 58.8189 18.7804Z" fill="#B378D4"/>
<path d="M53.6479 6.39344C50.7961 6.39344 48.4769 4.09948 48.4769 1.27869C48.4769 0.572852 47.8991 0 47.1842 0C46.4693 0 45.8914 0.572852 45.8914 1.27869C45.8914 4.09948 43.5723 6.39344 40.7205 6.39344C40.0056 6.39344 39.4277 6.9663 39.4277 7.67213C39.4277 8.37797 40.0056 8.95082 40.7205 8.95082C43.5723 8.95082 45.8914 11.2448 45.8914 14.0656C45.8914 14.7714 46.4693 15.3443 47.1842 15.3443C47.8991 15.3443 48.4769 14.7714 48.4769 14.0656C48.4769 11.2448 50.7961 8.95082 53.6479 8.95082C54.3628 8.95082 54.9406 8.37797 54.9406 7.67213C54.9406 6.9663 54.3628 6.39344 53.6479 6.39344ZM47.1842 9.82928C46.6102 8.97511 45.8669 8.23987 45.0033 7.67213C45.8669 7.10439 46.6102 6.36915 47.1842 5.51498C47.7582 6.36915 48.5015 7.10439 49.365 7.67213C48.5015 8.23987 47.7582 8.97511 47.1842 9.82928Z" fill="#B378D4"/>
</g>
<defs>
<clipPath id="clip0_220:6305">
<rect width="78.8572" height="78" fill="white"/>
</clipPath>
</defs>
</symbol>

<symbol id="icon-camera" viewBox="0 0 78 78" >
<g clip-path="url(#clip0_220:6278)">
<path d="M51.1596 10.6386L48.7547 10.6666C46.7617 10.6881 44.8044 11.3997 43.1145 12.7175C42.5648 12.4448 41.9998 12.2177 41.4233 12.0379C40.528 11.1697 39.4422 10.6321 38.2924 10.4878C37.9155 9.373 37.3155 8.39306 36.5455 7.63464C35.7755 6.87622 34.8592 6.36267 33.8777 6.13941C32.8962 5.91616 31.8797 5.99007 30.918 6.3546C29.9563 6.71914 29.0791 7.36307 28.364 8.22947C27.6918 9.0441 27.183 10.0336 26.8779 11.1193C25.1754 8.7854 22.8052 7.31624 20.2266 6.99652L16.7578 6.57022C16.6279 6.55426 16.4962 6.57393 16.3724 6.62775C16.2486 6.68158 16.1358 6.76819 16.0424 6.88118C15.949 6.99417 15.8774 7.13064 15.8329 7.28048C15.7885 7.43032 15.7722 7.5897 15.7854 7.74682L16.1377 11.9441C16.2553 13.3569 16.5685 14.7311 17.0643 16.0096C16.5697 16.5629 16.1092 17.1593 15.6866 17.7939C14.2668 18.4447 12.9745 19.4575 11.8988 20.7626L10.3673 22.6157C10.2022 22.8155 10.1081 23.085 10.1059 23.3649C10.1037 23.6448 10.1934 23.9121 10.3554 24.1081L12.0396 26.1459C12.264 26.4175 12.4979 26.6746 12.7412 26.9173C12.5656 30.2134 13.2322 33.4754 14.6505 36.2599L14.6943 36.2263C14.8162 37.4297 15.1828 38.5722 15.7614 39.5521C16.3399 40.532 17.1126 41.3189 18.0105 41.8428L26.2204 56.6552C26.0467 56.8135 25.9264 57.0432 25.883 57.2996C25.8396 57.5561 25.8762 57.821 25.9856 58.0432L27.5635 61.2587L26.5245 63.7372C26.4568 63.8988 26.424 64.078 26.4292 64.2576C26.4345 64.4372 26.4776 64.6113 26.5545 64.7634C26.6315 64.9155 26.7396 65.0405 26.8688 65.1266C26.9979 65.2127 27.1437 65.2569 27.2924 65.2552L27.7269 65.2501L27.1872 67.1601C26.9477 68.0077 26.8771 68.9081 26.9811 69.7872C27.0851 70.6663 27.3607 71.4989 27.7853 72.2163C28.2099 72.9338 28.7713 73.5155 29.4232 73.9137C30.0752 74.3119 30.799 74.515 31.535 74.5064C32.271 74.4978 32.9982 74.2777 33.6566 73.8642C34.315 73.4507 34.8857 72.8557 35.3218 72.1282C35.758 71.4007 36.0469 70.5615 36.165 69.6798C36.283 68.7981 36.2267 67.8992 36.0007 67.057L35.4914 65.1594L35.9258 65.1544C36.0745 65.1526 36.221 65.105 36.3516 65.0158C36.4821 64.9267 36.5923 64.7992 36.6717 64.6452C36.7511 64.4913 36.797 64.3161 36.8051 64.1363C36.8133 63.9566 36.7833 63.7781 36.7181 63.618L35.7185 61.1633L37.348 57.9105C37.461 57.6857 37.5017 57.4199 37.4624 57.1644C37.4231 56.9089 37.3066 56.682 37.1353 56.5277L47.2112 38.6285C48.4448 37.1222 49.4238 35.3403 50.0914 33.3862L50.0776 33.3796C51.5228 32.9179 52.8758 32.0903 54.0464 30.952L56.7957 28.2792C56.8987 28.1792 56.9821 28.0528 57.0399 27.9095C57.0977 27.7662 57.1284 27.6097 57.1297 27.4514C57.1309 27.2931 57.1028 27.1372 57.0472 26.9953C56.9917 26.8533 56.9103 26.7288 56.8089 26.6312L54.1017 24.0221C52.9055 22.8666 51.5067 22.0524 50.0067 21.6383C50.0285 21.6014 50.0516 21.5659 50.0732 21.5286C51.312 19.3946 51.9856 16.8637 52.0027 14.2792L52.0233 11.6836C52.0256 11.4037 51.9358 11.1364 51.7738 10.9404C51.6119 10.7444 51.3909 10.6359 51.1596 10.6386ZM27.1127 18.7357C27.1082 20.0034 27.3736 21.2448 27.8834 22.3403C28.3932 23.4359 29.1301 24.3486 30.0232 24.9906C30.9163 25.6326 31.9355 25.9822 32.9825 26.0058C34.0296 26.0293 35.0692 25.7261 36.0012 25.1251C35.7435 25.7454 35.4049 26.3126 34.9986 26.8047C34.9063 26.9163 34.8091 27.023 34.7103 27.1266C33.8642 27.3955 33.0721 27.8802 32.3879 28.5479C32.1368 28.6157 31.8823 28.6613 31.6265 28.6842C31.3143 27.1848 30.6152 25.8529 29.6298 24.8802C28.6443 23.9075 27.4232 23.3439 26.142 23.2706C25.9824 21.6759 26.3293 20.0556 27.1127 18.7357ZM42.9499 34.919C42.7376 35.1758 42.4914 35.3879 42.2219 35.546C42.4223 35.0472 42.5126 34.4962 42.4839 33.9475C42.4552 33.3988 42.3085 32.8715 42.0583 32.4176C41.8081 31.9637 41.463 31.5991 41.0572 31.3596C40.6514 31.1201 40.1989 31.0142 39.7445 31.0523C39.5792 30.8749 39.3999 30.7174 39.2091 30.5821C39.234 30.5494 39.2593 30.5168 39.2855 30.4851C39.7809 29.8857 40.4491 29.5444 41.143 29.5363C41.8369 29.5282 42.4997 29.8539 42.9856 30.4419C43.4715 31.0299 43.7407 31.8319 43.734 32.6715C43.7273 33.5111 43.4453 34.3195 42.9499 34.919ZM21.9472 39.6409C21.8768 39.5558 21.8099 39.4674 21.7451 39.3773C22.5566 39.4266 23.3624 39.1305 24.0227 38.5403C24.9768 38.9976 26.0406 39.0268 27.0245 38.6225C28.0084 38.2183 28.8483 37.4069 29.3945 36.3332C29.3072 37.3296 28.988 38.2809 28.4742 39.0762C27.9603 39.8714 27.2729 40.4778 26.4922 40.8246C25.7115 41.1713 24.8697 41.2442 24.0649 41.0346C23.2602 40.825 22.5257 40.3417 21.9472 39.6409ZM23.8627 31.4114C24.1348 31.0822 24.4618 30.8276 24.821 30.6653C25.1802 30.503 25.5628 30.4369 25.9422 30.4716C26.3215 30.5064 26.6884 30.6411 27.0172 30.8664C27.346 31.0918 27.6288 31.4022 27.8457 31.7762C28.0627 32.1501 28.2086 32.5784 28.2732 33.0312C28.3379 33.484 28.3197 33.9503 28.22 34.3976C28.1203 34.8449 27.9415 35.2623 27.6961 35.6206C27.4506 35.979 27.1445 36.2696 26.799 36.4723C26.9994 35.9734 27.0898 35.4224 27.0611 34.8738C27.0324 34.3251 26.8857 33.7978 26.6355 33.3439C26.3852 32.89 26.0402 32.5253 25.6344 32.2859C25.2286 32.0464 24.7761 31.9405 24.3217 31.9786C24.1564 31.8011 23.9771 31.6437 23.7862 31.5084C23.8112 31.4756 23.8365 31.4431 23.8627 31.4114ZM23.8389 34.3961C23.962 34.2471 24.1182 34.1448 24.2877 34.1021C24.4572 34.0594 24.6324 34.0782 24.7911 34.1562C24.9499 34.2342 25.085 34.3679 25.1794 34.5403C25.2739 34.7127 25.3234 34.9162 25.3217 35.1249C25.3201 35.3336 25.2673 35.5382 25.1701 35.7129C25.0729 35.8875 24.9356 36.0244 24.7756 36.1061C24.6156 36.1878 24.4401 36.2108 24.2712 36.172C24.1024 36.1333 23.9478 36.0346 23.827 35.8884C23.6653 35.6923 23.5757 35.425 23.5779 35.1452C23.5802 34.8655 23.674 34.596 23.8389 34.3961ZM22.4286 37.1915C22.1692 37.2809 21.8973 37.297 21.6342 37.2385C21.3711 37.18 21.1239 37.0485 20.9119 36.8542C20.6999 36.6599 20.5288 36.4081 20.4119 36.1185C20.295 35.8288 20.2356 35.5091 20.2382 35.1842C20.2408 34.8594 20.3053 34.5383 20.4269 34.2458C20.5484 33.9534 20.7235 33.6975 20.9387 33.4983C21.1538 33.299 21.4032 33.1617 21.6672 33.097C21.9313 33.0323 22.203 33.0421 22.4611 33.1255C22.0626 33.7003 21.841 34.4224 21.8351 35.1656C21.8292 35.9088 22.0393 36.6259 22.4286 37.1915ZM34.5207 36.6762C34.7074 37.7027 35.0757 38.6642 35.6006 39.4949C34.9863 39.4111 34.3964 39.1695 33.8701 38.7862C33.3438 38.4028 32.8933 37.8866 32.5485 37.2718C32.2037 36.657 31.9726 35.9578 31.8707 35.2208C31.7687 34.4838 31.7982 33.7259 31.9571 32.9977C32.116 32.2694 32.4008 31.5876 32.7924 30.9975C33.184 30.4074 33.6734 29.9227 34.2281 29.5757C34.7828 29.2286 35.39 29.0272 36.0092 28.9849C36.6284 28.9426 37.2454 29.0603 37.819 29.3301C37.6661 29.5466 37.5275 29.7773 37.4048 30.02C36.7709 30.0342 36.1488 30.2573 35.6056 30.6653C35.0624 31.0732 34.6186 31.6506 34.3219 32.3352C34.0253 33.0199 33.887 33.7859 33.922 34.5508C33.9571 35.3157 34.164 36.0505 34.5207 36.6762ZM40.4832 34.9478C40.36 35.0968 40.2038 35.1991 40.0343 35.2418C39.8648 35.2845 39.6896 35.2656 39.5309 35.1876C39.3722 35.1096 39.2371 34.976 39.1426 34.8035C39.0482 34.6311 38.9987 34.4277 39.0003 34.219C39.002 34.0103 39.0548 33.8057 39.152 33.631C39.2492 33.4563 39.3865 33.3195 39.5465 33.2378C39.7065 33.156 39.882 33.1331 40.0508 33.1718C40.2197 33.2106 40.3743 33.3093 40.4951 33.4554C40.6568 33.6516 40.7464 33.9188 40.7441 34.1986C40.7419 34.4784 40.6481 34.7478 40.4832 34.9478ZM36.1843 32.7597C36.4044 32.494 36.6776 32.3021 36.9761 32.2037C37.2746 32.1052 37.5878 32.1037 37.8839 32.1992C37.4854 32.774 37.2639 33.4961 37.2579 34.2393C37.252 34.9825 37.4621 35.6996 37.8515 36.2652C37.4794 36.3935 37.0851 36.3699 36.7301 36.1981C36.3751 36.0264 36.0794 35.7162 35.889 35.3159C35.6987 34.9156 35.6244 34.4477 35.6778 33.9853C35.7312 33.5229 35.9093 33.0919 36.1843 32.7597ZM36.2676 22.3132C35.6779 23.0276 34.9355 23.5282 34.1273 23.7566C33.3191 23.985 32.4782 23.9318 31.7029 23.6032C30.9276 23.2747 30.2498 22.6842 29.7485 21.9008C29.2472 21.1175 28.9431 20.1734 28.8718 19.1788C29.4009 20.24 30.228 21.0319 31.2056 21.4132C32.1832 21.7945 33.2478 21.7405 34.2093 21.2608C34.8603 21.8357 35.6615 22.1131 36.474 22.0448C36.4077 22.1365 36.3394 22.2264 36.2676 22.3132ZM34.4474 18.6039C34.3242 18.7529 34.168 18.8552 33.9986 18.8979C33.8291 18.9406 33.6539 18.9218 33.4951 18.8438C33.3364 18.7658 33.2013 18.6321 33.1069 18.4597C33.0124 18.2873 32.9629 18.0838 32.9646 17.8751C32.9662 17.6664 33.019 17.4618 33.1162 17.2871C33.2134 17.1125 33.3507 16.9756 33.5107 16.8939C33.6707 16.8122 33.8462 16.7892 34.0151 16.828C34.1839 16.8667 34.3385 16.9654 34.4593 17.1116C34.621 17.3077 34.7106 17.575 34.7084 17.8548C34.7061 18.1345 34.6123 18.4039 34.4474 18.6039ZM37.5248 19.3141C37.3047 19.5798 37.0315 19.7716 36.733 19.8701C36.4345 19.9685 36.1213 19.97 35.8252 19.8745C36.2237 19.2997 36.4452 18.5776 36.4512 17.8344C36.4571 17.0912 36.247 16.3741 35.8577 15.8085C36.2297 15.6803 36.624 15.7039 36.979 15.8756C37.334 16.0473 37.6297 16.3575 37.8201 16.7578C38.0105 17.1581 38.0847 17.626 38.0313 18.0884C37.9779 18.5508 37.7998 18.9818 37.5248 19.3141ZM34.5581 14.2221C34.365 14.3619 34.1831 14.5235 34.015 14.7049C33.5611 14.6774 33.1069 14.7939 32.6972 15.0429C32.2875 15.2919 31.9365 15.6647 31.679 16.1245C31.4215 16.5843 31.2663 17.1152 31.2289 17.6646C31.1914 18.2141 31.273 18.763 31.4655 19.2573C31.1232 19.0627 30.8216 18.7792 30.5818 18.4265C30.3419 18.0738 30.1697 17.6605 30.0771 17.2154C29.9845 16.7704 29.9738 16.3044 30.0457 15.8499C30.1176 15.3955 30.2704 14.9637 30.4933 14.5846C30.7163 14.2055 31.0041 13.8883 31.3366 13.6553C31.669 13.4222 32.0382 13.2789 32.4182 13.2353C32.7982 13.1917 33.1798 13.2489 33.5365 13.4029C33.8932 13.5569 34.2163 13.804 34.4831 14.1269C34.5088 14.158 34.5336 14.1899 34.5581 14.2221ZM28.8318 26.8767C29.3135 27.464 29.6714 28.1833 29.8767 28.976C30.0819 29.7688 30.1285 30.6126 30.0127 31.4388C29.8327 31.1412 29.6342 30.861 29.4187 30.6004C29.3089 30.4675 29.1934 30.3405 29.0758 30.2188C28.9917 30.0959 28.903 29.9763 28.808 29.8614C28.1909 29.1166 27.3986 28.6192 26.5349 28.4344C25.6712 28.2496 24.7765 28.386 23.968 28.8258C23.3695 28.3922 22.7109 28.0902 22.0219 27.9333C22.3712 27.2483 22.8429 26.6652 23.4015 26.2279C23.9601 25.7906 24.5911 25.5105 25.2467 25.4088C25.9024 25.3071 26.5657 25.3863 27.1868 25.6406C27.8078 25.8949 28.3703 26.3175 28.8318 26.8767ZM22.3962 30.2564C22.2432 30.4728 22.1047 30.7035 21.982 30.9462C21.3481 30.9605 20.726 31.1835 20.1828 31.5915C19.6396 31.9995 19.1958 32.5768 18.8991 33.2615C18.6025 33.9462 18.4642 34.7121 18.4992 35.477C18.5342 36.2419 18.7412 36.9768 19.0979 37.6024C19.2845 38.629 19.6529 39.5905 20.1778 40.4212C19.5635 40.3374 18.9736 40.0958 18.4473 39.7124C17.921 39.3291 17.4704 38.8128 17.1257 38.198C16.7809 37.5832 16.5498 36.884 16.4478 36.147C16.3459 35.41 16.3753 34.6522 16.5343 33.9239C16.6932 33.1957 16.978 32.5138 17.3696 31.9237C17.7612 31.3337 18.2506 30.849 18.8053 30.5019C19.36 30.1549 19.9672 29.9535 20.5864 29.9112C21.2055 29.8688 21.8225 29.9865 22.3962 30.2564ZM29.3354 41.0468C30.0374 40.1987 30.5618 39.1609 30.8636 38.0227C31.2628 38.8642 31.7978 39.5981 32.4375 40.1817C33.0772 40.7654 33.8088 41.1871 34.5898 41.4225L28.9355 41.4886C29.0724 41.349 29.2064 41.2029 29.3354 41.0468ZM37.7732 43.4956C39.6409 43.4779 41.4917 42.9795 43.2029 42.0338L35.1506 56.3381L30.7017 56.3901L30.8039 43.5771L37.7732 43.4956ZM43.5368 38.6426C42.7105 39.6402 41.5972 40.2081 40.4411 40.2216C39.285 40.2351 38.1806 39.6931 37.37 38.7147C37.2997 38.6295 37.2328 38.5412 37.1679 38.451C37.9795 38.5003 38.7852 38.2042 39.4456 37.614C40.3996 38.0714 41.4635 38.1005 42.4473 37.6963C43.4312 37.292 44.2712 36.4807 44.8173 35.4069C44.7121 36.6258 44.2592 37.7702 43.5368 38.6426ZM44.4987 29.2925C44.4146 29.1697 44.3258 29.0501 44.2308 28.9351C43.6137 28.1903 42.8214 27.6929 41.9577 27.5081C41.094 27.3233 40.1993 27.4598 39.3908 27.8995C38.7923 27.4659 38.1337 27.1639 37.4447 27.007C37.9799 25.9574 38.7963 25.1585 39.7543 24.747C40.7124 24.3355 41.7524 24.3369 42.6964 24.7511C43.6405 25.1652 44.4299 25.9663 44.9296 27.0173C45.4292 28.0683 45.6081 29.3039 45.4356 30.5125C45.2555 30.215 45.057 29.9347 44.8416 29.6741C44.7317 29.5412 44.6162 29.4142 44.4987 29.2925ZM40.5903 21.5166C39.8954 22.3575 38.9923 22.8981 38.0249 23.0522C38.5632 22.2091 38.947 21.2389 39.15 20.2078C39.5167 19.5737 39.7355 18.8339 39.7827 18.068C39.83 17.3021 39.7039 16.5392 39.4181 15.8614C39.1323 15.1835 38.6976 14.6164 38.1608 14.221C37.624 13.8257 37.0054 13.6171 36.3716 13.6177C36.2527 13.3778 36.1179 13.1503 35.9683 12.9374C36.9043 12.4786 37.9362 12.4215 38.8899 12.7756C39.8437 13.1297 40.661 13.8734 41.204 14.8813C41.747 15.8891 41.9824 17.0995 41.8706 18.3082C41.7589 19.517 41.3067 20.6501 40.5903 21.5166ZM35.7522 9.63539C35.9926 9.92697 36.2032 10.2524 36.3797 10.6051C35.6882 10.7781 35.0246 11.0956 34.419 11.5432C33.6174 11.1223 32.7247 11.0067 31.8579 11.2117C30.9911 11.4168 30.1907 11.9328 29.5616 12.6921C29.4647 12.8094 29.374 12.9312 29.2879 13.056C29.1682 13.1808 29.0506 13.3104 28.939 13.4455C28.7194 13.7112 28.5163 13.9962 28.3315 14.2979C28.1916 13.1983 28.3445 12.0665 28.7683 11.0655C29.1922 10.0645 29.865 9.24597 30.6899 8.72762C31.5149 8.20928 32.4495 8.0179 33.3592 8.18103C34.2688 8.34415 35.1067 8.85337 35.7522 9.63539ZM17.8731 11.6907L17.6307 8.80308L20.0172 9.09639C21.3749 9.26477 22.6747 9.81729 23.8122 10.7095C24.9496 11.6017 25.8929 12.8086 26.5661 14.2332C26.6109 14.8303 26.7161 15.417 26.8791 15.9805C26.7307 16.1332 26.5863 16.2922 26.4485 16.459C26.2404 16.7111 26.0456 16.9785 25.865 17.2597L21.5508 12.0396L20.3055 13.5464L24.94 19.1541C24.7589 19.6635 24.6187 20.1921 24.5215 20.7323C22.7596 20.269 21.1719 19.1487 19.98 17.5278C18.7882 15.9069 18.0516 13.8662 17.8731 11.6907ZM12.2114 23.3403L13.1202 22.2406C14.6391 20.3966 16.6549 19.2804 18.7835 19.1047C19.7979 20.438 21.0443 21.4825 22.4361 22.1657L16.916 22.2302L16.899 24.3407L22.7323 24.2726C21.6288 25.0457 20.7452 26.211 20.2044 27.6067C18.9323 27.755 17.6541 27.5664 16.459 27.0539C15.2639 26.5413 14.1807 25.7173 13.2848 24.6392L12.2114 23.3403ZM14.4628 28.3083C15.2603 28.8189 16.1109 29.2015 16.9936 29.4467C16.156 30.2514 15.5042 31.305 15.1041 32.5014C14.7135 31.1558 14.4972 29.7416 14.4628 28.3083ZM20.9129 42.5573C22.461 43.2909 24.1165 43.657 25.7903 43.6357L29.0596 43.5975L28.9574 56.4104L28.2085 56.4192L20.5293 42.5642C20.6568 42.5668 20.7847 42.5645 20.9129 42.5573ZM28.8367 67.808L29.5655 65.2287L29.6077 65.2282L30.8526 72.2993C30.4653 72.1873 30.1029 71.9791 29.7882 71.6878C29.4735 71.3964 29.2132 71.0283 29.0239 70.6064C28.8345 70.1846 28.7202 69.7182 28.6879 69.2366C28.6557 68.755 28.7063 68.2686 28.8367 67.808ZM34.3406 67.7437C34.5691 68.5936 34.5174 69.5234 34.1962 70.3414C33.8751 71.1593 33.309 71.8029 32.6149 72.1393L31.3944 65.2073L33.6528 65.1809L34.3406 67.7437ZM33.9812 60.5946C33.9045 60.7477 33.8606 60.921 33.8536 61.0985C33.8465 61.276 33.8766 61.4518 33.9409 61.6099L34.5316 63.0603L28.7203 63.1282L29.3343 61.6636C29.4012 61.5041 29.434 61.3275 29.4298 61.1501C29.4256 60.9728 29.3844 60.8005 29.3101 60.6492L28.2696 58.5288L35.0559 58.4495L33.9812 60.5946ZM46.3999 36.6213C46.5935 35.6826 46.6355 34.7108 46.5234 33.76C47.0236 33.8101 47.5268 33.8165 48.0291 33.7791C47.5848 34.8027 47.0375 35.7575 46.3999 36.6213ZM52.97 29.3166C51.2733 30.9662 49.1436 31.8081 46.9923 31.6798C47.2311 30.6839 47.2972 29.6429 47.1864 28.6227L50.1443 28.5881L50.1612 26.4775L46.6892 26.5181C46.5671 26.1957 46.4255 25.885 46.2655 25.5885C47.1413 25.0332 47.9501 24.332 48.6677 23.506C50.2577 23.7295 51.7569 24.483 52.999 25.6828L54.8614 27.4779L52.97 29.3166ZM50.2584 14.2997C50.2359 16.3251 49.735 18.3117 48.8148 20.0248C47.8946 21.7379 46.5935 23.1062 45.0652 23.968C44.5249 23.431 43.9094 23.0143 43.2464 22.7366L47.4035 17.7065L46.1821 16.2285L43.4433 19.5425C43.7525 18.0846 43.6922 16.5562 43.2702 15.1576C44.8272 13.6383 46.7563 12.7985 48.7378 12.7772L50.2707 12.7593L50.2584 14.2997Z" fill="#B378D4"/>
</g>
<defs>
<clipPath id="clip0_220:6278">
<rect width="64.4628" height="78" fill="white"/>
</clipPath>
</defs>
</symbol>


<symbol id="icon-heading-star" viewBox="0 0 189 25" >
<path d="M94.5 0L97.8761 9.12387L107 12.5L97.8761 15.8761L94.5 25L91.1239 15.8761L82 12.5L91.1239 9.12387L94.5 0Z"/>
<path d="M117.25 13C117.526 13 117.75 12.7761 117.75 12.5C117.75 12.2239 117.526 12 117.25 12V13ZM126.75 12C126.474 12 126.25 12.2239 126.25 12.5C126.25 12.7761 126.474 13 126.75 13V12ZM136.25 13C136.526 13 136.75 12.7761 136.75 12.5C136.75 12.2239 136.526 12 136.25 12V13ZM145.75 12C145.474 12 145.25 12.2239 145.25 12.5C145.25 12.7761 145.474 13 145.75 13V12ZM155.25 13C155.526 13 155.75 12.7761 155.75 12.5C155.75 12.2239 155.526 12 155.25 12V13ZM164.75 12C164.474 12 164.25 12.2239 164.25 12.5C164.25 12.7761 164.474 13 164.75 13V12ZM174.25 13C174.526 13 174.75 12.7761 174.75 12.5C174.75 12.2239 174.526 12 174.25 12V13ZM183.75 12C183.474 12 183.25 12.2239 183.25 12.5C183.25 12.7761 183.474 13 183.75 13V12ZM112.5 13H117.25V12H112.5V13ZM126.75 13H136.25V12H126.75V13ZM145.75 13H155.25V12H145.75V13ZM164.75 13H174.25V12H164.75V13ZM183.75 13H188.5V12H183.75V13Z"/>
<path d="M5.25 13C5.52614 13 5.75 12.7761 5.75 12.5C5.75 12.2239 5.52614 12 5.25 12V13ZM14.75 12C14.4739 12 14.25 12.2239 14.25 12.5C14.25 12.7761 14.4739 13 14.75 13V12ZM24.25 13C24.5261 13 24.75 12.7761 24.75 12.5C24.75 12.2239 24.5261 12 24.25 12V13ZM33.75 12C33.4739 12 33.25 12.2239 33.25 12.5C33.25 12.7761 33.4739 13 33.75 13V12ZM43.25 13C43.5261 13 43.75 12.7761 43.75 12.5C43.75 12.2239 43.5261 12 43.25 12V13ZM52.75 12C52.4739 12 52.25 12.2239 52.25 12.5C52.25 12.7761 52.4739 13 52.75 13V12ZM62.25 13C62.5261 13 62.75 12.7761 62.75 12.5C62.75 12.2239 62.5261 12 62.25 12V13ZM71.75 12C71.4739 12 71.25 12.2239 71.25 12.5C71.25 12.7761 71.4739 13 71.75 13V12ZM0.5 13H5.25V12H0.5V13ZM14.75 13H24.25V12H14.75V13ZM33.75 13H43.25V12H33.75V13ZM52.75 13H62.25V12H52.75V13ZM71.75 13H76.5V12H71.75V13Z"/>
</symbol>

<symbol id="icon-heart-purp" viewBox="0 0 143 119" >
<path d="M130.956 36.1422C117.98 1.22346 75.5109 16.7953 71.4999 34.2547C66.0734 15.6156 24.7843 1.69533 12.0437 36.1422C-2.11258 74.3641 66.5452 108.575 71.4999 114.238C76.4546 109.755 145.112 73.6563 130.956 36.1422Z" fill="#B378D4"/>
<path d="M95.2341 50.7845C90.054 34.5914 73.1011 41.8126 71.5 49.9092C69.3338 41.2656 52.8518 34.8102 47.7659 50.7845C42.1149 68.5093 69.5222 84.3741 71.5 87C73.4778 84.9212 100.885 68.181 95.2341 50.7845Z" fill="white"/>
<path d="M137.564 27.6477C136.148 23.1648 133.789 19.1539 130.486 15.8508C127.418 12.5477 123.407 9.95234 119.396 8.30078C117.273 7.35703 115.15 6.88516 113.026 6.41328C111.846 6.17734 110.903 6.17734 109.723 5.94141H106.42L109.251 7.35703L112.082 8.77266C113.97 9.71641 115.857 10.6602 117.509 11.8398C121.048 13.9633 124.115 16.5586 126.946 19.3898C129.778 22.2211 131.901 25.5242 134.025 29.2992C134.968 31.1867 135.912 33.0742 136.62 34.9617C137.092 35.9055 137.328 37.0852 137.8 38.0289L138.979 41.0961C139.215 39.9164 139.215 38.7367 139.215 37.793C139.215 36.6133 139.215 35.4336 138.979 34.4898C138.743 32.1305 138.271 29.7711 137.564 27.6477Z" fill="#B378D4"/>
<path d="M142.281 21.2781C142.045 19.6266 141.809 17.975 141.337 16.3234C140.393 13.0203 138.506 9.95312 136.146 7.35781C133.787 4.7625 130.956 2.875 127.889 1.93125C126.237 1.45937 124.821 0.9875 123.17 0.751562C122.462 0.751562 121.518 0.515625 120.811 0.515625C120.103 0.515625 119.159 0.515625 118.451 0.751562C119.159 1.22344 119.867 1.45937 120.575 1.93125C121.046 2.16719 121.754 2.63906 122.462 2.875C123.878 3.58281 125.057 4.29063 126.237 5.23438C128.596 6.88594 130.956 8.77344 132.843 10.6609C134.731 12.7844 136.382 15.1438 138.034 17.7391C138.742 18.9188 139.45 20.3344 140.157 21.75C140.393 22.4578 140.865 23.1656 141.101 23.8734C141.337 24.5812 141.809 25.2891 142.045 26.2328C142.281 25.2891 142.281 24.5812 142.281 23.6375V21.2781Z" fill="#B378D4"/>
<path d="M6.14648 34.9617C6.8543 33.0742 7.79805 30.9508 8.7418 29.2992C10.6293 25.5242 12.9887 22.2211 15.8199 19.3898C18.6512 16.5586 21.7184 13.9633 25.2574 11.8398C26.909 10.6602 28.7965 9.71641 30.684 8.77266L33.5152 7.35703L36.3465 5.94141H33.0434C31.8637 5.94141 30.9199 6.17734 29.7402 6.41328C27.6168 6.88516 25.4934 7.35703 23.3699 8.30078C19.359 9.95234 15.584 12.5477 12.5168 15.8508C9.44961 19.1539 6.8543 23.1648 5.43867 27.6477C4.73086 29.7711 4.25898 32.1305 4.02305 34.2539C3.78711 35.4336 3.78711 36.6133 3.78711 37.557C3.78711 38.7367 3.78711 39.9164 4.02305 40.8602L5.20273 37.793C5.43867 36.8492 5.67461 35.9055 6.14648 34.9617Z" fill="#B378D4"/>
<path d="M10.1562 10.8965C12.0437 8.77305 14.4031 6.88555 16.7625 5.23398C17.9422 4.52617 19.3578 3.58242 20.5375 2.87461C21.2453 2.40273 21.9531 2.1668 22.6609 1.69492C23.3687 1.22305 24.0766 0.987109 24.7844 0.515234C24.0766 0.515234 23.1328 0.279297 22.425 0.279297C21.7172 0.279297 20.7734 0.279297 20.0656 0.515234C18.4141 0.751172 16.9984 1.22305 15.3469 1.69492C12.0437 3.11055 9.2125 4.99805 6.85312 7.35742C4.49375 9.95273 2.60625 13.0199 1.6625 16.323C1.19063 17.9746 0.954688 19.6262 0.71875 21.2777V23.873C0.71875 24.8168 0.71875 25.5246 0.954687 26.4684C1.19062 25.7605 1.6625 25.0527 1.89844 24.109C2.37031 23.1652 2.60625 22.4574 3.07812 21.7496C3.78594 20.334 4.49375 18.9184 5.20156 17.7387C6.61719 15.1434 8.26875 12.784 10.1562 10.8965Z" fill="#B378D4"/>
<path d="M14.402 79.5547L14.166 80.0266C15.3457 83.5656 17.2332 86.3969 19.1207 89.2281C21.0082 92.0594 23.3676 94.4188 25.727 96.5422C28.0863 98.6656 30.6816 100.789 33.5129 102.677C36.3441 104.564 39.4113 105.98 42.9504 106.923L43.1863 106.452C38.4676 101.733 33.7488 97.25 29.0301 92.7672C24.0754 88.5203 19.3566 83.8016 14.402 79.5547Z" fill="#B378D4"/>
<path d="M4.49375 86.6328L4.25781 87.1047C5.90937 91.1156 8.03281 94.4187 10.3922 97.4859C12.7516 100.553 15.3469 103.384 18.1781 105.98C21.0094 108.575 23.8406 110.934 27.1437 113.294C30.4469 115.417 33.75 117.541 37.7609 118.72L37.9969 118.248C32.5703 112.822 26.9078 107.631 21.4813 102.205C15.8188 97.0141 10.1562 91.5875 4.49375 86.6328Z" fill="#B378D4"/>
<path d="M117.508 96.5422C119.868 94.1828 122.227 91.8234 124.114 89.2281C126.002 86.6328 127.889 83.5656 129.069 80.0266L128.833 79.5547C123.879 83.8016 119.16 88.5203 114.205 92.7672C109.486 97.25 104.768 101.733 100.049 106.452L100.285 106.923C103.824 105.98 106.891 104.328 109.722 102.677C112.554 100.789 114.913 98.6656 117.508 96.5422Z" fill="#B378D4"/>
<path d="M121.518 102.205C116.091 107.631 110.429 112.822 105.002 118.248L105.238 118.72C109.249 117.305 112.552 115.417 115.855 113.294C119.158 111.17 121.989 108.811 124.821 105.98C127.652 103.384 130.247 100.553 132.607 97.4859C134.966 94.4187 137.089 91.1156 138.741 87.1047L138.505 86.6328C132.843 91.5875 127.18 97.0141 121.518 102.205Z" fill="#B378D4"/>
</symbol>

<symbol id="icon-face" viewBox="0 0 20 20" >
<path d="M11.3538 17.3184V10.8858H13.5239L13.8465 8.36719H11.3538V6.76297C11.3538 6.0362 11.5563 5.53861 12.5994 5.53861H13.9211V3.29317C13.278 3.22425 12.6316 3.19098 11.9849 3.19349C10.0667 3.19349 8.74972 4.36448 8.74972 6.51417V8.36248H6.59375V10.8811H8.75443V17.3184H11.3538Z"/>
</symbol>

<symbol id="icon-insta" viewBox="0 0 20 20" >
<path d="M13.5703 7.33589C14.0384 7.33589 14.4179 6.95639 14.4179 6.48826C14.4179 6.02012 14.0384 5.64062 13.5703 5.64062C13.1022 5.64062 12.7227 6.02012 12.7227 6.48826C12.7227 6.95639 13.1022 7.33589 13.5703 7.33589Z"/>
<path d="M9.79904 6.63086C9.08165 6.63086 8.38038 6.84359 7.7839 7.24215C7.18741 7.6407 6.72251 8.20719 6.44798 8.86997C6.17345 9.53274 6.10162 10.262 6.24157 10.9656C6.38153 11.6692 6.72698 12.3155 7.23425 12.8228C7.74152 13.3301 8.38781 13.6755 9.09141 13.8155C9.79502 13.9554 10.5243 13.8836 11.1871 13.6091C11.8499 13.3346 12.4164 12.8696 12.8149 12.2732C13.2135 11.6767 13.4262 10.9754 13.4262 10.258C13.4262 9.29604 13.0441 8.37346 12.3638 7.69323C11.6836 7.01301 10.761 6.63086 9.79904 6.63086ZM9.79904 12.6126C9.33336 12.6126 8.87813 12.4745 8.49093 12.2157C8.10373 11.957 7.80194 11.5893 7.62373 11.1591C7.44552 10.7288 7.39889 10.2554 7.48974 9.79867C7.5806 9.34194 7.80484 8.9224 8.13413 8.59311C8.46342 8.26383 8.88296 8.03958 9.33969 7.94873C9.79643 7.85788 10.2698 7.9045 10.7001 8.08271C11.1303 8.26092 11.498 8.56271 11.7568 8.94991C12.0155 9.33711 12.1536 9.79234 12.1536 10.258C12.1536 10.8825 11.9055 11.4814 11.4639 11.9229C11.0224 12.3645 10.4235 12.6126 9.79904 12.6126Z"/>
<path d="M9.79798 4.46599C11.684 4.46599 11.9076 4.47305 12.6523 4.50719C13.1001 4.51251 13.5437 4.59474 13.9637 4.7503C14.2685 4.86784 14.5452 5.04788 14.7761 5.27882C15.0071 5.50976 15.1871 5.78649 15.3047 6.0912C15.4602 6.51121 15.5424 6.95482 15.5478 7.40268C15.5819 8.1473 15.589 8.37098 15.589 10.2576C15.589 12.1441 15.5819 12.3666 15.5478 13.1113C15.5424 13.5591 15.4602 14.0027 15.3047 14.4227C15.1871 14.7274 15.0071 15.0042 14.7761 15.2351C14.5452 15.4661 14.2685 15.6461 13.9637 15.7636C13.5437 15.9192 13.1001 16.0014 12.6523 16.0067C11.9076 16.0409 11.684 16.0479 9.79798 16.0479C7.912 16.0479 7.68832 16.0409 6.9437 16.0067C6.49584 16.0014 6.05223 15.9192 5.63222 15.7636C5.32751 15.6461 5.05078 15.4661 4.81983 15.2351C4.58889 15.0042 4.40886 14.7274 4.29131 14.4227C4.13575 14.0027 4.05352 13.5591 4.04821 13.1113C4.01407 12.3666 4.007 12.143 4.007 10.257C4.007 8.37098 4.01407 8.1473 4.04821 7.40268C4.05352 6.95482 4.13575 6.51121 4.29131 6.0912C4.40886 5.78649 4.58889 5.50976 4.81983 5.27882C5.05078 5.04788 5.32751 4.86784 5.63222 4.7503C6.05223 4.59474 6.49584 4.51251 6.9437 4.50719C7.68832 4.47305 7.912 4.46599 9.79798 4.46599ZM9.79798 3.19336C7.87962 3.19336 7.63887 3.2016 6.88542 3.23574C6.2996 3.24757 5.72002 3.35863 5.17132 3.5642C4.70202 3.74567 4.27581 4.0232 3.92001 4.379C3.56422 4.73479 3.28669 5.161 3.10521 5.6303C2.89958 6.17919 2.78852 6.75897 2.77676 7.345C2.74262 8.09845 2.73438 8.33802 2.73438 10.257C2.73438 12.1759 2.74262 12.4161 2.77676 13.1695C2.78859 13.7554 2.89965 14.3349 3.10521 14.8836C3.28669 15.3529 3.56422 15.7791 3.92001 16.1349C4.27581 16.4907 4.70202 16.7683 5.17132 16.9497C5.7202 17.1554 6.29999 17.2664 6.88601 17.2782C7.63946 17.3123 7.87962 17.3206 9.79798 17.3206C11.7163 17.3206 11.9571 17.3123 12.7105 17.2782C13.2966 17.2664 13.8763 17.1554 14.4252 16.9497C14.8945 16.7683 15.3207 16.4907 15.6765 16.1349C16.0323 15.7791 16.3099 15.3529 16.4913 14.8836C16.6968 14.3347 16.8076 13.7549 16.8192 13.1689C16.8533 12.4155 16.8616 12.1759 16.8616 10.257C16.8616 8.33802 16.8533 8.09786 16.8192 7.34441C16.8074 6.75858 16.6963 6.179 16.4908 5.6303C16.3093 5.161 16.0317 4.73479 15.676 4.379C15.3202 4.0232 14.8939 3.74567 14.4246 3.5642C13.8757 3.35877 13.2959 3.2479 12.71 3.23633C11.9565 3.20101 11.7169 3.19336 9.79798 3.19336Z"/>
</symbol>

<symbol id="icon-pin" viewBox="0 0 13 16" >
<path d="M6.96055 0.724609C2.81656 0.724609 0.650391 3.36169 0.650391 6.28131C0.650391 7.69403 1.40384 9.10676 2.6282 9.86021C3.00493 10.0486 2.91074 9.86021 3.19329 8.73003C3.19329 8.63585 3.19329 8.54167 3.09911 8.44749C1.40384 6.37549 2.81656 2.32569 6.77218 2.32569C12.5172 2.32569 11.3871 10.2369 7.80818 10.2369C7.05473 10.3311 6.39546 9.76603 6.39546 9.01257V8.63585C6.77218 7.59985 7.05473 6.65804 7.14891 5.62204C7.14891 3.64423 4.22928 3.92678 4.22928 6.56386C4.22928 7.03476 4.32347 7.50567 4.51183 7.8824C4.51183 7.8824 3.57001 11.7438 3.38165 12.4031C3.19329 13.5333 3.28747 14.6635 3.47583 15.6995C3.38165 15.7936 3.47583 15.7936 3.47583 15.7936H3.57001C4.22928 14.8518 4.79437 13.91 5.1711 12.874C5.26528 12.4031 5.73619 10.7078 5.73619 10.7078C6.20709 11.3671 7.05473 11.7438 7.90236 11.7438C10.822 11.7438 12.894 9.20094 12.894 6.09295C12.894 2.98496 10.2569 0.724609 6.96055 0.724609Z"/>
</symbol>

<symbol id="icon-twit" viewBox="0 0 20 20" >
<path d="M16.2767 7.11626C16.2869 7.2536 16.2869 7.39017 16.2869 7.52673C16.2869 11.706 13.1059 16.5218 7.29255 16.5218C5.50154 16.5218 3.83766 16.0031 2.4375 15.1021C2.69179 15.1311 2.93666 15.1413 3.20115 15.1413C4.62407 15.1447 6.0067 14.6689 7.12616 13.7906C6.46644 13.7786 5.82691 13.561 5.29688 13.168C4.76684 12.775 4.37276 12.2263 4.16965 11.5985C4.36508 11.6275 4.56129 11.6472 4.76692 11.6472C5.05025 11.6472 5.33515 11.6079 5.59964 11.5396C4.88367 11.3951 4.23988 11.007 3.77772 10.4414C3.31556 9.87579 3.06357 9.16756 3.06459 8.43715V8.39791C3.48605 8.63258 3.97501 8.77934 4.49301 8.79896C4.05906 8.5106 3.70324 8.11931 3.45728 7.65999C3.21133 7.20067 3.08289 6.68762 3.08343 6.16659C3.08343 5.57953 3.23961 5.04112 3.51352 4.57179C4.30789 5.54893 5.29866 6.34833 6.42164 6.91821C7.54462 7.48808 8.77478 7.81572 10.0324 7.87991C9.98379 7.64446 9.95396 7.40037 9.95396 7.1555C9.95375 6.74028 10.0354 6.3291 10.1942 5.94545C10.353 5.56181 10.5858 5.21322 10.8794 4.91962C11.173 4.62602 11.5216 4.39316 11.9053 4.23436C12.2889 4.07556 12.7001 3.99393 13.1153 3.99414C14.0257 3.99414 14.8475 4.37558 15.4251 4.99246C16.1329 4.8556 16.8116 4.59723 17.4312 4.22881C17.1953 4.95936 16.7011 5.57882 16.0412 5.97117C16.6689 5.89957 17.2824 5.7345 17.8613 5.48142C17.4289 6.11173 16.8932 6.66445 16.2767 7.11626Z"/>
</symbol>

<symbol id="icon-love" viewBox="0 0 40 45" >
<path d="M19.8491 44.7135C19.1507 44.7135 18.5132 44.2834 18.2777 43.6592C18.0453 43.0434 18.2444 42.3367 18.7689 41.9136C19.3165 41.4719 20.1184 41.4147 20.729 41.7749C21.3123 42.1189 21.6201 42.7944 21.4845 43.4345C21.3297 44.1671 20.636 44.7135 19.8491 44.7135Z" fill="#B378D4"/>
<path d="M20.1209 37.549C19.7394 37.549 19.358 37.4251 19.0476 37.1769C17.6358 36.0483 5.17861 26.0409 2.54908 22.2433C1.45855 20.6677 0.0313769 18.1692 0.227152 14.676C0.3802 11.9542 1.5904 9.39901 3.63511 7.48057C5.71436 5.52956 8.43101 4.45508 11.2848 4.45508C15.2988 4.45508 18.4421 7.02015 20.1299 8.78527C21.8594 7.03 25.0554 4.45508 28.9218 4.45508C31.7758 4.45508 34.4925 5.52956 36.5719 7.48057C38.6166 9.39901 39.8271 11.9542 39.98 14.6756C40.1739 18.1218 38.8419 20.5293 37.6597 22.2415C34.968 26.1375 21.7559 36.7276 21.1948 37.1764C20.8843 37.4249 20.5026 37.549 20.1209 37.549ZM11.285 7.63262C7.24935 7.63262 3.78432 10.8683 3.5605 14.8453C3.44851 16.8448 3.97976 18.5344 5.33666 20.4948C7.16724 23.1389 15.8092 30.3837 20.1206 33.8786C24.4176 30.3916 33.0284 23.1625 34.8708 20.4959C36.2279 18.5302 36.7591 16.8402 36.6471 14.8456C36.4233 10.8685 32.958 7.63278 28.9221 7.63278C24.9217 7.63278 21.5019 12.1592 21.4678 12.2049C21.1546 12.6253 20.646 12.8757 20.1056 12.8757C20.0971 12.8757 20.0884 12.8756 20.0799 12.8756C19.5298 12.8673 19.0185 12.6031 18.7141 12.1668C18.6841 12.1244 15.4721 7.63262 11.285 7.63262Z" fill="#B378D4"/>
</symbol>

<symbol id="icon-star" viewBox="0 0 100 16" >
<path d="M8 0L9.79611 5.52786H15.6085L10.9062 8.94427L12.7023 14.4721L8 11.0557L3.29772 14.4721L5.09383 8.94427L0.391548 5.52786H6.20389L8 0Z" fill="#E2D138"/>
<path d="M29 0L30.7961 5.52786H36.6085L31.9062 8.94427L33.7023 14.4721L29 11.0557L24.2977 14.4721L26.0938 8.94427L21.3915 5.52786H27.2039L29 0Z" fill="#E2D138"/>
<path d="M50 0L51.7961 5.52786H57.6085L52.9062 8.94427L54.7023 14.4721L50 11.0557L45.2977 14.4721L47.0938 8.94427L42.3915 5.52786H48.2039L50 0Z" fill="#E2D138"/>
<path d="M71 0L72.7961 5.52786H78.6085L73.9062 8.94427L75.7023 14.4721L71 11.0557L66.2977 14.4721L68.0938 8.94427L63.3915 5.52786H69.2039L71 0Z" fill="#E2D138"/>
<path d="M92 0L93.7961 5.52786H99.6085L94.9062 8.94427L96.7023 14.4721L92 11.0557L87.2977 14.4721L89.0938 8.94427L84.3915 5.52786H90.2039L92 0Z" fill="#E2D138"/>
</symbol>

<symbol id="icon-comment" viewBox="0 0 16 16" >
<g clip-path="url(#clip0_236:7053)">
<path d="M8.00012 1C3.58137 1 0.000120881 3.90937 0.000120881 7.5C0.000120881 8.9875 0.621996 10.35 1.65325 11.4469C1.18762 12.6781 0.218871 13.7219 0.203246 13.7344C-0.00300412 13.9531 -0.0592541 14.2719 0.0594959 14.5469C0.178246 14.8219 0.450121 15 0.750121 15C2.672 15 4.18762 14.1969 5.097 13.5531C6.00012 13.8375 6.97512 14 8.00012 14C12.4189 14 16.0001 11.0906 16.0001 7.5C16.0001 3.90937 12.4189 1 8.00012 1ZM8.00012 12.5C7.16575 12.5 6.34075 12.3719 5.55012 12.1219L4.84075 11.8969L4.23137 12.3281C3.7845 12.6438 3.172 12.9969 2.4345 13.2344C2.66262 12.8562 2.8845 12.4312 3.05637 11.9781L3.38762 11.1L2.74387 10.4187C2.17825 9.81563 1.50012 8.81875 1.50012 7.5C1.50012 4.74375 4.41575 2.5 8.00012 2.5C11.5845 2.5 14.5001 4.74375 14.5001 7.5C14.5001 10.2563 11.5845 12.5 8.00012 12.5Z" fill="#B378D4"/>
</g>
<defs>
<clipPath id="clip0_236:7053">
<rect width="16" height="16" fill="white"/>
</clipPath>
</defs>
</symbol>

<symbol id="icon-date" viewBox="0 0 16 16" >
<path d="M14.7648 6.4375H10.7648C10.6961 6.4375 10.6398 6.49375 10.6398 6.5625V7.3125C10.6398 7.38125 10.6961 7.4375 10.7648 7.4375H14.7648C14.8336 7.4375 14.8898 7.38125 14.8898 7.3125V6.5625C14.8898 6.49375 14.8336 6.4375 14.7648 6.4375ZM12.6711 8.5625H10.7648C10.6961 8.5625 10.6398 8.61875 10.6398 8.6875V9.4375C10.6398 9.50625 10.6961 9.5625 10.7648 9.5625H12.6711C12.7398 9.5625 12.7961 9.50625 12.7961 9.4375V8.6875C12.7961 8.61875 12.7398 8.5625 12.6711 8.5625ZM7.45703 5.03906H6.78047C6.68359 5.03906 6.60547 5.11719 6.60547 5.21406V9.08906C6.60547 9.14531 6.63203 9.19688 6.67734 9.22969L9.00391 10.9266C9.08203 10.9828 9.19141 10.9672 9.24766 10.8891L9.64922 10.3406V10.3391C9.70547 10.2609 9.68828 10.1516 9.61016 10.0953L7.63047 8.66406V5.21406C7.63203 5.11719 7.55234 5.03906 7.45703 5.03906Z" fill="#B378D4"/>
<path d="M12.575 10.5286H11.6719C11.5844 10.5286 11.5016 10.5739 11.4547 10.6489C11.2563 10.963 11.025 11.2536 10.7594 11.5192C10.3016 11.977 9.76876 12.3364 9.17657 12.5864C8.56251 12.8458 7.91095 12.977 7.23907 12.977C6.56564 12.977 5.91407 12.8458 5.30157 12.5864C4.70939 12.3364 4.17657 11.977 3.71876 11.5192C3.26095 11.0614 2.90157 10.5286 2.65157 9.93641C2.3922 9.32391 2.26095 8.67235 2.26095 7.99891C2.26095 7.32548 2.3922 6.67548 2.65157 6.06141C2.90157 5.46923 3.26095 4.93641 3.71876 4.4786C4.17657 4.02079 4.70939 3.66141 5.30157 3.41141C5.91407 3.15204 6.5672 3.02079 7.23907 3.02079C7.91251 3.02079 8.56407 3.15204 9.17657 3.41141C9.76876 3.66141 10.3016 4.02079 10.7594 4.4786C11.025 4.74423 11.2563 5.03485 11.4547 5.34891C11.5016 5.42391 11.5844 5.46923 11.6719 5.46923H12.575C12.6828 5.46923 12.7516 5.35673 12.7031 5.26141C11.6844 3.23485 9.61876 1.91766 7.31251 1.8911C3.93595 1.84891 1.13126 4.61298 1.12501 7.98641C1.11876 11.3661 3.85782 14.1083 7.23751 14.1083C9.57345 14.1083 11.6734 12.7864 12.7031 10.7364C12.7516 10.6411 12.6813 10.5286 12.575 10.5286Z" fill="#B378D4"/>
</symbol>

<symbol id="icon-heart-fade" viewBox="0 0 112 112" >
<g opacity="0.1">
<path d="M100.1 38.6771C90.4747 12.7771 58.9747 24.3271 55.9997 37.2771C51.9747 23.4521 21.3497 13.1271 11.8997 38.6771C1.39968 67.0271 52.3247 92.4021 55.9997 96.6021C59.6747 93.2771 110.6 66.5021 100.1 38.6771Z" fill="#B378D4"/>
<path d="M73.6044 49.5366C69.7622 37.5259 57.1879 42.882 56.0003 48.8874C54.3936 42.4763 42.1685 37.6882 38.3962 49.5366C34.2048 62.6835 54.5333 74.4508 56.0003 76.3985C57.4673 74.8566 77.7959 62.4401 73.6044 49.5366Z" fill="white"/>
<path d="M105 32.3773C103.95 29.0523 102.2 26.0773 99.7504 23.6273C97.4754 21.1773 94.5004 19.2523 91.5254 18.0273C89.9504 17.3273 88.3754 16.9773 86.8004 16.6273C85.9254 16.4523 85.2254 16.4523 84.3504 16.2773H81.9004L84.0004 17.3273L86.1004 18.3773C87.5004 19.0773 88.9004 19.7773 90.1254 20.6523C92.7504 22.2273 95.0254 24.1523 97.1254 26.2523C99.2254 28.3523 100.8 30.8023 102.375 33.6023C103.075 35.0023 103.775 36.4023 104.3 37.8023C104.65 38.5023 104.825 39.3773 105.175 40.0773L106.05 42.3523C106.225 41.4773 106.225 40.6023 106.225 39.9023C106.225 39.0273 106.225 38.1523 106.05 37.4523C105.875 35.7023 105.525 33.9523 105 32.3773Z" fill="#B378D4"/>
<path d="M108.501 27.65C108.326 26.425 108.151 25.2 107.801 23.975C107.101 21.525 105.701 19.25 103.951 17.325C102.201 15.4 100.101 14 97.8262 13.3C96.6012 12.95 95.5512 12.6 94.3262 12.425C93.8012 12.425 93.1012 12.25 92.5762 12.25C92.0512 12.25 91.3512 12.25 90.8262 12.425C91.3512 12.775 91.8762 12.95 92.4012 13.3C92.7512 13.475 93.2762 13.825 93.8012 14C94.8512 14.525 95.7262 15.05 96.6012 15.75C98.3512 16.975 100.101 18.375 101.501 19.775C102.901 21.35 104.126 23.1 105.351 25.025C105.876 25.9 106.401 26.95 106.926 28C107.101 28.525 107.451 29.05 107.626 29.575C107.801 30.1 108.151 30.625 108.326 31.325C108.501 30.625 108.501 30.1 108.501 29.4V27.65Z" fill="#B378D4"/>
<path d="M7.52539 37.8023C8.05039 36.4023 8.75039 34.8273 9.45039 33.6023C10.8504 30.8023 12.6004 28.3523 14.7004 26.2523C16.8004 24.1523 19.0754 22.2273 21.7004 20.6523C22.9254 19.7773 24.3254 19.0773 25.7254 18.3773L27.8254 17.3273L29.9254 16.2773H27.4754C26.6004 16.2773 25.9004 16.4523 25.0254 16.6273C23.4504 16.9773 21.8754 17.3273 20.3004 18.0273C17.3254 19.2523 14.5254 21.1773 12.2504 23.6273C9.97539 26.0773 8.05039 29.0523 7.00039 32.3773C6.47539 33.9523 6.12539 35.7023 5.95039 37.2773C5.77539 38.1523 5.77539 39.0273 5.77539 39.7273C5.77539 40.6023 5.77539 41.4773 5.95039 42.1773L6.82539 39.9023C7.00039 39.2023 7.17539 38.5023 7.52539 37.8023Z" fill="#B378D4"/>
<path d="M10.5 19.9512C11.9 18.3762 13.65 16.9762 15.4 15.7512C16.275 15.2262 17.325 14.5262 18.2 14.0012C18.725 13.6512 19.25 13.4762 19.775 13.1262C20.3 12.7762 20.825 12.6012 21.35 12.2512C20.825 12.2512 20.125 12.0762 19.6 12.0762C19.075 12.0762 18.375 12.0762 17.85 12.2512C16.625 12.4262 15.575 12.7762 14.35 13.1262C11.9 14.1762 9.8 15.5762 8.05 17.3262C6.3 19.2512 4.9 21.5262 4.2 23.9762C3.85 25.2012 3.675 26.4262 3.5 27.6512V29.5762C3.5 30.2762 3.5 30.8012 3.675 31.5012C3.85 30.9762 4.2 30.4512 4.375 29.7512C4.725 29.0512 4.9 28.5262 5.25 28.0012C5.775 26.9512 6.3 25.9012 6.825 25.0262C7.875 23.1012 9.1 21.3512 10.5 19.9512Z" fill="#B378D4"/>
<path d="M13.6496 70.875L13.4746 71.225C14.3496 73.85 15.7496 75.95 17.1496 78.05C18.5496 80.15 20.2996 81.9 22.0496 83.475C23.7996 85.05 25.7246 86.625 27.8246 88.025C29.9246 89.425 32.1996 90.475 34.8246 91.175L34.9996 90.825C31.4996 87.325 27.9996 84 24.4996 80.675C20.8246 77.525 17.3246 74.025 13.6496 70.875Z" fill="#B378D4"/>
<path d="M6.3 76.125L6.125 76.475C7.35 79.45 8.925 81.9 10.675 84.175C12.425 86.45 14.35 88.55 16.45 90.475C18.55 92.4 20.65 94.15 23.1 95.9C25.55 97.475 28 99.05 30.975 99.925L31.15 99.575C27.125 95.55 22.925 91.7 18.9 87.675C14.7 83.825 10.5 79.8 6.3 76.125Z" fill="#B378D4"/>
<path d="M90.1238 83.475C91.8738 81.725 93.6238 79.975 95.0238 78.05C96.4238 76.125 97.8238 73.85 98.6988 71.225L98.5238 70.875C94.8488 74.025 91.3488 77.525 87.6738 80.675C84.1738 84 80.6738 87.325 77.1738 90.825L77.3488 91.175C79.9738 90.475 82.2488 89.25 84.3488 88.025C86.4488 86.625 88.1988 85.05 90.1238 83.475Z" fill="#B378D4"/>
<path d="M93.0996 87.675C89.0746 91.7 84.8746 95.55 80.8496 99.575L81.0246 99.925C83.9996 98.875 86.4496 97.475 88.8996 95.9C91.3496 94.325 93.4496 92.575 95.5496 90.475C97.6496 88.55 99.5746 86.45 101.325 84.175C103.075 81.9 104.65 79.45 105.875 76.475L105.7 76.125C101.5 79.8 97.2996 83.825 93.0996 87.675Z" fill="#B378D4"/>
</g>
</symbol>

<symbol id="icon-phone" viewBox="0 0 57 57" >
<path d="M42.75 23.1562H39.1875C39.1861 21.7394 38.6226 20.3811 37.6208 19.3792C36.6189 18.3774 35.2606 17.8139 33.8438 17.8125V14.25C36.205 14.2528 38.4687 15.1921 40.1383 16.8617C41.8079 18.5313 42.7472 20.795 42.75 23.1562Z" />
<path d="M49.875 23.1562H46.3125C46.3087 19.8505 44.9938 16.6812 42.6563 14.3437C40.3188 12.0062 37.1495 10.6913 33.8438 10.6875V7.125C38.0941 7.12971 42.1689 8.82023 45.1743 11.8257C48.1798 14.8311 49.8703 18.9059 49.875 23.1562Z" />
<path d="M46.3126 51.6562H46.0098C11.0082 49.6434 6.03853 20.1103 5.34384 11.0972C5.23527 9.68421 5.6924 8.28596 6.6147 7.21001C7.53699 6.13406 8.84891 5.46852 10.2619 5.35978C10.4032 5.3491 10.5451 5.34375 10.6876 5.34375H20.0748C20.7883 5.34306 21.4855 5.55663 22.0763 5.95679C22.667 6.35695 23.1239 6.92527 23.3879 7.58813L26.0954 14.25C26.3561 14.8976 26.4208 15.6075 26.2814 16.2915C26.1421 16.9755 25.8049 17.6035 25.3117 18.0975L21.5176 21.9272C22.1078 25.2961 23.7199 28.402 26.1352 30.8237C28.5505 33.2453 31.6521 34.8656 35.0195 35.4647L38.8848 31.635C39.3862 31.1472 40.0201 30.8179 40.7075 30.688C41.3949 30.5581 42.1053 30.6335 42.7501 30.9047L49.4654 33.5944C50.1183 33.8667 50.6753 34.3272 51.0655 34.9173C51.4557 35.5073 51.6614 36.2001 51.6563 36.9075V46.3125C51.6563 47.7298 51.0933 49.089 50.0912 50.0911C49.0891 51.0933 47.7298 51.6562 46.3126 51.6562ZM10.6876 8.90625C10.4537 8.90555 10.2219 8.95093 10.0055 9.03979C9.78915 9.12866 9.59239 9.25928 9.42649 9.42419C9.26059 9.5891 9.1288 9.78507 9.03863 10.0009C8.94847 10.2168 8.9017 10.4482 8.901 10.6822C8.901 10.732 8.90278 10.7813 8.90634 10.83C9.72572 21.375 14.9804 46.3125 46.2057 48.0938C46.6772 48.122 47.1405 47.9619 47.4939 47.6485C47.8473 47.3352 48.0618 46.8944 48.0903 46.4229L48.0938 46.3125V36.9075L41.3785 34.2178L36.2663 39.2944L35.4113 39.1875C19.9145 37.2459 17.8126 21.7491 17.8126 21.5888L17.7057 20.7338L22.7645 15.6216L20.0926 8.90625H10.6876Z"/>
</symbol>

<symbol id="icon-email" viewBox="0 0 57 57" >
<path d="M52.25 14.25C52.25 11.6375 50.1125 9.5 47.5 9.5H9.5C6.8875 9.5 4.75 11.6375 4.75 14.25V42.75C4.75 45.3625 6.8875 47.5 9.5 47.5H47.5C50.1125 47.5 52.25 45.3625 52.25 42.75V14.25ZM47.5 14.25L28.5 26.125L9.5 14.25H47.5ZM47.5 42.75H9.5V19L28.5 30.875L47.5 19V42.75Z"/>
</symbol>

<symbol id="icon-location" viewBox="0 0 57 57" >
<path d="M28.2057 51.8051V28.7949H5.19727L51.8055 5.19336L28.2057 51.8051Z"/>
</symbol>

<symbol id="icon-display1" viewBox="0 0 16 16" >
<rect x="9" width="7" height="7"/>
<rect width="7" height="7"/>
<rect x="9" y="9" width="7" height="7"/>
<rect y="9" width="7" height="7"/>
</symbol>

<symbol id="icon-display2" viewBox="0 0 17 16" >
<path d="M0 0.625076H4.25V4.43468H0V0.625076ZM6.375 0.625076H10.625V4.43468H6.375V0.625076ZM12.75 0.625076H17V4.43468H12.75V0.625076ZM0 6.33948H4.25V10.1491H0V6.33948ZM6.375 6.33948H10.625V10.1491H6.375V6.33948ZM12.75 6.33948H17V10.1491H12.75V6.33948ZM0 12.0539H4.25V15.8635H0V12.0539ZM6.375 12.0539H10.625V15.8635H6.375V12.0539ZM12.75 12.0539H17V15.8635H12.75V12.0539Z"/>
</symbol>

<symbol id="icon-display3" viewBox="0 0 20 17" >
<path d="M1.875 0.625076C1.50416 0.625076 1.14165 0.734443 0.833307 0.939346C0.524964 1.14425 0.284641 1.43549 0.142727 1.77623C0.000812411 2.11697 -0.0363188 2.49191 0.0360284 2.85364C0.108376 3.21537 0.286952 3.54764 0.549176 3.80843C0.811399 4.06922 1.14549 4.24683 1.50921 4.31878C1.87292 4.39073 2.24992 4.3538 2.59253 4.21266C2.93514 4.07152 3.22798 3.83251 3.43401 3.52585C3.64003 3.21919 3.75 2.85866 3.75 2.48984C3.75 1.99528 3.55246 1.52097 3.20083 1.17125C2.8492 0.821542 2.37228 0.625076 1.875 0.625076ZM1.875 6.84097C1.50416 6.84097 1.14165 6.95033 0.833307 7.15524C0.524964 7.36014 0.284641 7.65137 0.142727 7.99212C0.000812411 8.33286 -0.0363188 8.7078 0.0360284 9.06953C0.108376 9.43126 0.286952 9.76353 0.549176 10.0243C0.811399 10.2851 1.14549 10.4627 1.50921 10.5347C1.87292 10.6066 2.24992 10.5697 2.59253 10.4286C2.93514 10.2874 3.22798 10.0484 3.43401 9.74174C3.64003 9.43508 3.75 9.07455 3.75 8.70573C3.75 8.21116 3.55246 7.73685 3.20083 7.38714C2.8492 7.03743 2.37228 6.84097 1.875 6.84097ZM1.875 13.0569C1.50416 13.0569 1.14165 13.1662 0.833307 13.3711C0.524964 13.576 0.284641 13.8673 0.142727 14.208C0.000812411 14.5487 -0.0363188 14.9237 0.0360284 15.2854C0.108376 15.6471 0.286952 15.9794 0.549176 16.2402C0.811399 16.501 1.14549 16.6786 1.50921 16.7506C1.87292 16.8225 2.24992 16.7856 2.59253 16.6444C2.93514 16.5033 3.22798 16.2643 3.43401 15.9576C3.64003 15.651 3.75 15.2904 3.75 14.9216C3.75 14.4271 3.55246 13.9527 3.20083 13.603C2.8492 13.2533 2.37228 13.0569 1.875 13.0569ZM19.375 13.6784H6.875C6.70924 13.6784 6.55027 13.7439 6.43306 13.8605C6.31585 13.9771 6.25 14.1352 6.25 14.3V15.5432C6.25 15.7081 6.31585 15.8662 6.43306 15.9827C6.55027 16.0993 6.70924 16.1648 6.875 16.1648H19.375C19.5408 16.1648 19.6997 16.0993 19.8169 15.9827C19.9342 15.8662 20 15.7081 20 15.5432V14.3C20 14.1352 19.9342 13.9771 19.8169 13.8605C19.6997 13.7439 19.5408 13.6784 19.375 13.6784ZM19.375 1.24667H6.875C6.70924 1.24667 6.55027 1.31215 6.43306 1.42872C6.31585 1.5453 6.25 1.7034 6.25 1.86825V3.11143C6.25 3.27629 6.31585 3.43439 6.43306 3.55096C6.55027 3.66753 6.70924 3.73302 6.875 3.73302H19.375C19.5408 3.73302 19.6997 3.66753 19.8169 3.55096C19.9342 3.43439 20 3.27629 20 3.11143V1.86825C20 1.7034 19.9342 1.5453 19.8169 1.42872C19.6997 1.31215 19.5408 1.24667 19.375 1.24667ZM19.375 7.46255H6.875C6.70924 7.46255 6.55027 7.52804 6.43306 7.64461C6.31585 7.76118 6.25 7.91929 6.25 8.08414V9.32732C6.25 9.49218 6.31585 9.65028 6.43306 9.76685C6.55027 9.88342 6.70924 9.94891 6.875 9.94891H19.375C19.5408 9.94891 19.6997 9.88342 19.8169 9.76685C19.9342 9.65028 20 9.49218 20 9.32732V8.08414C20 7.91929 19.9342 7.76118 19.8169 7.64461C19.6997 7.52804 19.5408 7.46255 19.375 7.46255Z"/>
</symbol>

<symbol id="icon-nav-right" viewBox="0 0 7 14" >
<path d="M1.15916 13.0098C0.954392 13.0102 0.755951 12.9389 0.598283 12.8082C0.509544 12.7347 0.436191 12.6443 0.382424 12.5423C0.328657 12.4404 0.295534 12.3288 0.284951 12.214C0.274368 12.0993 0.286534 11.9835 0.320751 11.8734C0.354968 11.7634 0.410564 11.6611 0.484356 11.5726L4.41046 6.87526L0.624575 2.16918C0.551779 2.07954 0.497416 1.9764 0.464612 1.86568C0.431809 1.75496 0.42121 1.63885 0.433426 1.52402C0.445642 1.40919 0.48043 1.29791 0.535794 1.19657C0.591157 1.09523 0.666003 1.00583 0.756029 0.93351C0.846703 0.853729 0.952888 0.793552 1.06792 0.756754C1.18295 0.719956 1.30435 0.707333 1.4245 0.719677C1.54464 0.73202 1.66093 0.769064 1.76608 0.828483C1.87123 0.887902 1.96296 0.968414 2.03552 1.06497L6.26836 6.32315C6.39725 6.47996 6.46772 6.67665 6.46772 6.87964C6.46772 7.08262 6.39725 7.27932 6.26836 7.43613L1.88654 12.6943C1.79862 12.8004 1.68695 12.8842 1.56056 12.939C1.43418 12.9938 1.29666 13.0181 1.15916 13.0098Z"/>
</symbol>

<symbol id="icon-quote" viewBox="0 0 99 99" >
<path d="M90.55 35.9741L90.4469 35.2811L90.3396 35.3059C89.6067 31.8781 87.9181 28.728 85.4694 26.2199C83.0207 23.7119 79.9119 21.9484 76.5027 21.1335C73.0935 20.3187 69.5233 20.4858 66.2051 21.6154C62.8869 22.7451 59.9564 24.7912 57.7526 27.517C55.5488 30.2428 54.1619 33.5369 53.7522 37.0181C53.3426 40.4993 53.9269 44.0253 55.4377 47.1882C56.9485 50.3511 59.324 53.0216 62.2893 54.8908C65.2546 56.7599 68.6885 57.7512 72.1938 57.75C73.1136 57.75 73.9964 57.6098 74.875 57.4819C74.5904 58.4389 74.2975 59.4124 73.8273 60.2869C73.357 61.5574 72.6228 62.6587 71.8926 63.7684C71.2821 64.9688 70.2055 65.7814 69.4135 66.8085C68.5844 67.8067 67.4541 68.4709 66.559 69.3C65.6804 70.1662 64.5295 70.5994 63.6138 71.2099C62.6568 71.7585 61.8235 72.3649 60.9325 72.6536L58.7091 73.5694L56.7539 74.382L58.7504 82.3804L61.213 81.7864C62.0009 81.5884 62.962 81.3574 64.0551 81.081C65.173 80.8748 66.3651 80.3096 67.6934 79.794C69.001 79.2041 70.5231 78.8123 71.9339 77.8676C73.3529 76.9684 74.9905 76.2176 76.4343 75.0131C77.8326 73.7715 79.5198 72.6949 80.7655 71.1191C82.1268 69.6424 83.4715 68.0914 84.5151 66.3259C85.7238 64.6429 86.5446 62.7949 87.4109 60.9675C88.1946 59.1401 88.8258 57.2715 89.3414 55.4565C90.319 51.8183 90.7563 48.3615 90.9254 45.4039C91.0656 42.4421 90.9831 39.9795 90.8099 38.1975C90.7519 37.4533 90.6652 36.7116 90.55 35.9741ZM45.175 35.9741L45.0719 35.2811L44.9646 35.3059C44.2317 31.8781 42.5431 28.728 40.0944 26.2199C37.6457 23.7119 34.5369 21.9484 31.1277 21.1335C27.7185 20.3187 24.1483 20.4858 20.8301 21.6154C17.5119 22.7451 14.5814 24.7912 12.3776 27.517C10.1738 30.2428 8.78688 33.5369 8.37722 37.0181C7.96756 40.4993 8.55194 44.0253 10.0627 47.1882C11.5735 50.3511 13.949 53.0216 16.9143 54.8908C19.8796 56.7599 23.3135 57.7512 26.8188 57.75C27.7386 57.75 28.6214 57.6098 29.5 57.4819C29.2154 58.4389 28.9225 59.4124 28.4523 60.2869C27.982 61.5574 27.2478 62.6587 26.5176 63.7684C25.9071 64.9688 24.8305 65.7814 24.0385 66.8085C23.2094 67.8067 22.0791 68.4709 21.184 69.3C20.3054 70.1662 19.1545 70.5994 18.2388 71.2099C17.2818 71.7585 16.4485 72.3649 15.5575 72.6536L13.3341 73.5694C12.0925 74.0767 11.383 74.3738 11.383 74.3738L13.3795 82.3721L15.8421 81.7781C16.63 81.5801 17.5911 81.3491 18.6843 81.0727C19.8021 80.8665 20.9943 80.3014 22.3225 79.7857C23.6301 79.1959 25.1523 78.804 26.563 77.8594C27.982 76.9601 29.6196 76.2094 31.0634 75.0049C32.4618 73.7633 34.1489 72.6866 35.3946 71.1109C36.7559 69.6341 38.1006 68.0831 39.1443 66.3176C40.3529 64.6346 41.1738 62.7866 42.04 60.9593C42.8238 59.1319 43.4549 57.2633 43.9705 55.4482C44.9481 51.81 45.3854 48.3533 45.5545 45.3956C45.6948 42.4339 45.6123 39.9713 45.439 38.1893C45.3774 37.448 45.2894 36.7091 45.175 35.9741Z" fill="#C6C6C6" fill-opacity="0.31"/>
</symbol>

<symbol id="icon-less-than" viewBox="0 0 20 20">
<path d="M13.891 17.418c0.268 0.272 0.268 0.709 0 0.979s-0.701 0.271-0.969 0l-7.83-7.908c-0.268-0.27-0.268-0.707 0-0.979l7.83-7.908c0.268-0.27 0.701-0.27 0.969 0s0.268 0.709 0 0.979l-7.141 7.419 7.141 7.418z"></path>
</symbol>

<symbol id="icon-bigger-than" viewBox="0 0 20 20">
<path d="M13.25 10l-7.141-7.42c-0.268-0.27-0.268-0.707 0-0.979 0.268-0.27 0.701-0.27 0.969 0l7.83 7.908c0.268 0.271 0.268 0.709 0 0.979l-7.83 7.908c-0.268 0.271-0.701 0.27-0.969 0s-0.268-0.707 0-0.979l7.141-7.417z"></path>
</symbol>

<symbol id="wierd-shape" viewBox="0 0 487 488">
<path d="M485.5 251.5C485.5 315.166 467.764 373.936 433.387 416.756C399.041 459.539 348.009 486.5 281.144 486.5C214.209 486.5 144.249 459.48 91.0289 416.528C37.8017 373.571 1.5 314.837 1.5 251.5C1.5 188.14 37.8256 125.644 91.076 78.9324C144.317 32.2288 214.264 1.5 281.144 1.5C347.936 1.5 398.97 32.1478 433.35 78.696C467.76 125.284 485.5 187.829 485.5 251.5Z" stroke="#B378D4" stroke-width="3"/>
</symbol>


</defs>
</svg>
