<svg  aria-hidden="true" style="position: absolute; width: 0; height: 0; overflow: hidden;" version="1.1" xmlns="http://www.w3.org/2000/svg" xmlns:xlink="http://www.w3.org/1999/xlink">
<defs>

<symbol id="icon-rectangle" viewBox="0 0 12 12" >
<path d="M5.54883 11.0977C4.445 8.1543 3.36595 6.80407 -8.08698e-05 5.54875C3.47344 4.49582 4.68909 3.28172 5.54883 -0.00016174C6.85604 3.52186 8.29691 4.48651 11.0977 5.54875C8.08813 6.49088 6.86162 7.68898 5.54883 11.0977Z"/>
</symbol>

<symbol id="icon-star-logo" viewBox="0 0 9 8">
<path d="M2.23929 0.580365L4.82222 2.59636L8.03395 1.94787L6.01795 4.5308L6.66645 7.74253L4.08352 5.72653L0.871783 6.37503L2.88778 3.7921L2.23929 0.580365Z"/>
</symbol>

<symbol id="icon-search" viewBox="0 0 12 12">
<path d="M11.8315 10.9884L9.60683 8.77999C10.4704 7.70246 10.8886 6.33476 10.7754 4.95814C10.6623 3.58151 10.0264 2.30059 8.9985 1.37875C7.97062 0.456919 6.62888 -0.0357596 5.24917 0.00202291C3.86946 0.0398054 2.55665 0.605177 1.58069 1.58189C0.604718 2.5586 0.0397752 3.8724 0.00202138 5.25316C-0.0357324 6.63392 0.456573 7.97668 1.37771 9.00534C2.29884 10.034 3.57879 10.6704 4.95437 10.7836C6.32996 10.8968 7.69661 10.4783 8.77332 9.61413L10.98 11.8225C11.0358 11.8787 11.1021 11.9234 11.1752 11.9538C11.2482 11.9843 11.3266 12 11.4058 12C11.4849 12 11.5633 11.9843 11.6364 11.9538C11.7094 11.9234 11.7758 11.8787 11.8315 11.8225C11.9396 11.7106 12 11.5611 12 11.4054C12 11.2498 11.9396 11.1003 11.8315 10.9884ZM5.40932 9.61413C4.57914 9.61413 3.76759 9.36776 3.07732 8.90618C2.38704 8.44461 1.84904 7.78855 1.53134 7.02097C1.21364 6.25339 1.13051 5.40877 1.29247 4.59392C1.45444 3.77906 1.85421 3.03057 2.44124 2.4431C3.02827 1.85562 3.7762 1.45554 4.59043 1.29346C5.40467 1.13137 6.24865 1.21456 7.01564 1.5325C7.78263 1.85044 8.4382 2.38885 8.89942 3.07965C9.36065 3.77045 9.60683 4.58262 9.60683 5.41343C9.60683 6.52753 9.16459 7.59599 8.37741 8.38377C7.59022 9.17156 6.52257 9.61413 5.40932 9.61413Z"/>
</symbol>

<symbol id="icon-heart-shape" viewBox="0 0 82 82">
<g clip-path="url(#clip0_150:6)">
<path d="M37.3168 71.7576C36.6467 71.7576 36.0349 71.3241 35.8089 70.6948C35.586 70.074 35.7771 69.3617 36.2803 68.9352C36.8057 68.4899 37.5753 68.4323 38.1611 68.7953C38.7209 69.1421 39.0162 69.8231 38.8862 70.4683C38.7376 71.2068 38.0719 71.7576 37.3168 71.7576Z" fill="#1E7B67"/>
<path d="M28.714 79.3127C28.3472 79.3127 27.9811 79.1871 27.6839 78.9376C26.8509 78.238 7.2394 61.7383 3.33453 55.8134C0.833722 52.0182 -0.186299 48.5384 0.0276665 44.5304C0.243394 40.5009 1.94936 36.7173 4.83165 33.8765C7.75606 30.9937 11.5743 29.4062 15.5828 29.4062C21.7782 29.4062 26.5332 34.0132 28.717 36.6034C30.9662 34.0291 35.8351 29.4062 41.7928 29.4062C45.8016 29.4062 49.62 30.9937 52.5446 33.8763C55.427 36.7173 57.1332 40.5009 57.3487 44.5301C57.6236 49.6547 55.7269 53.2511 54.0436 55.8118C53.0262 57.3587 45.2105 64.861 43.654 66.3491C43.0146 66.9603 42.0007 66.9379 41.3895 66.2985C40.7782 65.6592 40.801 64.6454 41.4402 64.0341C45.8929 59.7767 50.8234 54.8789 51.367 54.0522C53.4954 50.8139 54.3277 48.0173 54.1501 44.7013C53.7932 38.0336 48.2497 32.6092 41.7926 32.6092C35.3561 32.6092 30.0519 40.0411 29.9992 40.1162C29.6948 40.5486 29.1968 40.8036 28.6677 40.7959C28.1387 40.7887 27.6477 40.5209 27.3551 40.0802C27.3064 40.0075 22.2868 32.6092 15.5828 32.6092C9.12634 32.6092 3.58309 38.0336 3.2261 44.7011C3.05122 47.9809 3.90964 50.8645 6.0091 54.0509C9.1896 58.8767 24.6909 72.1935 28.7635 75.6549L31.0686 73.8874C31.7704 73.3493 32.7758 73.4818 33.3141 74.1839C33.8522 74.8858 33.7196 75.8911 33.0176 76.4294L29.6885 78.9821C29.4004 79.203 29.0569 79.3127 28.714 79.3127Z" fill="#1E7B67"/>
<path d="M23.791 25.8093C23.4249 25.8093 23.059 25.6843 22.7611 25.4342C21.8601 24.6775 13.9089 17.9668 12.1999 15.3739C11.4664 14.2609 10.5067 12.4936 10.6393 10.0075C10.8591 5.90259 14.176 2.6875 18.1906 2.6875C20.6338 2.6875 22.5905 4.13129 23.7931 5.32844C25.0114 4.13145 26.9768 2.6875 29.3689 2.6875C33.3836 2.6875 36.7007 5.90259 36.9205 10.0072C37.0534 12.4875 36.0944 14.257 35.3614 15.3722C33.6416 17.9872 25.719 24.6792 24.8211 25.4337C24.5237 25.6842 24.1575 25.8093 23.791 25.8093ZM18.1908 5.89058C15.9172 5.89058 13.9645 7.81419 13.8378 10.1782C13.7736 11.3842 14.0836 12.4109 14.8746 13.6114C15.8701 15.1219 20.4185 19.2276 23.7907 22.1083C27.1504 19.2351 31.6833 15.1361 32.6852 13.6126C33.4765 12.4085 33.7869 11.3813 33.7225 10.1785C33.5958 7.81419 31.6431 5.89074 29.3692 5.89074C27.4916 5.89074 25.6037 7.97306 25.0905 8.70257C24.7862 9.13482 24.2944 9.39251 23.759 9.38226C23.23 9.37505 22.739 9.10728 22.4464 8.66653C21.9281 7.89763 20.1464 5.89058 18.1908 5.89058Z" fill="#1E7B67"/>
<path d="M62.9254 37.8521C62.5592 37.8521 62.1933 37.7272 61.8954 37.477C60.5407 36.3393 48.5871 26.2515 46.0639 22.4234C45.0174 20.8351 43.6479 18.3165 43.8358 14.7952C43.9827 12.0516 45.1439 9.47586 47.106 7.542C49.1012 5.57531 51.708 4.49219 54.4465 4.49219C58.2982 4.49219 61.3144 7.07787 62.934 8.85719C64.5935 7.0878 67.6603 4.49219 71.3704 4.49219C74.1091 4.49219 76.7159 5.57531 78.7113 7.542C80.6733 9.47586 81.8349 12.0516 81.9816 14.7949C82.1677 18.2688 80.8895 20.6956 79.7551 22.4216C77.1722 26.3489 64.4942 37.0241 63.9558 37.4766C63.6579 37.727 63.2916 37.8521 62.9254 37.8521ZM54.4466 7.69527C50.5741 7.69527 47.2492 10.957 47.0344 14.9659C46.9269 16.9815 47.4367 18.6847 48.7388 20.6609C50.4953 23.3261 58.7879 30.6292 62.925 34.1522C67.0484 30.6372 75.311 23.35 77.079 20.662C78.3812 18.6804 78.891 16.9768 78.7835 14.9663C78.5687 10.9571 75.2435 7.69543 71.3708 7.69543C67.532 7.69543 64.2505 12.2582 64.2178 12.3043C63.9172 12.7281 63.4292 12.9805 62.9106 12.9805C62.9025 12.9805 62.8941 12.9804 62.886 12.9804C62.3581 12.972 61.8675 12.7057 61.5754 12.2659C61.5466 12.2231 58.4644 7.69527 54.4466 7.69527Z" fill="#1E7B67"/>
</g>
<clipPath id="clip0_150:6">
<rect width="82" height="82" fill="white"/>
</clipPath>
</symbol>


<symbol id="icon-face" viewBox="0 0 9 16">
<path d="M5.40817 15.2972V8.5505H7.66358L7.99883 5.90893H5.40817V4.22636C5.40817 3.4641 5.61862 2.94221 6.70268 2.94221H8.07632V0.587104C7.40797 0.514822 6.73616 0.479921 6.06399 0.482561C4.07042 0.482561 2.70167 1.71074 2.70167 3.96541V5.90399H0.460938V8.54556H2.70656V15.2972H5.40817Z"/>
</symbol>

<symbol id="icon-pin" viewBox="0 0 13 16">
<path d="M5.648 10.2527C5.24212 12.3635 4.748 14.3877 3.28169 15.4447C2.83009 12.2544 3.94666 9.85777 4.46484 7.31405C3.58089 5.83505 4.57153 2.85769 6.4357 3.591C8.72982 4.49388 4.4488 9.09039 7.32287 9.66496C10.3237 10.2643 11.5493 4.49001 9.68837 2.61145C6.9996 -0.0995266 1.86191 2.55028 2.49399 6.43207C2.648 7.38141 3.63383 7.66947 2.88784 8.97966C1.16725 8.59946 0.653885 7.25055 0.720463 5.45175C0.826345 2.50924 3.38116 0.447935 5.94319 0.162976C9.18383 -0.197868 12.2247 1.3454 12.6443 4.37541C13.1175 7.79491 11.182 11.4994 7.71752 11.2322C6.77821 11.1602 6.38356 10.6979 5.648 10.2527Z"/>
</symbol>

<symbol id="icon-twit" viewBox="0 0 15 13">
<path d="M13.1495 3.01326C13.1592 3.14582 13.1592 3.27762 13.1592 3.40942C13.1592 7.44301 10.1368 12.0909 4.61311 12.0909C2.91135 12.0909 1.33039 11.5902 0 10.7206C0.241618 10.7487 0.474287 10.7585 0.7256 10.7585C2.07761 10.7618 3.39134 10.3026 4.45502 9.45488C3.82817 9.44335 3.22051 9.23328 2.71689 8.85399C2.21327 8.47471 1.83882 7.94514 1.64584 7.33923C1.83152 7.36726 2.01796 7.3862 2.21334 7.3862C2.48255 7.3862 2.75325 7.34832 3.00456 7.28242C2.32428 7.1429 1.71256 6.76836 1.27343 6.22247C0.834301 5.67658 0.594867 4.99305 0.595842 4.2881V4.25023C0.996301 4.47671 1.46089 4.61836 1.95308 4.6373C1.54075 4.35899 1.20266 3.98134 0.968962 3.53803C0.735264 3.09473 0.613227 2.59956 0.613739 2.09671C0.613739 1.53011 0.762141 1.01048 1.0224 0.557506C1.77719 1.50058 2.71858 2.27211 3.7856 2.82212C4.85262 3.37212 6.02148 3.68834 7.21647 3.75029C7.17024 3.52304 7.1419 3.28747 7.1419 3.05113C7.1417 2.6504 7.21926 2.25355 7.37015 1.88328C7.52104 1.51301 7.74229 1.17658 8.02126 0.893212C8.30023 0.609849 8.63144 0.385112 8.99597 0.231849C9.3605 0.0785853 9.75119 -0.000198747 10.1457 3.76516e-07C11.0108 3.76516e-07 11.7916 0.368136 12.3404 0.963516C13.0129 0.831424 13.6578 0.582065 14.2465 0.226487C14.0224 0.931562 13.5528 1.52943 12.9258 1.90809C13.5222 1.839 14.1051 1.67968 14.6552 1.43543C14.2444 2.04376 13.7353 2.57721 13.1495 3.01326Z"/>
</symbol>

<symbol id="icon-cake" viewBox="0 0 50 50" >
<path d="M29.7082 24.0349C30.2322 23.9806 30.7545 23.9116 31.2746 23.8279V20.1553C30.4746 20.5373 29.6402 20.7732 28.8105 20.956C26.7066 21.3959 24.5668 21.4474 22.4465 21.2256C21.3777 21.0904 20.3488 20.9139 19.2832 20.5349C19.0723 20.4553 18.8629 20.3662 18.6543 20.2662V23.5678C22.3121 24.167 26.0316 24.4209 29.7082 24.0349" fill="#3F3F3F"/>
<path d="M43.9836 32.8023V19.407C43.9836 17.8539 42.9164 16.4078 41.0906 15.1828V9.31641C41.0906 8.74219 40.6352 8.26719 40.0422 8.17734C40.4773 7.99297 40.7852 7.6125 40.7852 7.15469C40.7852 6.51953 39.4945 4.46953 39.4945 4.46953C39.4945 4.46953 38.2023 6.51875 38.2023 7.15469C38.2023 7.60625 38.5031 7.98359 38.9297 8.17109C38.3031 8.23359 37.8117 8.72031 37.8117 9.31641V13.5234C36.6677 13.0871 35.4958 12.7277 34.3039 12.4477C34.3654 12.3 34.3981 12.142 34.4 11.982C34.4 11.2141 32.8375 8.73672 32.8375 8.73672C32.8375 8.73672 31.4078 11.0055 31.2875 11.8727C29.757 11.6469 28.1281 11.5156 26.4477 11.4625V5.83359C26.4477 5.31719 26.0477 4.88594 25.5195 4.79141C25.8797 4.62344 26.1313 4.29844 26.1313 3.91172C26.1305 3.35547 25 1.5625 25 1.5625C25 1.5625 23.8695 3.35547 23.8695 3.91172C23.8695 4.29375 24.1148 4.61563 24.468 4.78516C23.9109 4.85703 23.4789 5.29688 23.4789 5.83359V11.4633C21.8359 11.518 20.243 11.6477 18.7445 11.868C18.5977 10.9812 17.1969 8.75937 17.1969 8.75937C17.1969 8.75937 15.6344 11.2359 15.6344 12.0047C15.6344 12.1586 15.6695 12.3039 15.7211 12.4422C14.49 12.7293 13.2805 13.1024 12.1016 13.5586V9.32812C12.1016 8.75469 11.6453 8.27969 11.0516 8.18984C11.4867 8.00547 11.7961 7.62422 11.7961 7.16641C11.7961 6.53125 10.5039 4.48125 10.5039 4.48125C10.5039 4.48125 9.21172 6.53047 9.21172 7.16641C9.21172 7.61797 9.51328 7.99531 9.93984 8.18281C9.3125 8.24609 8.82109 8.73281 8.82109 9.32812V15.2453C7.05 16.4578 6.01484 17.8812 6.01484 19.4078V32.8047C3.21641 34.4266 1.5625 36.4219 1.5625 38.5805C1.5625 44.025 12.0562 48.4375 25 48.4375C37.9438 48.4375 48.4375 44.025 48.4375 38.5805C48.4375 36.4211 46.7828 34.4258 43.9836 32.8023V32.8023ZM38.8477 7.76797C38.8477 7.45 39.4945 6.425 39.4945 6.425C39.4945 6.425 40.1414 7.45 40.1414 7.76797C40.14 7.84477 40.1218 7.92033 40.0882 7.98941C40.0546 8.05849 40.0064 8.11942 39.9469 8.16797C39.9109 8.16484 39.8758 8.15781 39.8391 8.15781H39.0641C39.0539 8.15781 39.0453 8.16016 39.0352 8.16016C38.9776 8.11203 38.9311 8.05211 38.8988 7.98445C38.8664 7.91678 38.849 7.84296 38.8477 7.76797ZM38.5922 9.31641C38.5922 9.11172 38.8078 8.93984 39.0641 8.93984H39.8391C40.0937 8.93984 40.3094 9.1125 40.3094 9.31641V17.7516C40.3081 17.8343 40.2757 17.9135 40.2187 17.9734L39.9312 18.1203C39.9011 18.1257 39.8705 18.1286 39.8398 18.1289H39.0648C38.8094 18.1289 38.593 17.9555 38.593 17.7516V9.31641H38.5922ZM32.8367 11.1008C32.8367 11.1008 33.6195 12.3391 33.6195 12.7234C33.6195 13.107 33.2687 13.4188 32.8367 13.4188C32.4047 13.4188 32.0555 13.1078 32.0555 12.7234C32.0555 12.3391 32.8367 11.1008 32.8367 11.1008V11.1008ZM24.4352 4.44766C24.4352 4.17031 25 3.27422 25 3.27422C25 3.27422 25.5664 4.16953 25.5664 4.44766C25.565 4.51084 25.5506 4.57306 25.5241 4.63045C25.4976 4.68784 25.4597 4.73917 25.4125 4.78125C25.375 4.77734 25.3391 4.77031 25.3008 4.77031H24.6234C24.6094 4.77031 24.5969 4.77344 24.5828 4.77422C24.5374 4.7326 24.5009 4.6822 24.4755 4.62607C24.4501 4.56994 24.4364 4.50924 24.4352 4.44766V4.44766ZM24.2602 5.83359C24.2602 5.68125 24.4266 5.55234 24.6234 5.55234H25.3008C25.4984 5.55234 25.6656 5.68125 25.6656 5.83359V13.2148C25.6648 13.2714 25.6431 13.3256 25.6047 13.3672L25.3664 13.4898C25.3447 13.493 25.3227 13.4946 25.3008 13.4945H24.6234C24.4266 13.4945 24.2602 13.3664 24.2602 13.2148V5.83359V5.83359ZM17.1969 11.1219C17.1969 11.1219 17.9781 12.3609 17.9781 12.7453C17.9781 13.1281 17.6289 13.4406 17.1969 13.4406C16.7648 13.4406 16.4156 13.1289 16.4156 12.7453C16.4156 12.3609 17.1969 11.1219 17.1969 11.1219ZM9.85859 7.77813C9.85859 7.46172 10.5039 6.43672 10.5039 6.43672C10.5039 6.43672 11.1508 7.46172 11.1508 7.77813C11.1495 7.85525 11.1313 7.93116 11.0976 8.00053C11.0638 8.0699 11.0153 8.13105 10.9555 8.17969C10.9195 8.17656 10.8852 8.16953 10.8484 8.16953H10.0734C10.0641 8.16953 10.0555 8.17188 10.0461 8.17188C9.98864 8.12335 9.9422 8.06312 9.90987 7.99522C9.87754 7.92733 9.86006 7.85331 9.85859 7.77813V7.77813ZM9.60234 9.32656C9.60234 9.12266 9.81797 8.95078 10.0742 8.95078H10.8492C11.1047 8.95078 11.3211 9.12344 11.3211 9.32656V17.7625C11.3196 17.8449 11.2869 17.9236 11.2297 17.9828L10.9422 18.1305C10.9117 18.1359 10.8809 18.1387 10.85 18.1391H10.075C9.81953 18.1391 9.60312 17.9664 9.60312 17.7625V9.32656H9.60234ZM8.73984 18.4227C8.76563 18.2898 8.81719 18.1687 8.86328 18.0453C8.91484 18.2344 9.01641 18.4039 9.15469 18.5438C9.09375 18.9898 9.20313 19.4422 9.44141 19.8336C9.94844 20.6484 10.8164 21.2187 11.7008 21.6719C12.9391 22.2883 14.2719 22.6812 15.6344 22.9906V15.0383C15.6344 14.8313 15.7336 14.65 15.8789 14.5008C15.6539 14.5445 15.4273 14.5773 15.2039 14.6273C14.1531 14.8664 13.0844 15.1828 12.1016 15.6398V15.2266C12.1133 15.2211 12.1242 15.2148 12.1359 15.2102C13.0953 14.7812 14.0961 14.4664 15.1109 14.2258C17.1445 13.7551 19.2187 13.4815 21.3047 13.4086C22.0352 13.3813 22.7672 13.3852 23.5 13.4031C23.5758 13.7875 23.8742 14.0953 24.2656 14.2164C23.2849 14.1152 22.3 14.0597 21.3141 14.05C20.156 14.0444 18.9985 14.0986 17.8461 14.2125C18.3063 14.3016 18.6547 14.6281 18.6547 15.0383V16.4695L18.6961 16.4492C19.232 16.2164 19.7625 16.082 20.2984 15.9805C21.368 15.7836 22.4391 15.7406 23.5055 15.8016C24.5773 15.8758 25.6242 16.0242 26.6711 16.4703C26.9289 16.5875 27.1859 16.7305 27.4242 16.9461C27.65 17.1437 27.9148 17.5273 27.8086 17.9664C27.6953 18.3758 27.4133 18.5836 27.1727 18.743C26.9286 18.8926 26.6652 19.0083 26.3898 19.0867C25.3297 19.3937 24.257 19.3906 23.2078 19.257C22.682 19.1734 22.1695 19.0766 21.6695 18.8352C21.4375 18.7086 21.1625 18.5547 21.0812 18.2281C21.0367 17.868 21.3469 17.6805 21.5625 17.5664L21.6188 17.6687C21.4125 17.7937 21.2078 17.9984 21.2672 18.1875C21.3266 18.3766 21.5602 18.5078 21.7773 18.5992C22.225 18.7781 22.75 18.843 23.2461 18.8805C24.25 18.9344 25.2867 18.8391 26.2023 18.5242C26.6133 18.3922 27.1242 18.0547 27.1445 17.8211C27.2086 17.6539 26.8023 17.3211 26.3711 17.175C25.4922 16.8516 24.4508 16.7531 23.4656 16.7164C22.4687 16.6937 21.4609 16.7703 20.5016 16.982C20.0258 17.0883 19.5539 17.2305 19.1469 17.425C18.9744 17.5078 18.8097 17.6059 18.6547 17.718V18.9031C18.9453 19.1047 19.3102 19.2719 19.6883 19.4047C20.5766 19.7086 21.6016 19.8789 22.5828 19.9836C24.5711 20.1938 26.6133 20.1266 28.5664 19.7602C29.5266 19.5711 30.4773 19.3016 31.275 18.8453V16.0313C30.9609 15.8438 30.6289 15.6719 30.2781 15.525C29.3742 15.1461 28.3938 14.8953 27.3961 14.6852C26.5268 14.5145 25.6512 14.3784 24.7711 14.2773H25.3023C25.4 14.2773 25.4969 14.2656 25.5914 14.2422L26.0164 14.0359L26.0977 13.9805C26.2172 13.8727 26.307 13.7453 26.3664 13.6063C26.768 13.6555 27.1687 13.7039 27.5687 13.7727C28.5992 13.9531 29.6406 14.1797 30.6609 14.5656C30.882 14.6484 31.1008 14.7445 31.318 14.8477C31.4164 14.4562 31.8164 14.1547 32.318 14.1547H33.2547C33.8297 14.1547 34.2969 14.5422 34.2969 15.0188V23.1484C36.7078 22.4352 38.9906 21.3094 40.9125 19.6164L40.9938 19.7C39.5891 21.2352 37.8031 22.4297 35.8813 23.2688C35.3617 23.493 34.8328 23.6937 34.2977 23.8773V24.5312C34.2977 24.7687 34.182 24.9852 33.9938 25.1406L33.525 25.3656C33.4362 25.3851 33.3456 25.3953 33.2547 25.3961H32.318C31.8078 25.3961 31.4023 25.0859 31.3125 24.6828C30.818 24.782 30.3203 24.8672 29.8219 24.9359C26.1008 25.4461 22.318 25.268 18.6453 24.5922C18.6382 24.7021 18.6085 24.8093 18.5583 24.9073C18.508 25.0052 18.4382 25.0918 18.3531 25.1617L17.8844 25.3859C17.7992 25.4047 17.707 25.4172 17.6141 25.4172H16.6773C16.1008 25.4172 15.6352 25.0297 15.6352 24.5523V23.9109C14.1742 23.5117 12.7297 23.0047 11.3914 22.2461C10.4813 21.7109 9.57031 21.0594 9.02266 20.0711C8.75547 19.5805 8.62344 18.9852 8.73984 18.4227V18.4227ZM42.4211 36.982C42.4211 40.0141 34.9711 43.4047 25 43.4047C15.0281 43.4047 7.57734 40.0141 7.57734 36.982V33.8773C8.34609 33.8359 8.96016 33.2789 8.96016 32.5922V29.5805C8.96016 28.632 9.83437 27.8633 10.9133 27.8633C11.9922 27.8633 12.868 28.632 12.868 29.5805V33.2961C12.868 34.3992 13.8859 35.2945 15.1398 35.2945C16.3953 35.2945 17.4133 34.3992 17.4133 33.2961V29.5C17.4133 28.507 18.3289 27.7031 19.4578 27.7031C20.5883 27.7031 21.5039 28.507 21.5039 29.5V31.9203C21.5039 32.4727 22.0117 32.9195 22.6406 32.9195C23.268 32.9195 23.7758 32.4727 23.7758 31.9203V30C23.7758 29.2828 24.4383 28.7016 25.2547 28.7016C26.0695 28.7016 26.7305 29.2828 26.7305 30V33.2969C26.7305 34.4 27.75 35.2953 29.0039 35.2953C30.2594 35.2953 31.2773 34.4 31.2773 33.2969V29.6016C31.2773 28.6641 32.1422 27.9031 33.2094 27.9031C34.2766 27.9031 35.1414 28.6641 35.1414 29.6016V32.2984C35.1414 32.85 35.6492 33.2969 36.2781 33.2969C36.9055 33.2969 37.4148 32.85 37.4148 32.2984V30.4102C37.4148 29.9187 37.8664 29.5203 38.425 29.5203C38.9852 29.5203 39.4383 29.9187 39.4383 30.4102V33.2969C39.4383 34.4 40.4547 35.2953 41.7102 35.2953C41.9602 35.2953 42.1961 35.2508 42.4211 35.1852V36.982" fill="#3F3F3F"/>
</symbol>

<symbol id="icon-car" viewBox="0 0 50 50" >
<path d="M42.8548 22.2083C42.5632 21.375 41.7715 20.8333 40.834 20.8333H25.8548C24.8965 20.8333 24.1257 21.375 23.8132 22.2083L20.834 30.7708L20.8548 42.25C20.8548 43.0416 21.5007 43.75 22.2923 43.75H23.584C24.3757 43.75 25.0007 42.9583 25.0007 42.1666V39.5833H41.6673V42.1666C41.6673 42.9583 42.3132 43.75 43.1048 43.75H44.3757C45.1673 43.75 45.8132 43.0416 45.8132 42.25L45.834 39.3958V30.7708L42.8548 22.2083V22.2083ZM25.8548 22.9166H40.834L42.9798 29.1666H23.709L25.8548 22.9166V22.9166ZM25.0007 35.4166C23.8548 35.4166 22.9173 34.4791 22.9173 33.3333C22.9173 32.1875 23.8548 31.25 25.0007 31.25C26.1465 31.25 27.084 32.1875 27.084 33.3333C27.084 34.4791 26.1465 35.4166 25.0007 35.4166ZM41.6673 35.4166C40.5215 35.4166 39.584 34.4791 39.584 33.3333C39.584 32.1875 40.5215 31.25 41.6673 31.25C42.8132 31.25 43.7507 32.1875 43.7507 33.3333C43.7507 34.4791 42.8132 35.4166 41.6673 35.4166Z" fill="#3F3F3F"/>
<path d="M29.166 18.75H31.2493V6.25H14.5827V16.6667H4.16602V43.75H6.24935V18.75H16.666V8.33333H29.166V18.75Z" fill="#3F3F3F"/>
<path d="M10.416 22.9167H14.5827V27.0833H10.416V22.9167ZM20.8327 10.4167H24.9994V14.5833H20.8327V10.4167ZM10.416 31.25H14.5827V35.4167H10.416V31.25ZM10.416 39.5833H14.5827V43.75H10.416V39.5833Z" fill="#3F3F3F"/>
</symbol>


<symbol id="icon-plant" viewBox="0 0 50 50" >
<path d="M5.41217 31.6357C5.41217 31.6357 6.9192 25.2459 10.3692 21.999C10.9754 21.4287 11.4598 20.8818 11.8458 20.3623C12.2528 21.9522 12.7614 23.5022 13.2669 25.024C14.1512 27.6412 15.0411 30.2045 15.7497 32.7873C15.9372 33.4584 16.1106 34.1318 16.2731 34.8053L12.6606 36.4311L16.727 36.8967C17.4851 40.6944 17.8044 44.5667 17.6786 48.4373H22.3989C22.2481 42.8311 21.1801 37.2311 19.3387 31.9264C18.4348 29.2701 17.3598 26.6873 16.3294 24.1467C16.0504 23.4506 15.7754 22.7584 15.5114 22.0662L18.5489 19.8318L14.8387 20.199C14.4301 18.9865 14.0864 17.774 13.8653 16.5561C13.3856 14.0217 13.5544 11.4607 14.4372 9.0045C14.8614 7.78028 15.434 6.59747 16.2379 5.567C17.0333 4.53575 18.0739 3.65919 19.3254 3.15137C20.6164 2.62972 22.0414 2.53929 23.3879 2.89356C24.4911 3.17559 25.5044 3.73887 26.37 4.45997L26.3676 4.46153C16.6872 9.75059 22.8239 20.2889 22.8239 20.2889C22.8239 20.2889 22.9333 18.8725 23.3083 16.9592C23.7115 17.9059 24.258 18.7849 24.9286 19.5654C28.9145 24.2162 29.7262 29.624 29.7348 29.6779L29.9512 31.2037L30.784 30.0818C30.8419 30.0045 31.484 29.1264 32.3184 27.6584C33.8903 28.5115 35.395 28.8178 35.4669 28.8318L36.1598 28.9678L36.0879 28.2139C36.0387 27.6857 36.134 27.1076 36.3278 26.4982C38.577 27.0818 40.4333 26.7795 40.5161 26.7662L41.3075 26.6318L40.8497 25.8443C40.8434 25.8318 40.1497 24.5873 40.0372 22.6092C41.8114 22.8928 42.6293 23.3389 42.6387 23.3451L43.1239 23.6178L43.3786 23.1537C43.4059 23.1037 43.9872 21.9826 44.1278 20.2545C45.9864 19.974 47.2333 19.6482 47.3676 19.6107L48.4372 19.3264L47.5044 18.5139C47.4723 18.4881 44.3911 15.7787 41.4723 10.3428C41.0578 9.57399 40.5812 8.8403 40.0473 8.14903C41.5426 8.6295 42.5379 9.03809 42.5379 9.03809C42.5379 9.03809 35.5208 -0.55722 27.6489 3.74356L27.0528 4.07637C26.1653 3.17559 25.0575 2.41231 23.7403 1.9709C22.1903 1.43497 20.3708 1.42247 18.7723 1.95059C17.1606 2.46934 15.8075 3.45606 14.7692 4.59434C13.7192 5.73575 12.952 7.03341 12.3567 8.36387C11.5536 10.1631 11.1364 12.1131 11.0567 14.0639C9.30045 13.9623 5.77857 14.3342 3.05279 18.324C-1.35268 24.7717 5.41217 31.6357 5.41217 31.6357V31.6357ZM39.2833 21.2475L39.4715 20.9725L39.6872 20.6561C40.7683 20.6258 41.8476 20.5465 42.9215 20.4186C42.8519 20.9526 42.7238 21.4774 42.5395 21.9834C41.9544 21.7553 40.8848 21.4287 39.2833 21.2475V21.2475ZM36.7926 25.3365C37.2364 24.3936 37.8426 23.4061 38.4833 22.4357C38.6129 22.4451 38.7403 22.4537 38.8629 22.4662C38.9112 23.528 39.1228 24.576 39.4903 25.5732C38.8645 25.6014 37.8848 25.5795 36.7926 25.3365V25.3365ZM32.8903 26.61C33.9195 24.6435 34.7547 22.5814 35.384 20.4529C36.3023 20.5712 37.2263 20.6403 38.152 20.66C36.6473 22.8686 35.0919 25.2834 34.9208 27.4225C34.2199 27.2161 33.54 26.9441 32.8903 26.61V26.61ZM24.2692 13.292C24.9864 15.2467 26.7715 17.7693 31.1848 19.4373C32.152 19.8037 33.1583 20.0678 34.1739 20.2584C33.0919 23.8107 31.4958 26.6506 30.5731 28.1217C30.0442 26.067 28.734 22.2467 25.7426 18.7576C24.7604 17.6107 24.0994 16.2241 23.827 14.7389C23.9583 14.2607 24.1051 13.7756 24.2692 13.292V13.292ZM28.3286 7.38809C30.7442 6.067 34.8247 6.70919 37.995 7.54825C38.9832 8.5323 39.8199 9.65758 40.4778 10.8873C42.5958 14.8365 44.7715 17.3811 45.9497 18.6092C43.4215 19.1373 36.702 20.2232 31.4583 18.2412C27.7294 16.8334 25.4481 14.5123 25.0325 11.7061C25.0192 11.617 25.0129 11.5272 25.0036 11.4381C25.8012 9.70528 26.8786 8.1795 28.3286 7.38809" fill="#3F3F3F"/>
<path d="M33.3024 35.4718C36.436 38.0585 42.6039 39.1874 42.6039 39.1874C42.6039 39.1874 35.9789 44.2601 29.7563 40.9562C24.418 38.1234 25.786 34.1319 25.786 34.1319C25.786 34.1319 28.7555 31.7171 33.3024 35.4718" fill="#3F3F3F"/>
</symbol>


<symbol id="icon-police" viewBox="0 0 50 50" >
<path d="M21.4883 13.8044C21.4883 11.1599 22.2773 9.01924 24.7773 9.01924C27.2734 9.01924 28.0664 11.1599 28.0664 13.8044H21.4883Z" fill="#3F3F3F"/>
<path d="M27.7578 14.8365H21.8008C21.1797 14.8365 20.6758 15.3404 20.6758 15.9575V18.0904C20.6758 18.7115 21.1758 19.2154 21.8008 19.2154H27.7617C28.3789 19.2154 28.8828 18.7115 28.8828 18.0904V15.9575C28.8806 15.6602 28.7612 15.3758 28.5506 15.1659C28.34 14.9561 28.0551 14.8377 27.7578 14.8365V14.8365Z" fill="#3F3F3F"/>
<path d="M19.2973 10.9417L14.2309 8.61749C14.0669 8.54327 13.8715 8.54717 13.7114 8.63702C13.5512 8.72296 13.4419 8.88702 13.4145 9.0667L12.9731 12.2464C12.9458 12.4261 13.0083 12.6097 13.1411 12.7386C13.2505 12.848 13.3989 12.9065 13.5512 12.9065C13.5825 12.9065 13.6098 12.9026 13.6411 12.8987L19.1411 12.0472C19.3989 12.0081 19.5942 11.8089 19.6294 11.5511C19.6645 11.2972 19.5278 11.0511 19.2973 10.9417Z" fill="#3F3F3F"/>
<path d="M36.1443 9.07007C36.1208 8.89039 36.0115 8.72632 35.8513 8.64039C35.6911 8.55054 35.4958 8.54273 35.3279 8.62085L30.2615 10.9451C30.0271 11.0505 29.8943 11.2966 29.9294 11.5505C29.9646 11.8044 30.1599 12.0037 30.4138 12.0466L35.9177 12.9021C35.949 12.906 35.9763 12.9099 36.0075 12.9099C36.156 12.9099 36.3044 12.8513 36.4138 12.7419C36.5427 12.613 36.6052 12.4294 36.5818 12.2498L36.1443 9.07007V9.07007Z" fill="#3F3F3F"/>
<path d="M47.6651 30.4919C45.837 28.6638 42.9776 28.0974 42.9776 28.0974C42.9776 28.0974 41.4816 24.2107 40.2237 22.5193C36.7901 17.9099 32.4972 16.8826 25.5401 16.8826C20.7316 16.8826 15.9581 17.0622 12.048 21.988C10.5519 23.8747 8.09875 28.0974 8.09875 28.0974C8.09875 28.0974 3.76671 28.5466 1.79015 30.7458C0.274528 32.4372 -0.440316 38.5505 1.56359 40.5505C3.255 42.2419 5.08312 43.1365 6.40734 43.281C6.40734 43.1286 6.41515 42.9802 6.43078 42.8318C6.47375 42.3747 6.57531 41.9333 6.72765 41.5154C7.46203 39.4919 9.39953 38.0388 11.6769 38.0388C13.9503 38.0388 15.8878 39.4919 16.6222 41.5193C16.8253 42.0779 16.9425 42.6794 16.9425 43.3083H33.0714C33.0714 42.6794 33.1886 42.0779 33.3917 41.5193C34.1261 39.4919 36.0636 38.0388 38.3409 38.0388C40.6144 38.0388 42.5519 39.4919 43.2862 41.5193C43.4855 42.074 43.6026 42.6755 43.6026 43.3005V43.3083H43.9308C45.9503 43.3083 47.6495 42.2927 48.712 40.5935C50.5401 37.6677 49.4933 32.3201 47.6651 30.4919V30.4919Z" fill="#3F3F3F"/>
<path d="M2.40234 33.7971C2.58203 32.9572 2.83594 32.2658 3.12109 31.9416C4.35156 30.5705 7.26953 29.9807 8.28516 29.8752C8.85156 29.8166 9.35938 29.4885 9.64844 28.9963C9.67188 28.9533 12.0508 24.8635 13.4531 23.0979C16.7148 18.9846 20.5195 18.6682 25.5391 18.6682C32.7969 18.6682 36.0117 19.8635 38.7891 23.5861C39.6992 24.8088 40.9141 27.7189 41.3047 28.7385C41.413 29.0185 41.59 29.2669 41.8193 29.4607C42.0486 29.6546 42.323 29.7877 42.6172 29.8479C42.6406 29.8557 44.9883 30.3518 46.3945 31.758C46.8008 32.1643 47.168 32.9064 47.4336 33.7971H2.40234Z" fill="white"/>
<path d="M11.6719 39.3832C10.1484 39.3832 8.84375 40.2582 8.19531 41.5199C7.93148 42.0239 7.78335 42.5803 7.76172 43.1488C7.76172 43.2035 7.74609 43.2543 7.74609 43.3089C7.74609 45.4769 9.50391 47.2347 11.6758 47.2347C13.8398 47.2347 15.5977 45.4769 15.5977 43.3089C15.5977 42.6605 15.4258 42.0589 15.1484 41.5199C14.4922 40.2582 13.1914 39.3832 11.6719 39.3832V39.3832Z" fill="#3F3F3F"/>
<path d="M38.3398 39.3832C36.8164 39.3832 35.5156 40.2582 34.8633 41.5199C34.582 42.0589 34.4102 42.6605 34.4102 43.3089C34.4102 45.4769 36.168 47.2347 38.3398 47.2347C40.5039 47.2347 42.2656 45.4769 42.2656 43.3089C42.2656 42.6605 42.0937 42.0589 41.8164 41.5199C41.1641 40.2582 39.8594 39.3832 38.3398 39.3832V39.3832Z" fill="#3F3F3F"/>
<path d="M22.1485 20.9687C21.6993 20.8555 18.461 21.0391 16.3595 23.3516C14.254 25.6601 13.0899 28.918 15.2462 28.918H21.4766C22.3516 28.918 23.0704 28.5469 23.0704 27.4336V22.8476C23.0665 21.9805 23.004 21.1836 22.1485 20.9687Z" fill="#3F3F3F"/>
<path d="M34.4102 22.2422C32.1602 20.7227 26.9375 20.8555 26.2891 20.9688C25.0469 21.1836 24.9531 21.9766 24.9531 22.8477V27.4336C24.9531 28.5469 25.9922 28.918 27.2617 28.918H36.2695C39.3867 28.918 37.582 24.379 34.4102 22.2422Z" fill="#3F3F3F"/>
</symbol>


<symbol id="icon-ring" viewBox="0 0 50 50" >
<path d="M40.625 10.938L40.1563 10.4692C37.5 7.50049 33.5938 6.56299 33.5938 6.56299C28.9062 5.15674 21.5625 8.28174 15.0031 14.6849C9.53438 19.8442 6.25 26.0942 6.25 30.7817C6.25 31.4114 6.40938 32.0333 6.40938 32.6567C6.72031 35.7817 8.75312 39.0646 10.4672 40.6271C12.6594 42.8114 15.4672 43.9114 18.5922 43.9114C23.7484 43.9114 29.8469 40.938 35.4672 35.6286C44.2203 27.0317 46.4063 16.8755 40.625 10.938ZM15.625 33.9067C15.625 31.8724 17.8094 27.6567 22.4969 22.9692C27.0328 18.438 31.7203 17.188 33.9047 16.7192C32.8125 19.6911 30.4688 23.2786 27.0328 26.7224C23.7484 29.8474 20.0016 32.3427 16.7172 33.5942C16.4063 33.7536 15.9359 33.7536 15.625 33.9067V33.9067ZM17.1875 16.8755C22.3437 11.7192 27.8125 9.21612 31.25 9.21612C32.3437 9.21612 33.2813 9.53487 33.9063 10.1567C34.5344 10.7786 34.8438 12.0317 34.6875 13.4411C32.8125 13.5927 26.4031 14.6849 20.3125 20.7833C16.4062 24.6896 12.3406 30.3099 12.6594 34.2161C11.7188 34.2161 10.7781 33.9052 10.3156 33.4349C9.99688 33.1239 9.68594 32.6536 9.53438 32.0317C9.53438 32.0317 9.375 31.2505 9.375 30.7817C9.53437 26.8755 12.5 21.4067 17.1875 16.8755V16.8755ZM33.2812 33.2817C25.7812 40.7849 17.1875 42.8099 12.6594 38.4411C12.3071 38.1094 11.9917 37.7406 11.7188 37.3411C12.0313 37.5005 12.5 37.5005 12.9688 37.5005C14.375 37.5005 16.0937 37.188 17.8094 36.5599C21.5641 35.1567 25.6219 32.5021 29.2172 28.9067C34.6859 23.438 37.8109 17.188 37.8109 12.6599L37.9703 12.8114L38.4391 13.1239C42.8094 17.6583 40.625 26.0927 33.2828 33.2833L33.2812 33.2817Z" fill="#3F3F3F"/>
</symbol>

<symbol id="icon-gift" viewBox="0 0 50 50" >
<path d="M31.2747 15.4902L40.8825 9.41179L31.4707 0L25.3923 13.5294L21.8629 2.94117L12.4512 9.21567L20.2943 15.4902H2.45117V28.0393H5.58842V50H44.4119V28.0392H47.5492V15.4902H31.2747ZM32.2645 4.12129L37.1893 9.04608L27.1435 15.4165L32.2645 4.12129V4.12129ZM20.6048 6.60775L23.3856 14.9501L16.4336 9.38854L20.6048 6.60775ZM21.8629 46.8628H8.72567V27.0565H21.8629V46.8628V46.8628ZM21.8629 24.9019H5.58842V18.6275H21.8629V24.9019V24.9019ZM41.2747 46.8628H28.1374V27.0565H41.2747V46.8628ZM44.4119 24.9019H28.1374V18.6275H44.4119V24.9019V24.9019Z" fill="#3F3F3F"/>
</symbol>


</defs>
</svg>
