<svg width="50" height="50" viewBox="0 0 50 50" fill="none" xmlns="http://www.w3.org/2000/svg">
<path d="M42.8548 22.2083C42.5632 21.375 41.7715 20.8333 40.834 20.8333H25.8548C24.8965 20.8333 24.1257 21.375 23.8132 22.2083L20.834 30.7708L20.8548 42.25C20.8548 43.0416 21.5007 43.75 22.2923 43.75H23.584C24.3757 43.75 25.0007 42.9583 25.0007 42.1666V39.5833H41.6673V42.1666C41.6673 42.9583 42.3132 43.75 43.1048 43.75H44.3757C45.1673 43.75 45.8132 43.0416 45.8132 42.25L45.834 39.3958V30.7708L42.8548 22.2083V22.2083ZM25.8548 22.9166H40.834L42.9798 29.1666H23.709L25.8548 22.9166V22.9166ZM25.0007 35.4166C23.8548 35.4166 22.9173 34.4791 22.9173 33.3333C22.9173 32.1875 23.8548 31.25 25.0007 31.25C26.1465 31.25 27.084 32.1875 27.084 33.3333C27.084 34.4791 26.1465 35.4166 25.0007 35.4166ZM41.6673 35.4166C40.5215 35.4166 39.584 34.4791 39.584 33.3333C39.584 32.1875 40.5215 31.25 41.6673 31.25C42.8132 31.25 43.7507 32.1875 43.7507 33.3333C43.7507 34.4791 42.8132 35.4166 41.6673 35.4166Z" fill="#3F3F3F"/>
<path d="M29.166 18.75H31.2493V6.25H14.5827V16.6667H4.16602V43.75H6.24935V18.75H16.666V8.33333H29.166V18.75Z" fill="#3F3F3F"/>
<path d="M10.416 22.9167H14.5827V27.0833H10.416V22.9167ZM20.8327 10.4167H24.9994V14.5833H20.8327V10.4167ZM10.416 31.25H14.5827V35.4167H10.416V31.25ZM10.416 39.5833H14.5827V43.75H10.416V39.5833Z" fill="#3F3F3F"/>
</svg>
