<svg width="74" height="56" viewBox="0 0 74 56" fill="none" xmlns="http://www.w3.org/2000/svg">
<path d="M58.75 11H17.9167C17.1431 11 16.4013 11.3073 15.8543 11.8543C15.3073 12.4013 15 13.1431 15 13.9167V43.0833C15 43.8569 15.3073 44.5987 15.8543 45.1457C16.4013 45.6927 17.1431 46 17.9167 46H58.75C59.5235 46 60.2654 45.6927 60.8124 45.1457C61.3594 44.5987 61.6667 43.8569 61.6667 43.0833V13.9167C61.6667 13.1431 61.3594 12.4013 60.8124 11.8543C60.2654 11.3073 59.5235 11 58.75 11ZM56.5042 43.0833H20.3375L30.5458 32.525L28.4458 30.4979L17.9167 41.3917V16.1333L36.0438 34.1729C36.5902 34.7161 37.3295 35.0211 38.1 35.0211C38.8705 35.0211 39.6098 34.7161 40.1562 34.1729L58.75 15.6813V41.2021L48.0167 30.4688L45.9604 32.525L56.5042 43.0833ZM19.8271 13.9167H56.3875L38.1 32.1021L19.8271 13.9167Z" fill="#3F3F3F"/>
</svg>
