<svg width="56" height="58" viewBox="0 0 56 58" fill="none" xmlns="http://www.w3.org/2000/svg">
<path fill-rule="evenodd" clip-rule="evenodd" d="M36.1872 16.3264C34.096 14.2346 31.2712 13.0412 28.3136 13H28.2016C25.2438 13.0406 22.4185 14.2336 20.3268 16.3253C18.2352 18.4169 17.0421 21.2422 17.0016 24.2C16.9652 26.3 17.556 28.3636 18.6984 30.1276L27.5128 48H29.0052L37.8168 30.1276C38.962 28.3636 39.5528 26.3 39.5136 24.2C39.4724 21.2424 38.279 18.4176 36.1872 16.3264ZM28.0476 15.8L28.2772 15.828L28.4844 15.8C30.684 15.8958 32.7633 16.8306 34.2949 18.4122C35.8265 19.9938 36.6941 22.1021 36.7192 24.3036C36.7406 25.8661 36.2844 27.3978 35.4116 28.694L35.3556 28.7892L35.308 28.8872L28.2576 43.1812L21.21 28.9012L21.1624 28.792L21.1064 28.6968C20.2336 27.4006 19.7774 25.8689 19.7988 24.3064C19.8227 22.1023 20.6912 19.9914 22.2254 18.4088C23.7596 16.8261 25.8425 15.8924 28.0448 15.8H28.0476ZM29.7612 21.8732C29.4554 21.6688 29.1124 21.5265 28.7517 21.4547C28.391 21.3828 28.0197 21.3827 27.6589 21.4543C27.2982 21.5259 26.9551 21.6679 26.6492 21.8721C26.3433 22.0764 26.0806 22.3389 25.8762 22.6446C25.6717 22.9503 25.5295 23.2934 25.4576 23.6541C25.3858 24.0148 25.3856 24.3861 25.4573 24.7469C25.5289 25.1076 25.6709 25.4507 25.8751 25.7566C26.0794 26.0625 26.3418 26.3252 26.6476 26.5296C27.2651 26.9425 28.0213 27.0932 28.7498 26.9485C29.4784 26.8038 30.1197 26.3757 30.5326 25.7582C30.9455 25.1407 31.0962 24.3845 30.9515 23.6559C30.8068 22.9274 30.3787 22.2861 29.7612 21.8732ZM25.0936 19.5436C25.7045 19.1141 26.3952 18.8112 27.1249 18.6526C27.8547 18.4941 28.6088 18.4831 29.3429 18.6203C30.0769 18.7575 30.7761 19.0401 31.3994 19.4515C32.0226 19.863 32.5572 20.3949 32.9718 21.016C33.3864 21.6372 33.6725 22.3349 33.8134 23.0683C33.9543 23.8017 33.9471 24.5558 33.7923 25.2864C33.6374 26.0169 33.338 26.7091 32.9116 27.3222C32.4852 27.9353 31.9405 28.4569 31.3096 28.8564C30.0745 29.6383 28.5826 29.9064 27.1526 29.6032C25.7226 29.3 24.4678 28.4497 23.6563 27.2339C22.8447 26.018 22.5408 24.533 22.8093 23.0961C23.0779 21.6592 23.8977 20.3843 25.0936 19.5436Z" fill="#3F3F3F"/>
</svg>
