<svg width="66" height="60" viewBox="0 0 66 60" fill="none" xmlns="http://www.w3.org/2000/svg">
<g clip-path="url(#clip0_101:1874)">
<path fill-rule="evenodd" clip-rule="evenodd" d="M48.2943 14.1638C48.4527 14.2618 48.5835 14.3986 48.6742 14.5613C48.765 14.724 48.8126 14.9072 48.8127 15.0935V47.9062C48.8127 48.1963 48.6975 48.4745 48.4924 48.6796C48.2873 48.8848 48.0091 49 47.719 49H41.1564C40.8664 49 40.5881 48.8848 40.383 48.6796C40.1779 48.4745 40.0627 48.1963 40.0627 47.9062V44.625H37.8752V47.9062C37.8752 48.1963 37.7599 48.4745 37.5548 48.6796C37.3497 48.8848 37.0715 49 36.7814 49H17.0938C16.8037 49 16.5255 48.8848 16.3204 48.6796C16.1152 48.4745 16 48.1963 16 47.9062V35.8749C16.0002 35.6454 16.0725 35.4218 16.2068 35.2358C16.341 35.0497 16.5304 34.9105 16.7481 34.838L29.1251 30.7124V23.8436C29.1251 23.6406 29.1816 23.4417 29.2882 23.269C29.3948 23.0963 29.5474 22.9567 29.7289 22.8657L47.229 14.1157C47.3959 14.0321 47.5814 13.9927 47.7679 14.0011C47.9544 14.0095 48.1356 14.0655 48.2943 14.1638ZM29.1251 33.018L18.1875 36.6624V46.8125H29.1251V33.018ZM31.3126 46.8125H35.6876V43.5312C35.6876 43.2411 35.8029 42.9629 36.008 42.7578C36.2131 42.5527 36.4913 42.4375 36.7814 42.4375H41.1564C41.4465 42.4375 41.7247 42.5527 41.9298 42.7578C42.135 42.9629 42.2502 43.2411 42.2502 43.5312V46.8125H46.6252V16.8632L31.3126 24.5195V46.8125Z" fill="#3F3F3F"/>
<path d="M20.375 38.0627H22.5625V40.2502H20.375V38.0627ZM24.75 38.0627H26.9375V40.2502H24.75V38.0627ZM20.375 42.4377H22.5625V44.6252H20.375V42.4377ZM24.75 42.4377H26.9375V44.6252H24.75V42.4377ZM33.5001 33.6877H35.6876V35.8752H33.5001V33.6877ZM37.8751 33.6877H40.0626V35.8752H37.8751V33.6877ZM33.5001 38.0627H35.6876V40.2502H33.5001V38.0627ZM37.8751 38.0627H40.0626V40.2502H37.8751V38.0627ZM42.2502 33.6877H44.4377V35.8752H42.2502V33.6877ZM42.2502 38.0627H44.4377V40.2502H42.2502V38.0627ZM33.5001 29.3126H35.6876V31.5001H33.5001V29.3126ZM37.8751 29.3126H40.0626V31.5001H37.8751V29.3126ZM42.2502 29.3126H44.4377V31.5001H42.2502V29.3126ZM33.5001 24.9376H35.6876V27.1251H33.5001V24.9376ZM37.8751 24.9376H40.0626V27.1251H37.8751V24.9376ZM42.2502 24.9376H44.4377V27.1251H42.2502V24.9376ZM42.2502 20.5626H44.4377V22.7501H42.2502V20.5626Z" fill="#3F3F3F"/>
</g>
<defs>
<clipPath id="clip0_101:1874">
<rect width="66" height="60" fill="white"/>
</clipPath>
</defs>
</svg>
