<svg width="67" height="55" viewBox="0 0 67 55" fill="none" xmlns="http://www.w3.org/2000/svg">
<path d="M43.2855 22.4628H40.5931C40.5921 21.3921 40.1663 20.3655 39.4091 19.6084C38.652 18.8512 37.6254 18.4254 36.5547 18.4243V15.732C38.3391 15.7342 40.0499 16.444 41.3117 17.7058C42.5735 18.9676 43.2833 20.6783 43.2855 22.4628Z" fill="#3F3F3F"/>
<path d="M48.6701 22.4607H45.9778C45.9749 19.9624 44.9812 17.5673 43.2147 15.8007C41.4481 14.0342 39.053 13.0405 36.5547 13.0376V10.3453C39.7668 10.3489 42.8463 11.6265 45.1176 13.8978C47.3889 16.1691 48.6665 19.2486 48.6701 22.4607Z" fill="#3F3F3F"/>
<path d="M45.9734 44H45.7446C19.2926 42.4788 15.5369 20.1596 15.0119 13.3481C14.9298 12.2802 15.2753 11.2235 15.9723 10.4104C16.6693 9.59726 17.6608 9.09429 18.7286 9.01212C18.8354 9.00404 18.9426 9 19.0503 9H26.1446C26.6838 8.99948 27.2107 9.16088 27.6572 9.4633C28.1036 9.76571 28.4489 10.1952 28.6484 10.6962L30.6946 15.7308C30.8916 16.2202 30.9405 16.7566 30.8352 17.2736C30.7299 17.7905 30.475 18.2651 30.1023 18.6385L27.235 21.5327C27.681 24.0787 28.8993 26.4259 30.7246 28.2561C32.55 30.0862 34.894 31.3107 37.4388 31.7635L40.36 28.8692C40.7389 28.5006 41.218 28.2517 41.7375 28.1535C42.2569 28.0554 42.7938 28.1123 43.2811 28.3173L48.3561 30.35C48.8495 30.5558 49.2705 30.9038 49.5653 31.3497C49.8602 31.7957 50.0157 32.3193 50.0119 32.8538V39.9615C50.0119 41.0326 49.5864 42.0598 48.829 42.8172C48.0717 43.5745 47.0445 44 45.9734 44ZM19.0503 11.6923C18.8736 11.6918 18.6984 11.7261 18.5349 11.7932C18.3714 11.8604 18.2227 11.9591 18.0973 12.0837C17.9719 12.2084 17.8723 12.3565 17.8042 12.5196C17.736 12.6827 17.7007 12.8576 17.7001 13.0344C17.7001 13.0721 17.7015 13.1094 17.7042 13.1462C18.3234 21.1154 22.2946 39.9615 45.8927 41.3077C46.2489 41.329 46.5991 41.208 46.8662 40.9712C47.1333 40.7344 47.2954 40.4013 47.3169 40.045L47.3196 39.9615V32.8538L42.2446 30.8212L38.3811 34.6577L37.735 34.5769C26.0234 33.1096 24.435 21.3981 24.435 21.2769L24.3542 20.6308L28.1773 16.7673L26.158 11.6923H19.0503Z" fill="#3F3F3F"/>
</svg>
