<svg width="50" height="50" viewBox="0 0 50 50" fill="none" xmlns="http://www.w3.org/2000/svg">
<path d="M40.625 10.938L40.1563 10.4692C37.5 7.50049 33.5938 6.56299 33.5938 6.56299C28.9062 5.15674 21.5625 8.28174 15.0031 14.6849C9.53438 19.8442 6.25 26.0942 6.25 30.7817C6.25 31.4114 6.40938 32.0333 6.40938 32.6567C6.72031 35.7817 8.75312 39.0646 10.4672 40.6271C12.6594 42.8114 15.4672 43.9114 18.5922 43.9114C23.7484 43.9114 29.8469 40.938 35.4672 35.6286C44.2203 27.0317 46.4063 16.8755 40.625 10.938ZM15.625 33.9067C15.625 31.8724 17.8094 27.6567 22.4969 22.9692C27.0328 18.438 31.7203 17.188 33.9047 16.7192C32.8125 19.6911 30.4688 23.2786 27.0328 26.7224C23.7484 29.8474 20.0016 32.3427 16.7172 33.5942C16.4063 33.7536 15.9359 33.7536 15.625 33.9067V33.9067ZM17.1875 16.8755C22.3437 11.7192 27.8125 9.21612 31.25 9.21612C32.3437 9.21612 33.2813 9.53487 33.9063 10.1567C34.5344 10.7786 34.8438 12.0317 34.6875 13.4411C32.8125 13.5927 26.4031 14.6849 20.3125 20.7833C16.4062 24.6896 12.3406 30.3099 12.6594 34.2161C11.7188 34.2161 10.7781 33.9052 10.3156 33.4349C9.99688 33.1239 9.68594 32.6536 9.53438 32.0317C9.53438 32.0317 9.375 31.2505 9.375 30.7817C9.53437 26.8755 12.5 21.4067 17.1875 16.8755V16.8755ZM33.2812 33.2817C25.7812 40.7849 17.1875 42.8099 12.6594 38.4411C12.3071 38.1094 11.9917 37.7406 11.7188 37.3411C12.0313 37.5005 12.5 37.5005 12.9688 37.5005C14.375 37.5005 16.0937 37.188 17.8094 36.5599C21.5641 35.1567 25.6219 32.5021 29.2172 28.9067C34.6859 23.438 37.8109 17.188 37.8109 12.6599L37.9703 12.8114L38.4391 13.1239C42.8094 17.6583 40.625 26.0927 33.2828 33.2833L33.2812 33.2817Z" fill="#3F3F3F"/>
</svg>
