<svg width="17" height="17" viewBox="0 0 17 17" fill="none" xmlns="http://www.w3.org/2000/svg">
<path d="M14.721 2.2785C14.6493 2.20714 14.5587 2.15773 14.4599 2.13608C14.3611 2.11444 14.2581 2.12146 14.1632 2.15631L2.47566 6.40631C2.37486 6.44454 2.28808 6.51253 2.22685 6.60125C2.16561 6.68997 2.13281 6.79523 2.13281 6.90303C2.13281 7.01083 2.16561 7.11608 2.22685 7.2048C2.28808 7.29352 2.37486 7.36152 2.47566 7.39975L7.03909 9.22193L10.4072 5.84318L11.1563 6.59225L7.77222 9.97631L9.59972 14.5397C9.63909 14.6386 9.70723 14.7233 9.79532 14.783C9.88341 14.8427 9.98738 14.8745 10.0938 14.8744C10.2011 14.8722 10.3053 14.8375 10.3926 14.775C10.4798 14.7124 10.546 14.6248 10.5825 14.5238L14.8325 2.83631C14.8687 2.74232 14.8775 2.63998 14.8577 2.54121C14.838 2.44245 14.7905 2.35134 14.721 2.2785Z" fill="white"/>
</svg>
