<svg width="56" height="56" viewBox="0 0 56 56" fill="none" xmlns="http://www.w3.org/2000/svg">
<g clip-path="url(#clip0_366:315)">
<path d="M28.0774 56.0011C17.4469 56.0011 8.79883 47.353 8.79883 36.7225C8.79883 27.9252 14.7411 20.2479 23.2494 18.0532C23.7405 17.9266 24.2411 18.2224 24.3677 18.713C24.4943 19.2041 24.1991 19.7048 23.708 19.8314C16.0107 21.8165 10.6348 28.762 10.6348 36.7225C10.6348 46.3402 18.4597 54.1651 28.0774 54.1651C37.6952 54.1651 45.5201 46.3402 45.5201 36.7225C45.5201 28.8308 40.2019 21.9005 32.5872 19.8681C32.097 19.7373 31.8066 19.2346 31.9368 18.7445C32.0671 18.2549 32.5688 17.9644 33.0605 18.0942C41.4774 20.3404 47.356 28.0009 47.356 36.7225C47.356 47.353 38.7075 56.0011 28.0774 56.0011ZM28.0774 50.5773C20.4374 50.5773 14.2226 44.3619 14.2226 36.7225C14.2226 29.083 20.4374 22.8676 28.0774 22.8676C35.7169 22.8676 41.9323 29.083 41.9323 36.7225C41.9323 44.3619 35.7169 50.5773 28.0774 50.5773ZM28.0774 24.7041C21.4502 24.7041 16.0585 30.0952 16.0585 36.7225C16.0585 43.3497 21.4502 48.7414 28.0774 48.7414C34.7041 48.7414 40.0958 43.3497 40.0958 36.7225C40.0958 30.0952 34.7041 24.7041 28.0774 24.7041Z" fill="#3A3A3A"/>
<path d="M28.0777 24.3273C27.8219 24.3273 27.5766 24.2201 27.4032 24.0326L16.8 12.5568C16.5531 12.2889 16.4875 11.8997 16.6335 11.5661C16.7795 11.232 17.1094 11.0161 17.4745 11.0161H38.6804C39.0455 11.0161 39.3754 11.232 39.5214 11.5656C39.668 11.8997 39.6023 12.2889 39.3549 12.5568L28.7517 24.0321C28.5783 24.2201 28.3336 24.3273 28.0777 24.3273ZM19.5726 12.852L28.0777 22.0564L36.5824 12.852H19.5726Z" fill="#3A3A3A"/>
<path d="M38.6823 12.8526H17.4764C17.1396 12.8526 16.8302 12.6682 16.6695 12.3719C16.5093 12.0762 16.5235 11.7163 16.7068 11.4337L20.2899 5.92539C20.4596 5.66484 20.749 5.5083 21.06 5.5083H35.0992C35.4102 5.5083 35.6996 5.66537 35.8688 5.92539L39.4524 11.4337C39.6357 11.7158 39.6499 12.0762 39.4897 12.3719C39.3289 12.6682 39.019 12.8526 38.6823 12.8526ZM19.1689 11.0166H36.9898L34.6012 7.34423H21.558L19.1689 11.0166Z" fill="#3A3A3A"/>
<path d="M28.0772 24.3292C27.6895 24.3292 27.3434 24.086 27.2126 23.7204L23.1961 12.4742C23.0958 12.1942 23.1383 11.8827 23.3085 11.639L27.325 5.90162C27.4999 5.65157 27.7841 5.49976 28.0919 5.50974C28.3966 5.51447 28.6792 5.67048 28.8452 5.92526L32.5943 11.6631C32.7477 11.8974 32.7855 12.1895 32.6967 12.4558L28.9476 23.7015C28.8242 24.0729 28.478 24.325 28.0867 24.3292C28.0835 24.3292 28.0804 24.3292 28.0772 24.3292ZM25.0851 12.3035L28.0473 20.598L30.8146 12.2961L28.0509 8.06586L25.0851 12.3035Z" fill="#3A3A3A"/>
<path d="M28.0764 3.76379C27.5695 3.76379 27.1582 3.35301 27.1582 2.84609V0.918229C27.1582 0.410787 27.5695 0 28.0764 0C28.5833 0 28.9941 0.410787 28.9941 0.918229V2.84609C28.9941 3.35301 28.5833 3.76379 28.0764 3.76379Z" fill="#3A3A3A"/>
<path d="M36.3843 3.81047C36.2231 3.81047 36.0608 3.76792 35.9126 3.67967C35.4777 3.41859 35.3369 2.85442 35.598 2.41999L36.5619 0.813618C36.8224 0.378142 37.3866 0.237887 37.8216 0.498962C38.2565 0.759512 38.3973 1.32369 38.1362 1.75811L37.1723 3.36501C37 3.6513 36.6964 3.81047 36.3843 3.81047Z" fill="#3A3A3A"/>
<path d="M40.5623 8.90364C40.3606 8.90364 40.1583 8.83797 39.9892 8.70244C39.5931 8.38621 39.529 7.80838 39.8458 7.4123L41.1312 5.80593C41.4474 5.4088 42.0263 5.34576 42.4213 5.66252C42.8174 5.97875 42.8815 6.55659 42.5647 6.95266L41.2793 8.55904C41.0981 8.78597 40.8313 8.90364 40.5623 8.90364Z" fill="#3A3A3A"/>
<path d="M19.7721 3.81048C19.4601 3.81048 19.1559 3.65184 18.9842 3.36503L18.0197 1.75813C17.7586 1.32318 17.8999 0.759526 18.3344 0.498976C18.7693 0.238426 19.3335 0.379207 19.5941 0.813632L20.558 2.42001C20.8191 2.85496 20.6783 3.41861 20.2433 3.67968C20.0957 3.76793 19.9329 3.81048 19.7721 3.81048Z" fill="#3A3A3A"/>
<path d="M15.5925 8.90575C15.3231 8.90575 15.0562 8.78808 14.8755 8.56115L13.5901 6.95478C13.2733 6.5587 13.3369 5.98086 13.7335 5.66463C14.1291 5.34787 14.7069 5.41196 15.0236 5.80804L16.3091 7.41442C16.6258 7.81049 16.5617 8.38833 16.1651 8.70456C15.996 8.84009 15.7937 8.90575 15.5925 8.90575Z" fill="#3A3A3A"/>
</g>
<defs>
<clipPath id="clip0_366:315">
<rect width="56" height="56" fill="white"/>
</clipPath>
</defs>
</svg>
