<svg width="50" height="50" viewBox="0 0 50 50" fill="none" xmlns="http://www.w3.org/2000/svg">
<path d="M31.2747 15.4902L40.8825 9.41179L31.4707 0L25.3923 13.5294L21.8629 2.94117L12.4512 9.21567L20.2943 15.4902H2.45117V28.0393H5.58842V50H44.4119V28.0392H47.5492V15.4902H31.2747ZM32.2645 4.12129L37.1893 9.04608L27.1435 15.4165L32.2645 4.12129V4.12129ZM20.6048 6.60775L23.3856 14.9501L16.4336 9.38854L20.6048 6.60775ZM21.8629 46.8628H8.72567V27.0565H21.8629V46.8628V46.8628ZM21.8629 24.9019H5.58842V18.6275H21.8629V24.9019V24.9019ZM41.2747 46.8628H28.1374V27.0565H41.2747V46.8628ZM44.4119 24.9019H28.1374V18.6275H44.4119V24.9019V24.9019Z" fill="#3F3F3F"/>
</svg>
