<svg width="55" height="55" viewBox="0 0 55 55" fill="none" xmlns="http://www.w3.org/2000/svg">
<g clip-path="url(#clip0_366:333)">
<path d="M33.3699 41.648C32.6295 41.671 32.0729 40.838 32.3784 40.1633C32.7305 39.2867 34.0093 39.2867 34.3614 40.1633C34.6668 40.838 34.1105 41.6712 33.3699 41.648Z" fill="#3A3A3A"/>
<path d="M18.037 48.3545C17.7621 48.3545 17.4871 48.2497 17.2775 48.0399L11.7189 42.4813C11.2994 42.0619 11.2994 41.3817 11.7189 40.9621C12.1384 40.5426 12.8186 40.5426 13.2382 40.9621L18.7967 46.5206C19.2162 46.9401 19.2162 47.6203 18.7967 48.0399C18.5869 48.2497 18.3119 48.3545 18.037 48.3545Z" fill="#3A3A3A"/>
<path d="M19.442 43.5767C19.167 43.5767 18.8922 43.4719 18.6824 43.2621L16.4982 41.0779C16.0787 40.6584 16.0787 39.9782 16.4983 39.5587C16.9178 39.1393 17.598 39.1392 18.0175 39.5587L20.2017 41.7429C20.6212 42.1624 20.6212 42.8426 20.2016 43.2621C19.9919 43.4718 19.7169 43.5767 19.442 43.5767Z" fill="#3A3A3A"/>
<path d="M55.0016 9.99971C55.0016 9.71483 54.8884 9.44155 54.6869 9.24013L50.5176 5.07184C50.0981 4.65247 49.4181 4.65247 48.9985 5.07195L47.4649 6.6055L47.021 6.16164C46.6016 5.74215 45.9214 5.74215 45.5018 6.16164C45.0822 6.58112 45.0823 7.26131 45.5018 7.6809L45.9458 8.12488L45.1273 8.94333L44.6833 8.49935C44.2638 8.07987 43.5837 8.07987 43.1641 8.49935C42.7446 8.91883 42.7446 9.59903 43.1641 10.0186L43.608 10.4626L34.9416 19.129C30.7352 16.5252 26.5091 16.5778 23.7627 19.3242C22.9833 20.1029 22.3992 20.8675 21.9774 21.6613C20.4325 24.5671 16.9831 27.18 13.9534 27.739C11.698 28.1556 9.65693 29.1788 8.05054 30.6982C5.98095 32.6565 4.85721 35.211 4.80103 38.0854C4.72551 41.9418 6.59819 46.1146 9.93923 49.5336C13.3111 52.984 17.468 54.9757 21.3441 54.9981C21.3664 54.9982 21.3886 54.9983 21.4109 54.9983C24.267 54.9983 26.8355 53.939 28.8423 51.9325C30.4837 50.2906 31.5823 48.1723 32.0196 45.8064C32.0784 45.4878 32.1618 45.1586 32.2672 44.8278C32.4474 44.2625 32.1353 43.6582 31.57 43.478C31.0048 43.2978 30.4004 43.6099 30.2203 44.1752C30.0875 44.5916 29.9821 45.0091 29.9068 45.416C29.549 47.3524 28.6554 49.0805 27.3229 50.4134C25.7281 52.008 23.6847 52.8497 21.41 52.8497C21.3923 52.8497 21.3743 52.8497 21.3566 52.8496C18.0507 52.8305 14.4492 51.0746 11.4759 48.032C8.5348 45.022 6.8849 41.412 6.94914 38.1274C6.99394 35.8417 7.88543 33.8124 9.52716 32.2589C10.8316 31.0252 12.4971 30.1928 14.3436 29.8517C18.0139 29.1744 22.0223 26.1539 23.8746 22.6697C24.195 22.0669 24.6552 21.4699 25.2819 20.8437C27.8703 18.2553 31.4018 19.5977 33.3696 20.7013L24.5727 29.4984C22.9443 29.4202 21.29 30.0013 20.0492 31.2421C18.9183 32.373 18.2955 33.8766 18.2955 35.4759C18.2955 37.0751 18.9183 38.5786 20.0491 39.7096C21.1799 40.8405 22.6834 41.4633 24.2828 41.4633C25.8821 41.4633 27.3857 40.8405 28.5169 39.7096C29.7573 38.469 30.3384 36.8148 30.2603 35.1867L39.0486 26.3982C40.1407 28.3807 41.4428 31.9544 38.7231 34.6742C38.2621 35.1356 37.7364 35.5294 37.1607 35.8443C36.8703 36.0031 36.5764 36.1805 36.287 36.3718C35.792 36.6988 35.6559 37.3652 35.9829 37.8602C36.1895 38.1729 36.5314 38.3423 36.8802 38.3423C37.0836 38.3423 37.2891 38.2846 37.4713 38.1642C37.7111 38.0058 37.9534 37.8596 38.1916 37.7293C38.9471 37.3159 39.6373 36.799 40.2427 36.193C41.855 34.5807 42.6247 32.5044 42.4685 30.1884C42.3511 28.4478 41.7165 26.6082 40.6236 24.8233L49.2963 16.1507L49.9265 16.7808C50.1363 16.9906 50.4112 17.0955 50.6861 17.0955C50.961 17.0955 51.236 16.9906 51.4456 16.7808C51.8651 16.3613 51.8651 15.6811 51.4456 15.2616L50.8155 14.6314L51.634 13.813L52.2642 14.4432C52.474 14.653 52.7489 14.7579 53.0238 14.7579C53.2987 14.7579 53.5737 14.653 53.7834 14.4432C54.2028 14.0237 54.2028 13.3435 53.7834 12.9239L53.1531 12.2937L54.6871 10.7596C54.8885 10.5579 55.0016 10.2846 55.0016 9.99971ZM26.9975 38.1903C26.2723 38.9154 25.3082 39.3148 24.2827 39.3148C23.2573 39.3148 22.2933 38.9155 21.5683 38.1903C20.0714 36.6935 20.0714 34.2579 21.5683 32.7612C22.3166 32.0129 23.2996 31.6388 24.2827 31.6388C25.2658 31.6388 26.2491 32.0129 26.9974 32.7611C28.4939 34.2579 28.4939 36.6936 26.9975 38.1903ZM29.6291 32.7794C29.3499 32.2246 28.9792 31.7046 28.5168 31.2421C28.5168 31.2421 28.5167 31.2419 28.5167 31.2418C28.0542 30.7795 27.5342 30.4088 26.9797 30.1297L42.7895 14.3196L45.4394 16.9689L29.6291 32.7794ZM46.9586 15.4499L44.309 12.8003L45.1274 11.9819L47.7771 14.6314L46.9586 15.4499ZM49.2962 13.112L46.6467 10.4625L47.4651 9.64404L50.1147 12.2936L49.2962 13.112ZM48.9843 8.12466L49.7584 7.35058L52.4082 9.99993L51.634 10.7743L48.9843 8.12466Z" fill="#3A3A3A"/>
<path d="M15.6929 8.54303C15.6929 8.19681 15.5261 7.87186 15.2448 7.67012C14.9634 7.46827 14.6022 7.41445 14.2742 7.52553L5.85643 10.3753C5.42019 10.523 5.1266 10.9323 5.1266 11.3928V19.5132C4.67188 19.3083 4.16775 19.1942 3.63752 19.1942C1.63185 19.1942 0 20.826 0 22.8317C0 24.8374 1.63174 26.4693 3.63752 26.4693C5.6433 26.4693 7.27504 24.8375 7.27504 22.8317C7.27504 22.7693 7.27504 12.1633 7.27504 12.1633L13.5444 10.0408V16.6633C13.0897 16.4584 12.5855 16.3443 12.0553 16.3443C10.0495 16.3443 8.41779 17.9761 8.41779 19.9818C8.41779 21.9876 10.0495 23.6194 12.0553 23.6194C14.0611 23.6194 15.6928 21.9876 15.6928 19.9818C15.6929 19.9194 15.6929 8.54303 15.6929 8.54303ZM3.63752 24.3208C2.81639 24.3208 2.14844 23.6529 2.14844 22.8317C2.14844 22.0106 2.81649 21.3427 3.63752 21.3427C4.45854 21.3427 5.1266 22.0107 5.1266 22.8317C5.12671 23.6528 4.45865 24.3208 3.63752 24.3208ZM12.0554 21.4709C11.2343 21.4709 10.5663 20.8029 10.5663 19.9818C10.5663 19.1607 11.2344 18.4928 12.0554 18.4928C12.8766 18.4928 13.5445 19.1608 13.5445 19.9818C13.5445 20.803 12.8764 21.4709 12.0554 21.4709Z" fill="#3A3A3A"/>
<path d="M50.0735 37.7937L46.4457 36.5655C46.1176 36.4545 45.7565 36.5084 45.4752 36.7101C45.1938 36.9119 45.027 37.2368 45.027 37.583V45.7033C44.5723 45.4984 44.0681 45.3843 43.5379 45.3843C41.5321 45.3843 39.9004 47.0161 39.9004 49.0219C39.9004 51.0276 41.5321 52.6594 43.5379 52.6594C45.5437 52.6594 47.1754 51.0276 47.1754 49.0219C47.1754 48.9594 47.1754 48.7692 47.1754 48.7354V39.0808L49.3846 39.8287C49.9465 40.0192 50.5563 39.7176 50.7465 39.1557C50.9368 38.5937 50.6354 37.9839 50.0735 37.7937ZM43.5379 50.5109C42.7168 50.5109 42.0488 49.8429 42.0488 49.0219C42.0488 48.2007 42.7169 47.5328 43.5379 47.5328C44.359 47.5328 45.027 48.2008 45.027 49.0219C45.027 49.843 44.359 50.5109 43.5379 50.5109Z" fill="#3A3A3A"/>
<path d="M29.3643 11.5572C29.1528 11.5572 28.9414 11.4949 28.759 11.3703C28.001 10.8533 24.1751 8.20452 23.2861 6.8234C22.8989 6.22183 22.3944 5.26718 22.4804 3.92601C22.6236 1.70023 24.4457 -0.024963 26.626 -0.00122276C27.8516 0.0120975 28.8262 0.663504 29.4715 1.27259C30.1325 0.686277 31.1123 0.0600077 32.2815 0.0600077C32.2933 0.0600077 32.305 0.0600077 32.3168 0.0601151C34.4983 0.0836405 36.2817 1.84751 36.3769 4.07565C36.4343 5.41531 35.9095 6.35998 35.5098 6.95402C34.5855 8.32687 30.7165 10.8843 29.9503 11.383C29.7721 11.4993 29.5681 11.5572 29.3643 11.5572ZM26.5833 2.14711C25.5693 2.14711 24.6926 3.00272 24.6243 4.06394C24.5883 4.62533 24.7239 5.088 25.0926 5.66066C25.5219 6.32786 27.6844 7.99344 29.3781 9.1855C31.0906 8.03372 33.2809 6.41799 33.7274 5.75466C34.1086 5.18811 34.2544 4.72824 34.2304 4.16761C34.1848 3.09844 33.3158 2.21962 32.2936 2.20866C31.4376 2.20125 30.5122 3.23196 30.3127 3.509C30.1055 3.79689 29.7713 3.96297 29.4148 3.95523C29.0601 3.94664 28.7326 3.76338 28.5396 3.46571C28.3008 3.10531 27.4815 2.15678 26.6028 2.14721C26.5964 2.14711 26.5898 2.14711 26.5833 2.14711Z" fill="#3A3A3A"/>
</g>
<defs>
<clipPath id="clip0_366:333">
<rect width="55" height="55" fill="white"/>
</clipPath>
</defs>
</svg>
