<svg width="15" height="14" viewBox="0 0 15 14" fill="none" xmlns="http://www.w3.org/2000/svg">
<path d="M7.20255 14C5.33849 14 5.11874 13.9901 4.3913 13.9582C3.82403 13.9395 3.2641 13.8237 2.73562 13.616C2.28338 13.4394 1.87268 13.1703 1.5296 12.8259C1.18653 12.4815 0.918567 12.0693 0.742743 11.6154C0.543687 11.0832 0.436323 10.5208 0.425246 9.95247C0.382812 9.22402 0.382812 8.98526 0.382812 7.12916C0.382812 5.25329 0.392663 5.0343 0.425246 4.30814C0.436565 3.74053 0.543926 3.17897 0.742743 2.64746C0.918365 2.193 1.18651 1.7803 1.53004 1.4357C1.87357 1.0911 2.28495 0.822187 2.7379 0.646128C3.26729 0.44554 3.82704 0.337521 4.39282 0.326766C5.11647 0.285705 5.3544 0.285706 7.20255 0.285706C9.08177 0.285706 9.29773 0.29559 10.0138 0.326766C10.5806 0.337412 11.1428 0.445386 11.6733 0.646128C12.1261 0.822391 12.5374 1.09138 12.8809 1.43595C13.2244 1.78052 13.4926 2.19312 13.6684 2.64746C13.8707 3.18733 13.9791 3.75762 13.9874 4.33323C14.0299 5.06168 14.0299 5.29968 14.0299 7.15501C14.0299 9.01035 14.0193 9.25367 13.9874 9.97376C13.9761 10.5427 13.8685 11.1055 13.6692 11.6382C13.4929 12.0924 13.2245 12.5049 12.8809 12.8494C12.5373 13.194 12.126 13.463 11.6733 13.6396C11.1428 13.8388 10.5829 13.9468 10.0168 13.9582C9.29318 14 9.05601 14 7.20255 14ZM7.17679 1.48939C5.32334 1.48939 5.13087 1.49852 4.40722 1.53121C3.97504 1.53688 3.54702 1.61687 3.14178 1.76769C2.8462 1.88138 2.57765 2.05596 2.35343 2.28018C2.12921 2.50439 1.95429 2.77327 1.83996 3.06947C1.68841 3.48008 1.60885 3.91426 1.6043 4.35224C1.56414 5.08905 1.56414 5.28219 1.56414 7.12916C1.56414 8.95408 1.57096 9.17535 1.6043 9.90761C1.61112 10.341 1.69069 10.7706 1.83996 11.1774C2.07184 11.7759 2.54467 12.2488 3.14253 12.4785C3.54726 12.6302 3.97519 12.7102 4.40722 12.7149C5.14072 12.7575 5.33395 12.7575 7.17679 12.7575C9.03555 12.7575 9.22802 12.7484 9.94561 12.7149C10.3778 12.7097 10.8059 12.6297 11.211 12.4785C11.505 12.3639 11.7721 12.1892 11.9951 11.9655C12.2182 11.7418 12.3925 11.4739 12.5068 11.179C12.6583 10.7684 12.7379 10.3334 12.7425 9.89544H12.7508C12.7834 9.16851 12.7834 8.97461 12.7834 7.117C12.7834 5.25938 12.775 5.06396 12.7425 4.33779C12.7356 3.90472 12.6559 3.47592 12.5068 3.06947C12.3927 2.7741 12.2186 2.5058 11.9955 2.28168C11.7724 2.05755 11.5053 1.8825 11.211 1.76769C10.8057 1.61562 10.3775 1.53654 9.94561 1.53121C9.21286 1.48939 9.02115 1.48939 7.17679 1.48939ZM7.20255 10.6414C6.50965 10.6418 5.83217 10.4361 5.25581 10.0501C4.67945 9.66416 4.2301 9.11535 3.96459 8.47311C3.69908 7.83086 3.62934 7.12403 3.76418 6.44201C3.89903 5.75998 4.23241 5.13341 4.72216 4.64154C5.21191 4.14966 5.83602 3.81458 6.51556 3.67867C7.19511 3.54276 7.89955 3.61213 8.5398 3.87801C9.18005 4.14389 9.72734 4.59433 10.1125 5.17236C10.4976 5.75039 10.7032 6.43004 10.7034 7.12536C10.7022 8.05697 10.333 8.95012 9.67685 9.60915C9.02067 10.2682 8.13093 10.6394 7.20255 10.6414ZM7.20255 4.84269C6.75295 4.84269 6.31344 4.97647 5.93961 5.22713C5.56577 5.47779 5.2744 5.83405 5.10235 6.25088C4.93029 6.66771 4.88527 7.12637 4.97299 7.56887C5.0607 8.01137 5.27721 8.41783 5.59513 8.73686C5.91304 9.05588 6.3181 9.27314 6.75907 9.36116C7.20003 9.44918 7.65711 9.404 8.07249 9.23135C8.48787 9.05869 8.8429 8.76631 9.09269 8.39118C9.34248 8.01605 9.4758 7.57501 9.4758 7.12384C9.4744 6.51927 9.23445 5.93987 8.80843 5.51237C8.38242 5.08488 7.80503 4.84409 7.20255 4.84269ZM10.8397 4.30053C10.7325 4.30013 10.6263 4.27854 10.5274 4.23697C10.4284 4.19541 10.3386 4.1347 10.263 4.0583C10.1104 3.90401 10.0251 3.69519 10.0259 3.4778C10.0267 3.2604 10.1136 3.05223 10.2673 2.89908C10.4211 2.74593 10.6292 2.66034 10.8458 2.66115C11.0625 2.66195 11.2699 2.74909 11.4225 2.90338C11.5751 3.05767 11.6604 3.26648 11.6596 3.48388C11.6588 3.70128 11.572 3.90945 11.4182 4.0626C11.2645 4.21575 11.0564 4.30134 10.8397 4.30053Z" fill="white"/>
</svg>
