<svg width="7" height="14" viewBox="0 0 7 14" fill="none" xmlns="http://www.w3.org/2000/svg">
<path d="M1.15916 13.0098C0.954392 13.0102 0.755951 12.9389 0.598283 12.8082C0.509544 12.7347 0.436191 12.6443 0.382424 12.5423C0.328657 12.4404 0.295534 12.3288 0.284951 12.214C0.274368 12.0993 0.286534 11.9835 0.320751 11.8734C0.354968 11.7634 0.410564 11.6611 0.484356 11.5726L4.41046 6.87526L0.624575 2.16918C0.551779 2.07954 0.497416 1.9764 0.464612 1.86568C0.431809 1.75496 0.42121 1.63885 0.433426 1.52402C0.445642 1.40919 0.48043 1.29791 0.535794 1.19657C0.591157 1.09523 0.666003 1.00583 0.756029 0.93351C0.846703 0.853729 0.952888 0.793552 1.06792 0.756754C1.18295 0.719956 1.30435 0.707333 1.4245 0.719677C1.54464 0.73202 1.66093 0.769064 1.76608 0.828483C1.87123 0.887902 1.96296 0.968414 2.03552 1.06497L6.26836 6.32315C6.39725 6.47996 6.46772 6.67665 6.46772 6.87964C6.46772 7.08262 6.39725 7.27932 6.26836 7.43613L1.88654 12.6943C1.79862 12.8004 1.68695 12.8842 1.56056 12.939C1.43418 12.9938 1.29666 13.0181 1.15916 13.0098Z" fill="white"/>
</svg>
