<svg width="13" height="16" viewBox="0 0 13 16" fill="none" xmlns="http://www.w3.org/2000/svg">
<path d="M5.648 10.2525C5.24212 12.3633 4.748 14.3875 3.28169 15.4444C2.83009 12.2541 3.94666 9.85755 4.46484 7.31383C3.58089 5.83484 4.57153 2.85748 6.4357 3.59079C8.72982 4.49367 4.4488 9.09018 7.32287 9.66474C10.3237 10.2641 11.5493 4.4898 9.68837 2.61124C6.9996 -0.0997402 1.86191 2.55007 2.49399 6.43185C2.648 7.3812 3.63383 7.66926 2.88784 8.97945C1.16725 8.59924 0.653885 7.25034 0.720463 5.45153C0.826345 2.50903 3.38116 0.447721 5.94319 0.162762C9.18383 -0.198082 12.2247 1.34519 12.6443 4.3752C13.1175 7.7947 11.182 11.4992 7.71752 11.232C6.77821 11.16 6.38356 10.6977 5.648 10.2525Z" fill="white"/>
</svg>
