<svg width="40" height="40" viewBox="0 0 40 40" fill="none" xmlns="http://www.w3.org/2000/svg">
<rect width="40" height="40" rx="20" fill="#CB2027"/>
<path d="M20.6696 13.7C16.9296 13.7 14.9746 16.08 14.9746 18.715C14.9746 19.99 15.6546 21.265 16.7596 21.945C17.0996 22.115 17.0146 21.945 17.2696 20.925C17.2696 20.84 17.2696 20.755 17.1846 20.67C15.6546 18.8 16.9296 15.145 20.4996 15.145C25.6846 15.145 24.6646 22.285 21.4346 22.285C20.7546 22.37 20.1596 21.86 20.1596 21.18V20.84C20.4996 19.905 20.7546 19.055 20.8396 18.12C20.8396 16.335 18.2046 16.59 18.2046 18.97C18.2046 19.395 18.2896 19.82 18.4596 20.16C18.4596 20.16 17.6096 23.645 17.4396 24.24C17.2696 25.26 17.3546 26.28 17.5246 27.215C17.4396 27.3 17.5246 27.3 17.5246 27.3H17.6096C18.2046 26.45 18.7146 25.6 19.0546 24.665C19.1396 24.24 19.5646 22.71 19.5646 22.71C19.9896 23.305 20.7546 23.645 21.5196 23.645C24.1546 23.645 26.0246 21.35 26.0246 18.545C26.0246 15.74 23.6446 13.7 20.6696 13.7Z" fill="white"/>
</svg>
