<svg width="50" height="50" viewBox="0 0 50 50" fill="none" xmlns="http://www.w3.org/2000/svg">
<path d="M5.41217 31.6357C5.41217 31.6357 6.9192 25.2459 10.3692 21.999C10.9754 21.4287 11.4598 20.8818 11.8458 20.3623C12.2528 21.9522 12.7614 23.5022 13.2669 25.024C14.1512 27.6412 15.0411 30.2045 15.7497 32.7873C15.9372 33.4584 16.1106 34.1318 16.2731 34.8053L12.6606 36.4311L16.727 36.8967C17.4851 40.6944 17.8044 44.5667 17.6786 48.4373H22.3989C22.2481 42.8311 21.1801 37.2311 19.3387 31.9264C18.4348 29.2701 17.3598 26.6873 16.3294 24.1467C16.0504 23.4506 15.7754 22.7584 15.5114 22.0662L18.5489 19.8318L14.8387 20.199C14.4301 18.9865 14.0864 17.774 13.8653 16.5561C13.3856 14.0217 13.5544 11.4607 14.4372 9.0045C14.8614 7.78028 15.434 6.59747 16.2379 5.567C17.0333 4.53575 18.0739 3.65919 19.3254 3.15137C20.6164 2.62972 22.0414 2.53929 23.3879 2.89356C24.4911 3.17559 25.5044 3.73887 26.37 4.45997L26.3676 4.46153C16.6872 9.75059 22.8239 20.2889 22.8239 20.2889C22.8239 20.2889 22.9333 18.8725 23.3083 16.9592C23.7115 17.9059 24.258 18.7849 24.9286 19.5654C28.9145 24.2162 29.7262 29.624 29.7348 29.6779L29.9512 31.2037L30.784 30.0818C30.8419 30.0045 31.484 29.1264 32.3184 27.6584C33.8903 28.5115 35.395 28.8178 35.4669 28.8318L36.1598 28.9678L36.0879 28.2139C36.0387 27.6857 36.134 27.1076 36.3278 26.4982C38.577 27.0818 40.4333 26.7795 40.5161 26.7662L41.3075 26.6318L40.8497 25.8443C40.8434 25.8318 40.1497 24.5873 40.0372 22.6092C41.8114 22.8928 42.6293 23.3389 42.6387 23.3451L43.1239 23.6178L43.3786 23.1537C43.4059 23.1037 43.9872 21.9826 44.1278 20.2545C45.9864 19.974 47.2333 19.6482 47.3676 19.6107L48.4372 19.3264L47.5044 18.5139C47.4723 18.4881 44.3911 15.7787 41.4723 10.3428C41.0578 9.57399 40.5812 8.8403 40.0473 8.14903C41.5426 8.6295 42.5379 9.03809 42.5379 9.03809C42.5379 9.03809 35.5208 -0.55722 27.6489 3.74356L27.0528 4.07637C26.1653 3.17559 25.0575 2.41231 23.7403 1.9709C22.1903 1.43497 20.3708 1.42247 18.7723 1.95059C17.1606 2.46934 15.8075 3.45606 14.7692 4.59434C13.7192 5.73575 12.952 7.03341 12.3567 8.36387C11.5536 10.1631 11.1364 12.1131 11.0567 14.0639C9.30045 13.9623 5.77857 14.3342 3.05279 18.324C-1.35268 24.7717 5.41217 31.6357 5.41217 31.6357V31.6357ZM39.2833 21.2475L39.4715 20.9725L39.6872 20.6561C40.7683 20.6258 41.8476 20.5465 42.9215 20.4186C42.8519 20.9526 42.7238 21.4774 42.5395 21.9834C41.9544 21.7553 40.8848 21.4287 39.2833 21.2475V21.2475ZM36.7926 25.3365C37.2364 24.3936 37.8426 23.4061 38.4833 22.4357C38.6129 22.4451 38.7403 22.4537 38.8629 22.4662C38.9112 23.528 39.1228 24.576 39.4903 25.5732C38.8645 25.6014 37.8848 25.5795 36.7926 25.3365V25.3365ZM32.8903 26.61C33.9195 24.6435 34.7547 22.5814 35.384 20.4529C36.3023 20.5712 37.2263 20.6403 38.152 20.66C36.6473 22.8686 35.0919 25.2834 34.9208 27.4225C34.2199 27.2161 33.54 26.9441 32.8903 26.61V26.61ZM24.2692 13.292C24.9864 15.2467 26.7715 17.7693 31.1848 19.4373C32.152 19.8037 33.1583 20.0678 34.1739 20.2584C33.0919 23.8107 31.4958 26.6506 30.5731 28.1217C30.0442 26.067 28.734 22.2467 25.7426 18.7576C24.7604 17.6107 24.0994 16.2241 23.827 14.7389C23.9583 14.2607 24.1051 13.7756 24.2692 13.292V13.292ZM28.3286 7.38809C30.7442 6.067 34.8247 6.70919 37.995 7.54825C38.9832 8.5323 39.8199 9.65758 40.4778 10.8873C42.5958 14.8365 44.7715 17.3811 45.9497 18.6092C43.4215 19.1373 36.702 20.2232 31.4583 18.2412C27.7294 16.8334 25.4481 14.5123 25.0325 11.7061C25.0192 11.617 25.0129 11.5272 25.0036 11.4381C25.8012 9.70528 26.8786 8.1795 28.3286 7.38809" fill="#3F3F3F"/>
<path d="M33.3024 35.4718C36.436 38.0585 42.6039 39.1874 42.6039 39.1874C42.6039 39.1874 35.9789 44.2601 29.7563 40.9562C24.418 38.1234 25.786 34.1319 25.786 34.1319C25.786 34.1319 28.7555 31.7171 33.3024 35.4718" fill="#3F3F3F"/>
</svg>
