<svg width="78" height="78" viewBox="0 0 78 78" fill="none" xmlns="http://www.w3.org/2000/svg">
<g clip-path="url(#clip0_216:6191)">
<path d="M74.4566 70.8691H71.7458V53.1171C71.7458 50.3871 69.5248 48.166 66.7947 48.166H65.6521V35.4414C65.6521 32.7114 63.4311 30.4903 60.7009 30.4903H57.832V29.0046C57.832 28.3736 57.3206 27.862 56.6894 27.862C56.0582 27.862 55.5468 28.3736 55.5468 29.0046V30.4903H52.7501V22.5394H55.5468V24.0249C55.5468 24.656 56.0582 25.1675 56.6894 25.1675C57.3206 25.1675 57.832 24.656 57.832 24.0249V22.1586C57.832 21.1085 56.9778 20.2543 55.9277 20.2543H55.2872V18.5078C57.2445 18.1798 58.9439 17.0147 59.964 15.2478C61.1779 13.1453 61.1779 10.635 59.964 8.5325L55.5182 0.831984C55.2365 0.34418 54.7118 0.041168 54.1486 0.041168C53.5852 0.041168 53.0604 0.34418 52.779 0.831832L48.3329 8.53266C47.119 10.6352 47.1189 13.1455 48.3329 15.248C49.3518 17.0127 51.0481 18.1771 53.0021 18.5068V20.2544H52.3692C51.3191 20.2544 50.4649 21.1086 50.4649 22.1587V30.4904H42.6835V22.1587C42.6835 21.1086 41.8293 20.2544 40.7792 20.2544H40.1409V18.5077C42.0971 18.1792 43.7958 17.0144 44.8156 15.248C46.0296 13.1455 46.0296 10.6352 44.8157 8.53266L40.3696 0.83168C40.0879 0.344027 39.5631 0.041168 39 0.041168C38.4369 0.041168 37.9121 0.34418 37.6306 0.831832L33.1844 8.53266C31.9706 10.6352 31.9706 13.1455 33.1844 15.248C34.2036 17.0133 35.9007 18.1778 37.8556 18.5071V20.2544H37.2208C36.1707 20.2544 35.3165 21.1086 35.3165 22.1587V30.4904H27.5351V22.1587C27.5351 21.1086 26.6809 20.2544 25.6308 20.2544H24.9941V18.5074C26.9498 18.1786 28.6478 17.0138 29.6673 15.2478C30.8811 13.1453 30.881 10.635 29.6671 8.5325L25.2211 0.83168C24.9394 0.344027 24.4146 0.0410156 23.8515 0.0410156C23.2885 0.0410156 22.7637 0.344027 22.482 0.83168L18.036 8.53266C16.8221 10.6352 16.8221 13.1455 18.036 15.248C19.0555 17.0138 20.7535 18.1786 22.709 18.5074V20.2544H22.0723C21.0222 20.2544 20.168 21.1086 20.168 22.1587V30.4904H17.2989C14.5689 30.4904 12.3478 32.7116 12.3478 35.4416V48.1661H11.2052C8.47519 48.1661 6.25402 50.3873 6.25402 53.1173V63.3336C6.25402 63.9646 6.76559 64.4762 7.39659 64.4762C8.0276 64.4762 8.53917 63.9646 8.53917 63.3336V61.6333C10.1223 61.8064 11.0493 62.3411 12.0915 62.9441C13.4503 63.7301 14.9905 64.6211 17.9307 64.6211C20.8708 64.6211 22.411 63.7301 23.7697 62.9441C25.0404 62.209 26.1378 61.5742 28.4645 61.5742C30.7914 61.5742 31.8889 62.209 33.1594 62.9441C34.5182 63.7301 36.0584 64.6211 38.9986 64.6211C41.9389 64.6211 43.4792 63.7301 44.838 62.9441C46.1088 62.209 47.2063 61.5742 49.5332 61.5742C51.8602 61.5742 52.9577 62.209 54.2286 62.9441C55.5875 63.7301 57.1277 64.6211 60.0681 64.6211C63.0086 64.6211 64.5488 63.7301 65.9077 62.9441C66.9501 62.3411 67.8772 61.8064 69.4605 61.6333V70.869H8.53932V68.313C8.53932 67.6819 8.02775 67.1704 7.39675 67.1704C6.76574 67.1704 6.25417 67.6819 6.25417 68.313V70.869H3.54336C1.58955 70.8691 0 72.4585 0 74.4123C0 76.3661 1.58955 77.9557 3.54336 77.9557H74.4566C76.4104 77.9557 78 76.3661 78 74.4123C78 72.4585 76.4104 70.8691 74.4566 70.8691ZM52.725 15.4986C52.4279 14.984 52.4279 14.3694 52.725 13.8548L54.1486 11.3891L55.5721 13.8548C55.8692 14.3694 55.8692 14.984 55.5721 15.4986C55.275 16.0132 54.7429 16.3205 54.1485 16.3205C53.5542 16.3205 53.022 16.0132 52.725 15.4986ZM50.3118 9.67523L54.1483 3.03L57.9851 9.67523C58.7712 11.0367 58.7837 12.6569 58.0265 14.0278C57.949 13.5743 57.7919 13.1295 57.5509 12.7122L55.3279 8.86172C55.0852 8.44171 54.6332 8.18089 54.1485 8.18089C53.6634 8.18089 53.2115 8.44171 52.9689 8.86187L50.7459 12.7124C50.5048 13.1296 50.3478 13.5745 50.2702 14.0282C49.5132 12.6569 49.5257 11.0367 50.3118 9.67523ZM37.5765 15.4986C37.2793 14.984 37.2793 14.3694 37.5763 13.8548L39 11.3891L40.4237 13.8548C40.7207 14.3696 40.7207 14.9841 40.4235 15.4987C40.1264 16.0133 39.5943 16.3206 39 16.3206C38.4057 16.3205 37.8736 16.0132 37.5765 15.4986ZM35.1634 9.67523L39 3.02985L42.8368 9.67523C43.6227 11.0367 43.6352 12.6568 42.8782 14.0278C42.8007 13.5743 42.6436 13.1295 42.4027 12.7124L40.1797 8.86218C39.9374 8.44201 39.4854 8.18105 39.0003 8.18089H39.0002C38.5151 8.18089 38.0632 8.44171 37.8206 8.86187L35.5976 12.7124C35.3567 13.1296 35.1995 13.5745 35.1221 14.028C34.3648 12.6569 34.3773 11.0367 35.1634 9.67523ZM22.428 15.4986C22.1308 14.984 22.131 14.3694 22.428 13.8548L23.8517 11.3891L25.2752 13.8548C25.5723 14.3694 25.5723 14.984 25.275 15.4986C24.978 16.0132 24.4458 16.3205 23.8515 16.3205C23.2573 16.3205 22.7251 16.0132 22.428 15.4986ZM20.0149 9.67523L23.8515 3.03L27.6882 9.67523C28.4743 11.0367 28.4868 12.6569 27.7296 14.0278C27.6521 13.5743 27.495 13.1295 27.2541 12.7122L25.031 8.86172C24.7885 8.44171 24.3365 8.18089 23.8515 8.18089C23.8514 8.18089 23.8512 8.18089 23.8512 8.18089C23.3662 8.18089 22.9143 8.44201 22.6719 8.86187L20.4489 12.7124C20.2081 13.1296 20.0509 13.5745 19.9733 14.0282C19.2163 12.6569 19.2288 11.0367 20.0149 9.67523ZM37.6016 22.5394H40.3984V30.4903H37.6016V22.5394ZM22.4532 22.5394H25.2499V30.4903H22.4532V22.5394ZM14.6331 40.9506C15.6585 41.1458 16.3066 41.6095 17.0762 42.1612C18.2125 42.9754 19.5003 43.8985 21.9931 43.8985C24.4859 43.8985 25.7738 42.9754 26.91 42.1612C27.9309 41.4295 28.7372 40.8516 30.4957 40.8516C32.2544 40.8516 33.0607 41.4296 34.0817 42.1612C34.6536 42.5711 35.2452 42.9949 36.0231 43.3295C36.6032 43.5786 37.2749 43.3109 37.5241 42.7312C37.7733 42.1514 37.5055 41.4794 36.9258 41.2302C36.3751 40.9935 35.9077 40.6585 35.4129 40.3038C34.2766 39.4895 32.9887 38.5665 30.4957 38.5665C28.0029 38.5665 26.715 39.4895 25.5788 40.3038C24.558 41.0355 23.7516 41.6133 21.9931 41.6133C20.2346 41.6133 19.4284 41.0355 18.4074 40.3038C17.4595 39.6245 16.4035 38.8716 14.6331 38.6399V35.4414C14.6331 33.9715 15.8291 32.7754 17.2991 32.7754H60.7011C62.171 32.7754 63.3671 33.9715 63.3671 35.4414V38.6399C61.5965 38.8715 60.5402 39.6243 59.5923 40.3036C58.5711 41.0353 57.7646 41.6133 56.0057 41.6133C54.2469 41.6133 53.4404 41.0355 52.4192 40.3038C51.2829 39.4895 49.995 38.5665 47.5019 38.5665C45.009 38.5665 43.7213 39.4894 42.585 40.3036C42.0825 40.6636 41.6081 41.0038 41.0457 41.2413C40.4645 41.4869 40.1921 42.1571 40.4377 42.7384C40.6831 43.3197 41.3542 43.5918 41.9347 43.3464C42.732 43.0096 43.3611 42.5588 43.9163 42.161C44.9371 41.4295 45.7435 40.8515 47.502 40.8515C49.2608 40.8515 50.0673 41.4295 51.0885 42.161C52.2248 42.9753 53.5127 43.8983 56.0058 43.8983C58.4989 43.8983 59.787 42.9753 60.9233 42.161C61.6931 41.6094 62.3415 41.1456 63.3672 40.9505V48.1658H14.6331V40.9506ZM64.7638 60.966C63.4929 61.7011 62.3953 62.3359 60.0682 62.3359C57.7412 62.3359 56.6437 61.7011 55.3728 60.966C54.0139 60.1799 52.4737 59.289 49.5334 59.289C46.593 59.289 45.0528 60.1799 43.6939 60.966C42.4232 61.7011 41.3257 62.3359 38.9988 62.3359C36.6719 62.3359 35.5746 61.7011 34.3039 60.966C32.9451 60.1799 31.4049 59.289 28.4647 59.289C25.5246 59.289 23.9844 60.1799 22.6256 60.966C21.3551 61.7011 20.2578 62.3359 17.931 62.3359C15.6041 62.3359 14.5068 61.7011 13.2361 60.966C12.0656 60.2889 10.7581 59.5355 8.53948 59.3393V53.1173C8.53948 51.6473 9.73553 50.4513 11.2055 50.4513H66.795C68.2649 50.4513 69.461 51.6473 69.461 53.1173V59.3393C67.2419 59.5354 65.9344 60.2889 64.7638 60.966ZM74.4566 75.6705H3.54336C2.84959 75.6705 2.28516 75.1061 2.28516 74.4123C2.28516 73.7186 2.84959 73.1543 3.54336 73.1543H74.4566C75.1504 73.1543 75.7148 73.7187 75.7148 74.4123C75.7148 75.1061 75.1504 75.6705 74.4566 75.6705Z" fill="#B378D4"/>
<path d="M30.4238 43.4863C29.7928 43.4863 29.2812 43.9979 29.2812 44.6289C29.2812 45.2599 29.7928 45.7715 30.4238 45.7715C31.0548 45.7715 31.5664 45.2599 31.5664 44.6289C31.5664 43.9979 31.0548 43.4863 30.4238 43.4863Z" fill="#B378D4"/>
<path d="M32.373 66.9668C32.373 66.3358 31.8615 65.8242 31.2305 65.8242C30.5995 65.8242 30.0879 66.3358 30.0879 66.9668C30.0879 67.5978 30.5995 68.1094 31.2305 68.1094C31.8615 68.1094 32.373 67.5978 32.373 66.9668Z" fill="#B378D4"/>
<path d="M47.9121 66.9668C47.9121 66.3358 47.4005 65.8242 46.7695 65.8242C46.1385 65.8242 45.627 66.3358 45.627 66.9668C45.627 67.5978 46.1385 68.1094 46.7695 68.1094C47.4005 68.1094 47.9121 67.5978 47.9121 66.9668Z" fill="#B378D4"/>
<path d="M16.832 66.9668C16.832 66.3358 16.3205 65.8242 15.6895 65.8242C15.0584 65.8242 14.5469 66.3358 14.5469 66.9668C14.5469 67.5978 15.0584 68.1094 15.6895 68.1094C16.3205 68.1094 16.832 67.5978 16.832 66.9668Z" fill="#B378D4"/>
<path d="M63.4531 66.9668C63.4531 66.3358 62.9416 65.8242 62.3105 65.8242C61.6795 65.8242 61.168 66.3358 61.168 66.9668C61.168 67.5978 61.6795 68.1094 62.3105 68.1094C62.9416 68.1094 63.4531 67.5978 63.4531 66.9668Z" fill="#B378D4"/>
<path d="M47.5996 43.4863C46.9686 43.4863 46.457 43.9979 46.457 44.6289C46.457 45.2599 46.9686 45.7715 47.5996 45.7715C48.2306 45.7715 48.7422 45.2599 48.7422 44.6289C48.7422 43.9979 48.2308 43.4863 47.5996 43.4863Z" fill="#B378D4"/>
</g>
<defs>
<clipPath id="clip0_216:6191">
<rect width="78" height="78" fill="white"/>
</clipPath>
</defs>
</svg>
