<svg width="16" height="16" viewBox="0 0 16 16" fill="none" xmlns="http://www.w3.org/2000/svg">
<g clip-path="url(#clip0_236:7053)">
<path d="M8.00012 1C3.58137 1 0.000120881 3.90937 0.000120881 7.5C0.000120881 8.9875 0.621996 10.35 1.65325 11.4469C1.18762 12.6781 0.218871 13.7219 0.203246 13.7344C-0.00300412 13.9531 -0.0592541 14.2719 0.0594959 14.5469C0.178246 14.8219 0.450121 15 0.750121 15C2.672 15 4.18762 14.1969 5.097 13.5531C6.00012 13.8375 6.97512 14 8.00012 14C12.4189 14 16.0001 11.0906 16.0001 7.5C16.0001 3.90937 12.4189 1 8.00012 1ZM8.00012 12.5C7.16575 12.5 6.34075 12.3719 5.55012 12.1219L4.84075 11.8969L4.23137 12.3281C3.7845 12.6438 3.172 12.9969 2.4345 13.2344C2.66262 12.8562 2.8845 12.4312 3.05637 11.9781L3.38762 11.1L2.74387 10.4187C2.17825 9.81563 1.50012 8.81875 1.50012 7.5C1.50012 4.74375 4.41575 2.5 8.00012 2.5C11.5845 2.5 14.5001 4.74375 14.5001 7.5C14.5001 10.2563 11.5845 12.5 8.00012 12.5Z" fill="#B378D4"/>
</g>
<defs>
<clipPath id="clip0_236:7053">
<rect width="16" height="16" fill="white"/>
</clipPath>
</defs>
</svg>
