<svg width="16" height="16" viewBox="0 0 16 16" fill="none" xmlns="http://www.w3.org/2000/svg">
<path d="M14.7648 6.4375H10.7648C10.6961 6.4375 10.6398 6.49375 10.6398 6.5625V7.3125C10.6398 7.38125 10.6961 7.4375 10.7648 7.4375H14.7648C14.8336 7.4375 14.8898 7.38125 14.8898 7.3125V6.5625C14.8898 6.49375 14.8336 6.4375 14.7648 6.4375ZM12.6711 8.5625H10.7648C10.6961 8.5625 10.6398 8.61875 10.6398 8.6875V9.4375C10.6398 9.50625 10.6961 9.5625 10.7648 9.5625H12.6711C12.7398 9.5625 12.7961 9.50625 12.7961 9.4375V8.6875C12.7961 8.61875 12.7398 8.5625 12.6711 8.5625ZM7.45703 5.03906H6.78047C6.68359 5.03906 6.60547 5.11719 6.60547 5.21406V9.08906C6.60547 9.14531 6.63203 9.19688 6.67734 9.22969L9.00391 10.9266C9.08203 10.9828 9.19141 10.9672 9.24766 10.8891L9.64922 10.3406V10.3391C9.70547 10.2609 9.68828 10.1516 9.61016 10.0953L7.63047 8.66406V5.21406C7.63203 5.11719 7.55234 5.03906 7.45703 5.03906Z" fill="#B378D4"/>
<path d="M12.575 10.5286H11.6719C11.5844 10.5286 11.5016 10.5739 11.4547 10.6489C11.2563 10.963 11.025 11.2536 10.7594 11.5192C10.3016 11.977 9.76876 12.3364 9.17657 12.5864C8.56251 12.8458 7.91095 12.977 7.23907 12.977C6.56564 12.977 5.91407 12.8458 5.30157 12.5864C4.70939 12.3364 4.17657 11.977 3.71876 11.5192C3.26095 11.0614 2.90157 10.5286 2.65157 9.93641C2.3922 9.32391 2.26095 8.67235 2.26095 7.99891C2.26095 7.32548 2.3922 6.67548 2.65157 6.06141C2.90157 5.46923 3.26095 4.93641 3.71876 4.4786C4.17657 4.02079 4.70939 3.66141 5.30157 3.41141C5.91407 3.15204 6.5672 3.02079 7.23907 3.02079C7.91251 3.02079 8.56407 3.15204 9.17657 3.41141C9.76876 3.66141 10.3016 4.02079 10.7594 4.4786C11.025 4.74423 11.2563 5.03485 11.4547 5.34891C11.5016 5.42391 11.5844 5.46923 11.6719 5.46923H12.575C12.6828 5.46923 12.7516 5.35673 12.7031 5.26141C11.6844 3.23485 9.61876 1.91766 7.31251 1.8911C3.93595 1.84891 1.13126 4.61298 1.12501 7.98641C1.11876 11.3661 3.85782 14.1083 7.23751 14.1083C9.57345 14.1083 11.6734 12.7864 12.7031 10.7364C12.7516 10.6411 12.6813 10.5286 12.575 10.5286Z" fill="#B378D4"/>
</svg>
