<svg  viewBox="0 0 18 18" id="arrow-down" xmlns="http://www.w3.org/2000/svg">
<path d="M9.00094 12C8.8257 12.0003 8.65587 11.9393 8.52094 11.8275L4.02094 8.07746C3.86778 7.95016 3.77146 7.76723 3.75317 7.56891C3.73489 7.37059 3.79614 7.17312 3.92344 7.01996C4.05074 6.8668 4.23368 6.77048 4.432 6.7522C4.63032 6.73391 4.82778 6.79516 4.98094 6.92246L9.00094 10.2825L13.0209 7.04246C13.0977 6.98016 13.1859 6.93364 13.2807 6.90557C13.3754 6.87749 13.4748 6.86842 13.5731 6.87888C13.6713 6.88933 13.7666 6.9191 13.8533 6.96648C13.94 7.01386 14.0165 7.07792 14.0784 7.15496C14.1471 7.23208 14.1991 7.32255 14.2312 7.4207C14.2633 7.51886 14.2748 7.62258 14.265 7.72538C14.2551 7.82818 14.2241 7.92783 14.174 8.0181C14.1238 8.10837 14.0555 8.1873 13.9734 8.24996L9.47344 11.8725C9.33463 11.9666 9.16827 12.0115 9.00094 12Z" fill="#3A3A3A" fill-opacity="0.75"/>
</svg>
