<svg width="78" height="78" viewBox="0 0 78 78" fill="none" xmlns="http://www.w3.org/2000/svg">
<g clip-path="url(#clip0_220:6278)">
<path d="M51.1596 10.6386L48.7547 10.6666C46.7617 10.6881 44.8044 11.3997 43.1145 12.7175C42.5648 12.4448 41.9998 12.2177 41.4233 12.0379C40.528 11.1697 39.4422 10.6321 38.2924 10.4878C37.9155 9.373 37.3155 8.39306 36.5455 7.63464C35.7755 6.87622 34.8592 6.36267 33.8777 6.13941C32.8962 5.91616 31.8797 5.99007 30.918 6.3546C29.9563 6.71914 29.0791 7.36307 28.364 8.22947C27.6918 9.0441 27.183 10.0336 26.8779 11.1193C25.1754 8.7854 22.8052 7.31624 20.2266 6.99652L16.7578 6.57022C16.6279 6.55426 16.4962 6.57393 16.3724 6.62775C16.2486 6.68158 16.1358 6.76819 16.0424 6.88118C15.949 6.99417 15.8774 7.13064 15.8329 7.28048C15.7885 7.43032 15.7722 7.5897 15.7854 7.74682L16.1377 11.9441C16.2553 13.3569 16.5685 14.7311 17.0643 16.0096C16.5697 16.5629 16.1092 17.1593 15.6866 17.7939C14.2668 18.4447 12.9745 19.4575 11.8988 20.7626L10.3673 22.6157C10.2022 22.8155 10.1081 23.085 10.1059 23.3649C10.1037 23.6448 10.1934 23.9121 10.3554 24.1081L12.0396 26.1459C12.264 26.4175 12.4979 26.6746 12.7412 26.9173C12.5656 30.2134 13.2322 33.4754 14.6505 36.2599L14.6943 36.2263C14.8162 37.4297 15.1828 38.5722 15.7614 39.5521C16.3399 40.532 17.1126 41.3189 18.0105 41.8428L26.2204 56.6552C26.0467 56.8135 25.9264 57.0432 25.883 57.2996C25.8396 57.5561 25.8762 57.821 25.9856 58.0432L27.5635 61.2587L26.5245 63.7372C26.4568 63.8988 26.424 64.078 26.4292 64.2576C26.4345 64.4372 26.4776 64.6113 26.5545 64.7634C26.6315 64.9155 26.7396 65.0405 26.8688 65.1266C26.9979 65.2127 27.1437 65.2569 27.2924 65.2552L27.7269 65.2501L27.1872 67.1601C26.9477 68.0077 26.8771 68.9081 26.9811 69.7872C27.0851 70.6663 27.3607 71.4989 27.7853 72.2163C28.2099 72.9338 28.7713 73.5155 29.4232 73.9137C30.0752 74.3119 30.799 74.515 31.535 74.5064C32.271 74.4978 32.9982 74.2777 33.6566 73.8642C34.315 73.4507 34.8857 72.8557 35.3218 72.1282C35.758 71.4007 36.0469 70.5615 36.165 69.6798C36.283 68.7981 36.2267 67.8992 36.0007 67.057L35.4914 65.1594L35.9258 65.1544C36.0745 65.1526 36.221 65.105 36.3516 65.0158C36.4821 64.9267 36.5923 64.7992 36.6717 64.6452C36.7511 64.4913 36.797 64.3161 36.8051 64.1363C36.8133 63.9566 36.7833 63.7781 36.7181 63.618L35.7185 61.1633L37.348 57.9105C37.461 57.6857 37.5017 57.4199 37.4624 57.1644C37.4231 56.9089 37.3066 56.682 37.1353 56.5277L47.2112 38.6285C48.4448 37.1222 49.4238 35.3403 50.0914 33.3862L50.0776 33.3796C51.5228 32.9179 52.8758 32.0903 54.0464 30.952L56.7957 28.2792C56.8987 28.1792 56.9821 28.0528 57.0399 27.9095C57.0977 27.7662 57.1284 27.6097 57.1297 27.4514C57.1309 27.2931 57.1028 27.1372 57.0472 26.9953C56.9917 26.8533 56.9103 26.7288 56.8089 26.6312L54.1017 24.0221C52.9055 22.8666 51.5067 22.0524 50.0067 21.6383C50.0285 21.6014 50.0516 21.5659 50.0732 21.5286C51.312 19.3946 51.9856 16.8637 52.0027 14.2792L52.0233 11.6836C52.0256 11.4037 51.9358 11.1364 51.7738 10.9404C51.6119 10.7444 51.3909 10.6359 51.1596 10.6386ZM27.1127 18.7357C27.1082 20.0034 27.3736 21.2448 27.8834 22.3403C28.3932 23.4359 29.1301 24.3486 30.0232 24.9906C30.9163 25.6326 31.9355 25.9822 32.9825 26.0058C34.0296 26.0293 35.0692 25.7261 36.0012 25.1251C35.7435 25.7454 35.4049 26.3126 34.9986 26.8047C34.9063 26.9163 34.8091 27.023 34.7103 27.1266C33.8642 27.3955 33.0721 27.8802 32.3879 28.5479C32.1368 28.6157 31.8823 28.6613 31.6265 28.6842C31.3143 27.1848 30.6152 25.8529 29.6298 24.8802C28.6443 23.9075 27.4232 23.3439 26.142 23.2706C25.9824 21.6759 26.3293 20.0556 27.1127 18.7357ZM42.9499 34.919C42.7376 35.1758 42.4914 35.3879 42.2219 35.546C42.4223 35.0472 42.5126 34.4962 42.4839 33.9475C42.4552 33.3988 42.3085 32.8715 42.0583 32.4176C41.8081 31.9637 41.463 31.5991 41.0572 31.3596C40.6514 31.1201 40.1989 31.0142 39.7445 31.0523C39.5792 30.8749 39.3999 30.7174 39.2091 30.5821C39.234 30.5494 39.2593 30.5168 39.2855 30.4851C39.7809 29.8857 40.4491 29.5444 41.143 29.5363C41.8369 29.5282 42.4997 29.8539 42.9856 30.4419C43.4715 31.0299 43.7407 31.8319 43.734 32.6715C43.7273 33.5111 43.4453 34.3195 42.9499 34.919ZM21.9472 39.6409C21.8768 39.5558 21.8099 39.4674 21.7451 39.3773C22.5566 39.4266 23.3624 39.1305 24.0227 38.5403C24.9768 38.9976 26.0406 39.0268 27.0245 38.6225C28.0084 38.2183 28.8483 37.4069 29.3945 36.3332C29.3072 37.3296 28.988 38.2809 28.4742 39.0762C27.9603 39.8714 27.2729 40.4778 26.4922 40.8246C25.7115 41.1713 24.8697 41.2442 24.0649 41.0346C23.2602 40.825 22.5257 40.3417 21.9472 39.6409ZM23.8627 31.4114C24.1348 31.0822 24.4618 30.8276 24.821 30.6653C25.1802 30.503 25.5628 30.4369 25.9422 30.4716C26.3215 30.5064 26.6884 30.6411 27.0172 30.8664C27.346 31.0918 27.6288 31.4022 27.8457 31.7762C28.0627 32.1501 28.2086 32.5784 28.2732 33.0312C28.3379 33.484 28.3197 33.9503 28.22 34.3976C28.1203 34.8449 27.9415 35.2623 27.6961 35.6206C27.4506 35.979 27.1445 36.2696 26.799 36.4723C26.9994 35.9734 27.0898 35.4224 27.0611 34.8738C27.0324 34.3251 26.8857 33.7978 26.6355 33.3439C26.3852 32.89 26.0402 32.5253 25.6344 32.2859C25.2286 32.0464 24.7761 31.9405 24.3217 31.9786C24.1564 31.8011 23.9771 31.6437 23.7862 31.5084C23.8112 31.4756 23.8365 31.4431 23.8627 31.4114ZM23.8389 34.3961C23.962 34.2471 24.1182 34.1448 24.2877 34.1021C24.4572 34.0594 24.6324 34.0782 24.7911 34.1562C24.9499 34.2342 25.085 34.3679 25.1794 34.5403C25.2739 34.7127 25.3234 34.9162 25.3217 35.1249C25.3201 35.3336 25.2673 35.5382 25.1701 35.7129C25.0729 35.8875 24.9356 36.0244 24.7756 36.1061C24.6156 36.1878 24.4401 36.2108 24.2712 36.172C24.1024 36.1333 23.9478 36.0346 23.827 35.8884C23.6653 35.6923 23.5757 35.425 23.5779 35.1452C23.5802 34.8655 23.674 34.596 23.8389 34.3961ZM22.4286 37.1915C22.1692 37.2809 21.8973 37.297 21.6342 37.2385C21.3711 37.18 21.1239 37.0485 20.9119 36.8542C20.6999 36.6599 20.5288 36.4081 20.4119 36.1185C20.295 35.8288 20.2356 35.5091 20.2382 35.1842C20.2408 34.8594 20.3053 34.5383 20.4269 34.2458C20.5484 33.9534 20.7235 33.6975 20.9387 33.4983C21.1538 33.299 21.4032 33.1617 21.6672 33.097C21.9313 33.0323 22.203 33.0421 22.4611 33.1255C22.0626 33.7003 21.841 34.4224 21.8351 35.1656C21.8292 35.9088 22.0393 36.6259 22.4286 37.1915ZM34.5207 36.6762C34.7074 37.7027 35.0757 38.6642 35.6006 39.4949C34.9863 39.4111 34.3964 39.1695 33.8701 38.7862C33.3438 38.4028 32.8933 37.8866 32.5485 37.2718C32.2037 36.657 31.9726 35.9578 31.8707 35.2208C31.7687 34.4838 31.7982 33.7259 31.9571 32.9977C32.116 32.2694 32.4008 31.5876 32.7924 30.9975C33.184 30.4074 33.6734 29.9227 34.2281 29.5757C34.7828 29.2286 35.39 29.0272 36.0092 28.9849C36.6284 28.9426 37.2454 29.0603 37.819 29.3301C37.6661 29.5466 37.5275 29.7773 37.4048 30.02C36.7709 30.0342 36.1488 30.2573 35.6056 30.6653C35.0624 31.0732 34.6186 31.6506 34.3219 32.3352C34.0253 33.0199 33.887 33.7859 33.922 34.5508C33.9571 35.3157 34.164 36.0505 34.5207 36.6762ZM40.4832 34.9478C40.36 35.0968 40.2038 35.1991 40.0343 35.2418C39.8648 35.2845 39.6896 35.2656 39.5309 35.1876C39.3722 35.1096 39.2371 34.976 39.1426 34.8035C39.0482 34.6311 38.9987 34.4277 39.0003 34.219C39.002 34.0103 39.0548 33.8057 39.152 33.631C39.2492 33.4563 39.3865 33.3195 39.5465 33.2378C39.7065 33.156 39.882 33.1331 40.0508 33.1718C40.2197 33.2106 40.3743 33.3093 40.4951 33.4554C40.6568 33.6516 40.7464 33.9188 40.7441 34.1986C40.7419 34.4784 40.6481 34.7478 40.4832 34.9478ZM36.1843 32.7597C36.4044 32.494 36.6776 32.3021 36.9761 32.2037C37.2746 32.1052 37.5878 32.1037 37.8839 32.1992C37.4854 32.774 37.2639 33.4961 37.2579 34.2393C37.252 34.9825 37.4621 35.6996 37.8515 36.2652C37.4794 36.3935 37.0851 36.3699 36.7301 36.1981C36.3751 36.0264 36.0794 35.7162 35.889 35.3159C35.6987 34.9156 35.6244 34.4477 35.6778 33.9853C35.7312 33.5229 35.9093 33.0919 36.1843 32.7597ZM36.2676 22.3132C35.6779 23.0276 34.9355 23.5282 34.1273 23.7566C33.3191 23.985 32.4782 23.9318 31.7029 23.6032C30.9276 23.2747 30.2498 22.6842 29.7485 21.9008C29.2472 21.1175 28.9431 20.1734 28.8718 19.1788C29.4009 20.24 30.228 21.0319 31.2056 21.4132C32.1832 21.7945 33.2478 21.7405 34.2093 21.2608C34.8603 21.8357 35.6615 22.1131 36.474 22.0448C36.4077 22.1365 36.3394 22.2264 36.2676 22.3132ZM34.4474 18.6039C34.3242 18.7529 34.168 18.8552 33.9986 18.8979C33.8291 18.9406 33.6539 18.9218 33.4951 18.8438C33.3364 18.7658 33.2013 18.6321 33.1069 18.4597C33.0124 18.2873 32.9629 18.0838 32.9646 17.8751C32.9662 17.6664 33.019 17.4618 33.1162 17.2871C33.2134 17.1125 33.3507 16.9756 33.5107 16.8939C33.6707 16.8122 33.8462 16.7892 34.0151 16.828C34.1839 16.8667 34.3385 16.9654 34.4593 17.1116C34.621 17.3077 34.7106 17.575 34.7084 17.8548C34.7061 18.1345 34.6123 18.4039 34.4474 18.6039ZM37.5248 19.3141C37.3047 19.5798 37.0315 19.7716 36.733 19.8701C36.4345 19.9685 36.1213 19.97 35.8252 19.8745C36.2237 19.2997 36.4452 18.5776 36.4512 17.8344C36.4571 17.0912 36.247 16.3741 35.8577 15.8085C36.2297 15.6803 36.624 15.7039 36.979 15.8756C37.334 16.0473 37.6297 16.3575 37.8201 16.7578C38.0105 17.1581 38.0847 17.626 38.0313 18.0884C37.9779 18.5508 37.7998 18.9818 37.5248 19.3141ZM34.5581 14.2221C34.365 14.3619 34.1831 14.5235 34.015 14.7049C33.5611 14.6774 33.1069 14.7939 32.6972 15.0429C32.2875 15.2919 31.9365 15.6647 31.679 16.1245C31.4215 16.5843 31.2663 17.1152 31.2289 17.6646C31.1914 18.2141 31.273 18.763 31.4655 19.2573C31.1232 19.0627 30.8216 18.7792 30.5818 18.4265C30.3419 18.0738 30.1697 17.6605 30.0771 17.2154C29.9845 16.7704 29.9738 16.3044 30.0457 15.8499C30.1176 15.3955 30.2704 14.9637 30.4933 14.5846C30.7163 14.2055 31.0041 13.8883 31.3366 13.6553C31.669 13.4222 32.0382 13.2789 32.4182 13.2353C32.7982 13.1917 33.1798 13.2489 33.5365 13.4029C33.8932 13.5569 34.2163 13.804 34.4831 14.1269C34.5088 14.158 34.5336 14.1899 34.5581 14.2221ZM28.8318 26.8767C29.3135 27.464 29.6714 28.1833 29.8767 28.976C30.0819 29.7688 30.1285 30.6126 30.0127 31.4388C29.8327 31.1412 29.6342 30.861 29.4187 30.6004C29.3089 30.4675 29.1934 30.3405 29.0758 30.2188C28.9917 30.0959 28.903 29.9763 28.808 29.8614C28.1909 29.1166 27.3986 28.6192 26.5349 28.4344C25.6712 28.2496 24.7765 28.386 23.968 28.8258C23.3695 28.3922 22.7109 28.0902 22.0219 27.9333C22.3712 27.2483 22.8429 26.6652 23.4015 26.2279C23.9601 25.7906 24.5911 25.5105 25.2467 25.4088C25.9024 25.3071 26.5657 25.3863 27.1868 25.6406C27.8078 25.8949 28.3703 26.3175 28.8318 26.8767ZM22.3962 30.2564C22.2432 30.4728 22.1047 30.7035 21.982 30.9462C21.3481 30.9605 20.726 31.1835 20.1828 31.5915C19.6396 31.9995 19.1958 32.5768 18.8991 33.2615C18.6025 33.9462 18.4642 34.7121 18.4992 35.477C18.5342 36.2419 18.7412 36.9768 19.0979 37.6024C19.2845 38.629 19.6529 39.5905 20.1778 40.4212C19.5635 40.3374 18.9736 40.0958 18.4473 39.7124C17.921 39.3291 17.4704 38.8128 17.1257 38.198C16.7809 37.5832 16.5498 36.884 16.4478 36.147C16.3459 35.41 16.3753 34.6522 16.5343 33.9239C16.6932 33.1957 16.978 32.5138 17.3696 31.9237C17.7612 31.3337 18.2506 30.849 18.8053 30.5019C19.36 30.1549 19.9672 29.9535 20.5864 29.9112C21.2055 29.8688 21.8225 29.9865 22.3962 30.2564ZM29.3354 41.0468C30.0374 40.1987 30.5618 39.1609 30.8636 38.0227C31.2628 38.8642 31.7978 39.5981 32.4375 40.1817C33.0772 40.7654 33.8088 41.1871 34.5898 41.4225L28.9355 41.4886C29.0724 41.349 29.2064 41.2029 29.3354 41.0468ZM37.7732 43.4956C39.6409 43.4779 41.4917 42.9795 43.2029 42.0338L35.1506 56.3381L30.7017 56.3901L30.8039 43.5771L37.7732 43.4956ZM43.5368 38.6426C42.7105 39.6402 41.5972 40.2081 40.4411 40.2216C39.285 40.2351 38.1806 39.6931 37.37 38.7147C37.2997 38.6295 37.2328 38.5412 37.1679 38.451C37.9795 38.5003 38.7852 38.2042 39.4456 37.614C40.3996 38.0714 41.4635 38.1005 42.4473 37.6963C43.4312 37.292 44.2712 36.4807 44.8173 35.4069C44.7121 36.6258 44.2592 37.7702 43.5368 38.6426ZM44.4987 29.2925C44.4146 29.1697 44.3258 29.0501 44.2308 28.9351C43.6137 28.1903 42.8214 27.6929 41.9577 27.5081C41.094 27.3233 40.1993 27.4598 39.3908 27.8995C38.7923 27.4659 38.1337 27.1639 37.4447 27.007C37.9799 25.9574 38.7963 25.1585 39.7543 24.747C40.7124 24.3355 41.7524 24.3369 42.6964 24.7511C43.6405 25.1652 44.4299 25.9663 44.9296 27.0173C45.4292 28.0683 45.6081 29.3039 45.4356 30.5125C45.2555 30.215 45.057 29.9347 44.8416 29.6741C44.7317 29.5412 44.6162 29.4142 44.4987 29.2925ZM40.5903 21.5166C39.8954 22.3575 38.9923 22.8981 38.0249 23.0522C38.5632 22.2091 38.947 21.2389 39.15 20.2078C39.5167 19.5737 39.7355 18.8339 39.7827 18.068C39.83 17.3021 39.7039 16.5392 39.4181 15.8614C39.1323 15.1835 38.6976 14.6164 38.1608 14.221C37.624 13.8257 37.0054 13.6171 36.3716 13.6177C36.2527 13.3778 36.1179 13.1503 35.9683 12.9374C36.9043 12.4786 37.9362 12.4215 38.8899 12.7756C39.8437 13.1297 40.661 13.8734 41.204 14.8813C41.747 15.8891 41.9824 17.0995 41.8706 18.3082C41.7589 19.517 41.3067 20.6501 40.5903 21.5166ZM35.7522 9.63539C35.9926 9.92697 36.2032 10.2524 36.3797 10.6051C35.6882 10.7781 35.0246 11.0956 34.419 11.5432C33.6174 11.1223 32.7247 11.0067 31.8579 11.2117C30.9911 11.4168 30.1907 11.9328 29.5616 12.6921C29.4647 12.8094 29.374 12.9312 29.2879 13.056C29.1682 13.1808 29.0506 13.3104 28.939 13.4455C28.7194 13.7112 28.5163 13.9962 28.3315 14.2979C28.1916 13.1983 28.3445 12.0665 28.7683 11.0655C29.1922 10.0645 29.865 9.24597 30.6899 8.72762C31.5149 8.20928 32.4495 8.0179 33.3592 8.18103C34.2688 8.34415 35.1067 8.85337 35.7522 9.63539ZM17.8731 11.6907L17.6307 8.80308L20.0172 9.09639C21.3749 9.26477 22.6747 9.81729 23.8122 10.7095C24.9496 11.6017 25.8929 12.8086 26.5661 14.2332C26.6109 14.8303 26.7161 15.417 26.8791 15.9805C26.7307 16.1332 26.5863 16.2922 26.4485 16.459C26.2404 16.7111 26.0456 16.9785 25.865 17.2597L21.5508 12.0396L20.3055 13.5464L24.94 19.1541C24.7589 19.6635 24.6187 20.1921 24.5215 20.7323C22.7596 20.269 21.1719 19.1487 19.98 17.5278C18.7882 15.9069 18.0516 13.8662 17.8731 11.6907ZM12.2114 23.3403L13.1202 22.2406C14.6391 20.3966 16.6549 19.2804 18.7835 19.1047C19.7979 20.438 21.0443 21.4825 22.4361 22.1657L16.916 22.2302L16.899 24.3407L22.7323 24.2726C21.6288 25.0457 20.7452 26.211 20.2044 27.6067C18.9323 27.755 17.6541 27.5664 16.459 27.0539C15.2639 26.5413 14.1807 25.7173 13.2848 24.6392L12.2114 23.3403ZM14.4628 28.3083C15.2603 28.8189 16.1109 29.2015 16.9936 29.4467C16.156 30.2514 15.5042 31.305 15.1041 32.5014C14.7135 31.1558 14.4972 29.7416 14.4628 28.3083ZM20.9129 42.5573C22.461 43.2909 24.1165 43.657 25.7903 43.6357L29.0596 43.5975L28.9574 56.4104L28.2085 56.4192L20.5293 42.5642C20.6568 42.5668 20.7847 42.5645 20.9129 42.5573ZM28.8367 67.808L29.5655 65.2287L29.6077 65.2282L30.8526 72.2993C30.4653 72.1873 30.1029 71.9791 29.7882 71.6878C29.4735 71.3964 29.2132 71.0283 29.0239 70.6064C28.8345 70.1846 28.7202 69.7182 28.6879 69.2366C28.6557 68.755 28.7063 68.2686 28.8367 67.808ZM34.3406 67.7437C34.5691 68.5936 34.5174 69.5234 34.1962 70.3414C33.8751 71.1593 33.309 71.8029 32.6149 72.1393L31.3944 65.2073L33.6528 65.1809L34.3406 67.7437ZM33.9812 60.5946C33.9045 60.7477 33.8606 60.921 33.8536 61.0985C33.8465 61.276 33.8766 61.4518 33.9409 61.6099L34.5316 63.0603L28.7203 63.1282L29.3343 61.6636C29.4012 61.5041 29.434 61.3275 29.4298 61.1501C29.4256 60.9728 29.3844 60.8005 29.3101 60.6492L28.2696 58.5288L35.0559 58.4495L33.9812 60.5946ZM46.3999 36.6213C46.5935 35.6826 46.6355 34.7108 46.5234 33.76C47.0236 33.8101 47.5268 33.8165 48.0291 33.7791C47.5848 34.8027 47.0375 35.7575 46.3999 36.6213ZM52.97 29.3166C51.2733 30.9662 49.1436 31.8081 46.9923 31.6798C47.2311 30.6839 47.2972 29.6429 47.1864 28.6227L50.1443 28.5881L50.1612 26.4775L46.6892 26.5181C46.5671 26.1957 46.4255 25.885 46.2655 25.5885C47.1413 25.0332 47.9501 24.332 48.6677 23.506C50.2577 23.7295 51.7569 24.483 52.999 25.6828L54.8614 27.4779L52.97 29.3166ZM50.2584 14.2997C50.2359 16.3251 49.735 18.3117 48.8148 20.0248C47.8946 21.7379 46.5935 23.1062 45.0652 23.968C44.5249 23.431 43.9094 23.0143 43.2464 22.7366L47.4035 17.7065L46.1821 16.2285L43.4433 19.5425C43.7525 18.0846 43.6922 16.5562 43.2702 15.1576C44.8272 13.6383 46.7563 12.7985 48.7378 12.7772L50.2707 12.7593L50.2584 14.2997Z" fill="#B378D4"/>
</g>
<defs>
<clipPath id="clip0_220:6278">
<rect width="64.4628" height="78" fill="white"/>
</clipPath>
</defs>
</svg>
