<svg width="189" height="25" viewBox="0 0 189 25" fill="none" xmlns="http://www.w3.org/2000/svg">
<path d="M94.5 0L97.8761 9.12387L107 12.5L97.8761 15.8761L94.5 25L91.1239 15.8761L82 12.5L91.1239 9.12387L94.5 0Z" fill="#B378D4"/>
<path d="M117.25 13C117.526 13 117.75 12.7761 117.75 12.5C117.75 12.2239 117.526 12 117.25 12V13ZM126.75 12C126.474 12 126.25 12.2239 126.25 12.5C126.25 12.7761 126.474 13 126.75 13V12ZM136.25 13C136.526 13 136.75 12.7761 136.75 12.5C136.75 12.2239 136.526 12 136.25 12V13ZM145.75 12C145.474 12 145.25 12.2239 145.25 12.5C145.25 12.7761 145.474 13 145.75 13V12ZM155.25 13C155.526 13 155.75 12.7761 155.75 12.5C155.75 12.2239 155.526 12 155.25 12V13ZM164.75 12C164.474 12 164.25 12.2239 164.25 12.5C164.25 12.7761 164.474 13 164.75 13V12ZM174.25 13C174.526 13 174.75 12.7761 174.75 12.5C174.75 12.2239 174.526 12 174.25 12V13ZM183.75 12C183.474 12 183.25 12.2239 183.25 12.5C183.25 12.7761 183.474 13 183.75 13V12ZM112.5 13H117.25V12H112.5V13ZM126.75 13H136.25V12H126.75V13ZM145.75 13H155.25V12H145.75V13ZM164.75 13H174.25V12H164.75V13ZM183.75 13H188.5V12H183.75V13Z" fill="#B378D4"/>
<path d="M5.25 13C5.52614 13 5.75 12.7761 5.75 12.5C5.75 12.2239 5.52614 12 5.25 12V13ZM14.75 12C14.4739 12 14.25 12.2239 14.25 12.5C14.25 12.7761 14.4739 13 14.75 13V12ZM24.25 13C24.5261 13 24.75 12.7761 24.75 12.5C24.75 12.2239 24.5261 12 24.25 12V13ZM33.75 12C33.4739 12 33.25 12.2239 33.25 12.5C33.25 12.7761 33.4739 13 33.75 13V12ZM43.25 13C43.5261 13 43.75 12.7761 43.75 12.5C43.75 12.2239 43.5261 12 43.25 12V13ZM52.75 12C52.4739 12 52.25 12.2239 52.25 12.5C52.25 12.7761 52.4739 13 52.75 13V12ZM62.25 13C62.5261 13 62.75 12.7761 62.75 12.5C62.75 12.2239 62.5261 12 62.25 12V13ZM71.75 12C71.4739 12 71.25 12.2239 71.25 12.5C71.25 12.7761 71.4739 13 71.75 13V12ZM0.5 13H5.25V12H0.5V13ZM14.75 13H24.25V12H14.75V13ZM33.75 13H43.25V12H33.75V13ZM52.75 13H62.25V12H52.75V13ZM71.75 13H76.5V12H71.75V13Z" fill="#B378D4"/>
</svg>
