<svg width="112" height="112" viewBox="0 0 112 112" fill="none" xmlns="http://www.w3.org/2000/svg">
<g opacity="0.1">
<path d="M100.1 38.6771C90.4747 12.7771 58.9747 24.3271 55.9997 37.2771C51.9747 23.4521 21.3497 13.1271 11.8997 38.6771C1.39968 67.0271 52.3247 92.4021 55.9997 96.6021C59.6747 93.2771 110.6 66.5021 100.1 38.6771Z" fill="#B378D4"/>
<path d="M73.6044 49.5366C69.7622 37.5259 57.1879 42.882 56.0003 48.8874C54.3936 42.4763 42.1685 37.6882 38.3962 49.5366C34.2048 62.6835 54.5333 74.4508 56.0003 76.3985C57.4673 74.8566 77.7959 62.4401 73.6044 49.5366Z" fill="white"/>
<path d="M105 32.3773C103.95 29.0523 102.2 26.0773 99.7504 23.6273C97.4754 21.1773 94.5004 19.2523 91.5254 18.0273C89.9504 17.3273 88.3754 16.9773 86.8004 16.6273C85.9254 16.4523 85.2254 16.4523 84.3504 16.2773H81.9004L84.0004 17.3273L86.1004 18.3773C87.5004 19.0773 88.9004 19.7773 90.1254 20.6523C92.7504 22.2273 95.0254 24.1523 97.1254 26.2523C99.2254 28.3523 100.8 30.8023 102.375 33.6023C103.075 35.0023 103.775 36.4023 104.3 37.8023C104.65 38.5023 104.825 39.3773 105.175 40.0773L106.05 42.3523C106.225 41.4773 106.225 40.6023 106.225 39.9023C106.225 39.0273 106.225 38.1523 106.05 37.4523C105.875 35.7023 105.525 33.9523 105 32.3773Z" fill="#B378D4"/>
<path d="M108.501 27.65C108.326 26.425 108.151 25.2 107.801 23.975C107.101 21.525 105.701 19.25 103.951 17.325C102.201 15.4 100.101 14 97.8262 13.3C96.6012 12.95 95.5512 12.6 94.3262 12.425C93.8012 12.425 93.1012 12.25 92.5762 12.25C92.0512 12.25 91.3512 12.25 90.8262 12.425C91.3512 12.775 91.8762 12.95 92.4012 13.3C92.7512 13.475 93.2762 13.825 93.8012 14C94.8512 14.525 95.7262 15.05 96.6012 15.75C98.3512 16.975 100.101 18.375 101.501 19.775C102.901 21.35 104.126 23.1 105.351 25.025C105.876 25.9 106.401 26.95 106.926 28C107.101 28.525 107.451 29.05 107.626 29.575C107.801 30.1 108.151 30.625 108.326 31.325C108.501 30.625 108.501 30.1 108.501 29.4V27.65Z" fill="#B378D4"/>
<path d="M7.52539 37.8023C8.05039 36.4023 8.75039 34.8273 9.45039 33.6023C10.8504 30.8023 12.6004 28.3523 14.7004 26.2523C16.8004 24.1523 19.0754 22.2273 21.7004 20.6523C22.9254 19.7773 24.3254 19.0773 25.7254 18.3773L27.8254 17.3273L29.9254 16.2773H27.4754C26.6004 16.2773 25.9004 16.4523 25.0254 16.6273C23.4504 16.9773 21.8754 17.3273 20.3004 18.0273C17.3254 19.2523 14.5254 21.1773 12.2504 23.6273C9.97539 26.0773 8.05039 29.0523 7.00039 32.3773C6.47539 33.9523 6.12539 35.7023 5.95039 37.2773C5.77539 38.1523 5.77539 39.0273 5.77539 39.7273C5.77539 40.6023 5.77539 41.4773 5.95039 42.1773L6.82539 39.9023C7.00039 39.2023 7.17539 38.5023 7.52539 37.8023Z" fill="#B378D4"/>
<path d="M10.5 19.9512C11.9 18.3762 13.65 16.9762 15.4 15.7512C16.275 15.2262 17.325 14.5262 18.2 14.0012C18.725 13.6512 19.25 13.4762 19.775 13.1262C20.3 12.7762 20.825 12.6012 21.35 12.2512C20.825 12.2512 20.125 12.0762 19.6 12.0762C19.075 12.0762 18.375 12.0762 17.85 12.2512C16.625 12.4262 15.575 12.7762 14.35 13.1262C11.9 14.1762 9.8 15.5762 8.05 17.3262C6.3 19.2512 4.9 21.5262 4.2 23.9762C3.85 25.2012 3.675 26.4262 3.5 27.6512V29.5762C3.5 30.2762 3.5 30.8012 3.675 31.5012C3.85 30.9762 4.2 30.4512 4.375 29.7512C4.725 29.0512 4.9 28.5262 5.25 28.0012C5.775 26.9512 6.3 25.9012 6.825 25.0262C7.875 23.1012 9.1 21.3512 10.5 19.9512Z" fill="#B378D4"/>
<path d="M13.6496 70.875L13.4746 71.225C14.3496 73.85 15.7496 75.95 17.1496 78.05C18.5496 80.15 20.2996 81.9 22.0496 83.475C23.7996 85.05 25.7246 86.625 27.8246 88.025C29.9246 89.425 32.1996 90.475 34.8246 91.175L34.9996 90.825C31.4996 87.325 27.9996 84 24.4996 80.675C20.8246 77.525 17.3246 74.025 13.6496 70.875Z" fill="#B378D4"/>
<path d="M6.3 76.125L6.125 76.475C7.35 79.45 8.925 81.9 10.675 84.175C12.425 86.45 14.35 88.55 16.45 90.475C18.55 92.4 20.65 94.15 23.1 95.9C25.55 97.475 28 99.05 30.975 99.925L31.15 99.575C27.125 95.55 22.925 91.7 18.9 87.675C14.7 83.825 10.5 79.8 6.3 76.125Z" fill="#B378D4"/>
<path d="M90.1238 83.475C91.8738 81.725 93.6238 79.975 95.0238 78.05C96.4238 76.125 97.8238 73.85 98.6988 71.225L98.5238 70.875C94.8488 74.025 91.3488 77.525 87.6738 80.675C84.1738 84 80.6738 87.325 77.1738 90.825L77.3488 91.175C79.9738 90.475 82.2488 89.25 84.3488 88.025C86.4488 86.625 88.1988 85.05 90.1238 83.475Z" fill="#B378D4"/>
<path d="M93.0996 87.675C89.0746 91.7 84.8746 95.55 80.8496 99.575L81.0246 99.925C83.9996 98.875 86.4496 97.475 88.8996 95.9C91.3496 94.325 93.4496 92.575 95.5496 90.475C97.6496 88.55 99.5746 86.45 101.325 84.175C103.075 81.9 104.65 79.45 105.875 76.475L105.7 76.125C101.5 79.8 97.2996 83.825 93.0996 87.675Z" fill="#B378D4"/>
</g>
</svg>
