<svg width="143" height="119" viewBox="0 0 143 119" fill="none" xmlns="http://www.w3.org/2000/svg">
<path d="M130.956 36.1422C117.98 1.22346 75.5109 16.7953 71.4999 34.2547C66.0734 15.6156 24.7843 1.69533 12.0437 36.1422C-2.11258 74.3641 66.5452 108.575 71.4999 114.238C76.4546 109.755 145.112 73.6563 130.956 36.1422Z" fill="#B378D4"/>
<path d="M95.2341 50.7845C90.054 34.5914 73.1011 41.8126 71.5 49.9092C69.3338 41.2656 52.8518 34.8102 47.7659 50.7845C42.1149 68.5093 69.5222 84.3741 71.5 87C73.4778 84.9212 100.885 68.181 95.2341 50.7845Z" fill="white"/>
<path d="M137.564 27.6477C136.148 23.1648 133.789 19.1539 130.486 15.8508C127.418 12.5477 123.407 9.95234 119.396 8.30078C117.273 7.35703 115.15 6.88516 113.026 6.41328C111.846 6.17734 110.903 6.17734 109.723 5.94141H106.42L109.251 7.35703L112.082 8.77266C113.97 9.71641 115.857 10.6602 117.509 11.8398C121.048 13.9633 124.115 16.5586 126.946 19.3898C129.778 22.2211 131.901 25.5242 134.025 29.2992C134.968 31.1867 135.912 33.0742 136.62 34.9617C137.092 35.9055 137.328 37.0852 137.8 38.0289L138.979 41.0961C139.215 39.9164 139.215 38.7367 139.215 37.793C139.215 36.6133 139.215 35.4336 138.979 34.4898C138.743 32.1305 138.271 29.7711 137.564 27.6477Z" fill="#B378D4"/>
<path d="M142.281 21.2781C142.045 19.6266 141.809 17.975 141.337 16.3234C140.393 13.0203 138.506 9.95312 136.146 7.35781C133.787 4.7625 130.956 2.875 127.889 1.93125C126.237 1.45937 124.821 0.9875 123.17 0.751562C122.462 0.751562 121.518 0.515625 120.811 0.515625C120.103 0.515625 119.159 0.515625 118.451 0.751562C119.159 1.22344 119.867 1.45937 120.575 1.93125C121.046 2.16719 121.754 2.63906 122.462 2.875C123.878 3.58281 125.057 4.29063 126.237 5.23438C128.596 6.88594 130.956 8.77344 132.843 10.6609C134.731 12.7844 136.382 15.1438 138.034 17.7391C138.742 18.9188 139.45 20.3344 140.157 21.75C140.393 22.4578 140.865 23.1656 141.101 23.8734C141.337 24.5812 141.809 25.2891 142.045 26.2328C142.281 25.2891 142.281 24.5812 142.281 23.6375V21.2781Z" fill="#B378D4"/>
<path d="M6.14648 34.9617C6.8543 33.0742 7.79805 30.9508 8.7418 29.2992C10.6293 25.5242 12.9887 22.2211 15.8199 19.3898C18.6512 16.5586 21.7184 13.9633 25.2574 11.8398C26.909 10.6602 28.7965 9.71641 30.684 8.77266L33.5152 7.35703L36.3465 5.94141H33.0434C31.8637 5.94141 30.9199 6.17734 29.7402 6.41328C27.6168 6.88516 25.4934 7.35703 23.3699 8.30078C19.359 9.95234 15.584 12.5477 12.5168 15.8508C9.44961 19.1539 6.8543 23.1648 5.43867 27.6477C4.73086 29.7711 4.25898 32.1305 4.02305 34.2539C3.78711 35.4336 3.78711 36.6133 3.78711 37.557C3.78711 38.7367 3.78711 39.9164 4.02305 40.8602L5.20273 37.793C5.43867 36.8492 5.67461 35.9055 6.14648 34.9617Z" fill="#B378D4"/>
<path d="M10.1562 10.8965C12.0437 8.77305 14.4031 6.88555 16.7625 5.23398C17.9422 4.52617 19.3578 3.58242 20.5375 2.87461C21.2453 2.40273 21.9531 2.1668 22.6609 1.69492C23.3687 1.22305 24.0766 0.987109 24.7844 0.515234C24.0766 0.515234 23.1328 0.279297 22.425 0.279297C21.7172 0.279297 20.7734 0.279297 20.0656 0.515234C18.4141 0.751172 16.9984 1.22305 15.3469 1.69492C12.0437 3.11055 9.2125 4.99805 6.85312 7.35742C4.49375 9.95273 2.60625 13.0199 1.6625 16.323C1.19063 17.9746 0.954688 19.6262 0.71875 21.2777V23.873C0.71875 24.8168 0.71875 25.5246 0.954687 26.4684C1.19062 25.7605 1.6625 25.0527 1.89844 24.109C2.37031 23.1652 2.60625 22.4574 3.07812 21.7496C3.78594 20.334 4.49375 18.9184 5.20156 17.7387C6.61719 15.1434 8.26875 12.784 10.1562 10.8965Z" fill="#B378D4"/>
<path d="M14.402 79.5547L14.166 80.0266C15.3457 83.5656 17.2332 86.3969 19.1207 89.2281C21.0082 92.0594 23.3676 94.4188 25.727 96.5422C28.0863 98.6656 30.6816 100.789 33.5129 102.677C36.3441 104.564 39.4113 105.98 42.9504 106.923L43.1863 106.452C38.4676 101.733 33.7488 97.25 29.0301 92.7672C24.0754 88.5203 19.3566 83.8016 14.402 79.5547Z" fill="#B378D4"/>
<path d="M4.49375 86.6328L4.25781 87.1047C5.90937 91.1156 8.03281 94.4187 10.3922 97.4859C12.7516 100.553 15.3469 103.384 18.1781 105.98C21.0094 108.575 23.8406 110.934 27.1437 113.294C30.4469 115.417 33.75 117.541 37.7609 118.72L37.9969 118.248C32.5703 112.822 26.9078 107.631 21.4813 102.205C15.8188 97.0141 10.1562 91.5875 4.49375 86.6328Z" fill="#B378D4"/>
<path d="M117.508 96.5422C119.868 94.1828 122.227 91.8234 124.114 89.2281C126.002 86.6328 127.889 83.5656 129.069 80.0266L128.833 79.5547C123.879 83.8016 119.16 88.5203 114.205 92.7672C109.486 97.25 104.768 101.733 100.049 106.452L100.285 106.923C103.824 105.98 106.891 104.328 109.722 102.677C112.554 100.789 114.913 98.6656 117.508 96.5422Z" fill="#B378D4"/>
<path d="M121.518 102.205C116.091 107.631 110.429 112.822 105.002 118.248L105.238 118.72C109.249 117.305 112.552 115.417 115.855 113.294C119.158 111.17 121.989 108.811 124.821 105.98C127.652 103.384 130.247 100.553 132.607 97.4859C134.966 94.4187 137.089 91.1156 138.741 87.1047L138.505 86.6328C132.843 91.5875 127.18 97.0141 121.518 102.205Z" fill="#B378D4"/>
</svg>
