<svg width="20" height="20" viewBox="0 0 20 20" fill="none" xmlns="http://www.w3.org/2000/svg">
<path d="M13.5703 7.33589C14.0384 7.33589 14.4179 6.95639 14.4179 6.48826C14.4179 6.02012 14.0384 5.64062 13.5703 5.64062C13.1022 5.64062 12.7227 6.02012 12.7227 6.48826C12.7227 6.95639 13.1022 7.33589 13.5703 7.33589Z" fill="white"/>
<path d="M9.79904 6.63086C9.08165 6.63086 8.38038 6.84359 7.7839 7.24215C7.18741 7.6407 6.72251 8.20719 6.44798 8.86997C6.17345 9.53274 6.10162 10.262 6.24157 10.9656C6.38153 11.6692 6.72698 12.3155 7.23425 12.8228C7.74152 13.3301 8.38781 13.6755 9.09141 13.8155C9.79502 13.9554 10.5243 13.8836 11.1871 13.6091C11.8499 13.3346 12.4164 12.8696 12.8149 12.2732C13.2135 11.6767 13.4262 10.9754 13.4262 10.258C13.4262 9.29604 13.0441 8.37346 12.3638 7.69323C11.6836 7.01301 10.761 6.63086 9.79904 6.63086ZM9.79904 12.6126C9.33336 12.6126 8.87813 12.4745 8.49093 12.2157C8.10373 11.957 7.80194 11.5893 7.62373 11.1591C7.44552 10.7288 7.39889 10.2554 7.48974 9.79867C7.5806 9.34194 7.80484 8.9224 8.13413 8.59311C8.46342 8.26383 8.88296 8.03958 9.33969 7.94873C9.79643 7.85788 10.2698 7.9045 10.7001 8.08271C11.1303 8.26092 11.498 8.56271 11.7568 8.94991C12.0155 9.33711 12.1536 9.79234 12.1536 10.258C12.1536 10.8825 11.9055 11.4814 11.4639 11.9229C11.0224 12.3645 10.4235 12.6126 9.79904 12.6126Z" fill="white"/>
<path d="M9.79798 4.46599C11.684 4.46599 11.9076 4.47305 12.6523 4.50719C13.1001 4.51251 13.5437 4.59474 13.9637 4.7503C14.2685 4.86784 14.5452 5.04788 14.7761 5.27882C15.0071 5.50976 15.1871 5.78649 15.3047 6.0912C15.4602 6.51121 15.5424 6.95482 15.5478 7.40268C15.5819 8.1473 15.589 8.37098 15.589 10.2576C15.589 12.1441 15.5819 12.3666 15.5478 13.1113C15.5424 13.5591 15.4602 14.0027 15.3047 14.4227C15.1871 14.7274 15.0071 15.0042 14.7761 15.2351C14.5452 15.4661 14.2685 15.6461 13.9637 15.7636C13.5437 15.9192 13.1001 16.0014 12.6523 16.0067C11.9076 16.0409 11.684 16.0479 9.79798 16.0479C7.912 16.0479 7.68832 16.0409 6.9437 16.0067C6.49584 16.0014 6.05223 15.9192 5.63222 15.7636C5.32751 15.6461 5.05078 15.4661 4.81983 15.2351C4.58889 15.0042 4.40886 14.7274 4.29131 14.4227C4.13575 14.0027 4.05352 13.5591 4.04821 13.1113C4.01407 12.3666 4.007 12.143 4.007 10.257C4.007 8.37098 4.01407 8.1473 4.04821 7.40268C4.05352 6.95482 4.13575 6.51121 4.29131 6.0912C4.40886 5.78649 4.58889 5.50976 4.81983 5.27882C5.05078 5.04788 5.32751 4.86784 5.63222 4.7503C6.05223 4.59474 6.49584 4.51251 6.9437 4.50719C7.68832 4.47305 7.912 4.46599 9.79798 4.46599ZM9.79798 3.19336C7.87962 3.19336 7.63887 3.2016 6.88542 3.23574C6.2996 3.24757 5.72002 3.35863 5.17132 3.5642C4.70202 3.74567 4.27581 4.0232 3.92001 4.379C3.56422 4.73479 3.28669 5.161 3.10521 5.6303C2.89958 6.17919 2.78852 6.75897 2.77676 7.345C2.74262 8.09845 2.73438 8.33802 2.73438 10.257C2.73438 12.1759 2.74262 12.4161 2.77676 13.1695C2.78859 13.7554 2.89965 14.3349 3.10521 14.8836C3.28669 15.3529 3.56422 15.7791 3.92001 16.1349C4.27581 16.4907 4.70202 16.7683 5.17132 16.9497C5.7202 17.1554 6.29999 17.2664 6.88601 17.2782C7.63946 17.3123 7.87962 17.3206 9.79798 17.3206C11.7163 17.3206 11.9571 17.3123 12.7105 17.2782C13.2966 17.2664 13.8763 17.1554 14.4252 16.9497C14.8945 16.7683 15.3207 16.4907 15.6765 16.1349C16.0323 15.7791 16.3099 15.3529 16.4913 14.8836C16.6968 14.3347 16.8076 13.7549 16.8192 13.1689C16.8533 12.4155 16.8616 12.1759 16.8616 10.257C16.8616 8.33802 16.8533 8.09786 16.8192 7.34441C16.8074 6.75858 16.6963 6.179 16.4908 5.6303C16.3093 5.161 16.0317 4.73479 15.676 4.379C15.3202 4.0232 14.8939 3.74567 14.4246 3.5642C13.8757 3.35877 13.2959 3.2479 12.71 3.23633C11.9565 3.20101 11.7169 3.19336 9.79798 3.19336Z" fill="white"/>
</svg>
