<svg width="40" height="45" viewBox="0 0 40 45" fill="none" xmlns="http://www.w3.org/2000/svg">
<path d="M19.8491 44.7135C19.1507 44.7135 18.5132 44.2834 18.2777 43.6592C18.0453 43.0434 18.2444 42.3367 18.7689 41.9136C19.3165 41.4719 20.1184 41.4147 20.729 41.7749C21.3123 42.1189 21.6201 42.7944 21.4845 43.4345C21.3297 44.1671 20.636 44.7135 19.8491 44.7135Z" fill="#B378D4"/>
<path d="M20.1209 37.549C19.7394 37.549 19.358 37.4251 19.0476 37.1769C17.6358 36.0483 5.17861 26.0409 2.54908 22.2433C1.45855 20.6677 0.0313769 18.1692 0.227152 14.676C0.3802 11.9542 1.5904 9.39901 3.63511 7.48057C5.71436 5.52956 8.43101 4.45508 11.2848 4.45508C15.2988 4.45508 18.4421 7.02015 20.1299 8.78527C21.8594 7.03 25.0554 4.45508 28.9218 4.45508C31.7758 4.45508 34.4925 5.52956 36.5719 7.48057C38.6166 9.39901 39.8271 11.9542 39.98 14.6756C40.1739 18.1218 38.8419 20.5293 37.6597 22.2415C34.968 26.1375 21.7559 36.7276 21.1948 37.1764C20.8843 37.4249 20.5026 37.549 20.1209 37.549ZM11.285 7.63262C7.24935 7.63262 3.78432 10.8683 3.5605 14.8453C3.44851 16.8448 3.97976 18.5344 5.33666 20.4948C7.16724 23.1389 15.8092 30.3837 20.1206 33.8786C24.4176 30.3916 33.0284 23.1625 34.8708 20.4959C36.2279 18.5302 36.7591 16.8402 36.6471 14.8456C36.4233 10.8685 32.958 7.63278 28.9221 7.63278C24.9217 7.63278 21.5019 12.1592 21.4678 12.2049C21.1546 12.6253 20.646 12.8757 20.1056 12.8757C20.0971 12.8757 20.0884 12.8756 20.0799 12.8756C19.5298 12.8673 19.0185 12.6031 18.7141 12.1668C18.6841 12.1244 15.4721 7.63262 11.285 7.63262Z" fill="#B378D4"/>
</svg>
