<svg id="phone"  viewBox="0 0 57 57"  xmlns="http://www.w3.org/2000/svg">
<path d="M42.75 23.1562H39.1875C39.1861 21.7394 38.6226 20.3811 37.6208 19.3792C36.6189 18.3774 35.2606 17.8139 33.8438 17.8125V14.25C36.205 14.2528 38.4687 15.1921 40.1383 16.8617C41.8079 18.5313 42.7472 20.795 42.75 23.1562Z" />
<path d="M49.875 23.1562H46.3125C46.3087 19.8505 44.9938 16.6812 42.6563 14.3437C40.3188 12.0062 37.1495 10.6913 33.8438 10.6875V7.125C38.0941 7.12971 42.1689 8.82023 45.1743 11.8257C48.1798 14.8311 49.8703 18.9059 49.875 23.1562Z" />
<path d="M46.3126 51.6562H46.0098C11.0082 49.6434 6.03853 20.1103 5.34384 11.0972C5.23527 9.68421 5.6924 8.28596 6.6147 7.21001C7.53699 6.13406 8.84891 5.46852 10.2619 5.35978C10.4032 5.3491 10.5451 5.34375 10.6876 5.34375H20.0748C20.7883 5.34306 21.4855 5.55663 22.0763 5.95679C22.667 6.35695 23.1239 6.92527 23.3879 7.58813L26.0954 14.25C26.3561 14.8976 26.4208 15.6075 26.2814 16.2915C26.1421 16.9755 25.8049 17.6035 25.3117 18.0975L21.5176 21.9272C22.1078 25.2961 23.7199 28.402 26.1352 30.8237C28.5505 33.2453 31.6521 34.8656 35.0195 35.4647L38.8848 31.635C39.3862 31.1472 40.0201 30.8179 40.7075 30.688C41.3949 30.5581 42.1053 30.6335 42.7501 30.9047L49.4654 33.5944C50.1183 33.8667 50.6753 34.3272 51.0655 34.9173C51.4557 35.5073 51.6614 36.2001 51.6563 36.9075V46.3125C51.6563 47.7298 51.0933 49.089 50.0912 50.0911C49.0891 51.0933 47.7298 51.6562 46.3126 51.6562ZM10.6876 8.90625C10.4537 8.90555 10.2219 8.95093 10.0055 9.03979C9.78915 9.12866 9.59239 9.25928 9.42649 9.42419C9.26059 9.5891 9.1288 9.78507 9.03863 10.0009C8.94847 10.2168 8.9017 10.4482 8.901 10.6822C8.901 10.732 8.90278 10.7813 8.90634 10.83C9.72572 21.375 14.9804 46.3125 46.2057 48.0938C46.6772 48.122 47.1405 47.9619 47.4939 47.6485C47.8473 47.3352 48.0618 46.8944 48.0903 46.4229L48.0938 46.3125V36.9075L41.3785 34.2178L36.2663 39.2944L35.4113 39.1875C19.9145 37.2459 17.8126 21.7491 17.8126 21.5888L17.7057 20.7338L22.7645 15.6216L20.0926 8.90625H10.6876Z"/>
</svg>
