<svg width="79" height="78" viewBox="0 0 79 78" fill="none" xmlns="http://www.w3.org/2000/svg">
<g clip-path="url(#clip0_220:6305)">
<path d="M65.2827 29.4092H53.3649L51.5124 22.0849C51.082 20.3753 49.5332 19.1797 47.7506 19.1797H31.1052C29.3225 19.1797 27.7738 20.3753 27.3421 22.0849L25.4909 29.4092H13.5731C10.009 29.4092 7.10938 32.2773 7.10938 35.8026V63.9338C7.10938 67.4591 10.009 70.3272 13.5731 70.3272H65.2827C68.8468 70.3272 71.7464 67.4591 71.7464 63.9338V35.8026C71.7464 32.2773 68.8468 29.4092 65.2827 29.4092ZM69.1609 63.9338C69.1609 66.0487 67.4209 67.7698 65.2827 67.7698H13.5731C11.4349 67.7698 9.69486 66.0487 9.69486 63.9338V35.8026C9.69486 33.6877 11.4349 31.9666 13.5731 31.9666H26.5005C27.0939 31.9666 27.6097 31.5676 27.7544 30.9986L29.85 22.7063C29.9948 22.136 30.5106 21.7371 31.1052 21.7371H47.7519C48.3452 21.7371 48.861 22.136 49.0058 22.7063L51.1013 30.9986C51.2461 31.5676 51.7619 31.9666 52.3553 31.9666H65.2827C67.4209 31.9666 69.1609 33.6877 69.1609 35.8026V63.9338Z" fill="#B378D4"/>
<path d="M39.4289 34.5254C30.8748 34.5254 23.916 41.4086 23.916 49.8697C23.916 58.3307 30.8748 65.2139 39.4289 65.2139C47.983 65.2139 54.9418 58.3307 54.9418 49.8697C54.9418 41.4086 47.983 34.5254 39.4289 34.5254ZM39.4289 62.6565C32.3007 62.6565 26.5015 56.9203 26.5015 49.8697C26.5015 42.819 32.3007 37.0828 39.4289 37.0828C46.5571 37.0828 52.3563 42.819 52.3563 49.8697C52.3563 56.9203 46.5571 62.6565 39.4289 62.6565Z" fill="#B378D4"/>
<path d="M39.4279 39.6387C33.7256 39.6387 29.0859 44.2279 29.0859 49.8682C29.0859 55.5085 33.7256 60.0977 39.4279 60.0977C45.1301 60.0977 49.7698 55.5085 49.7698 49.8682C49.7698 44.2279 45.1301 39.6387 39.4279 39.6387ZM39.4279 57.5403C35.1502 57.5403 31.6714 54.0994 31.6714 49.8682C31.6714 45.637 35.1502 42.196 39.4279 42.196C43.7055 42.196 47.1843 45.637 47.1843 49.8682C47.1843 54.0994 43.7055 57.5403 39.4279 57.5403Z" fill="#B378D4"/>
<path d="M1.93922 12.7871C1.22434 12.7871 0.646484 13.36 0.646484 14.0658V26.8527H3.23197V15.3445H14.8666V12.7871H1.93922Z" fill="#B378D4"/>
<path d="M75.6249 63.9336V75.4418H63.9902V77.9992H76.9176C77.6325 77.9992 78.2104 77.4263 78.2104 76.7205V63.9336H75.6249Z" fill="#B378D4"/>
<path d="M3.23197 75.4418V63.9336H0.646484V76.7205C0.646484 77.4263 1.22434 77.9992 1.93922 77.9992H14.8666V75.4418H3.23197Z" fill="#B378D4"/>
<path d="M20.0377 34.5254H13.574C12.8591 34.5254 12.2812 35.0982 12.2812 35.8041V42.1975C12.2812 42.9034 12.8591 43.4762 13.574 43.4762H20.0377C20.7526 43.4762 21.3304 42.9034 21.3304 42.1975V35.8041C21.3304 35.0982 20.7526 34.5254 20.0377 34.5254ZM18.745 40.9188H14.8667V37.0828H18.745V40.9188Z" fill="#B378D4"/>
<path d="M76.9174 7.67274C74.0656 7.67274 71.7465 5.37877 71.7465 2.55799C71.7465 1.85215 71.1686 1.2793 70.4537 1.2793C69.7388 1.2793 69.161 1.85215 69.161 2.55799C69.161 5.37877 66.8418 7.67274 63.99 7.67274C63.2751 7.67274 62.6973 8.24559 62.6973 8.95143C62.6973 9.65726 63.2751 10.2301 63.99 10.2301C66.8418 10.2301 69.161 12.5241 69.161 15.3449C69.161 16.0507 69.7388 16.6236 70.4537 16.6236C71.1686 16.6236 71.7465 16.0507 71.7465 15.3449C71.7465 12.5241 74.0656 10.2301 76.9174 10.2301C77.6323 10.2301 78.2102 9.65726 78.2102 8.95143C78.2102 8.24559 77.6323 7.67274 76.9174 7.67274ZM70.4537 11.1086C69.8797 10.2544 69.1364 9.51916 68.2729 8.95143C69.1364 8.38369 69.8797 7.64844 70.4537 6.79428C71.0277 7.64844 71.771 8.38369 72.6346 8.95143C71.771 9.51916 71.0277 10.2544 70.4537 11.1086Z" fill="#B378D4"/>
<path d="M65.2826 15.3446C62.4309 15.3446 60.1117 13.0506 60.1117 10.2299C60.1117 9.52402 59.5338 8.95117 58.8189 8.95117C58.1041 8.95117 57.5262 9.52402 57.5262 10.2299C57.5262 13.0506 55.207 15.3446 52.3552 15.3446C51.6404 15.3446 51.0625 15.9175 51.0625 16.6233C51.0625 17.3291 51.6404 17.902 52.3552 17.902C55.207 17.902 57.5262 20.196 57.5262 23.0167C57.5262 23.7226 58.1041 24.2954 58.8189 24.2954C59.5338 24.2954 60.1117 23.7226 60.1117 23.0167C60.1117 20.196 62.4309 17.902 65.2826 17.902C65.9975 17.902 66.5754 17.3291 66.5754 16.6233C66.5754 15.9175 65.9975 15.3446 65.2826 15.3446ZM58.8189 18.7804C58.245 17.9263 57.5016 17.1923 56.6381 16.6233C57.5016 16.0556 58.245 15.3203 58.8189 14.4662C59.3929 15.3203 60.1362 16.0543 60.9998 16.6233C60.1362 17.191 59.3942 17.9263 58.8189 18.7804Z" fill="#B378D4"/>
<path d="M53.6479 6.39344C50.7961 6.39344 48.4769 4.09948 48.4769 1.27869C48.4769 0.572852 47.8991 0 47.1842 0C46.4693 0 45.8914 0.572852 45.8914 1.27869C45.8914 4.09948 43.5723 6.39344 40.7205 6.39344C40.0056 6.39344 39.4277 6.9663 39.4277 7.67213C39.4277 8.37797 40.0056 8.95082 40.7205 8.95082C43.5723 8.95082 45.8914 11.2448 45.8914 14.0656C45.8914 14.7714 46.4693 15.3443 47.1842 15.3443C47.8991 15.3443 48.4769 14.7714 48.4769 14.0656C48.4769 11.2448 50.7961 8.95082 53.6479 8.95082C54.3628 8.95082 54.9406 8.37797 54.9406 7.67213C54.9406 6.9663 54.3628 6.39344 53.6479 6.39344ZM47.1842 9.82928C46.6102 8.97511 45.8669 8.23987 45.0033 7.67213C45.8669 7.10439 46.6102 6.36915 47.1842 5.51498C47.7582 6.36915 48.5015 7.10439 49.365 7.67213C48.5015 8.23987 47.7582 8.97511 47.1842 9.82928Z" fill="#B378D4"/>
</g>
<defs>
<clipPath id="clip0_220:6305">
<rect width="78.8572" height="78" fill="white"/>
</clipPath>
</defs>
</svg>
