<svg width="13" height="16" viewBox="0 0 13 16" fill="none" xmlns="http://www.w3.org/2000/svg">
<path d="M6.96055 0.724609C2.81656 0.724609 0.650391 3.36169 0.650391 6.28131C0.650391 7.69403 1.40384 9.10676 2.6282 9.86021C3.00493 10.0486 2.91074 9.86021 3.19329 8.73003C3.19329 8.63585 3.19329 8.54167 3.09911 8.44749C1.40384 6.37549 2.81656 2.32569 6.77218 2.32569C12.5172 2.32569 11.3871 10.2369 7.80818 10.2369C7.05473 10.3311 6.39546 9.76603 6.39546 9.01257V8.63585C6.77218 7.59985 7.05473 6.65804 7.14891 5.62204C7.14891 3.64423 4.22928 3.92678 4.22928 6.56386C4.22928 7.03476 4.32347 7.50567 4.51183 7.8824C4.51183 7.8824 3.57001 11.7438 3.38165 12.4031C3.19329 13.5333 3.28747 14.6635 3.47583 15.6995C3.38165 15.7936 3.47583 15.7936 3.47583 15.7936H3.57001C4.22928 14.8518 4.79437 13.91 5.1711 12.874C5.26528 12.4031 5.73619 10.7078 5.73619 10.7078C6.20709 11.3671 7.05473 11.7438 7.90236 11.7438C10.822 11.7438 12.894 9.20094 12.894 6.09295C12.894 2.98496 10.2569 0.724609 6.96055 0.724609Z" fill="white"/>
</svg>
