<svg width="20" height="20" viewBox="0 0 20 20" fill="none" xmlns="http://www.w3.org/2000/svg">
<path d="M16.2767 7.11626C16.2869 7.2536 16.2869 7.39017 16.2869 7.52673C16.2869 11.706 13.1059 16.5218 7.29255 16.5218C5.50154 16.5218 3.83766 16.0031 2.4375 15.1021C2.69179 15.1311 2.93666 15.1413 3.20115 15.1413C4.62407 15.1447 6.0067 14.6689 7.12616 13.7906C6.46644 13.7786 5.82691 13.561 5.29688 13.168C4.76684 12.775 4.37276 12.2263 4.16965 11.5985C4.36508 11.6275 4.56129 11.6472 4.76692 11.6472C5.05025 11.6472 5.33515 11.6079 5.59964 11.5396C4.88367 11.3951 4.23988 11.007 3.77772 10.4414C3.31556 9.87579 3.06357 9.16756 3.06459 8.43715V8.39791C3.48605 8.63258 3.97501 8.77934 4.49301 8.79896C4.05906 8.5106 3.70324 8.11931 3.45728 7.65999C3.21133 7.20067 3.08289 6.68762 3.08343 6.16659C3.08343 5.57953 3.23961 5.04112 3.51352 4.57179C4.30789 5.54893 5.29866 6.34833 6.42164 6.91821C7.54462 7.48808 8.77478 7.81572 10.0324 7.87991C9.98379 7.64446 9.95396 7.40037 9.95396 7.1555C9.95375 6.74028 10.0354 6.3291 10.1942 5.94545C10.353 5.56181 10.5858 5.21322 10.8794 4.91962C11.173 4.62602 11.5216 4.39316 11.9053 4.23436C12.2889 4.07556 12.7001 3.99393 13.1153 3.99414C14.0257 3.99414 14.8475 4.37558 15.4251 4.99246C16.1329 4.8556 16.8116 4.59723 17.4312 4.22881C17.1953 4.95936 16.7011 5.57882 16.0412 5.97117C16.6689 5.89957 17.2824 5.7345 17.8613 5.48142C17.4289 6.11173 16.8932 6.66445 16.2767 7.11626Z" fill="white"/>
</svg>
