<svg width="46" height="50" viewBox="0 0 46 50" fill="none" xmlns="http://www.w3.org/2000/svg">
<path d="M36.1846 24.5561H39.6723C40.4607 24.5561 41.1022 23.9146 41.1022 23.1261V19.6384C41.1022 18.8499 40.4607 18.2084 39.6723 18.2084H36.1846C35.3961 18.2084 34.7546 18.8499 34.7546 19.6384V23.1261C34.7546 23.9146 35.3961 24.5561 36.1846 24.5561ZM36.2194 19.6732H39.6374V23.0912H36.2194V19.6732ZM36.1846 33.8334H39.6723C40.4607 33.8334 41.1022 33.1919 41.1022 32.4034V28.9157C41.1022 28.1272 40.4607 27.4857 39.6723 27.4857H36.1846C35.3961 27.4857 34.7546 28.1272 34.7546 28.9157V32.4034C34.7546 33.1919 35.3961 33.8334 36.1846 33.8334ZM36.2194 28.9506H39.6374V32.3686H36.2194V28.9506ZM26.2318 24.5561H29.7195C30.508 24.5561 31.1495 23.9146 31.1495 23.1261V19.6384C31.1495 18.8499 30.508 18.2084 29.7195 18.2084H26.2318C25.4434 18.2084 24.8019 18.8499 24.8019 19.6384V23.1261C24.8019 23.9146 25.4434 24.5561 26.2318 24.5561ZM26.2667 19.6732H29.6847V23.0912H26.2667V19.6732ZM9.81406 36.3281H6.32637C5.53789 36.3281 4.89639 36.9696 4.89639 37.7581V41.2458C4.89639 42.0343 5.53789 42.6758 6.32637 42.6758H9.81406C10.6025 42.6758 11.244 42.0343 11.244 41.2458V37.7581C11.244 36.9696 10.6025 36.3281 9.81406 36.3281ZM9.7792 41.2109H6.36123V37.793H9.7792V41.2109ZM9.81406 18.2084H6.32637C5.53789 18.2084 4.89639 18.8499 4.89639 19.6384V23.1261C4.89639 23.9146 5.53789 24.5561 6.32637 24.5561H9.81406C10.6025 24.5561 11.244 23.9146 11.244 23.1261V19.6384C11.244 18.8498 10.6025 18.2084 9.81406 18.2084ZM9.7792 23.0912H6.36123V19.6732H9.7792V23.0912ZM26.2318 33.6159H29.7195C30.508 33.6159 31.1495 32.9744 31.1495 32.1859V28.6982C31.1495 27.9098 30.508 27.2683 29.7195 27.2683H26.2318C25.4434 27.2683 24.8019 27.9098 24.8019 28.6982V32.1859C24.8019 32.9744 25.4434 33.6159 26.2318 33.6159ZM26.2667 28.7331H29.6847V32.1511H26.2667V28.7331ZM41.8297 3.34707H38.6982V2.22725C38.6982 0.999121 37.6991 0 36.471 0H36.1347C34.9066 0 33.9075 0.999121 33.9075 2.22725V3.34707H12.0911V2.22725C12.0911 0.999121 11.092 0 9.86387 0H9.52754C8.29942 0 7.30029 0.999121 7.30029 2.22725V3.34707H4.16895C2.14697 3.34707 0.501953 4.99209 0.501953 7.01406V46.3379C0.501953 48.3572 2.14473 50 4.16406 50H41.8348C43.8541 50 45.4969 48.3572 45.4969 46.3379V7.01406C45.4968 4.99209 43.8518 3.34707 41.8297 3.34707ZM35.3724 2.22725C35.3724 1.80684 35.7144 1.46484 36.1348 1.46484H36.4711C36.8915 1.46484 37.2335 1.80684 37.2335 2.22725V3.34707H35.3724V2.22725ZM8.76523 2.22725C8.76523 1.80684 9.10723 1.46484 9.52764 1.46484H9.86397C10.2844 1.46484 10.6264 1.80684 10.6264 2.22725V3.34707H8.76533V2.22725H8.76523ZM44.0319 46.3379C44.0319 47.5495 43.0463 48.5352 41.8347 48.5352H4.16397C2.95234 48.5352 1.9667 47.5495 1.9667 46.3379V46.3333C2.58037 46.7957 3.34316 47.0703 4.16895 47.0703H33.8646C34.844 47.0703 35.7649 46.6889 36.4575 45.9962L44.0319 38.4218V46.3379ZM35.7102 44.672C35.7676 44.435 35.7988 44.1878 35.7988 43.9334V39.0443C35.7988 38.1225 36.5489 37.3724 37.4709 37.3724H42.3599C42.6143 37.3724 42.8614 37.3411 43.0984 37.2837L35.7102 44.672ZM44.0319 13.8139H12.8235C12.419 13.8139 12.0911 14.1418 12.0911 14.5463C12.0911 14.9508 12.419 15.2787 12.8235 15.2787H44.0319V34.2355C44.0319 35.1575 43.2818 35.9076 42.3599 35.9076H37.4709C35.7412 35.9076 34.334 37.3148 34.334 39.0444V43.9335C34.334 44.8555 33.5839 45.6056 32.662 45.6056H4.16895C2.95469 45.6056 1.9668 44.6177 1.9668 43.4033V15.2787H9.89385C10.2983 15.2787 10.6263 14.9508 10.6263 14.5463C10.6263 14.1418 10.2983 13.8139 9.89385 13.8139H1.9667V7.01406C1.9667 5.7998 2.95459 4.81191 4.16885 4.81191H7.30029V6.96543C7.30029 8.19355 8.29942 9.19268 9.52754 9.19268C9.93203 9.19268 10.26 8.86475 10.26 8.46025C10.26 8.05576 9.93203 7.72783 9.52754 7.72783C9.10713 7.72783 8.76514 7.38584 8.76514 6.96543V4.81191H33.9075V6.96543C33.9075 8.19355 34.9066 9.19268 36.1348 9.19268C36.5393 9.19268 36.8672 8.86475 36.8672 8.46025C36.8672 8.05576 36.5393 7.72783 36.1348 7.72783C35.7144 7.72783 35.3724 7.38584 35.3724 6.96543V4.81191H41.8298C43.044 4.81191 44.0319 5.7998 44.0319 7.01406V13.8139ZM9.81406 27.2683H6.32637C5.53789 27.2683 4.89639 27.9098 4.89639 28.6982V32.1859C4.89639 32.9744 5.53789 33.6159 6.32637 33.6159H9.81406C10.6025 33.6159 11.244 32.9744 11.244 32.1859V28.6982C11.244 27.9097 10.6025 27.2683 9.81406 27.2683ZM9.7792 32.1511H6.36123V28.7331H9.7792V32.1511ZM16.2791 24.5561H19.7668C20.5553 24.5561 21.1968 23.9146 21.1968 23.1261V19.6384C21.1968 18.8499 20.5553 18.2084 19.7668 18.2084H16.2791C15.4906 18.2084 14.8491 18.8499 14.8491 19.6384V23.1261C14.8491 23.9146 15.4906 24.5561 16.2791 24.5561ZM16.314 19.6732H19.7319V23.0912H16.314V19.6732ZM26.2658 41.2109C26.2477 40.8226 25.9271 40.5134 25.5342 40.5134C25.1297 40.5134 24.8018 40.8413 24.8018 41.2458C24.8018 42.0343 25.4433 42.6758 26.2317 42.6758H29.7194C30.5079 42.6758 31.1494 42.0343 31.1494 41.2458V37.7581C31.1494 36.9696 30.5079 36.3281 29.7194 36.3281H26.2317C25.4433 36.3281 24.8018 36.9696 24.8018 37.7581V38.764C24.8018 39.1685 25.1297 39.4964 25.5342 39.4964C25.9387 39.4964 26.2666 39.1685 26.2666 38.764V37.793H29.6846V41.2109H26.2658ZM16.2791 33.6159H19.7668C20.5553 33.6159 21.1968 32.9744 21.1968 32.1859V28.6982C21.1968 27.9098 20.5553 27.2683 19.7668 27.2683H16.2791C15.4906 27.2683 14.8491 27.9098 14.8491 28.6982V32.1859C14.8491 32.9744 15.4906 33.6159 16.2791 33.6159ZM16.314 28.7331H19.7319V32.1511H16.314V28.7331ZM16.2791 42.6758H19.7668C20.5553 42.6758 21.1968 42.0343 21.1968 41.2458V37.7581C21.1968 36.9696 20.5553 36.3281 19.7668 36.3281H16.2791C15.4906 36.3281 14.8491 36.9696 14.8491 37.7581V41.2458C14.8491 42.0343 15.4906 42.6758 16.2791 42.6758ZM16.314 37.793H19.7319V41.2109H16.314V37.793Z" fill="#3A3A3A"/>
</svg>
