<svg width="20" height="17" viewBox="0 0 20 17" fill="none" xmlns="http://www.w3.org/2000/svg">
<path d="M1.875 0.625076C1.50416 0.625076 1.14165 0.734443 0.833307 0.939346C0.524964 1.14425 0.284641 1.43549 0.142727 1.77623C0.000812411 2.11697 -0.0363188 2.49191 0.0360284 2.85364C0.108376 3.21537 0.286952 3.54764 0.549176 3.80843C0.811399 4.06922 1.14549 4.24683 1.50921 4.31878C1.87292 4.39073 2.24992 4.3538 2.59253 4.21266C2.93514 4.07152 3.22798 3.83251 3.43401 3.52585C3.64003 3.21919 3.75 2.85866 3.75 2.48984C3.75 1.99528 3.55246 1.52097 3.20083 1.17125C2.8492 0.821542 2.37228 0.625076 1.875 0.625076ZM1.875 6.84097C1.50416 6.84097 1.14165 6.95033 0.833307 7.15524C0.524964 7.36014 0.284641 7.65137 0.142727 7.99212C0.000812411 8.33286 -0.0363188 8.7078 0.0360284 9.06953C0.108376 9.43126 0.286952 9.76353 0.549176 10.0243C0.811399 10.2851 1.14549 10.4627 1.50921 10.5347C1.87292 10.6066 2.24992 10.5697 2.59253 10.4286C2.93514 10.2874 3.22798 10.0484 3.43401 9.74174C3.64003 9.43508 3.75 9.07455 3.75 8.70573C3.75 8.21116 3.55246 7.73685 3.20083 7.38714C2.8492 7.03743 2.37228 6.84097 1.875 6.84097ZM1.875 13.0569C1.50416 13.0569 1.14165 13.1662 0.833307 13.3711C0.524964 13.576 0.284641 13.8673 0.142727 14.208C0.000812411 14.5487 -0.0363188 14.9237 0.0360284 15.2854C0.108376 15.6471 0.286952 15.9794 0.549176 16.2402C0.811399 16.501 1.14549 16.6786 1.50921 16.7506C1.87292 16.8225 2.24992 16.7856 2.59253 16.6444C2.93514 16.5033 3.22798 16.2643 3.43401 15.9576C3.64003 15.651 3.75 15.2904 3.75 14.9216C3.75 14.4271 3.55246 13.9527 3.20083 13.603C2.8492 13.2533 2.37228 13.0569 1.875 13.0569ZM19.375 13.6784H6.875C6.70924 13.6784 6.55027 13.7439 6.43306 13.8605C6.31585 13.9771 6.25 14.1352 6.25 14.3V15.5432C6.25 15.7081 6.31585 15.8662 6.43306 15.9827C6.55027 16.0993 6.70924 16.1648 6.875 16.1648H19.375C19.5408 16.1648 19.6997 16.0993 19.8169 15.9827C19.9342 15.8662 20 15.7081 20 15.5432V14.3C20 14.1352 19.9342 13.9771 19.8169 13.8605C19.6997 13.7439 19.5408 13.6784 19.375 13.6784ZM19.375 1.24667H6.875C6.70924 1.24667 6.55027 1.31215 6.43306 1.42872C6.31585 1.5453 6.25 1.7034 6.25 1.86825V3.11143C6.25 3.27629 6.31585 3.43439 6.43306 3.55096C6.55027 3.66753 6.70924 3.73302 6.875 3.73302H19.375C19.5408 3.73302 19.6997 3.66753 19.8169 3.55096C19.9342 3.43439 20 3.27629 20 3.11143V1.86825C20 1.7034 19.9342 1.5453 19.8169 1.42872C19.6997 1.31215 19.5408 1.24667 19.375 1.24667ZM19.375 7.46255H6.875C6.70924 7.46255 6.55027 7.52804 6.43306 7.64461C6.31585 7.76118 6.25 7.91929 6.25 8.08414V9.32732C6.25 9.49218 6.31585 9.65028 6.43306 9.76685C6.55027 9.88342 6.70924 9.94891 6.875 9.94891H19.375C19.5408 9.94891 19.6997 9.88342 19.8169 9.76685C19.9342 9.65028 20 9.49218 20 9.32732V8.08414C20 7.91929 19.9342 7.76118 19.8169 7.64461C19.6997 7.52804 19.5408 7.46255 19.375 7.46255Z" fill="#B8B8B8"/>
</svg>
