<svg id="empty-heart" viewBox="0 0 30 31" xmlns="http://www.w3.org/2000/svg">
<mask id="path-1-inside-1_553:2739">
<path d="M9.25 4.5625C12.7031 4.5625 15.5 8 15.5 8C15.5 8 18.2969 4.5625 21.75 4.5625C25.2031 4.5625 28 7.30469 28 10.6875C28 15.7859 22.9469 17.5844 16.1125 25.7C16.0373 25.7891 15.9435 25.8608 15.8377 25.9099C15.7319 25.959 15.6166 25.9845 15.5 25.9845C15.3834 25.9845 15.2681 25.959 15.1623 25.9099C15.0565 25.8608 14.9627 25.7891 14.8875 25.7C8.05312 17.5844 3 15.7859 3 10.6875C3 7.30469 5.79688 4.5625 9.25 4.5625Z"/>
</mask>
<path d="M9.25 4.5625C12.7031 4.5625 15.5 8 15.5 8C15.5 8 18.2969 4.5625 21.75 4.5625C25.2031 4.5625 28 7.30469 28 10.6875C28 15.7859 22.9469 17.5844 16.1125 25.7C16.0373 25.7891 15.9435 25.8608 15.8377 25.9099C15.7319 25.959 15.6166 25.9845 15.5 25.9845C15.3834 25.9845 15.2681 25.959 15.1623 25.9099C15.0565 25.8608 14.9627 25.7891 14.8875 25.7C8.05312 17.5844 3 15.7859 3 10.6875C3 7.30469 5.79688 4.5625 9.25 4.5625Z"/>
<path d="M15.5 8L13.9486 9.26225L15.5 11.169L17.0514 9.26225L15.5 8ZM16.1125 25.7L17.6408 26.9901L17.6423 26.9883L16.1125 25.7ZM14.8875 25.7L13.3577 26.9883L13.3592 26.9901L14.8875 25.7ZM9.25 6.5625C10.3371 6.5625 11.4711 7.12229 12.4598 7.87363C12.9308 8.23154 13.3158 8.59278 13.5814 8.86352C13.7131 8.99779 13.8126 9.10684 13.8757 9.17809C13.9071 9.21364 13.9293 9.23952 13.9417 9.25414C13.9479 9.26144 13.9516 9.26591 13.9528 9.26733C13.9534 9.26804 13.9533 9.26799
 13.9526 9.26715C13.9523 9.26673 13.9518 9.26612 13.9511 9.2653C13.9508 9.26489 13.9504 9.26443 13.95 9.26393C13.9498
  9.26367 13.9495 9.26325 13.9493 9.26312C13.949 9.26269 13.9486 9.26225 15.5 8C17.0514 6.73775 17.051 6.73728
   17.0506 6.7368C17.0504 6.73662 17.05 6.73612 17.0497 6.73576C17.0492 6.73504 17.0485 6.73427 17.0479
    6.73345C17.0465 6.7318 17.045 6.72993 17.0433 6.72786C17.0399 6.72372 17.0358 6.71874 17.031 
    6.71295C17.0213 6.70136 17.0089 6.68653 16.9938 6.66865C16.9635 6.63292 16.9222 6.58495 
    16.8705 6.5265C16.7671 6.40976 16.6211 6.25026 16.4367 6.06226C16.07 5.68847 15.5399 5.19034 
    14.88 4.68887C13.607 3.72146 11.616 2.5625 9.25 2.5625V6.5625ZM15.5 8C17.0514 9.26225 17.051 
    9.26269 17.0507 9.26312C17.0505 9.26325 17.0502 9.26367 17.05 9.26393C17.0496 9.26443 17.0492
     9.26489 17.0489 9.2653C17.0482 9.26612 17.0477 9.26673 17.0474 9.26715C17.0467 9.26799 17.0466 
     9.26804 17.0472 9.26733C17.0484 9.26591 17.0521 9.26144 17.0583 9.25414C17.0707 9.23952 17.0929 
     9.21364 17.1243 9.17809C17.1874 9.10684 17.2869 8.99779 17.4186 8.86352C17.6842 8.59278 18.0692 
     8.23154 18.5402 7.87363C19.5289 7.12229 20.6629 6.5625 21.75 6.5625V2.5625C19.384 2.5625 17.393 
     3.72146 16.12 4.68887C15.4601 5.19034 14.93 5.68847 14.5633 6.06226C14.3789 6.25026 14.2329 6.40976 
     14.1295 6.5265C14.0778 6.58495 14.0365 6.63292 14.0062 6.66865C13.9911 6.68653 13.9787 6.70136 13.969
      6.71295C13.9642 6.71874 13.9601 6.72372 13.9567 6.72786C13.955 6.72993 13.9535 6.7318 13.9521 
      6.73345C13.9515 6.73427 13.9508 6.73504 13.9503 6.73576C13.95 6.73612 13.9496 6.73662 13.9494 
      6.7368C13.949 6.73728 13.9486 6.73775 15.5 8ZM21.75 6.5625C24.1366 6.5625 26 8.44689 26 10.6875H30C30 6.16248 26.2697 2.5625 21.75 2.5625V6.5625ZM26 10.6875C26 12.3955 25.2463 13.6223 23.2104 15.6427C21.2267 17.6112 18.0738 20.2661 14.5827 24.4117L17.6423 26.9883C20.9856 23.0183 23.7764 20.7162 26.0279 18.4819C28.2271 16.2996 30 14.0779 30 10.6875H26ZM14.5842 24.4099C14.6967 24.2766 14.837 24.1695 14.9951 24.096L16.6802 27.7238C17.05 27.552 17.3778 27.3016 17.6408 26.9901L14.5842 24.4099ZM14.9951 24.096C15.1533 24.0226 15.3256 23.9845 15.5 23.9845V27.9845C15.9077 27.9845 16.3105 27.8955 16.6802 27.7238L14.9951 24.096ZM15.5 23.9845C15.6744 23.9845 15.8467 24.0226 16.0049 24.096L14.3198 27.7238C14.6895 27.8955 15.0923 27.9845 15.5 27.9845V23.9845ZM16.0049 24.096C16.163 24.1695 16.3033 24.2766 16.4158 24.4099L13.3592 26.9901C13.6222 27.3016 13.95 27.552 14.3198 27.7238L16.0049 24.096ZM16.4173 24.4117C12.9262 20.2661 9.77331 17.6112 7.78963 15.6427C5.75368 13.6223 5 12.3955 5 10.6875H1C1 14.0779 2.77288 16.2996 4.97209 18.4819C7.22357 20.7162 10.0144 23.0183 13.3577 26.9883L16.4173 24.4117ZM5 10.6875C5 8.44689 6.86343 6.5625 9.25 6.5625V2.5625C4.73032 2.5625 1 6.16248 1 10.6875H5Z" fill="#FFBEC1"/>
</svg>
