<svg width="25" height="22" viewBox="0 0 25 22" fill="none" xmlns="http://www.w3.org/2000/svg">
<mask id="path-1-inside-1_273:32" fill="white">
<path d="M6.25 0.5625C9.70312 0.5625 12.5 4 12.5 4C12.5 4 15.2969 0.5625 18.75 0.5625C22.2031 0.5625 25 3.30469 25 6.6875C25 11.7859 19.9469 13.5844 13.1125 21.7C13.0373 21.7891 12.9435 21.8608 12.8377 21.9099C12.7319 21.959 12.6166 21.9845 12.5 21.9845C12.3834 21.9845 12.2681 21.959 12.1623 21.9099C12.0565 21.8608 11.9627 21.7891 11.8875 21.7C5.05312 13.5844 0 11.7859 0 6.6875C0 3.30469 2.79688 0.5625 6.25 0.5625Z"/>
</mask>
<path d="M6.25 0.5625C9.70312 0.5625 12.5 4 12.5 4C12.5 4 15.2969 0.5625 18.75 0.5625C22.2031 0.5625 25 3.30469 25 6.6875C25 11.7859 19.9469 13.5844 13.1125 21.7C13.0373 21.7891 12.9435 21.8608 12.8377 21.9099C12.7319 21.959 12.6166 21.9845 12.5 21.9845C12.3834 21.9845 12.2681 21.959 12.1623 21.9099C12.0565 21.8608 11.9627 21.7891 11.8875 21.7C5.05312 13.5844 0 11.7859 0 6.6875C0 3.30469 2.79688 0.5625 6.25 0.5625Z" fill="#FF656B"/>
<path d="M12.5 4L10.9486 5.26225L12.5 7.16895L14.0514 5.26225L12.5 4ZM13.1125 21.7L14.6408 22.9901L14.6423 22.9883L13.1125 21.7ZM11.8875 21.7L10.3577 22.9883L10.3592 22.9901L11.8875 21.7ZM6.25 2.5625C7.33711 2.5625 8.47114 3.12229 9.45983 3.87363C9.9308 4.23154 10.3158 4.59278 10.5814 4.86352C10.7131 4.99779 10.8126 5.10684 10.8757 5.17809C10.9071 5.21364 10.9293 5.23952 10.9417 5.25414C10.9479 5.26144 10.9516 5.26591 10.9528 5.26733C10.9534 5.26804 10.9533 5.26799 10.9526 5.26715C10.9523 5.26673 10.9518 5.26612 10.9511 5.2653C10.9508 5.26489 10.9504 5.26443 10.95 5.26393C10.9498 5.26367 10.9495 5.26325 10.9493 5.26312C10.949 5.26269 10.9486 5.26225 12.5 4C14.0514 2.73775 14.051 2.73728 14.0506 2.7368C14.0504 2.73662 14.05 2.73612 14.0497 2.73576C14.0492 2.73504 14.0485 2.73427 14.0479 2.73345C14.0465 2.7318 14.045 2.72993 14.0433 2.72786C14.0399 2.72372 14.0358 2.71874 14.031 2.71295C14.0213 2.70136 14.0089 2.68653 13.9938 2.66865C13.9635 2.63292 13.9222 2.58495 13.8705 2.5265C13.7671 2.40976 13.6211 2.25026 13.4367 2.06226C13.07 1.68847 12.5399 1.19034 11.88 0.688873C10.607 -0.278545 8.61602 -1.4375 6.25 -1.4375V2.5625ZM12.5 4C14.0514 5.26225 14.051 5.26269 14.0507 5.26312C14.0505 5.26325 14.0502 5.26367 14.05 5.26393C14.0496 5.26443 14.0492 5.26489 14.0489 5.2653C14.0482 5.26612 14.0477 5.26673 14.0474 5.26715C14.0467 5.26799 14.0466 5.26804 14.0472 5.26733C14.0484 5.26591 14.0521 5.26144 14.0583 5.25414C14.0707 5.23952 14.0929 5.21364 14.1243 5.17809C14.1874 5.10684 14.2869 4.99779 14.4186 4.86352C14.6842 4.59278 15.0692 4.23154 15.5402 3.87363C16.5289 3.12229 17.6629 2.5625 18.75 2.5625V-1.4375C16.384 -1.4375 14.393 -0.278545 13.12 0.688873C12.4601 1.19034 11.93 1.68847 11.5633 2.06226C11.3789 2.25026 11.2329 2.40976 11.1295 2.5265C11.0778 2.58495 11.0365 2.63292 11.0062 2.66865C10.9911 2.68653 10.9787 2.70136 10.969 2.71295C10.9642 2.71874 10.9601 2.72372 10.9567 2.72786C10.955 2.72993 10.9535 2.7318 10.9521 2.73345C10.9515 2.73427 10.9508 2.73504 10.9503 2.73576C10.95 2.73612 10.9496 2.73662 10.9494 2.7368C10.949 2.73728 10.9486 2.73775 12.5 4ZM18.75 2.5625C21.1366 2.5625 23 4.44689 23 6.6875H27C27 2.16248 23.2697 -1.4375 18.75 -1.4375V2.5625ZM23 6.6875C23 8.39555 22.2463 9.62231 20.2104 11.6427C18.2267 13.6112 15.0738 16.2661 11.5827 20.4117L14.6423 22.9883C17.9856 19.0183 20.7764 16.7162 23.0279 14.4819C25.2271 12.2996 27 10.0779 27 6.6875H23ZM11.5842 20.4099C11.6967 20.2766 11.837 20.1695 11.9951 20.096L13.6802 23.7238C14.05 23.552 14.3778 23.3016 14.6408 22.9901L11.5842 20.4099ZM11.9951 20.096C12.1533 20.0226 12.3256 19.9845 12.5 19.9845V23.9845C12.9077 23.9845 13.3105 23.8955 13.6802 23.7238L11.9951 20.096ZM12.5 19.9845C12.6744 19.9845 12.8467 20.0226 13.0049 20.096L11.3198 23.7238C11.6895 23.8955 12.0923 23.9845 12.5 23.9845V19.9845ZM13.0049 20.096C13.163 20.1695 13.3033 20.2766 13.4158 20.4099L10.3592 22.9901C10.6222 23.3016 10.95 23.552 11.3198 23.7238L13.0049 20.096ZM13.4173 20.4117C9.9262 16.2661 6.77331 13.6112 4.78963 11.6427C2.75368 9.62231 2 8.39555 2 6.6875H-2C-2 10.0779 -0.227119 12.2996 1.97209 14.4819C4.22357 16.7162 7.01442 19.0183 10.3577 22.9883L13.4173 20.4117ZM2 6.6875C2 4.44689 3.86343 2.5625 6.25 2.5625V-1.4375C1.73032 -1.4375 -2 2.16248 -2 6.6875H2Z" fill="#FF656B" mask="url(#path-1-inside-1_273:32)"/>
</svg>
