<svg width="40" height="40" viewBox="0 0 40 40" fill="none" xmlns="http://www.w3.org/2000/svg">
<rect width="40" height="40" rx="20" fill="#BF1D92"/>
<path d="M23.9037 17.8625C24.3262 17.8625 24.6687 17.52 24.6687 17.0975C24.6687 16.675 24.3262 16.3325 23.9037 16.3325C23.4812 16.3325 23.1387 16.675 23.1387 17.0975C23.1387 17.52 23.4812 17.8625 23.9037 17.8625Z" fill="white"/>
<path d="M20.4982 17.2256C19.8507 17.2256 19.2178 17.4176 18.6795 17.7773C18.1411 18.137 17.7216 18.6482 17.4738 19.2464C17.226 19.8446 17.1612 20.5028 17.2875 21.1378C17.4138 21.7728 17.7256 22.3561 18.1834 22.8139C18.6412 23.2717 19.2245 23.5835 19.8595 23.7098C20.4945 23.8361 21.1527 23.7713 21.7509 23.5235C22.3491 23.2758 22.8603 22.8562 23.22 22.3178C23.5797 21.7795 23.7717 21.1466 23.7717 20.4991C23.7717 19.6309 23.4268 18.7983 22.8129 18.1844C22.199 17.5705 21.3664 17.2256 20.4982 17.2256ZM20.4982 22.6241C20.0779 22.6241 19.667 22.4995 19.3176 22.266C18.9681 22.0325 18.6958 21.7006 18.5349 21.3124C18.3741 20.9241 18.332 20.4968 18.414 20.0846C18.496 19.6724 18.6984 19.2937 18.9956 18.9965C19.2928 18.6994 19.6714 18.497 20.0836 18.415C20.4958 18.333 20.9231 18.3751 21.3114 18.5359C21.6997 18.6967 22.0315 18.9691 22.265 19.3186C22.4985 19.668 22.6232 20.0789 22.6232 20.4991C22.6232 21.0627 22.3993 21.6032 22.0008 22.0018C21.6023 22.4003 21.0618 22.6241 20.4982 22.6241Z" fill="white"/>
<path d="M20.5 15.2736C22.2021 15.2736 22.404 15.2799 23.076 15.3107C23.4802 15.3155 23.8806 15.3898 24.2597 15.5302C24.5347 15.6362 24.7844 15.7987 24.9928 16.0072C25.2013 16.2156 25.3638 16.4653 25.4698 16.7403C25.6102 17.1194 25.6845 17.5198 25.6892 17.924C25.7201 18.596 25.7264 18.7979 25.7264 20.5005C25.7264 22.2032 25.7201 22.404 25.6892 23.076C25.6845 23.4802 25.6102 23.8806 25.4698 24.2597C25.3638 24.5347 25.2013 24.7844 24.9928 24.9928C24.7844 25.2013 24.5347 25.3638 24.2597 25.4698C23.8806 25.6102 23.4802 25.6845 23.076 25.6892C22.404 25.7201 22.2021 25.7264 20.5 25.7264C18.7979 25.7264 18.596 25.7201 17.924 25.6892C17.5198 25.6845 17.1194 25.6102 16.7403 25.4698C16.4653 25.3638 16.2156 25.2013 16.0072 24.9928C15.7987 24.7844 15.6362 24.5347 15.5302 24.2597C15.3898 23.8806 15.3155 23.4802 15.3107 23.076C15.2799 22.404 15.2736 22.2021 15.2736 20.5C15.2736 18.7979 15.2799 18.596 15.3107 17.924C15.3155 17.5198 15.3898 17.1194 15.5302 16.7403C15.6362 16.4653 15.7987 16.2156 16.0072 16.0072C16.2156 15.7987 16.4653 15.6362 16.7403 15.5302C17.1194 15.3898 17.5198 15.3155 17.924 15.3107C18.596 15.2799 18.7979 15.2736 20.5 15.2736ZM20.5 14.125C18.7687 14.125 18.5514 14.1324 17.8714 14.1633C17.3427 14.1739 16.8196 14.2742 16.3244 14.4597C15.9008 14.6235 15.5162 14.8739 15.1951 15.1951C14.8739 15.5162 14.6235 15.9008 14.4597 16.3244C14.2741 16.8198 14.1739 17.343 14.1633 17.8719C14.1324 18.5519 14.125 18.7681 14.125 20.5C14.125 22.2319 14.1324 22.4486 14.1633 23.1286C14.1739 23.6573 14.2742 24.1804 14.4597 24.6756C14.6235 25.0992 14.8739 25.4838 15.1951 25.8049C15.5162 26.1261 15.9008 26.3765 16.3244 26.5403C16.8198 26.7259 17.343 26.8261 17.8719 26.8368C18.5519 26.8676 18.7687 26.875 20.5 26.875C22.2313 26.875 22.4486 26.8676 23.1286 26.8368C23.6575 26.8261 24.1808 26.7259 24.6762 26.5403C25.0997 26.3765 25.4844 26.1261 25.8055 25.8049C26.1266 25.4838 26.3771 25.0992 26.5408 24.6756C26.7263 24.1802 26.8263 23.657 26.8368 23.1281C26.8676 22.4481 26.875 22.2319 26.875 20.5C26.875 18.7681 26.8676 18.5514 26.8368 17.8714C26.8261 17.3427 26.7258 16.8196 26.5403 16.3244C26.3765 15.9008 26.1261 15.5162 25.8049 15.1951C25.4838 14.8739 25.0992 14.6235 24.6756 14.4597C24.1802 14.2743 23.657 14.1742 23.1281 14.1638C22.4481 14.1319 22.2319 14.125 20.5 14.125Z" fill="white"/>
</svg>
