<svg width="50" height="50" viewBox="0 0 50 50" fill="none" xmlns="http://www.w3.org/2000/svg">
<path d="M21.4883 13.8044C21.4883 11.1599 22.2773 9.01924 24.7773 9.01924C27.2734 9.01924 28.0664 11.1599 28.0664 13.8044H21.4883Z" fill="#ED6C30"/>
<path d="M27.7578 14.8365H21.8008C21.1797 14.8365 20.6758 15.3404 20.6758 15.9575V18.0904C20.6758 18.7115 21.1758 19.2154 21.8008 19.2154H27.7617C28.3789 19.2154 28.8828 18.7115 28.8828 18.0904V15.9575C28.8806 15.6602 28.7612 15.3758 28.5506 15.1659C28.34 14.9561 28.0551 14.8377 27.7578 14.8365V14.8365Z" fill="#3F3F3F"/>
<path d="M19.2973 10.9417L14.2309 8.61749C14.0669 8.54327 13.8715 8.54717 13.7114 8.63702C13.5512 8.72296 13.4419 8.88702 13.4145 9.0667L12.9731 12.2464C12.9458 12.4261 13.0083 12.6097 13.1411 12.7386C13.2505 12.848 13.3989 12.9065 13.5512 12.9065C13.5825 12.9065 13.6098 12.9026 13.6411 12.8987L19.1411 12.0472C19.3989 12.0081 19.5942 11.8089 19.6294 11.5511C19.6645 11.2972 19.5278 11.0511 19.2973 10.9417Z" fill="#ED6C30"/>
<path d="M36.1443 9.07007C36.1208 8.89039 36.0115 8.72632 35.8513 8.64039C35.6911 8.55054 35.4958 8.54273 35.3279 8.62085L30.2615 10.9451C30.0271 11.0505 29.8943 11.2966 29.9294 11.5505C29.9646 11.8044 30.1599 12.0037 30.4138 12.0466L35.9177 12.9021C35.949 12.906 35.9763 12.9099 36.0075 12.9099C36.156 12.9099 36.3044 12.8513 36.4138 12.7419C36.5427 12.613 36.6052 12.4294 36.5818 12.2498L36.1443 9.07007V9.07007Z" fill="#ED6C30"/>
<path d="M47.6651 30.4919C45.837 28.6638 42.9776 28.0974 42.9776 28.0974C42.9776 28.0974 41.4816 24.2107 40.2237 22.5193C36.7901 17.9099 32.4972 16.8826 25.5401 16.8826C20.7316 16.8826 15.9581 17.0622 12.048 21.988C10.5519 23.8747 8.09875 28.0974 8.09875 28.0974C8.09875 28.0974 3.76671 28.5466 1.79015 30.7458C0.274528 32.4372 -0.440316 38.5505 1.56359 40.5505C3.255 42.2419 5.08312 43.1365 6.40734 43.281C6.40734 43.1286 6.41515 42.9802 6.43078 42.8318C6.47375 42.3747 6.57531 41.9333 6.72765 41.5154C7.46203 39.4919 9.39953 38.0388 11.6769 38.0388C13.9503 38.0388 15.8878 39.4919 16.6222 41.5193C16.8253 42.0779 16.9425 42.6794 16.9425 43.3083H33.0714C33.0714 42.6794 33.1886 42.0779 33.3917 41.5193C34.1261 39.4919 36.0636 38.0388 38.3409 38.0388C40.6144 38.0388 42.5519 39.4919 43.2862 41.5193C43.4855 42.074 43.6026 42.6755 43.6026 43.3005V43.3083H43.9308C45.9503 43.3083 47.6495 42.2927 48.712 40.5935C50.5401 37.6677 49.4933 32.3201 47.6651 30.4919V30.4919Z" fill="#3F3F3F"/>
<path d="M2.40234 33.7971C2.58203 32.9572 2.83594 32.2658 3.12109 31.9416C4.35156 30.5705 7.26953 29.9807 8.28516 29.8752C8.85156 29.8166 9.35938 29.4885 9.64844 28.9963C9.67188 28.9533 12.0508 24.8635 13.4531 23.0979C16.7148 18.9846 20.5195 18.6682 25.5391 18.6682C32.7969 18.6682 36.0117 19.8635 38.7891 23.5861C39.6992 24.8088 40.9141 27.7189 41.3047 28.7385C41.413 29.0185 41.59 29.2669 41.8193 29.4607C42.0486 29.6546 42.323 29.7877 42.6172 29.8479C42.6406 29.8557 44.9883 30.3518 46.3945 31.758C46.8008 32.1643 47.168 32.9064 47.4336 33.7971H2.40234Z" fill="white"/>
<path d="M11.6719 39.3832C10.1484 39.3832 8.84375 40.2582 8.19531 41.5199C7.93148 42.0239 7.78335 42.5803 7.76172 43.1488C7.76172 43.2035 7.74609 43.2543 7.74609 43.3089C7.74609 45.4769 9.50391 47.2347 11.6758 47.2347C13.8398 47.2347 15.5977 45.4769 15.5977 43.3089C15.5977 42.6605 15.4258 42.0589 15.1484 41.5199C14.4922 40.2582 13.1914 39.3832 11.6719 39.3832V39.3832Z" fill="#3F3F3F"/>
<path d="M38.3398 39.3832C36.8164 39.3832 35.5156 40.2582 34.8633 41.5199C34.582 42.0589 34.4102 42.6605 34.4102 43.3089C34.4102 45.4769 36.168 47.2347 38.3398 47.2347C40.5039 47.2347 42.2656 45.4769 42.2656 43.3089C42.2656 42.6605 42.0937 42.0589 41.8164 41.5199C41.1641 40.2582 39.8594 39.3832 38.3398 39.3832V39.3832Z" fill="#3F3F3F"/>
<path d="M22.1485 20.9687C21.6993 20.8555 18.461 21.0391 16.3595 23.3516C14.254 25.6601 13.0899 28.918 15.2462 28.918H21.4766C22.3516 28.918 23.0704 28.5469 23.0704 27.4336V22.8476C23.0665 21.9805 23.004 21.1836 22.1485 20.9687Z" fill="#40C0E7"/>
<path d="M34.4102 22.2422C32.1602 20.7227 26.9375 20.8555 26.2891 20.9688C25.0469 21.1836 24.9531 21.9766 24.9531 22.8477V27.4336C24.9531 28.5469 25.9922 28.918 27.2617 28.918H36.2695C39.3867 28.918 37.582 24.379 34.4102 22.2422Z" fill="#40C0E7"/>
</svg>
