<svg width="99" height="99" viewBox="0 0 99 99" fill="none" xmlns="http://www.w3.org/2000/svg">
<path d="M90.55 35.9741L90.4469 35.2811L90.3396 35.3059C89.6067 31.8781 87.9181 28.728 85.4694 26.2199C83.0207 23.7119 79.9119 21.9484 76.5027 21.1335C73.0935 20.3187 69.5233 20.4858 66.2051 21.6154C62.8869 22.7451 59.9564 24.7912 57.7526 27.517C55.5488 30.2428 54.1619 33.5369 53.7522 37.0181C53.3426 40.4993 53.9269 44.0253 55.4377 47.1882C56.9485 50.3511 59.324 53.0216 62.2893 54.8908C65.2546 56.7599 68.6885 57.7512 72.1938 57.75C73.1136 57.75 73.9964 57.6098 74.875 57.4819C74.5904 58.4389 74.2975 59.4124 73.8273 60.2869C73.357 61.5574 72.6228 62.6587 71.8926 63.7684C71.2821 64.9688 70.2055 65.7814 69.4135 66.8085C68.5844 67.8067 67.4541 68.4709 66.559 69.3C65.6804 70.1662 64.5295 70.5994 63.6138 71.2099C62.6568 71.7585 61.8235 72.3649 60.9325 72.6536L58.7091 73.5694L56.7539 74.382L58.7504 82.3804L61.213 81.7864C62.0009 81.5884 62.962 81.3574 64.0551 81.081C65.173 80.8748 66.3651 80.3096 67.6934 79.794C69.001 79.2041 70.5231 78.8123 71.9339 77.8676C73.3529 76.9684 74.9905 76.2176 76.4343 75.0131C77.8326 73.7715 79.5198 72.6949 80.7655 71.1191C82.1268 69.6424 83.4715 68.0914 84.5151 66.3259C85.7238 64.6429 86.5446 62.7949 87.4109 60.9675C88.1946 59.1401 88.8258 57.2715 89.3414 55.4565C90.319 51.8183 90.7563 48.3615 90.9254 45.4039C91.0656 42.4421 90.9831 39.9795 90.8099 38.1975C90.7519 37.4533 90.6652 36.7116 90.55 35.9741ZM45.175 35.9741L45.0719 35.2811L44.9646 35.3059C44.2317 31.8781 42.5431 28.728 40.0944 26.2199C37.6457 23.7119 34.5369 21.9484 31.1277 21.1335C27.7185 20.3187 24.1483 20.4858 20.8301 21.6154C17.5119 22.7451 14.5814 24.7912 12.3776 27.517C10.1738 30.2428 8.78688 33.5369 8.37722 37.0181C7.96756 40.4993 8.55194 44.0253 10.0627 47.1882C11.5735 50.3511 13.949 53.0216 16.9143 54.8908C19.8796 56.7599 23.3135 57.7512 26.8188 57.75C27.7386 57.75 28.6214 57.6098 29.5 57.4819C29.2154 58.4389 28.9225 59.4124 28.4523 60.2869C27.982 61.5574 27.2478 62.6587 26.5176 63.7684C25.9071 64.9688 24.8305 65.7814 24.0385 66.8085C23.2094 67.8067 22.0791 68.4709 21.184 69.3C20.3054 70.1662 19.1545 70.5994 18.2388 71.2099C17.2818 71.7585 16.4485 72.3649 15.5575 72.6536L13.3341 73.5694C12.0925 74.0767 11.383 74.3738 11.383 74.3738L13.3795 82.3721L15.8421 81.7781C16.63 81.5801 17.5911 81.3491 18.6843 81.0727C19.8021 80.8665 20.9943 80.3014 22.3225 79.7857C23.6301 79.1959 25.1523 78.804 26.563 77.8594C27.982 76.9601 29.6196 76.2094 31.0634 75.0049C32.4618 73.7633 34.1489 72.6866 35.3946 71.1109C36.7559 69.6341 38.1006 68.0831 39.1443 66.3176C40.3529 64.6346 41.1738 62.7866 42.04 60.9593C42.8238 59.1319 43.4549 57.2633 43.9705 55.4482C44.9481 51.81 45.3854 48.3533 45.5545 45.3956C45.6948 42.4339 45.6123 39.9713 45.439 38.1893C45.3774 37.448 45.2894 36.7091 45.175 35.9741Z" fill="#C6C6C6" fill-opacity="0.31"/>
</svg>
