<svg width="203" height="51" viewBox="0 0 203 51" fill="none" xmlns="http://www.w3.org/2000/svg">
<path d="M16.3576 8.74223C15.6978 7.08087 15.7566 4.98317 16.4383 3.30899C17.1191 1.63711 18.3623 0.5 20.0143 0.5H184.669C186.396 0.5 187.658 1.70927 188.23 3.40113C188.804 5.09846 188.631 7.1599 187.574 8.64466C186.389 10.3084 185.751 11.8862 185.566 13.4057C185.381 14.9275 185.655 16.3569 186.24 17.7154C187.399 20.4049 189.801 22.8539 192.345 25.2736C192.722 25.6324 193.103 25.9909 193.484 26.35C195.706 28.4415 197.95 30.5541 199.654 32.8731C201.639 35.5744 202.847 38.4991 202.411 41.9123C202.032 44.8801 200.15 47.0158 197.535 48.426C194.911 49.8407 191.586 50.5 188.45 50.5H15.5356C10.6923 50.5 5.76793 49.0216 3.01926 45.2221C0.247913 41.3913 0.025256 38.1496 1.09326 35.2103C2.18139 32.2156 4.62683 29.4789 7.34283 26.7372C7.8226 26.2529 8.31106 25.7683 8.80074 25.2824C11.0495 23.0513 13.3239 20.7947 14.9011 18.426C16.8417 15.5113 17.7866 12.3405 16.3576 8.74223Z" stroke="#FFBEC1"/>
</svg>
