<svg width="14" height="13" viewBox="0 0 14 13" fill="none" xmlns="http://www.w3.org/2000/svg">
<path d="M5.71253 8.787C5.78938 8.86365 5.83188 8.96629 5.83086 9.07281C5.82985 9.17933 5.78541 9.2812 5.70711 9.35649C5.62881 9.43177 5.52293 9.47445 5.41225 9.47533C5.30158 9.4762 5.19498 9.4352 5.11541 9.36116L2.30313 6.65121C2.22409 6.57503 2.17969 6.47178 2.17969 6.36412C2.17969 6.25647 2.22409 6.15321 2.30313 6.07704L5.11597 3.36979C5.19554 3.29575 5.30214 3.25475 5.41282 3.25563C5.52349 3.2565 5.62938 3.29918 5.70767 3.37447C5.78597 3.44975 5.83041 3.55163 5.83143 3.65814C5.83244 3.76466 5.78994 3.8673 5.71309 3.94396L3.61894 5.95896H8.03236C8.93002 5.95896 9.61381 6.09004 10.2211 6.37279L10.3595 6.44104C10.977 6.75601 11.482 7.24209 11.8093 7.83637C12.1526 8.45387 12.3102 9.14612 12.3102 10.0762C12.3102 10.1839 12.2657 10.2872 12.1865 10.3634C12.1074 10.4396 12 10.4824 11.8881 10.4824C11.7761 10.4824 11.6687 10.4396 11.5896 10.3634C11.5104 10.2872 11.466 10.1839 11.466 10.0762C11.466 9.27233 11.3376 8.71116 11.0647 8.21933C10.8162 7.7668 10.4318 7.39683 9.96162 7.15766C9.49 6.915 8.95647 6.7915 8.22033 6.77362L8.03292 6.77146H3.62175L5.71253 8.787Z" fill="#3A3A3A"/>
</svg>
