<svg width="15" height="13" viewBox="0 0 15 13" fill="none" xmlns="http://www.w3.org/2000/svg">
<path d="M13.4952 3.19508C13.5049 3.32764 13.5049 3.45944 13.5049 3.59125C13.5049 7.62483 10.4825 12.2727 4.95882 12.2727C3.25705 12.2727 1.67609 11.772 0.345703 10.9025C0.587321 10.9305 0.81999 10.9403 1.0713 10.9403C2.42331 10.9436 3.73704 10.4844 4.80072 9.6367C4.17387 9.62517 3.56621 9.4151 3.06259 9.03582C2.55897 8.65653 2.18452 8.12696 1.99154 7.52106C2.17723 7.54908 2.36366 7.56802 2.55904 7.56802C2.82825 7.56802 3.09895 7.53015 3.35027 7.46425C2.66998 7.32473 2.05826 6.95018 1.61913 6.40429C1.18 5.8584 0.94057 5.17487 0.941545 4.46992V4.43205C1.342 4.65854 1.8066 4.80018 2.29878 4.81912C1.88646 4.54081 1.54836 4.16316 1.31467 3.71986C1.08097 3.27656 0.95893 2.78139 0.959442 2.27853C0.959442 1.71194 1.10784 1.1923 1.36811 0.73933C2.12289 1.68241 3.06428 2.45393 4.1313 3.00394C5.19832 3.55394 6.36718 3.87016 7.56217 3.93211C7.51594 3.70487 7.4876 3.46929 7.4876 3.23296C7.48741 2.83222 7.56497 2.43537 7.71585 2.0651C7.86674 1.69483 8.08799 1.3584 8.36696 1.07504C8.64593 0.791673 8.97715 0.566936 9.34168 0.413672C9.7062 0.260409 10.0969 0.181625 10.4914 0.181824C11.3565 0.181824 12.1373 0.54996 12.6861 1.14534C13.3586 1.01325 14.0035 0.763889 14.5922 0.408311C14.3681 1.11339 13.8985 1.71126 13.2715 2.08992C13.8679 2.02082 14.4508 1.8615 15.0009 1.61725C14.5901 2.22558 14.081 2.75903 13.4952 3.19508Z" fill="white"/>
</svg>
