<svg width="40" height="40" viewBox="0 0 40 40" fill="none" xmlns="http://www.w3.org/2000/svg">
<rect width="40" height="40" rx="20" fill="#3DB8D3"/>
<path d="M25.9061 17.6644C25.9153 17.7884 25.9153 17.9116 25.9153 18.0349C25.9153 21.8068 23.0444 26.1531 17.7978 26.1531C16.1813 26.1531 14.6797 25.6849 13.416 24.8717C13.6455 24.8979 13.8665 24.9071 14.1052 24.9071C15.3894 24.9102 16.6373 24.4808 17.6476 23.6881C17.0522 23.6773 16.475 23.4809 15.9966 23.1262C15.5183 22.7715 15.1626 22.2763 14.9793 21.7097C15.1557 21.7359 15.3328 21.7536 15.5183 21.7536C15.7741 21.7536 16.0312 21.7182 16.2699 21.6566C15.6237 21.5261 15.0427 21.1759 14.6256 20.6654C14.2085 20.1549 13.981 19.5158 13.982 18.8566V18.8211C14.3623 19.0329 14.8036 19.1654 15.2711 19.1831C14.8795 18.9228 14.5584 18.5697 14.3364 18.1552C14.1144 17.7406 13.9985 17.2776 13.999 16.8073C13.999 16.2775 14.1399 15.7916 14.3871 15.368C15.1041 16.2499 15.9982 16.9714 17.0118 17.4857C18.0253 18 19.1355 18.2957 20.2706 18.3536C20.2266 18.1411 20.1997 17.9208 20.1997 17.6998C20.1995 17.3251 20.2732 16.954 20.4165 16.6078C20.5598 16.2615 20.77 15.9469 21.035 15.6819C21.3 15.417 21.6146 15.2068 21.9608 15.0635C22.3071 14.9202 22.6782 14.8465 23.0529 14.8467C23.8746 14.8467 24.6162 15.1909 25.1375 15.7477C25.7763 15.6242 26.3888 15.391 26.948 15.0585C26.7351 15.7178 26.2891 16.2769 25.6936 16.631C26.2601 16.5664 26.8137 16.4174 27.3362 16.189C26.946 16.7578 26.4625 17.2567 25.9061 17.6644Z" fill="white"/>
</svg>
