<svg  aria-hidden="true" style="position: absolute; width: 0; height: 0; overflow: hidden;" version="1.1" xmlns="http://www.w3.org/2000/svg" xmlns:xlink="http://www.w3.org/1999/xlink">
<defs>
<symbol id="icon-rectangle" viewBox="0 0 12 12" >
<path d="M5.54883 12C4.445 9.05664 3.36595 7.70641 -8.08698e-05 6.45109C3.47344 5.39816 4.68909 4.18407 5.54883 0.902182C6.85604 4.4242 8.29691 5.38886 11.0977 6.45109C8.08813 7.39322 6.86162 8.59132 5.54883 12Z" fill="#FF7176"/>
</symbol>

<symbol id="icon-star" viewBox="0 0 18 17" >
<path d="M8.51724 0L10.5279 6.18814H17.0345L11.7705 10.0126L13.7812 16.2007L8.51724 12.3763L3.2533 16.2007L5.26394 10.0126L0 6.18814H6.50659L8.51724 0Z" fill="#FF656B"/>
</symbol>

<symbol id="icon-face" viewBox="0 0 9 15" >
<path d="M5.40817 14.5926V8.38558H7.66358L7.99883 5.95534H5.40817V4.40737C5.40817 3.7061 5.61862 3.22595 6.70268 3.22595H8.07632V1.05926C7.40797 0.99276 6.73616 0.960651 6.06399 0.96308C4.07042 0.96308 2.70167 2.093 2.70167 4.1673V5.9508H0.460938V8.38104H2.70656V14.5926H5.40817Z"/>
</symbol>

<symbol id="icon-ins" viewBox="0 0 15 14" >
<path d="M7.20255 14C5.33849 14 5.11874 13.9901 4.3913 13.9582C3.82403 13.9395 3.2641 13.8237 2.73562 13.616C2.28338 13.4394 1.87268 13.1703 1.5296 12.8259C1.18653 12.4815 0.918567 12.0693 0.742743 11.6154C0.543687 11.0832 0.436323 10.5208 0.425246 9.95247C0.382812 9.22402 0.382812 8.98526 0.382812 7.12916C0.382812 5.25329 0.392663 5.0343 0.425246 4.30814C0.436565 3.74053 0.543926 3.17897 0.742743 2.64746C0.918365 2.193 1.18651 1.7803 1.53004 1.4357C1.87357 1.0911 2.28495 0.822187 2.7379 0.646128C3.26729 0.44554 3.82704 0.337521 4.39282 0.326766C5.11647 0.285705 5.3544 0.285706 7.20255 0.285706C9.08177 0.285706 9.29773 0.29559 10.0138 0.326766C10.5806 0.337412 11.1428 0.445386 11.6733 0.646128C12.1261 0.822391 12.5374 1.09138 12.8809 1.43595C13.2244 1.78052 13.4926 2.19312 13.6684 2.64746C13.8707 3.18733 13.9791 3.75762 13.9874 4.33323C14.0299 5.06168 14.0299 5.29968 14.0299 7.15501C14.0299 9.01035 14.0193 9.25367 13.9874 9.97376C13.9761 10.5427 13.8685 11.1055 13.6692 11.6382C13.4929 12.0924 13.2245 12.5049 12.8809 12.8494C12.5373 13.194 12.126 13.463 11.6733 13.6396C11.1428 13.8388 10.5829 13.9468 10.0168 13.9582C9.29318 14 9.05601 14 7.20255 14ZM7.17679 1.48939C5.32334 1.48939 5.13087 1.49852 4.40722 1.53121C3.97504 1.53688 3.54702 1.61687 3.14178 1.76769C2.8462 1.88138 2.57765 2.05596 2.35343 2.28018C2.12921 2.50439 1.95429 2.77327 1.83996 3.06947C1.68841 3.48008 1.60885 3.91426 1.6043 4.35224C1.56414 5.08905 1.56414 5.28219 1.56414 7.12916C1.56414 8.95408 1.57096 9.17535 1.6043 9.90761C1.61112 10.341 1.69069 10.7706 1.83996 11.1774C2.07184 11.7759 2.54467 12.2488 3.14253 12.4785C3.54726 12.6302 3.97519 12.7102 4.40722 12.7149C5.14072 12.7575 5.33395 12.7575 7.17679 12.7575C9.03555 12.7575 9.22802 12.7484 9.94561 12.7149C10.3778 12.7097 10.8059 12.6297 11.211 12.4785C11.505 12.3639 11.7721 12.1892 11.9951 11.9655C12.2182 11.7418 12.3925 11.4739 12.5068 11.179C12.6583 10.7684 12.7379 10.3334 12.7425 9.89544H12.7508C12.7834 9.16851 12.7834 8.97461 12.7834 7.117C12.7834 5.25938 12.775 5.06396 12.7425 4.33779C12.7356 3.90472 12.6559 3.47592 12.5068 3.06947C12.3927 2.7741 12.2186 2.5058 11.9955 2.28168C11.7724 2.05755 11.5053 1.8825 11.211 1.76769C10.8057 1.61562 10.3775 1.53654 9.94561 1.53121C9.21286 1.48939 9.02115 1.48939 7.17679 1.48939ZM7.20255 10.6414C6.50965 10.6418 5.83217 10.4361 5.25581 10.0501C4.67945 9.66416 4.2301 9.11535 3.96459 8.47311C3.69908 7.83086 3.62934 7.12403 3.76418 6.44201C3.89903 5.75998 4.23241 5.13341 4.72216 4.64154C5.21191 4.14966 5.83602 3.81458 6.51556 3.67867C7.19511 3.54276 7.89955 3.61213 8.5398 3.87801C9.18005 4.14389 9.72734 4.59433 10.1125 5.17236C10.4976 5.75039 10.7032 6.43004 10.7034 7.12536C10.7022 8.05697 10.333 8.95012 9.67685 9.60915C9.02067 10.2682 8.13093 10.6394 7.20255 10.6414ZM7.20255 4.84269C6.75295 4.84269 6.31344 4.97647 5.93961 5.22713C5.56577 5.47779 5.2744 5.83405 5.10235 6.25088C4.93029 6.66771 4.88527 7.12637 4.97299 7.56887C5.0607 8.01137 5.27721 8.41783 5.59513 8.73686C5.91304 9.05588 6.3181 9.27314 6.75907 9.36116C7.20003 9.44918 7.65711 9.404 8.07249 9.23135C8.48787 9.05869 8.8429 8.76631 9.09269 8.39118C9.34248 8.01605 9.4758 7.57501 9.4758 7.12384C9.4744 6.51927 9.23445 5.93987 8.80843 5.51237C8.38242 5.08488 7.80503 4.84409 7.20255 4.84269ZM10.8397 4.30053C10.7325 4.30013 10.6263 4.27854 10.5274 4.23697C10.4284 4.19541 10.3386 4.1347 10.263 4.0583C10.1104 3.90401 10.0251 3.69519 10.0259 3.4778C10.0267 3.2604 10.1136 3.05223 10.2673 2.89908C10.4211 2.74593 10.6292 2.66034 10.8458 2.66115C11.0625 2.66195 11.2699 2.74909 11.4225 2.90338C11.5751 3.05767 11.6604 3.26648 11.6596 3.48388C11.6588 3.70128 11.572 3.90945 11.4182 4.0626C11.2645 4.21575 11.0564 4.30134 10.8397 4.30053Z"/>
</symbol>

<symbol id="icon-pin" viewBox="0 0 13 16" >
<path d="M5.648 10.2525C5.24212 12.3633 4.748 14.3875 3.28169 15.4444C2.83009 12.2541 3.94666 9.85755 4.46484 7.31383C3.58089 5.83484 4.57153 2.85748 6.4357 3.59079C8.72982 4.49367 4.4488 9.09018 7.32287 9.66474C10.3237 10.2641 11.5493 4.4898 9.68837 2.61124C6.9996 -0.0997402 1.86191 2.55007 2.49399 6.43185C2.648 7.3812 3.63383 7.66926 2.88784 8.97945C1.16725 8.59924 0.653885 7.25034 0.720463 5.45153C0.826345 2.50903 3.38116 0.447721 5.94319 0.162762C9.18383 -0.198082 12.2247 1.34519 12.6443 4.3752C13.1175 7.7947 11.182 11.4992 7.71752 11.232C6.77821 11.16 6.38356 10.6977 5.648 10.2525Z"/>
</symbol>

<symbol id="icon-twi" viewBox="0 0 15 13" >
<path d="M13.4952 3.19508C13.5049 3.32764 13.5049 3.45944 13.5049 3.59125C13.5049 7.62483 10.4825 12.2727 4.95882 12.2727C3.25705 12.2727 1.67609 11.772 0.345703 10.9025C0.587321 10.9305 0.81999 10.9403 1.0713 10.9403C2.42331 10.9436 3.73704 10.4844 4.80072 9.6367C4.17387 9.62517 3.56621 9.4151 3.06259 9.03582C2.55897 8.65653 2.18452 8.12696 1.99154 7.52106C2.17723 7.54908 2.36366 7.56802 2.55904 7.56802C2.82825 7.56802 3.09895 7.53015 3.35027 7.46425C2.66998 7.32473 2.05826 6.95018 1.61913 6.40429C1.18 5.8584 0.94057 5.17487 0.941545 4.46992V4.43205C1.342 4.65854 1.8066 4.80018 2.29878 4.81912C1.88646 4.54081 1.54836 4.16316 1.31467 3.71986C1.08097 3.27656 0.95893 2.78139 0.959442 2.27853C0.959442 1.71194 1.10784 1.1923 1.36811 0.73933C2.12289 1.68241 3.06428 2.45393 4.1313 3.00394C5.19832 3.55394 6.36718 3.87016 7.56217 3.93211C7.51594 3.70487 7.4876 3.46929 7.4876 3.23296C7.48741 2.83222 7.56497 2.43537 7.71585 2.0651C7.86674 1.69483 8.08799 1.3584 8.36696 1.07504C8.64593 0.791673 8.97715 0.566936 9.34168 0.413672C9.7062 0.260409 10.0969 0.181625 10.4914 0.181824C11.3565 0.181824 12.1373 0.54996 12.6861 1.14534C13.3586 1.01325 14.0035 0.763889 14.5922 0.408311C14.3681 1.11339 13.8985 1.71126 13.2715 2.08992C13.8679 2.02082 14.4508 1.8615 15.0009 1.61725C14.5901 2.22558 14.081 2.75903 13.4952 3.19508Z" />
</symbol>

<symbol id="icon-search" viewBox="0 0 12 12" >
<path d="M11.8315 10.9884L9.60683 8.77999C10.4704 7.70246 10.8886 6.33476 10.7754 4.95814C10.6623 3.58151 10.0264 2.30059 8.9985 1.37875C7.97062 0.456919 6.62888 -0.0357596 5.24917 0.00202291C3.86946 0.0398054 2.55665 0.605177 1.58069 1.58189C0.604718 2.5586 0.0397752 3.8724 0.00202138 5.25316C-0.0357324 6.63392 0.456573 7.97668 1.37771 9.00534C2.29884 10.034 3.57879 10.6704 4.95437 10.7836C6.32996 10.8968 7.69661 10.4783 8.77332 9.61413L10.98 11.8225C11.0358 11.8787 11.1021 11.9234 11.1752 11.9538C11.2482 11.9843 11.3266 12 11.4058 12C11.4849 12 11.5633 11.9843 11.6364 11.9538C11.7094 11.9234 11.7758 11.8787 11.8315 11.8225C11.9396 11.7106 12 11.5611 12 11.4054C12 11.2498 11.9396 11.1003 11.8315 10.9884ZM5.40932 9.61413C4.57914 9.61413 3.76759 9.36776 3.07732 8.90618C2.38704 8.44461 1.84904 7.78855 1.53134 7.02097C1.21364 6.25339 1.13051 5.40877 1.29247 4.59392C1.45444 3.77906 1.85421 3.03057 2.44124 2.4431C3.02827 1.85562 3.7762 1.45554 4.59043 1.29346C5.40467 1.13137 6.24865 1.21456 7.01564 1.5325C7.78263 1.85044 8.4382 2.38885 8.89942 3.07965C9.36065 3.77045 9.60683 4.58262 9.60683 5.41343C9.60683 6.52753 9.16459 7.59599 8.37741 8.38377C7.59022 9.17156 6.52257 9.61413 5.40932 9.61413Z"/>
</symbol>

<symbol id="icon-line-diamond" viewBox="0 0 197 20" >
<path d="M0 10L197 10" stroke="#FF656B"/>
<path d="M91.1016 9.89954C96.3526 7.93026 98.7615 6.00518 101.001 4.13656e-05C102.88 6.19696 105.046 8.36573 110.901 9.89954C104.617 12.2317 102.896 14.8022 101.001 19.799C99.3203 14.4298 97.1828 12.2416 91.1016 9.89954Z" fill="#FF656b"/>
</symbol>

<symbol id="icon-facebook" viewBox="0 0 40 40" >
<rect width="40" height="40" rx="20" fill="#3B5998"/>
<path d="M21.4894 26.8728V21.0673H23.4479L23.7391 18.7942H21.4894V17.3464C21.4894 16.6905 21.6722 16.2414 22.6135 16.2414H23.8064V14.2148C23.226 14.1526 22.6426 14.1226 22.0589 14.1249C20.3277 14.1249 19.1392 15.1817 19.1392 17.1218V18.79H17.1934V21.063H19.1434V26.8728H21.4894Z" fill="white"/>
</symbol>

<symbol id="icon-instagram" viewBox="0 0 40 40" >
<rect width="40" height="40" rx="20" fill="#BF1D92"/>
<path d="M23.9037 17.8625C24.3262 17.8625 24.6687 17.52 24.6687 17.0975C24.6687 16.675 24.3262 16.3325 23.9037 16.3325C23.4812 16.3325 23.1387 16.675 23.1387 17.0975C23.1387 17.52 23.4812 17.8625 23.9037 17.8625Z" fill="white"/>
<path d="M20.4982 17.2256C19.8507 17.2256 19.2178 17.4176 18.6795 17.7773C18.1411 18.137 17.7216 18.6482 17.4738 19.2464C17.226 19.8446 17.1612 20.5028 17.2875 21.1378C17.4138 21.7728 17.7256 22.3561 18.1834 22.8139C18.6412 23.2717 19.2245 23.5835 19.8595 23.7098C20.4945 23.8361 21.1527 23.7713 21.7509 23.5235C22.3491 23.2758 22.8603 22.8562 23.22 22.3178C23.5797 21.7795 23.7717 21.1466 23.7717 20.4991C23.7717 19.6309 23.4268 18.7983 22.8129 18.1844C22.199 17.5705 21.3664 17.2256 20.4982 17.2256ZM20.4982 22.6241C20.0779 22.6241 19.667 22.4995 19.3176 22.266C18.9681 22.0325 18.6958 21.7006 18.5349 21.3124C18.3741 20.9241 18.332 20.4968 18.414 20.0846C18.496 19.6724 18.6984 19.2937 18.9956 18.9965C19.2928 18.6994 19.6714 18.497 20.0836 18.415C20.4958 18.333 20.9231 18.3751 21.3114 18.5359C21.6997 18.6967 22.0315 18.9691 22.265 19.3186C22.4985 19.668 22.6232 20.0789 22.6232 20.4991C22.6232 21.0627 22.3993 21.6032 22.0008 22.0018C21.6023 22.4003 21.0618 22.6241 20.4982 22.6241Z" fill="white"/>
<path d="M20.5 15.2736C22.2021 15.2736 22.404 15.2799 23.076 15.3107C23.4802 15.3155 23.8806 15.3898 24.2597 15.5302C24.5347 15.6362 24.7844 15.7987 24.9928 16.0072C25.2013 16.2156 25.3638 16.4653 25.4698 16.7403C25.6102 17.1194 25.6845 17.5198 25.6892 17.924C25.7201 18.596 25.7264 18.7979 25.7264 20.5005C25.7264 22.2032 25.7201 22.404 25.6892 23.076C25.6845 23.4802 25.6102 23.8806 25.4698 24.2597C25.3638 24.5347 25.2013 24.7844 24.9928 24.9928C24.7844 25.2013 24.5347 25.3638 24.2597 25.4698C23.8806 25.6102 23.4802 25.6845 23.076 25.6892C22.404 25.7201 22.2021 25.7264 20.5 25.7264C18.7979 25.7264 18.596 25.7201 17.924 25.6892C17.5198 25.6845 17.1194 25.6102 16.7403 25.4698C16.4653 25.3638 16.2156 25.2013 16.0072 24.9928C15.7987 24.7844 15.6362 24.5347 15.5302 24.2597C15.3898 23.8806 15.3155 23.4802 15.3107 23.076C15.2799 22.404 15.2736 22.2021 15.2736 20.5C15.2736 18.7979 15.2799 18.596 15.3107 17.924C15.3155 17.5198 15.3898 17.1194 15.5302 16.7403C15.6362 16.4653 15.7987 16.2156 16.0072 16.0072C16.2156 15.7987 16.4653 15.6362 16.7403 15.5302C17.1194 15.3898 17.5198 15.3155 17.924 15.3107C18.596 15.2799 18.7979 15.2736 20.5 15.2736ZM20.5 14.125C18.7687 14.125 18.5514 14.1324 17.8714 14.1633C17.3427 14.1739 16.8196 14.2742 16.3244 14.4597C15.9008 14.6235 15.5162 14.8739 15.1951 15.1951C14.8739 15.5162 14.6235 15.9008 14.4597 16.3244C14.2741 16.8198 14.1739 17.343 14.1633 17.8719C14.1324 18.5519 14.125 18.7681 14.125 20.5C14.125 22.2319 14.1324 22.4486 14.1633 23.1286C14.1739 23.6573 14.2742 24.1804 14.4597 24.6756C14.6235 25.0992 14.8739 25.4838 15.1951 25.8049C15.5162 26.1261 15.9008 26.3765 16.3244 26.5403C16.8198 26.7259 17.343 26.8261 17.8719 26.8368C18.5519 26.8676 18.7687 26.875 20.5 26.875C22.2313 26.875 22.4486 26.8676 23.1286 26.8368C23.6575 26.8261 24.1808 26.7259 24.6762 26.5403C25.0997 26.3765 25.4844 26.1261 25.8055 25.8049C26.1266 25.4838 26.3771 25.0992 26.5408 24.6756C26.7263 24.1802 26.8263 23.657 26.8368 23.1281C26.8676 22.4481 26.875 22.2319 26.875 20.5C26.875 18.7681 26.8676 18.5514 26.8368 17.8714C26.8261 17.3427 26.7258 16.8196 26.5403 16.3244C26.3765 15.9008 26.1261 15.5162 25.8049 15.1951C25.4838 14.8739 25.0992 14.6235 24.6756 14.4597C24.1802 14.2743 23.657 14.1742 23.1281 14.1638C22.4481 14.1319 22.2319 14.125 20.5 14.125Z" fill="white"/>
</symbol>

<symbol id="icon-pinterest" viewBox="0 0 40 40" >
<rect width="40" height="40" rx="20" fill="#CB2027"/>
<path d="M20.6696 13.7C16.9296 13.7 14.9746 16.08 14.9746 18.715C14.9746 19.99 15.6546 21.265 16.7596 21.945C17.0996 22.115 17.0146 21.945 17.2696 20.925C17.2696 20.84 17.2696 20.755 17.1846 20.67C15.6546 18.8 16.9296 15.145 20.4996 15.145C25.6846 15.145 24.6646 22.285 21.4346 22.285C20.7546 22.37 20.1596 21.86 20.1596 21.18V20.84C20.4996 19.905 20.7546 19.055 20.8396 18.12C20.8396 16.335 18.2046 16.59 18.2046 18.97C18.2046 19.395 18.2896 19.82 18.4596 20.16C18.4596 20.16 17.6096 23.645 17.4396 24.24C17.2696 25.26 17.3546 26.28 17.5246 27.215C17.4396 27.3 17.5246 27.3 17.5246 27.3H17.6096C18.2046 26.45 18.7146 25.6 19.0546 24.665C19.1396 24.24 19.5646 22.71 19.5646 22.71C19.9896 23.305 20.7546 23.645 21.5196 23.645C24.1546 23.645 26.0246 21.35 26.0246 18.545C26.0246 15.74 23.6446 13.7 20.6696 13.7Z" fill="white"/>
</symbol>

<symbol id="icon-twitter" viewBox="0 0 40 40" >
<rect width="40" height="40" rx="20" fill="#3DB8D3"/>
<path d="M25.9061 17.6644C25.9153 17.7884 25.9153 17.9116 25.9153 18.0349C25.9153 21.8068 23.0444 26.1531 17.7978 26.1531C16.1813 26.1531 14.6797 25.6849 13.416 24.8717C13.6455 24.8979 13.8665 24.9071 14.1052 24.9071C15.3894 24.9102 16.6373 24.4808 17.6476 23.6881C17.0522 23.6773 16.475 23.4809 15.9966 23.1262C15.5183 22.7715 15.1626 22.2763 14.9793 21.7097C15.1557 21.7359 15.3328 21.7536 15.5183 21.7536C15.7741 21.7536 16.0312 21.7182 16.2699 21.6566C15.6237 21.5261 15.0427 21.1759 14.6256 20.6654C14.2085 20.1549 13.981 19.5158 13.982 18.8566V18.8211C14.3623 19.0329 14.8036 19.1654 15.2711 19.1831C14.8795 18.9228 14.5584 18.5697 14.3364 18.1552C14.1144 17.7406 13.9985 17.2776 13.999 16.8073C13.999 16.2775 14.1399 15.7916 14.3871 15.368C15.1041 16.2499 15.9982 16.9714 17.0118 17.4857C18.0253 18 19.1355 18.2957 20.2706 18.3536C20.2266 18.1411 20.1997 17.9208 20.1997 17.6998C20.1995 17.3251 20.2732 16.954 20.4165 16.6078C20.5598 16.2615 20.77 15.9469 21.035 15.6819C21.3 15.417 21.6146 15.2068 21.9608 15.0635C22.3071 14.9202 22.6782 14.8465 23.0529 14.8467C23.8746 14.8467 24.6162 15.1909 25.1375 15.7477C25.7763 15.6242 26.3888 15.391 26.948 15.0585C26.7351 15.7178 26.2891 16.2769 25.6936 16.631C26.2601 16.5664 26.8137 16.4174 27.3362 16.189C26.946 16.7578 26.4625 17.2567 25.9061 17.6644Z" fill="white"/>
</symbol>

<symbol id="icon-send" viewBox="0 0 17 17" >
<path d="M14.721 2.2785C14.6493 2.20714 14.5587 2.15773 14.4599 2.13608C14.3611 2.11444 14.2581 2.12146 14.1632 2.15631L2.47566 6.40631C2.37486 6.44454 2.28808 6.51253 2.22685 6.60125C2.16561 6.68997 2.13281 6.79523 2.13281 6.90303C2.13281 7.01083 2.16561 7.11608 2.22685 7.2048C2.28808 7.29352 2.37486 7.36152 2.47566 7.39975L7.03909 9.22193L10.4072 5.84318L11.1563 6.59225L7.77222 9.97631L9.59972 14.5397C9.63909 14.6386 9.70723 14.7233 9.79532 14.783C9.88341 14.8427 9.98738 14.8745 10.0938 14.8744C10.2011 14.8722 10.3053 14.8375 10.3926 14.775C10.4798 14.7124 10.546 14.6248 10.5825 14.5238L14.8325 2.83631C14.8687 2.74232 14.8775 2.63998 14.8577 2.54121C14.838 2.44245 14.7905 2.35134 14.721 2.2785Z" fill="white"/>
</symbol>

<symbol id="icon-filled-heart" width="25" height="22" viewBox="0 0 25 22" fill="none" xmlns="http://www.w3.org/2000/svg" >
<mask id="path-1-inside-1_273:32" fill="white">
<path d="M6.25 0.5625C9.70312 0.5625 12.5 4 12.5 4C12.5 4 15.2969 0.5625 18.75 0.5625C22.2031 0.5625 25 3.30469 25 6.6875C25 11.7859 19.9469 13.5844 13.1125 21.7C13.0373 21.7891 12.9435 21.8608 12.8377 21.9099C12.7319 21.959 12.6166 21.9845 12.5 21.9845C12.3834 21.9845 12.2681 21.959 12.1623 21.9099C12.0565 21.8608 11.9627 21.7891 11.8875 21.7C5.05312 13.5844 0 11.7859 0 6.6875C0 3.30469 2.79688 0.5625 6.25 0.5625Z"/>
</mask>
<path d="M6.25 0.5625C9.70312 0.5625 12.5 4 12.5 4C12.5 4 15.2969 0.5625 18.75 0.5625C22.2031 0.5625 25 3.30469 25 6.6875C25 11.7859 19.9469 13.5844 13.1125 21.7C13.0373 21.7891 12.9435 21.8608 12.8377 21.9099C12.7319 21.959 12.6166 21.9845 12.5 21.9845C12.3834 21.9845 12.2681 21.959 12.1623 21.9099C12.0565 21.8608 11.9627 21.7891 11.8875 21.7C5.05312 13.5844 0 11.7859 0 6.6875C0 3.30469 2.79688 0.5625 6.25 0.5625Z" fill="#FF656B"/>
<path d="M12.5 4L10.9486 5.26225L12.5 7.16895L14.0514 5.26225L12.5 4ZM13.1125 21.7L14.6408 22.9901L14.6423 22.9883L13.1125 21.7ZM11.8875 21.7L10.3577 22.9883L10.3592 22.9901L11.8875 21.7ZM6.25 2.5625C7.33711 2.5625 8.47114 3.12229 9.45983 3.87363C9.9308 4.23154 10.3158 4.59278 10.5814 4.86352C10.7131 4.99779 10.8126 5.10684 10.8757 5.17809C10.9071 5.21364 10.9293 5.23952 10.9417 5.25414C10.9479 5.26144 10.9516 5.26591 10.9528 5.26733C10.9534 5.26804 10.9533 5.26799 10.9526 5.26715C10.9523 5.26673 10.9518 5.26612 10.9511 5.2653C10.9508 5.26489 10.9504 5.26443 10.95 5.26393C10.9498 5.26367 10.9495 5.26325 10.9493 5.26312C10.949 5.26269 10.9486 5.26225 12.5 4C14.0514 2.73775 14.051 2.73728 14.0506 2.7368C14.0504 2.73662 14.05 2.73612 14.0497 2.73576C14.0492 2.73504 14.0485 2.73427 14.0479 2.73345C14.0465 2.7318 14.045 2.72993 14.0433 2.72786C14.0399 2.72372 14.0358 2.71874 14.031 2.71295C14.0213 2.70136 14.0089 2.68653 13.9938 2.66865C13.9635 2.63292 13.9222 2.58495 13.8705 2.5265C13.7671 2.40976 13.6211 2.25026 13.4367 2.06226C13.07 1.68847 12.5399 1.19034 11.88 0.688873C10.607 -0.278545 8.61602 -1.4375 6.25 -1.4375V2.5625ZM12.5 4C14.0514 5.26225 14.051 5.26269 14.0507 5.26312C14.0505 5.26325 14.0502 5.26367 14.05 5.26393C14.0496 5.26443 14.0492 5.26489 14.0489 5.2653C14.0482 5.26612 14.0477 5.26673 14.0474 5.26715C14.0467 5.26799 14.0466 5.26804 14.0472 5.26733C14.0484 5.26591 14.0521 5.26144 14.0583 5.25414C14.0707 5.23952 14.0929 5.21364 14.1243 5.17809C14.1874 5.10684 14.2869 4.99779 14.4186 4.86352C14.6842 4.59278 15.0692 4.23154 15.5402 3.87363C16.5289 3.12229 17.6629 2.5625 18.75 2.5625V-1.4375C16.384 -1.4375 14.393 -0.278545 13.12 0.688873C12.4601 1.19034 11.93 1.68847 11.5633 2.06226C11.3789 2.25026 11.2329 2.40976 11.1295 2.5265C11.0778 2.58495 11.0365 2.63292 11.0062 2.66865C10.9911 2.68653 10.9787 2.70136 10.969 2.71295C10.9642 2.71874 10.9601 2.72372 10.9567 2.72786C10.955 2.72993 10.9535 2.7318 10.9521 2.73345C10.9515 2.73427 10.9508 2.73504 10.9503 2.73576C10.95 2.73612 10.9496 2.73662 10.9494 2.7368C10.949 2.73728 10.9486 2.73775 12.5 4ZM18.75 2.5625C21.1366 2.5625 23 4.44689 23 6.6875H27C27 2.16248 23.2697 -1.4375 18.75 -1.4375V2.5625ZM23 6.6875C23 8.39555 22.2463 9.62231 20.2104 11.6427C18.2267 13.6112 15.0738 16.2661 11.5827 20.4117L14.6423 22.9883C17.9856 19.0183 20.7764 16.7162 23.0279 14.4819C25.2271 12.2996 27 10.0779 27 6.6875H23ZM11.5842 20.4099C11.6967 20.2766 11.837 20.1695 11.9951 20.096L13.6802 23.7238C14.05 23.552 14.3778 23.3016 14.6408 22.9901L11.5842 20.4099ZM11.9951 20.096C12.1533 20.0226 12.3256 19.9845 12.5 19.9845V23.9845C12.9077 23.9845 13.3105 23.8955 13.6802 23.7238L11.9951 20.096ZM12.5 19.9845C12.6744 19.9845 12.8467 20.0226 13.0049 20.096L11.3198 23.7238C11.6895 23.8955 12.0923 23.9845 12.5 23.9845V19.9845ZM13.0049 20.096C13.163 20.1695 13.3033 20.2766 13.4158 20.4099L10.3592 22.9901C10.6222 23.3016 10.95 23.552 11.3198 23.7238L13.0049 20.096ZM13.4173 20.4117C9.9262 16.2661 6.77331 13.6112 4.78963 11.6427C2.75368 9.62231 2 8.39555 2 6.6875H-2C-2 10.0779 -0.227119 12.2996 1.97209 14.4819C4.22357 16.7162 7.01442 19.0183 10.3577 22.9883L13.4173 20.4117ZM2 6.6875C2 4.44689 3.86343 2.5625 6.25 2.5625V-1.4375C1.73032 -1.4375 -2 2.16248 -2 6.6875H2Z" fill="#FF656B" mask="url(#path-1-inside-1_273:32)"/>
</symbol>

<symbol id="icon-shallow-heart" width="30" height="31" viewBox="0 0 30 31" fill="none" xmlns="http://www.w3.org/2000/svg" >
<mask id="path-1-inside-1_273:34" fill="white">
<path d="M9.25 4.5625C12.7031 4.5625 15.5 8 15.5 8C15.5 8 18.2969 4.5625 21.75 4.5625C25.2031 4.5625 28 7.30469 28 10.6875C28 15.7859 22.9469 17.5844 16.1125 25.7C16.0373 25.7891 15.9435 25.8608 15.8377 25.9099C15.7319 25.959 15.6166 25.9845 15.5 25.9845C15.3834 25.9845 15.2681 25.959 15.1623 25.9099C15.0565 25.8608 14.9627 25.7891 14.8875 25.7C8.05312 17.5844 3 15.7859 3 10.6875C3 7.30469 5.79688 4.5625 9.25 4.5625Z"/>
</mask>
<path d="M9.25 4.5625C12.7031 4.5625 15.5 8 15.5 8C15.5 8 18.2969 4.5625 21.75 4.5625C25.2031 4.5625 28 7.30469 28 10.6875C28 15.7859 22.9469 17.5844 16.1125 25.7C16.0373 25.7891 15.9435 25.8608 15.8377 25.9099C15.7319 25.959 15.6166 25.9845 15.5 25.9845C15.3834 25.9845 15.2681 25.959 15.1623 25.9099C15.0565 25.8608 14.9627 25.7891 14.8875 25.7C8.05312 17.5844 3 15.7859 3 10.6875C3 7.30469 5.79688 4.5625 9.25 4.5625Z" fill="white"/>
<path d="M15.5 8L13.9486 9.26225L15.5 11.169L17.0514 9.26225L15.5 8ZM16.1125 25.7L17.6408 26.9901L17.6423 26.9883L16.1125 25.7ZM14.8875 25.7L13.3577 26.9883L13.3592 26.9901L14.8875 25.7ZM9.25 6.5625C10.3371 6.5625 11.4711 7.12229 12.4598 7.87363C12.9308 8.23154 13.3158 8.59278 13.5814 8.86352C13.7131 8.99779 13.8126 9.10684 13.8757 9.17809C13.9071 9.21364 13.9293 9.23952 13.9417 9.25414C13.9479 9.26144 13.9516 9.26591 13.9528 9.26733C13.9534 9.26804 13.9533 9.26799 13.9526 9.26715C13.9523 9.26673 13.9518 9.26612 13.9511 9.2653C13.9508 9.26489 13.9504 9.26443 13.95 9.26393C13.9498 9.26367 13.9495 9.26325 13.9493 9.26312C13.949 9.26269 13.9486 9.26225 15.5 8C17.0514 6.73775 17.051 6.73728 17.0506 6.7368C17.0504 6.73662 17.05 6.73612 17.0497 6.73576C17.0492 6.73504 17.0485 6.73427 17.0479 6.73345C17.0465 6.7318 17.045 6.72993 17.0433 6.72786C17.0399 6.72372 17.0358 6.71874 17.031 6.71295C17.0213 6.70136 17.0089 6.68653 16.9938 6.66865C16.9635 6.63292 16.9222 6.58495 16.8705 6.5265C16.7671 6.40976 16.6211 6.25026 16.4367 6.06226C16.07 5.68847 15.5399 5.19034 14.88 4.68887C13.607 3.72146 11.616 2.5625 9.25 2.5625V6.5625ZM15.5 8C17.0514 9.26225 17.051 9.26269 17.0507 9.26312C17.0505 9.26325 17.0502 9.26367 17.05 9.26393C17.0496 9.26443 17.0492 9.26489 17.0489 9.2653C17.0482 9.26612 17.0477 9.26673 17.0474 9.26715C17.0467 9.26799 17.0466 9.26804 17.0472 9.26733C17.0484 9.26591 17.0521 9.26144 17.0583 9.25414C17.0707 9.23952 17.0929 9.21364 17.1243 9.17809C17.1874 9.10684 17.2869 8.99779 17.4186 8.86352C17.6842 8.59278 18.0692 8.23154 18.5402 7.87363C19.5289 7.12229 20.6629 6.5625 21.75 6.5625V2.5625C19.384 2.5625 17.393 3.72146 16.12 4.68887C15.4601 5.19034 14.93 5.68847 14.5633 6.06226C14.3789 6.25026 14.2329 6.40976 14.1295 6.5265C14.0778 6.58495 14.0365 6.63292 14.0062 6.66865C13.9911 6.68653 13.9787 6.70136 13.969 6.71295C13.9642 6.71874 13.9601 6.72372 13.9567 6.72786C13.955 6.72993 13.9535 6.7318 13.9521 6.73345C13.9515 6.73427 13.9508 6.73504 13.9503 6.73576C13.95 6.73612 13.9496 6.73662 13.9494 6.7368C13.949 6.73728 13.9486 6.73775 15.5 8ZM21.75 6.5625C24.1366 6.5625 26 8.44689 26 10.6875H30C30 6.16248 26.2697 2.5625 21.75 2.5625V6.5625ZM26 10.6875C26 12.3955 25.2463 13.6223 23.2104 15.6427C21.2267 17.6112 18.0738 20.2661 14.5827 24.4117L17.6423 26.9883C20.9856 23.0183 23.7764 20.7162 26.0279 18.4819C28.2271 16.2996 30 14.0779 30 10.6875H26ZM14.5842 24.4099C14.6967 24.2766 14.837 24.1695 14.9951 24.096L16.6802 27.7238C17.05 27.552 17.3778 27.3016 17.6408 26.9901L14.5842 24.4099ZM14.9951 24.096C15.1533 24.0226 15.3256 23.9845 15.5 23.9845V27.9845C15.9077 27.9845 16.3105 27.8955 16.6802 27.7238L14.9951 24.096ZM15.5 23.9845C15.6744 23.9845 15.8467 24.0226 16.0049 24.096L14.3198 27.7238C14.6895 27.8955 15.0923 27.9845 15.5 27.9845V23.9845ZM16.0049 24.096C16.163 24.1695 16.3033 24.2766 16.4158 24.4099L13.3592 26.9901C13.6222 27.3016 13.95 27.552 14.3198 27.7238L16.0049 24.096ZM16.4173 24.4117C12.9262 20.2661 9.77331 17.6112 7.78963 15.6427C5.75368 13.6223 5 12.3955 5 10.6875H1C1 14.0779 2.77288 16.2996 4.97209 18.4819C7.22357 20.7162 10.0144 23.0183 13.3577 26.9883L16.4173 24.4117ZM5 10.6875C5 8.44689 6.86343 6.5625 9.25 6.5625V2.5625C4.73032 2.5625 1 6.16248 1 10.6875H5Z" fill="#FF656B" mask="url(#path-1-inside-1_273:34)"/>
</symbol>

<symbol id="icon-line-diamond-white" viewBox="0 0 197 20" >
<path d="M0 10L197 10" stroke="#FF656B"/>
<path d="M91.1016 9.89954C96.3526 7.93026 98.7615 6.00518 101.001 4.13656e-05C102.88 6.19696 105.046 8.36573 110.901 9.89954C104.617 12.2317 102.896 14.8022 101.001 19.799C99.3203 14.4298 97.1828 12.2416 91.1016 9.89954Z" fill="#FF656B"/>
</symbol>

<symbol id="icon-diamond-vertical" viewBox="0 0 20 37" >
<path d="M10 27L10 -1.2815e-06" stroke="#FF656B"/>
<path d="M9.90039 36.8984C7.93112 31.6474 6.00604 29.2385 0.000895858 26.9989C6.19781 25.1205 8.36659 22.9545 9.90039 17.0994C12.2325 23.3829 14.8031 25.1039 19.7999 26.9989C14.4306 28.6797 12.2425 30.8172 9.90039 36.8984Z" fill="#FF656B"/>
</symbol>

<symbol id="icon-cake" viewBox="0 0 50 50" >
<path d="M29.7082 24.0349C30.2322 23.9806 30.7545 23.9116 31.2746 23.8279V20.1553C30.4746 20.5373 29.6402 20.7732 28.8105 20.956C26.7066 21.3959 24.5668 21.4474 22.4465 21.2256C21.3777 21.0904 20.3488 20.9139 19.2832 20.5349C19.0723 20.4553 18.8629 20.3662 18.6543 20.2662V23.5678C22.3121 24.167 26.0316 24.4209 29.7082 24.0349" fill="#3F3F3F"/>
<path d="M43.9836 32.8023V19.407C43.9836 17.8539 42.9164 16.4078 41.0906 15.1828V9.31641C41.0906 8.74219 40.6352 8.26719 40.0422 8.17734C40.4773 7.99297 40.7852 7.6125 40.7852 7.15469C40.7852 6.51953 39.4945 4.46953 39.4945 4.46953C39.4945 4.46953 38.2023 6.51875 38.2023 7.15469C38.2023 7.60625 38.5031 7.98359 38.9297 8.17109C38.3031 8.23359 37.8117 8.72031 37.8117 9.31641V13.5234C36.6677 13.0871 35.4958 12.7277 34.3039 12.4477C34.3654 12.3 34.3981 12.142 34.4 11.982C34.4 11.2141 32.8375 8.73672 32.8375 8.73672C32.8375 8.73672 31.4078 11.0055 31.2875 11.8727C29.757 11.6469 28.1281 11.5156 26.4477 11.4625V5.83359C26.4477 5.31719 26.0477 4.88594 25.5195 4.79141C25.8797 4.62344 26.1313 4.29844 26.1313 3.91172C26.1305 3.35547 25 1.5625 25 1.5625C25 1.5625 23.8695 3.35547 23.8695 3.91172C23.8695 4.29375 24.1148 4.61563 24.468 4.78516C23.9109 4.85703 23.4789 5.29688 23.4789 5.83359V11.4633C21.8359 11.518 20.243 11.6477 18.7445 11.868C18.5977 10.9812 17.1969 8.75937 17.1969 8.75937C17.1969 8.75937 15.6344 11.2359 15.6344 12.0047C15.6344 12.1586 15.6695 12.3039 15.7211 12.4422C14.49 12.7293 13.2805 13.1024 12.1016 13.5586V9.32812C12.1016 8.75469 11.6453 8.27969 11.0516 8.18984C11.4867 8.00547 11.7961 7.62422 11.7961 7.16641C11.7961 6.53125 10.5039 4.48125 10.5039 4.48125C10.5039 4.48125 9.21172 6.53047 9.21172 7.16641C9.21172 7.61797 9.51328 7.99531 9.93984 8.18281C9.3125 8.24609 8.82109 8.73281 8.82109 9.32812V15.2453C7.05 16.4578 6.01484 17.8812 6.01484 19.4078V32.8047C3.21641 34.4266 1.5625 36.4219 1.5625 38.5805C1.5625 44.025 12.0562 48.4375 25 48.4375C37.9438 48.4375 48.4375 44.025 48.4375 38.5805C48.4375 36.4211 46.7828 34.4258 43.9836 32.8023V32.8023ZM38.8477 7.76797C38.8477 7.45 39.4945 6.425 39.4945 6.425C39.4945 6.425 40.1414 7.45 40.1414 7.76797C40.14 7.84477 40.1218 7.92033 40.0882 7.98941C40.0546 8.05849 40.0064 8.11942 39.9469 8.16797C39.9109 8.16484 39.8758 8.15781 39.8391 8.15781H39.0641C39.0539 8.15781 39.0453 8.16016 39.0352 8.16016C38.9776 8.11203 38.9311 8.05211 38.8988 7.98445C38.8664 7.91678 38.849 7.84296 38.8477 7.76797ZM38.5922 9.31641C38.5922 9.11172 38.8078 8.93984 39.0641 8.93984H39.8391C40.0937 8.93984 40.3094 9.1125 40.3094 9.31641V17.7516C40.3081 17.8343 40.2757 17.9135 40.2187 17.9734L39.9312 18.1203C39.9011 18.1257 39.8705 18.1286 39.8398 18.1289H39.0648C38.8094 18.1289 38.593 17.9555 38.593 17.7516V9.31641H38.5922ZM32.8367 11.1008C32.8367 11.1008 33.6195 12.3391 33.6195 12.7234C33.6195 13.107 33.2687 13.4188 32.8367 13.4188C32.4047 13.4188 32.0555 13.1078 32.0555 12.7234C32.0555 12.3391 32.8367 11.1008 32.8367 11.1008V11.1008ZM24.4352 4.44766C24.4352 4.17031 25 3.27422 25 3.27422C25 3.27422 25.5664 4.16953 25.5664 4.44766C25.565 4.51084 25.5506 4.57306 25.5241 4.63045C25.4976 4.68784 25.4597 4.73917 25.4125 4.78125C25.375 4.77734 25.3391 4.77031 25.3008 4.77031H24.6234C24.6094 4.77031 24.5969 4.77344 24.5828 4.77422C24.5374 4.7326 24.5009 4.6822 24.4755 4.62607C24.4501 4.56994 24.4364 4.50924 24.4352 4.44766V4.44766ZM24.2602 5.83359C24.2602 5.68125 24.4266 5.55234 24.6234 5.55234H25.3008C25.4984 5.55234 25.6656 5.68125 25.6656 5.83359V13.2148C25.6648 13.2714 25.6431 13.3256 25.6047 13.3672L25.3664 13.4898C25.3447 13.493 25.3227 13.4946 25.3008 13.4945H24.6234C24.4266 13.4945 24.2602 13.3664 24.2602 13.2148V5.83359V5.83359ZM17.1969 11.1219C17.1969 11.1219 17.9781 12.3609 17.9781 12.7453C17.9781 13.1281 17.6289 13.4406 17.1969 13.4406C16.7648 13.4406 16.4156 13.1289 16.4156 12.7453C16.4156 12.3609 17.1969 11.1219 17.1969 11.1219ZM9.85859 7.77813C9.85859 7.46172 10.5039 6.43672 10.5039 6.43672C10.5039 6.43672 11.1508 7.46172 11.1508 7.77813C11.1495 7.85525 11.1313 7.93116 11.0976 8.00053C11.0638 8.0699 11.0153 8.13105 10.9555 8.17969C10.9195 8.17656 10.8852 8.16953 10.8484 8.16953H10.0734C10.0641 8.16953 10.0555 8.17188 10.0461 8.17188C9.98864 8.12335 9.9422 8.06312 9.90987 7.99522C9.87754 7.92733 9.86006 7.85331 9.85859 7.77813V7.77813ZM9.60234 9.32656C9.60234 9.12266 9.81797 8.95078 10.0742 8.95078H10.8492C11.1047 8.95078 11.3211 9.12344 11.3211 9.32656V17.7625C11.3196 17.8449 11.2869 17.9236 11.2297 17.9828L10.9422 18.1305C10.9117 18.1359 10.8809 18.1387 10.85 18.1391H10.075C9.81953 18.1391 9.60312 17.9664 9.60312 17.7625V9.32656H9.60234ZM8.73984 18.4227C8.76563 18.2898 8.81719 18.1687 8.86328 18.0453C8.91484 18.2344 9.01641 18.4039 9.15469 18.5438C9.09375 18.9898 9.20313 19.4422 9.44141 19.8336C9.94844 20.6484 10.8164 21.2187 11.7008 21.6719C12.9391 22.2883 14.2719 22.6812 15.6344 22.9906V15.0383C15.6344 14.8313 15.7336 14.65 15.8789 14.5008C15.6539 14.5445 15.4273 14.5773 15.2039 14.6273C14.1531 14.8664 13.0844 15.1828 12.1016 15.6398V15.2266C12.1133 15.2211 12.1242 15.2148 12.1359 15.2102C13.0953 14.7812 14.0961 14.4664 15.1109 14.2258C17.1445 13.7551 19.2187 13.4815 21.3047 13.4086C22.0352 13.3813 22.7672 13.3852 23.5 13.4031C23.5758 13.7875 23.8742 14.0953 24.2656 14.2164C23.2849 14.1152 22.3 14.0597 21.3141 14.05C20.156 14.0444 18.9985 14.0986 17.8461 14.2125C18.3063 14.3016 18.6547 14.6281 18.6547 15.0383V16.4695L18.6961 16.4492C19.232 16.2164 19.7625 16.082 20.2984 15.9805C21.368 15.7836 22.4391 15.7406 23.5055 15.8016C24.5773 15.8758 25.6242 16.0242 26.6711 16.4703C26.9289 16.5875 27.1859 16.7305 27.4242 16.9461C27.65 17.1437 27.9148 17.5273 27.8086 17.9664C27.6953 18.3758 27.4133 18.5836 27.1727 18.743C26.9286 18.8926 26.6652 19.0083 26.3898 19.0867C25.3297 19.3937 24.257 19.3906 23.2078 19.257C22.682 19.1734 22.1695 19.0766 21.6695 18.8352C21.4375 18.7086 21.1625 18.5547 21.0812 18.2281C21.0367 17.868 21.3469 17.6805 21.5625 17.5664L21.6188 17.6687C21.4125 17.7937 21.2078 17.9984 21.2672 18.1875C21.3266 18.3766 21.5602 18.5078 21.7773 18.5992C22.225 18.7781 22.75 18.843 23.2461 18.8805C24.25 18.9344 25.2867 18.8391 26.2023 18.5242C26.6133 18.3922 27.1242 18.0547 27.1445 17.8211C27.2086 17.6539 26.8023 17.3211 26.3711 17.175C25.4922 16.8516 24.4508 16.7531 23.4656 16.7164C22.4687 16.6937 21.4609 16.7703 20.5016 16.982C20.0258 17.0883 19.5539 17.2305 19.1469 17.425C18.9744 17.5078 18.8097 17.6059 18.6547 17.718V18.9031C18.9453 19.1047 19.3102 19.2719 19.6883 19.4047C20.5766 19.7086 21.6016 19.8789 22.5828 19.9836C24.5711 20.1938 26.6133 20.1266 28.5664 19.7602C29.5266 19.5711 30.4773 19.3016 31.275 18.8453V16.0313C30.9609 15.8438 30.6289 15.6719 30.2781 15.525C29.3742 15.1461 28.3938 14.8953 27.3961 14.6852C26.5268 14.5145 25.6512 14.3784 24.7711 14.2773H25.3023C25.4 14.2773 25.4969 14.2656 25.5914 14.2422L26.0164 14.0359L26.0977 13.9805C26.2172 13.8727 26.307 13.7453 26.3664 13.6063C26.768 13.6555 27.1687 13.7039 27.5687 13.7727C28.5992 13.9531 29.6406 14.1797 30.6609 14.5656C30.882 14.6484 31.1008 14.7445 31.318 14.8477C31.4164 14.4562 31.8164 14.1547 32.318 14.1547H33.2547C33.8297 14.1547 34.2969 14.5422 34.2969 15.0188V23.1484C36.7078 22.4352 38.9906 21.3094 40.9125 19.6164L40.9938 19.7C39.5891 21.2352 37.8031 22.4297 35.8813 23.2688C35.3617 23.493 34.8328 23.6937 34.2977 23.8773V24.5312C34.2977 24.7687 34.182 24.9852 33.9938 25.1406L33.525 25.3656C33.4362 25.3851 33.3456 25.3953 33.2547 25.3961H32.318C31.8078 25.3961 31.4023 25.0859 31.3125 24.6828C30.818 24.782 30.3203 24.8672 29.8219 24.9359C26.1008 25.4461 22.318 25.268 18.6453 24.5922C18.6382 24.7021 18.6085 24.8093 18.5583 24.9073C18.508 25.0052 18.4382 25.0918 18.3531 25.1617L17.8844 25.3859C17.7992 25.4047 17.707 25.4172 17.6141 25.4172H16.6773C16.1008 25.4172 15.6352 25.0297 15.6352 24.5523V23.9109C14.1742 23.5117 12.7297 23.0047 11.3914 22.2461C10.4813 21.7109 9.57031 21.0594 9.02266 20.0711C8.75547 19.5805 8.62344 18.9852 8.73984 18.4227V18.4227ZM42.4211 36.982C42.4211 40.0141 34.9711 43.4047 25 43.4047C15.0281 43.4047 7.57734 40.0141 7.57734 36.982V33.8773C8.34609 33.8359 8.96016 33.2789 8.96016 32.5922V29.5805C8.96016 28.632 9.83437 27.8633 10.9133 27.8633C11.9922 27.8633 12.868 28.632 12.868 29.5805V33.2961C12.868 34.3992 13.8859 35.2945 15.1398 35.2945C16.3953 35.2945 17.4133 34.3992 17.4133 33.2961V29.5C17.4133 28.507 18.3289 27.7031 19.4578 27.7031C20.5883 27.7031 21.5039 28.507 21.5039 29.5V31.9203C21.5039 32.4727 22.0117 32.9195 22.6406 32.9195C23.268 32.9195 23.7758 32.4727 23.7758 31.9203V30C23.7758 29.2828 24.4383 28.7016 25.2547 28.7016C26.0695 28.7016 26.7305 29.2828 26.7305 30V33.2969C26.7305 34.4 27.75 35.2953 29.0039 35.2953C30.2594 35.2953 31.2773 34.4 31.2773 33.2969V29.6016C31.2773 28.6641 32.1422 27.9031 33.2094 27.9031C34.2766 27.9031 35.1414 28.6641 35.1414 29.6016V32.2984C35.1414 32.85 35.6492 33.2969 36.2781 33.2969C36.9055 33.2969 37.4148 32.85 37.4148 32.2984V30.4102C37.4148 29.9187 37.8664 29.5203 38.425 29.5203C38.9852 29.5203 39.4383 29.9187 39.4383 30.4102V33.2969C39.4383 34.4 40.4547 35.2953 41.7102 35.2953C41.9602 35.2953 42.1961 35.2508 42.4211 35.1852V36.982" fill="#3F3F3F"/>
</symbol>

<symbol id="icon-car" viewBox="0 0 50 50" >
<path d="M42.8548 22.2083C42.5632 21.375 41.7715 20.8333 40.834 20.8333H25.8548C24.8965 20.8333 24.1257 21.375 23.8132 22.2083L20.834 30.7708L20.8548 42.25C20.8548 43.0416 21.5007 43.75 22.2923 43.75H23.584C24.3757 43.75 25.0007 42.9583 25.0007 42.1666V39.5833H41.6673V42.1666C41.6673 42.9583 42.3132 43.75 43.1048 43.75H44.3757C45.1673 43.75 45.8132 43.0416 45.8132 42.25L45.834 39.3958V30.7708L42.8548 22.2083V22.2083ZM25.8548 22.9166H40.834L42.9798 29.1666H23.709L25.8548 22.9166V22.9166ZM25.0007 35.4166C23.8548 35.4166 22.9173 34.4791 22.9173 33.3333C22.9173 32.1875 23.8548 31.25 25.0007 31.25C26.1465 31.25 27.084 32.1875 27.084 33.3333C27.084 34.4791 26.1465 35.4166 25.0007 35.4166ZM41.6673 35.4166C40.5215 35.4166 39.584 34.4791 39.584 33.3333C39.584 32.1875 40.5215 31.25 41.6673 31.25C42.8132 31.25 43.7507 32.1875 43.7507 33.3333C43.7507 34.4791 42.8132 35.4166 41.6673 35.4166Z" fill="#3F3F3F"/>
<path d="M29.166 18.75H31.2493V6.25H14.5827V16.6667H4.16602V43.75H6.24935V18.75H16.666V8.33333H29.166V18.75Z" fill="#3F3F3F"/>
<path d="M10.416 22.9167H14.5827V27.0833H10.416V22.9167ZM20.8327 10.4167H24.9994V14.5833H20.8327V10.4167ZM10.416 31.25H14.5827V35.4167H10.416V31.25ZM10.416 39.5833H14.5827V43.75H10.416V39.5833Z" fill="#3F3F3F"/>
</symbol>


<symbol id="icon-plant" viewBox="0 0 50 50" >
<path d="M5.41217 31.6357C5.41217 31.6357 6.9192 25.2459 10.3692 21.999C10.9754 21.4287 11.4598 20.8818 11.8458 20.3623C12.2528 21.9522 12.7614 23.5022 13.2669 25.024C14.1512 27.6412 15.0411 30.2045 15.7497 32.7873C15.9372 33.4584 16.1106 34.1318 16.2731 34.8053L12.6606 36.4311L16.727 36.8967C17.4851 40.6944 17.8044 44.5667 17.6786 48.4373H22.3989C22.2481 42.8311 21.1801 37.2311 19.3387 31.9264C18.4348 29.2701 17.3598 26.6873 16.3294 24.1467C16.0504 23.4506 15.7754 22.7584 15.5114 22.0662L18.5489 19.8318L14.8387 20.199C14.4301 18.9865 14.0864 17.774 13.8653 16.5561C13.3856 14.0217 13.5544 11.4607 14.4372 9.0045C14.8614 7.78028 15.434 6.59747 16.2379 5.567C17.0333 4.53575 18.0739 3.65919 19.3254 3.15137C20.6164 2.62972 22.0414 2.53929 23.3879 2.89356C24.4911 3.17559 25.5044 3.73887 26.37 4.45997L26.3676 4.46153C16.6872 9.75059 22.8239 20.2889 22.8239 20.2889C22.8239 20.2889 22.9333 18.8725 23.3083 16.9592C23.7115 17.9059 24.258 18.7849 24.9286 19.5654C28.9145 24.2162 29.7262 29.624 29.7348 29.6779L29.9512 31.2037L30.784 30.0818C30.8419 30.0045 31.484 29.1264 32.3184 27.6584C33.8903 28.5115 35.395 28.8178 35.4669 28.8318L36.1598 28.9678L36.0879 28.2139C36.0387 27.6857 36.134 27.1076 36.3278 26.4982C38.577 27.0818 40.4333 26.7795 40.5161 26.7662L41.3075 26.6318L40.8497 25.8443C40.8434 25.8318 40.1497 24.5873 40.0372 22.6092C41.8114 22.8928 42.6293 23.3389 42.6387 23.3451L43.1239 23.6178L43.3786 23.1537C43.4059 23.1037 43.9872 21.9826 44.1278 20.2545C45.9864 19.974 47.2333 19.6482 47.3676 19.6107L48.4372 19.3264L47.5044 18.5139C47.4723 18.4881 44.3911 15.7787 41.4723 10.3428C41.0578 9.57399 40.5812 8.8403 40.0473 8.14903C41.5426 8.6295 42.5379 9.03809 42.5379 9.03809C42.5379 9.03809 35.5208 -0.55722 27.6489 3.74356L27.0528 4.07637C26.1653 3.17559 25.0575 2.41231 23.7403 1.9709C22.1903 1.43497 20.3708 1.42247 18.7723 1.95059C17.1606 2.46934 15.8075 3.45606 14.7692 4.59434C13.7192 5.73575 12.952 7.03341 12.3567 8.36387C11.5536 10.1631 11.1364 12.1131 11.0567 14.0639C9.30045 13.9623 5.77857 14.3342 3.05279 18.324C-1.35268 24.7717 5.41217 31.6357 5.41217 31.6357V31.6357ZM39.2833 21.2475L39.4715 20.9725L39.6872 20.6561C40.7683 20.6258 41.8476 20.5465 42.9215 20.4186C42.8519 20.9526 42.7238 21.4774 42.5395 21.9834C41.9544 21.7553 40.8848 21.4287 39.2833 21.2475V21.2475ZM36.7926 25.3365C37.2364 24.3936 37.8426 23.4061 38.4833 22.4357C38.6129 22.4451 38.7403 22.4537 38.8629 22.4662C38.9112 23.528 39.1228 24.576 39.4903 25.5732C38.8645 25.6014 37.8848 25.5795 36.7926 25.3365V25.3365ZM32.8903 26.61C33.9195 24.6435 34.7547 22.5814 35.384 20.4529C36.3023 20.5712 37.2263 20.6403 38.152 20.66C36.6473 22.8686 35.0919 25.2834 34.9208 27.4225C34.2199 27.2161 33.54 26.9441 32.8903 26.61V26.61ZM24.2692 13.292C24.9864 15.2467 26.7715 17.7693 31.1848 19.4373C32.152 19.8037 33.1583 20.0678 34.1739 20.2584C33.0919 23.8107 31.4958 26.6506 30.5731 28.1217C30.0442 26.067 28.734 22.2467 25.7426 18.7576C24.7604 17.6107 24.0994 16.2241 23.827 14.7389C23.9583 14.2607 24.1051 13.7756 24.2692 13.292V13.292ZM28.3286 7.38809C30.7442 6.067 34.8247 6.70919 37.995 7.54825C38.9832 8.5323 39.8199 9.65758 40.4778 10.8873C42.5958 14.8365 44.7715 17.3811 45.9497 18.6092C43.4215 19.1373 36.702 20.2232 31.4583 18.2412C27.7294 16.8334 25.4481 14.5123 25.0325 11.7061C25.0192 11.617 25.0129 11.5272 25.0036 11.4381C25.8012 9.70528 26.8786 8.1795 28.3286 7.38809" fill="#3F3F3F"/>
<path d="M33.3024 35.4718C36.436 38.0585 42.6039 39.1874 42.6039 39.1874C42.6039 39.1874 35.9789 44.2601 29.7563 40.9562C24.418 38.1234 25.786 34.1319 25.786 34.1319C25.786 34.1319 28.7555 31.7171 33.3024 35.4718" fill="#3F3F3F"/>
</symbol>


<symbol id="icon-police" viewBox="0 0 50 50" >
<path d="M21.4883 13.8044C21.4883 11.1599 22.2773 9.01924 24.7773 9.01924C27.2734 9.01924 28.0664 11.1599 28.0664 13.8044H21.4883Z" fill="#3F3F3F"/>
<path d="M27.7578 14.8365H21.8008C21.1797 14.8365 20.6758 15.3404 20.6758 15.9575V18.0904C20.6758 18.7115 21.1758 19.2154 21.8008 19.2154H27.7617C28.3789 19.2154 28.8828 18.7115 28.8828 18.0904V15.9575C28.8806 15.6602 28.7612 15.3758 28.5506 15.1659C28.34 14.9561 28.0551 14.8377 27.7578 14.8365V14.8365Z" fill="#3F3F3F"/>
<path d="M19.2973 10.9417L14.2309 8.61749C14.0669 8.54327 13.8715 8.54717 13.7114 8.63702C13.5512 8.72296 13.4419 8.88702 13.4145 9.0667L12.9731 12.2464C12.9458 12.4261 13.0083 12.6097 13.1411 12.7386C13.2505 12.848 13.3989 12.9065 13.5512 12.9065C13.5825 12.9065 13.6098 12.9026 13.6411 12.8987L19.1411 12.0472C19.3989 12.0081 19.5942 11.8089 19.6294 11.5511C19.6645 11.2972 19.5278 11.0511 19.2973 10.9417Z" fill="#3F3F3F"/>
<path d="M36.1443 9.07007C36.1208 8.89039 36.0115 8.72632 35.8513 8.64039C35.6911 8.55054 35.4958 8.54273 35.3279 8.62085L30.2615 10.9451C30.0271 11.0505 29.8943 11.2966 29.9294 11.5505C29.9646 11.8044 30.1599 12.0037 30.4138 12.0466L35.9177 12.9021C35.949 12.906 35.9763 12.9099 36.0075 12.9099C36.156 12.9099 36.3044 12.8513 36.4138 12.7419C36.5427 12.613 36.6052 12.4294 36.5818 12.2498L36.1443 9.07007V9.07007Z" fill="#3F3F3F"/>
<path d="M47.6651 30.4919C45.837 28.6638 42.9776 28.0974 42.9776 28.0974C42.9776 28.0974 41.4816 24.2107 40.2237 22.5193C36.7901 17.9099 32.4972 16.8826 25.5401 16.8826C20.7316 16.8826 15.9581 17.0622 12.048 21.988C10.5519 23.8747 8.09875 28.0974 8.09875 28.0974C8.09875 28.0974 3.76671 28.5466 1.79015 30.7458C0.274528 32.4372 -0.440316 38.5505 1.56359 40.5505C3.255 42.2419 5.08312 43.1365 6.40734 43.281C6.40734 43.1286 6.41515 42.9802 6.43078 42.8318C6.47375 42.3747 6.57531 41.9333 6.72765 41.5154C7.46203 39.4919 9.39953 38.0388 11.6769 38.0388C13.9503 38.0388 15.8878 39.4919 16.6222 41.5193C16.8253 42.0779 16.9425 42.6794 16.9425 43.3083H33.0714C33.0714 42.6794 33.1886 42.0779 33.3917 41.5193C34.1261 39.4919 36.0636 38.0388 38.3409 38.0388C40.6144 38.0388 42.5519 39.4919 43.2862 41.5193C43.4855 42.074 43.6026 42.6755 43.6026 43.3005V43.3083H43.9308C45.9503 43.3083 47.6495 42.2927 48.712 40.5935C50.5401 37.6677 49.4933 32.3201 47.6651 30.4919V30.4919Z" fill="#3F3F3F"/>
<path d="M2.40234 33.7971C2.58203 32.9572 2.83594 32.2658 3.12109 31.9416C4.35156 30.5705 7.26953 29.9807 8.28516 29.8752C8.85156 29.8166 9.35938 29.4885 9.64844 28.9963C9.67188 28.9533 12.0508 24.8635 13.4531 23.0979C16.7148 18.9846 20.5195 18.6682 25.5391 18.6682C32.7969 18.6682 36.0117 19.8635 38.7891 23.5861C39.6992 24.8088 40.9141 27.7189 41.3047 28.7385C41.413 29.0185 41.59 29.2669 41.8193 29.4607C42.0486 29.6546 42.323 29.7877 42.6172 29.8479C42.6406 29.8557 44.9883 30.3518 46.3945 31.758C46.8008 32.1643 47.168 32.9064 47.4336 33.7971H2.40234Z" fill="white"/>
<path d="M11.6719 39.3832C10.1484 39.3832 8.84375 40.2582 8.19531 41.5199C7.93148 42.0239 7.78335 42.5803 7.76172 43.1488C7.76172 43.2035 7.74609 43.2543 7.74609 43.3089C7.74609 45.4769 9.50391 47.2347 11.6758 47.2347C13.8398 47.2347 15.5977 45.4769 15.5977 43.3089C15.5977 42.6605 15.4258 42.0589 15.1484 41.5199C14.4922 40.2582 13.1914 39.3832 11.6719 39.3832V39.3832Z" fill="#3F3F3F"/>
<path d="M38.3398 39.3832C36.8164 39.3832 35.5156 40.2582 34.8633 41.5199C34.582 42.0589 34.4102 42.6605 34.4102 43.3089C34.4102 45.4769 36.168 47.2347 38.3398 47.2347C40.5039 47.2347 42.2656 45.4769 42.2656 43.3089C42.2656 42.6605 42.0937 42.0589 41.8164 41.5199C41.1641 40.2582 39.8594 39.3832 38.3398 39.3832V39.3832Z" fill="#3F3F3F"/>
<path d="M22.1485 20.9687C21.6993 20.8555 18.461 21.0391 16.3595 23.3516C14.254 25.6601 13.0899 28.918 15.2462 28.918H21.4766C22.3516 28.918 23.0704 28.5469 23.0704 27.4336V22.8476C23.0665 21.9805 23.004 21.1836 22.1485 20.9687Z" fill="#3F3F3F"/>
<path d="M34.4102 22.2422C32.1602 20.7227 26.9375 20.8555 26.2891 20.9688C25.0469 21.1836 24.9531 21.9766 24.9531 22.8477V27.4336C24.9531 28.5469 25.9922 28.918 27.2617 28.918H36.2695C39.3867 28.918 37.582 24.379 34.4102 22.2422Z" fill="#3F3F3F"/>
</symbol>


<symbol id="icon-ring" viewBox="0 0 50 50" >
<path d="M40.625 10.938L40.1563 10.4692C37.5 7.50049 33.5938 6.56299 33.5938 6.56299C28.9062 5.15674 21.5625 8.28174 15.0031 14.6849C9.53438 19.8442 6.25 26.0942 6.25 30.7817C6.25 31.4114 6.40938 32.0333 6.40938 32.6567C6.72031 35.7817 8.75312 39.0646 10.4672 40.6271C12.6594 42.8114 15.4672 43.9114 18.5922 43.9114C23.7484 43.9114 29.8469 40.938 35.4672 35.6286C44.2203 27.0317 46.4063 16.8755 40.625 10.938ZM15.625 33.9067C15.625 31.8724 17.8094 27.6567 22.4969 22.9692C27.0328 18.438 31.7203 17.188 33.9047 16.7192C32.8125 19.6911 30.4688 23.2786 27.0328 26.7224C23.7484 29.8474 20.0016 32.3427 16.7172 33.5942C16.4063 33.7536 15.9359 33.7536 15.625 33.9067V33.9067ZM17.1875 16.8755C22.3437 11.7192 27.8125 9.21612 31.25 9.21612C32.3437 9.21612 33.2813 9.53487 33.9063 10.1567C34.5344 10.7786 34.8438 12.0317 34.6875 13.4411C32.8125 13.5927 26.4031 14.6849 20.3125 20.7833C16.4062 24.6896 12.3406 30.3099 12.6594 34.2161C11.7188 34.2161 10.7781 33.9052 10.3156 33.4349C9.99688 33.1239 9.68594 32.6536 9.53438 32.0317C9.53438 32.0317 9.375 31.2505 9.375 30.7817C9.53437 26.8755 12.5 21.4067 17.1875 16.8755V16.8755ZM33.2812 33.2817C25.7812 40.7849 17.1875 42.8099 12.6594 38.4411C12.3071 38.1094 11.9917 37.7406 11.7188 37.3411C12.0313 37.5005 12.5 37.5005 12.9688 37.5005C14.375 37.5005 16.0937 37.188 17.8094 36.5599C21.5641 35.1567 25.6219 32.5021 29.2172 28.9067C34.6859 23.438 37.8109 17.188 37.8109 12.6599L37.9703 12.8114L38.4391 13.1239C42.8094 17.6583 40.625 26.0927 33.2828 33.2833L33.2812 33.2817Z" fill="#3F3F3F"/>
</symbol>


<symbol id="icon-gift" viewBox="0 0 50 50" >
<path d="M31.2747 15.4902L40.8825 9.41179L31.4707 0L25.3923 13.5294L21.8629 2.94117L12.4512 9.21567L20.2943 15.4902H2.45117V28.0393H5.58842V50H44.4119V28.0392H47.5492V15.4902H31.2747ZM32.2645 4.12129L37.1893 9.04608L27.1435 15.4165L32.2645 4.12129V4.12129ZM20.6048 6.60775L23.3856 14.9501L16.4336 9.38854L20.6048 6.60775ZM21.8629 46.8628H8.72567V27.0565H21.8629V46.8628V46.8628ZM21.8629 24.9019H5.58842V18.6275H21.8629V24.9019V24.9019ZM41.2747 46.8628H28.1374V27.0565H41.2747V46.8628ZM44.4119 24.9019H28.1374V18.6275H44.4119V24.9019V24.9019Z" fill="#3F3F3F"/>
</symbol>

<symbol id="icon-email" viewBox="0 0 74 56" >
<path d="M58.75 11H17.9167C17.1431 11 16.4013 11.3073 15.8543 11.8543C15.3073 12.4013 15 13.1431 15 13.9167V43.0833C15 43.8569 15.3073 44.5987 15.8543 45.1457C16.4013 45.6927 17.1431 46 17.9167 46H58.75C59.5235 46 60.2654 45.6927 60.8124 45.1457C61.3594 44.5987 61.6667 43.8569 61.6667 43.0833V13.9167C61.6667 13.1431 61.3594 12.4013 60.8124 11.8543C60.2654 11.3073 59.5235 11 58.75 11ZM56.5042 43.0833H20.3375L30.5458 32.525L28.4458 30.4979L17.9167 41.3917V16.1333L36.0438 34.1729C36.5902 34.7161 37.3295 35.0211 38.1 35.0211C38.8705 35.0211 39.6098 34.7161 40.1562 34.1729L58.75 15.6813V41.2021L48.0167 30.4688L45.9604 32.525L56.5042 43.0833ZM19.8271 13.9167H56.3875L38.1 32.1021L19.8271 13.9167Z" fill="#3F3F3F"/>
</symbol>

<symbol id="icon-location" viewBox="0 0 56 58" >
<path fill-rule="evenodd" clip-rule="evenodd" d="M36.1872 16.3264C34.096 14.2346 31.2712 13.0412 28.3136 13H28.2016C25.2438 13.0406 22.4185 14.2336 20.3268 16.3253C18.2352 18.4169 17.0421 21.2422 17.0016 24.2C16.9652 26.3 17.556 28.3636 18.6984 30.1276L27.5128 48H29.0052L37.8168 30.1276C38.962 28.3636 39.5528 26.3 39.5136 24.2C39.4724 21.2424 38.279 18.4176 36.1872 16.3264ZM28.0476 15.8L28.2772 15.828L28.4844 15.8C30.684 15.8958 32.7633 16.8306 34.2949 18.4122C35.8265 19.9938 36.6941 22.1021 36.7192 24.3036C36.7406 25.8661 36.2844 27.3978 35.4116 28.694L35.3556 28.7892L35.308 28.8872L28.2576 43.1812L21.21 28.9012L21.1624 28.792L21.1064 28.6968C20.2336 27.4006 19.7774 25.8689 19.7988 24.3064C19.8227 22.1023 20.6912 19.9914 22.2254 18.4088C23.7596 16.8261 25.8425 15.8924 28.0448 15.8H28.0476ZM29.7612 21.8732C29.4554 21.6688 29.1124 21.5265 28.7517 21.4547C28.391 21.3828 28.0197 21.3827 27.6589 21.4543C27.2982 21.5259 26.9551 21.6679 26.6492 21.8721C26.3433 22.0764 26.0806 22.3389 25.8762 22.6446C25.6717 22.9503 25.5295 23.2934 25.4576 23.6541C25.3858 24.0148 25.3856 24.3861 25.4573 24.7469C25.5289 25.1076 25.6709 25.4507 25.8751 25.7566C26.0794 26.0625 26.3418 26.3252 26.6476 26.5296C27.2651 26.9425 28.0213 27.0932 28.7498 26.9485C29.4784 26.8038 30.1197 26.3757 30.5326 25.7582C30.9455 25.1407 31.0962 24.3845 30.9515 23.6559C30.8068 22.9274 30.3787 22.2861 29.7612 21.8732ZM25.0936 19.5436C25.7045 19.1141 26.3952 18.8112 27.1249 18.6526C27.8547 18.4941 28.6088 18.4831 29.3429 18.6203C30.0769 18.7575 30.7761 19.0401 31.3994 19.4515C32.0226 19.863 32.5572 20.3949 32.9718 21.016C33.3864 21.6372 33.6725 22.3349 33.8134 23.0683C33.9543 23.8017 33.9471 24.5558 33.7923 25.2864C33.6374 26.0169 33.338 26.7091 32.9116 27.3222C32.4852 27.9353 31.9405 28.4569 31.3096 28.8564C30.0745 29.6383 28.5826 29.9064 27.1526 29.6032C25.7226 29.3 24.4678 28.4497 23.6563 27.2339C22.8447 26.018 22.5408 24.533 22.8093 23.0961C23.0779 21.6592 23.8977 20.3843 25.0936 19.5436Z" fill="#3F3F3F"/>
</symbol>

<symbol id="icon-office" viewBox="0 0 66 60" >
<g clip-path="url(#clip0_101:1874)">
<path fill-rule="evenodd" clip-rule="evenodd" d="M48.2943 14.1638C48.4527 14.2618 48.5835 14.3986 48.6742 14.5613C48.765 14.724 48.8126 14.9072 48.8127 15.0935V47.9062C48.8127 48.1963 48.6975 48.4745 48.4924 48.6796C48.2873 48.8848 48.0091 49 47.719 49H41.1564C40.8664 49 40.5881 48.8848 40.383 48.6796C40.1779 48.4745 40.0627 48.1963 40.0627 47.9062V44.625H37.8752V47.9062C37.8752 48.1963 37.7599 48.4745 37.5548 48.6796C37.3497 48.8848 37.0715 49 36.7814 49H17.0938C16.8037 49 16.5255 48.8848 16.3204 48.6796C16.1152 48.4745 16 48.1963 16 47.9062V35.8749C16.0002 35.6454 16.0725 35.4218 16.2068 35.2358C16.341 35.0497 16.5304 34.9105 16.7481 34.838L29.1251 30.7124V23.8436C29.1251 23.6406 29.1816 23.4417 29.2882 23.269C29.3948 23.0963 29.5474 22.9567 29.7289 22.8657L47.229 14.1157C47.3959 14.0321 47.5814 13.9927 47.7679 14.0011C47.9544 14.0095 48.1356 14.0655 48.2943 14.1638ZM29.1251 33.018L18.1875 36.6624V46.8125H29.1251V33.018ZM31.3126 46.8125H35.6876V43.5312C35.6876 43.2411 35.8029 42.9629 36.008 42.7578C36.2131 42.5527 36.4913 42.4375 36.7814 42.4375H41.1564C41.4465 42.4375 41.7247 42.5527 41.9298 42.7578C42.135 42.9629 42.2502 43.2411 42.2502 43.5312V46.8125H46.6252V16.8632L31.3126 24.5195V46.8125Z" fill="#3F3F3F"/>
<path d="M20.375 38.0627H22.5625V40.2502H20.375V38.0627ZM24.75 38.0627H26.9375V40.2502H24.75V38.0627ZM20.375 42.4377H22.5625V44.6252H20.375V42.4377ZM24.75 42.4377H26.9375V44.6252H24.75V42.4377ZM33.5001 33.6877H35.6876V35.8752H33.5001V33.6877ZM37.8751 33.6877H40.0626V35.8752H37.8751V33.6877ZM33.5001 38.0627H35.6876V40.2502H33.5001V38.0627ZM37.8751 38.0627H40.0626V40.2502H37.8751V38.0627ZM42.2502 33.6877H44.4377V35.8752H42.2502V33.6877ZM42.2502 38.0627H44.4377V40.2502H42.2502V38.0627ZM33.5001 29.3126H35.6876V31.5001H33.5001V29.3126ZM37.8751 29.3126H40.0626V31.5001H37.8751V29.3126ZM42.2502 29.3126H44.4377V31.5001H42.2502V29.3126ZM33.5001 24.9376H35.6876V27.1251H33.5001V24.9376ZM37.8751 24.9376H40.0626V27.1251H37.8751V24.9376ZM42.2502 24.9376H44.4377V27.1251H42.2502V24.9376ZM42.2502 20.5626H44.4377V22.7501H42.2502V20.5626Z" fill="#3F3F3F"/>
</g>
<defs>
<clipPath id="clip0_101:1874">
<rect width="66" height="60" fill="white"/>
</clipPath>
</defs>
</symbol>

<symbol id="icon-phone" viewBox="0 0 67 55" >
<path d="M43.2855 22.4628H40.5931C40.5921 21.3921 40.1663 20.3655 39.4091 19.6084C38.652 18.8512 37.6254 18.4254 36.5547 18.4243V15.732C38.3391 15.7342 40.0499 16.444 41.3117 17.7058C42.5735 18.9676 43.2833 20.6783 43.2855 22.4628Z" fill="#3F3F3F"/>
<path d="M48.6701 22.4607H45.9778C45.9749 19.9624 44.9812 17.5673 43.2147 15.8007C41.4481 14.0342 39.053 13.0405 36.5547 13.0376V10.3453C39.7668 10.3489 42.8463 11.6265 45.1176 13.8978C47.3889 16.1691 48.6665 19.2486 48.6701 22.4607Z" fill="#3F3F3F"/>
<path d="M45.9734 44H45.7446C19.2926 42.4788 15.5369 20.1596 15.0119 13.3481C14.9298 12.2802 15.2753 11.2235 15.9723 10.4104C16.6693 9.59726 17.6608 9.09429 18.7286 9.01212C18.8354 9.00404 18.9426 9 19.0503 9H26.1446C26.6838 8.99948 27.2107 9.16088 27.6572 9.4633C28.1036 9.76571 28.4489 10.1952 28.6484 10.6962L30.6946 15.7308C30.8916 16.2202 30.9405 16.7566 30.8352 17.2736C30.7299 17.7905 30.475 18.2651 30.1023 18.6385L27.235 21.5327C27.681 24.0787 28.8993 26.4259 30.7246 28.2561C32.55 30.0862 34.894 31.3107 37.4388 31.7635L40.36 28.8692C40.7389 28.5006 41.218 28.2517 41.7375 28.1535C42.2569 28.0554 42.7938 28.1123 43.2811 28.3173L48.3561 30.35C48.8495 30.5558 49.2705 30.9038 49.5653 31.3497C49.8602 31.7957 50.0157 32.3193 50.0119 32.8538V39.9615C50.0119 41.0326 49.5864 42.0598 48.829 42.8172C48.0717 43.5745 47.0445 44 45.9734 44ZM19.0503 11.6923C18.8736 11.6918 18.6984 11.7261 18.5349 11.7932C18.3714 11.8604 18.2227 11.9591 18.0973 12.0837C17.9719 12.2084 17.8723 12.3565 17.8042 12.5196C17.736 12.6827 17.7007 12.8576 17.7001 13.0344C17.7001 13.0721 17.7015 13.1094 17.7042 13.1462C18.3234 21.1154 22.2946 39.9615 45.8927 41.3077C46.2489 41.329 46.5991 41.208 46.8662 40.9712C47.1333 40.7344 47.2954 40.4013 47.3169 40.045L47.3196 39.9615V32.8538L42.2446 30.8212L38.3811 34.6577L37.735 34.5769C26.0234 33.1096 24.435 21.3981 24.435 21.2769L24.3542 20.6308L28.1773 16.7673L26.158 11.6923H19.0503Z" fill="#3F3F3F"/>
</symbol>

<symbol id="icon-home-diamond" viewBox="0 0 20 61" >
<path d="M10 51L10 2.14577e-06" stroke="#FF7176"/>
<path d="M9.90039 60.8984C7.93112 55.6474 6.00604 53.2385 0.000895858 50.9989C6.19781 49.1205 8.36659 46.9545 9.90039 41.0994C12.2325 47.3829 14.8031 49.1039 19.7999 50.9989C14.4306 52.6797 12.2425 54.8172 9.90039 60.8984Z" fill="#FF7176"/>
</symbol>

<symbol id="icon-calender" viewBox="0 0 46 50" >
<path d="M36.1846 24.5561H39.6723C40.4607 24.5561 41.1022 23.9146 41.1022 23.1261V19.6384C41.1022 18.8499 40.4607 18.2084 39.6723 18.2084H36.1846C35.3961 18.2084 34.7546 18.8499 34.7546 19.6384V23.1261C34.7546 23.9146 35.3961 24.5561 36.1846 24.5561ZM36.2194 19.6732H39.6374V23.0912H36.2194V19.6732ZM36.1846 33.8334H39.6723C40.4607 33.8334 41.1022 33.1919 41.1022 32.4034V28.9157C41.1022 28.1272 40.4607 27.4857 39.6723 27.4857H36.1846C35.3961 27.4857 34.7546 28.1272 34.7546 28.9157V32.4034C34.7546 33.1919 35.3961 33.8334 36.1846 33.8334ZM36.2194 28.9506H39.6374V32.3686H36.2194V28.9506ZM26.2318 24.5561H29.7195C30.508 24.5561 31.1495 23.9146 31.1495 23.1261V19.6384C31.1495 18.8499 30.508 18.2084 29.7195 18.2084H26.2318C25.4434 18.2084 24.8019 18.8499 24.8019 19.6384V23.1261C24.8019 23.9146 25.4434 24.5561 26.2318 24.5561ZM26.2667 19.6732H29.6847V23.0912H26.2667V19.6732ZM9.81406 36.3281H6.32637C5.53789 36.3281 4.89639 36.9696 4.89639 37.7581V41.2458C4.89639 42.0343 5.53789 42.6758 6.32637 42.6758H9.81406C10.6025 42.6758 11.244 42.0343 11.244 41.2458V37.7581C11.244 36.9696 10.6025 36.3281 9.81406 36.3281ZM9.7792 41.2109H6.36123V37.793H9.7792V41.2109ZM9.81406 18.2084H6.32637C5.53789 18.2084 4.89639 18.8499 4.89639 19.6384V23.1261C4.89639 23.9146 5.53789 24.5561 6.32637 24.5561H9.81406C10.6025 24.5561 11.244 23.9146 11.244 23.1261V19.6384C11.244 18.8498 10.6025 18.2084 9.81406 18.2084ZM9.7792 23.0912H6.36123V19.6732H9.7792V23.0912ZM26.2318 33.6159H29.7195C30.508 33.6159 31.1495 32.9744 31.1495 32.1859V28.6982C31.1495 27.9098 30.508 27.2683 29.7195 27.2683H26.2318C25.4434 27.2683 24.8019 27.9098 24.8019 28.6982V32.1859C24.8019 32.9744 25.4434 33.6159 26.2318 33.6159ZM26.2667 28.7331H29.6847V32.1511H26.2667V28.7331ZM41.8297 3.34707H38.6982V2.22725C38.6982 0.999121 37.6991 0 36.471 0H36.1347C34.9066 0 33.9075 0.999121 33.9075 2.22725V3.34707H12.0911V2.22725C12.0911 0.999121 11.092 0 9.86387 0H9.52754C8.29942 0 7.30029 0.999121 7.30029 2.22725V3.34707H4.16895C2.14697 3.34707 0.501953 4.99209 0.501953 7.01406V46.3379C0.501953 48.3572 2.14473 50 4.16406 50H41.8348C43.8541 50 45.4969 48.3572 45.4969 46.3379V7.01406C45.4968 4.99209 43.8518 3.34707 41.8297 3.34707ZM35.3724 2.22725C35.3724 1.80684 35.7144 1.46484 36.1348 1.46484H36.4711C36.8915 1.46484 37.2335 1.80684 37.2335 2.22725V3.34707H35.3724V2.22725ZM8.76523 2.22725C8.76523 1.80684 9.10723 1.46484 9.52764 1.46484H9.86397C10.2844 1.46484 10.6264 1.80684 10.6264 2.22725V3.34707H8.76533V2.22725H8.76523ZM44.0319 46.3379C44.0319 47.5495 43.0463 48.5352 41.8347 48.5352H4.16397C2.95234 48.5352 1.9667 47.5495 1.9667 46.3379V46.3333C2.58037 46.7957 3.34316 47.0703 4.16895 47.0703H33.8646C34.844 47.0703 35.7649 46.6889 36.4575 45.9962L44.0319 38.4218V46.3379ZM35.7102 44.672C35.7676 44.435 35.7988 44.1878 35.7988 43.9334V39.0443C35.7988 38.1225 36.5489 37.3724 37.4709 37.3724H42.3599C42.6143 37.3724 42.8614 37.3411 43.0984 37.2837L35.7102 44.672ZM44.0319 13.8139H12.8235C12.419 13.8139 12.0911 14.1418 12.0911 14.5463C12.0911 14.9508 12.419 15.2787 12.8235 15.2787H44.0319V34.2355C44.0319 35.1575 43.2818 35.9076 42.3599 35.9076H37.4709C35.7412 35.9076 34.334 37.3148 34.334 39.0444V43.9335C34.334 44.8555 33.5839 45.6056 32.662 45.6056H4.16895C2.95469 45.6056 1.9668 44.6177 1.9668 43.4033V15.2787H9.89385C10.2983 15.2787 10.6263 14.9508 10.6263 14.5463C10.6263 14.1418 10.2983 13.8139 9.89385 13.8139H1.9667V7.01406C1.9667 5.7998 2.95459 4.81191 4.16885 4.81191H7.30029V6.96543C7.30029 8.19355 8.29942 9.19268 9.52754 9.19268C9.93203 9.19268 10.26 8.86475 10.26 8.46025C10.26 8.05576 9.93203 7.72783 9.52754 7.72783C9.10713 7.72783 8.76514 7.38584 8.76514 6.96543V4.81191H33.9075V6.96543C33.9075 8.19355 34.9066 9.19268 36.1348 9.19268C36.5393 9.19268 36.8672 8.86475 36.8672 8.46025C36.8672 8.05576 36.5393 7.72783 36.1348 7.72783C35.7144 7.72783 35.3724 7.38584 35.3724 6.96543V4.81191H41.8298C43.044 4.81191 44.0319 5.7998 44.0319 7.01406V13.8139ZM9.81406 27.2683H6.32637C5.53789 27.2683 4.89639 27.9098 4.89639 28.6982V32.1859C4.89639 32.9744 5.53789 33.6159 6.32637 33.6159H9.81406C10.6025 33.6159 11.244 32.9744 11.244 32.1859V28.6982C11.244 27.9097 10.6025 27.2683 9.81406 27.2683ZM9.7792 32.1511H6.36123V28.7331H9.7792V32.1511ZM16.2791 24.5561H19.7668C20.5553 24.5561 21.1968 23.9146 21.1968 23.1261V19.6384C21.1968 18.8499 20.5553 18.2084 19.7668 18.2084H16.2791C15.4906 18.2084 14.8491 18.8499 14.8491 19.6384V23.1261C14.8491 23.9146 15.4906 24.5561 16.2791 24.5561ZM16.314 19.6732H19.7319V23.0912H16.314V19.6732ZM26.2658 41.2109C26.2477 40.8226 25.9271 40.5134 25.5342 40.5134C25.1297 40.5134 24.8018 40.8413 24.8018 41.2458C24.8018 42.0343 25.4433 42.6758 26.2317 42.6758H29.7194C30.5079 42.6758 31.1494 42.0343 31.1494 41.2458V37.7581C31.1494 36.9696 30.5079 36.3281 29.7194 36.3281H26.2317C25.4433 36.3281 24.8018 36.9696 24.8018 37.7581V38.764C24.8018 39.1685 25.1297 39.4964 25.5342 39.4964C25.9387 39.4964 26.2666 39.1685 26.2666 38.764V37.793H29.6846V41.2109H26.2658ZM16.2791 33.6159H19.7668C20.5553 33.6159 21.1968 32.9744 21.1968 32.1859V28.6982C21.1968 27.9098 20.5553 27.2683 19.7668 27.2683H16.2791C15.4906 27.2683 14.8491 27.9098 14.8491 28.6982V32.1859C14.8491 32.9744 15.4906 33.6159 16.2791 33.6159ZM16.314 28.7331H19.7319V32.1511H16.314V28.7331ZM16.2791 42.6758H19.7668C20.5553 42.6758 21.1968 42.0343 21.1968 41.2458V37.7581C21.1968 36.9696 20.5553 36.3281 19.7668 36.3281H16.2791C15.4906 36.3281 14.8491 36.9696 14.8491 37.7581V41.2458C14.8491 42.0343 15.4906 42.6758 16.2791 42.6758ZM16.314 37.793H19.7319V41.2109H16.314V37.793Z" fill="#3A3A3A"/>
</symbol>

<symbol id="icon-wedding-ring" viewBox="0 0 56 56" >
<g clip-path="url(#clip0_366:315)">
<path d="M28.0774 56.0011C17.4469 56.0011 8.79883 47.353 8.79883 36.7225C8.79883 27.9252 14.7411 20.2479 23.2494 18.0532C23.7405 17.9266 24.2411 18.2224 24.3677 18.713C24.4943 19.2041 24.1991 19.7048 23.708 19.8314C16.0107 21.8165 10.6348 28.762 10.6348 36.7225C10.6348 46.3402 18.4597 54.1651 28.0774 54.1651C37.6952 54.1651 45.5201 46.3402 45.5201 36.7225C45.5201 28.8308 40.2019 21.9005 32.5872 19.8681C32.097 19.7373 31.8066 19.2346 31.9368 18.7445C32.0671 18.2549 32.5688 17.9644 33.0605 18.0942C41.4774 20.3404 47.356 28.0009 47.356 36.7225C47.356 47.353 38.7075 56.0011 28.0774 56.0011ZM28.0774 50.5773C20.4374 50.5773 14.2226 44.3619 14.2226 36.7225C14.2226 29.083 20.4374 22.8676 28.0774 22.8676C35.7169 22.8676 41.9323 29.083 41.9323 36.7225C41.9323 44.3619 35.7169 50.5773 28.0774 50.5773ZM28.0774 24.7041C21.4502 24.7041 16.0585 30.0952 16.0585 36.7225C16.0585 43.3497 21.4502 48.7414 28.0774 48.7414C34.7041 48.7414 40.0958 43.3497 40.0958 36.7225C40.0958 30.0952 34.7041 24.7041 28.0774 24.7041Z" fill="#3A3A3A"/>
<path d="M28.0777 24.3273C27.8219 24.3273 27.5766 24.2201 27.4032 24.0326L16.8 12.5568C16.5531 12.2889 16.4875 11.8997 16.6335 11.5661C16.7795 11.232 17.1094 11.0161 17.4745 11.0161H38.6804C39.0455 11.0161 39.3754 11.232 39.5214 11.5656C39.668 11.8997 39.6023 12.2889 39.3549 12.5568L28.7517 24.0321C28.5783 24.2201 28.3336 24.3273 28.0777 24.3273ZM19.5726 12.852L28.0777 22.0564L36.5824 12.852H19.5726Z" fill="#3A3A3A"/>
<path d="M38.6823 12.8526H17.4764C17.1396 12.8526 16.8302 12.6682 16.6695 12.3719C16.5093 12.0762 16.5235 11.7163 16.7068 11.4337L20.2899 5.92539C20.4596 5.66484 20.749 5.5083 21.06 5.5083H35.0992C35.4102 5.5083 35.6996 5.66537 35.8688 5.92539L39.4524 11.4337C39.6357 11.7158 39.6499 12.0762 39.4897 12.3719C39.3289 12.6682 39.019 12.8526 38.6823 12.8526ZM19.1689 11.0166H36.9898L34.6012 7.34423H21.558L19.1689 11.0166Z" fill="#3A3A3A"/>
<path d="M28.0772 24.3292C27.6895 24.3292 27.3434 24.086 27.2126 23.7204L23.1961 12.4742C23.0958 12.1942 23.1383 11.8827 23.3085 11.639L27.325 5.90162C27.4999 5.65157 27.7841 5.49976 28.0919 5.50974C28.3966 5.51447 28.6792 5.67048 28.8452 5.92526L32.5943 11.6631C32.7477 11.8974 32.7855 12.1895 32.6967 12.4558L28.9476 23.7015C28.8242 24.0729 28.478 24.325 28.0867 24.3292C28.0835 24.3292 28.0804 24.3292 28.0772 24.3292ZM25.0851 12.3035L28.0473 20.598L30.8146 12.2961L28.0509 8.06586L25.0851 12.3035Z" fill="#3A3A3A"/>
<path d="M28.0764 3.76379C27.5695 3.76379 27.1582 3.35301 27.1582 2.84609V0.918229C27.1582 0.410787 27.5695 0 28.0764 0C28.5833 0 28.9941 0.410787 28.9941 0.918229V2.84609C28.9941 3.35301 28.5833 3.76379 28.0764 3.76379Z" fill="#3A3A3A"/>
<path d="M36.3843 3.81047C36.2231 3.81047 36.0608 3.76792 35.9126 3.67967C35.4777 3.41859 35.3369 2.85442 35.598 2.41999L36.5619 0.813618C36.8224 0.378142 37.3866 0.237887 37.8216 0.498962C38.2565 0.759512 38.3973 1.32369 38.1362 1.75811L37.1723 3.36501C37 3.6513 36.6964 3.81047 36.3843 3.81047Z" fill="#3A3A3A"/>
<path d="M40.5623 8.90364C40.3606 8.90364 40.1583 8.83797 39.9892 8.70244C39.5931 8.38621 39.529 7.80838 39.8458 7.4123L41.1312 5.80593C41.4474 5.4088 42.0263 5.34576 42.4213 5.66252C42.8174 5.97875 42.8815 6.55659 42.5647 6.95266L41.2793 8.55904C41.0981 8.78597 40.8313 8.90364 40.5623 8.90364Z" fill="#3A3A3A"/>
<path d="M19.7721 3.81048C19.4601 3.81048 19.1559 3.65184 18.9842 3.36503L18.0197 1.75813C17.7586 1.32318 17.8999 0.759526 18.3344 0.498976C18.7693 0.238426 19.3335 0.379207 19.5941 0.813632L20.558 2.42001C20.8191 2.85496 20.6783 3.41861 20.2433 3.67968C20.0957 3.76793 19.9329 3.81048 19.7721 3.81048Z" fill="#3A3A3A"/>
<path d="M15.5925 8.90575C15.3231 8.90575 15.0562 8.78808 14.8755 8.56115L13.5901 6.95478C13.2733 6.5587 13.3369 5.98086 13.7335 5.66463C14.1291 5.34787 14.7069 5.41196 15.0236 5.80804L16.3091 7.41442C16.6258 7.81049 16.5617 8.38833 16.1651 8.70456C15.996 8.84009 15.7937 8.90575 15.5925 8.90575Z" fill="#3A3A3A"/>
</g>
<defs>
<clipPath id="clip0_366:315">
<rect width="56" height="56" fill="white"/>
</clipPath>
</defs>
</symbol>

<symbol id="icon-guitar" viewBox="0 0 55 55" >
<g clip-path="url(#clip0_366:333)">
<path d="M33.3699 41.648C32.6295 41.671 32.0729 40.838 32.3784 40.1633C32.7305 39.2867 34.0093 39.2867 34.3614 40.1633C34.6668 40.838 34.1105 41.6712 33.3699 41.648Z" fill="#3A3A3A"/>
<path d="M18.037 48.3545C17.7621 48.3545 17.4871 48.2497 17.2775 48.0399L11.7189 42.4813C11.2994 42.0619 11.2994 41.3817 11.7189 40.9621C12.1384 40.5426 12.8186 40.5426 13.2382 40.9621L18.7967 46.5206C19.2162 46.9401 19.2162 47.6203 18.7967 48.0399C18.5869 48.2497 18.3119 48.3545 18.037 48.3545Z" fill="#3A3A3A"/>
<path d="M19.442 43.5767C19.167 43.5767 18.8922 43.4719 18.6824 43.2621L16.4982 41.0779C16.0787 40.6584 16.0787 39.9782 16.4983 39.5587C16.9178 39.1393 17.598 39.1392 18.0175 39.5587L20.2017 41.7429C20.6212 42.1624 20.6212 42.8426 20.2016 43.2621C19.9919 43.4718 19.7169 43.5767 19.442 43.5767Z" fill="#3A3A3A"/>
<path d="M55.0016 9.99971C55.0016 9.71483 54.8884 9.44155 54.6869 9.24013L50.5176 5.07184C50.0981 4.65247 49.4181 4.65247 48.9985 5.07195L47.4649 6.6055L47.021 6.16164C46.6016 5.74215 45.9214 5.74215 45.5018 6.16164C45.0822 6.58112 45.0823 7.26131 45.5018 7.6809L45.9458 8.12488L45.1273 8.94333L44.6833 8.49935C44.2638 8.07987 43.5837 8.07987 43.1641 8.49935C42.7446 8.91883 42.7446 9.59903 43.1641 10.0186L43.608 10.4626L34.9416 19.129C30.7352 16.5252 26.5091 16.5778 23.7627 19.3242C22.9833 20.1029 22.3992 20.8675 21.9774 21.6613C20.4325 24.5671 16.9831 27.18 13.9534 27.739C11.698 28.1556 9.65693 29.1788 8.05054 30.6982C5.98095 32.6565 4.85721 35.211 4.80103 38.0854C4.72551 41.9418 6.59819 46.1146 9.93923 49.5336C13.3111 52.984 17.468 54.9757 21.3441 54.9981C21.3664 54.9982 21.3886 54.9983 21.4109 54.9983C24.267 54.9983 26.8355 53.939 28.8423 51.9325C30.4837 50.2906 31.5823 48.1723 32.0196 45.8064C32.0784 45.4878 32.1618 45.1586 32.2672 44.8278C32.4474 44.2625 32.1353 43.6582 31.57 43.478C31.0048 43.2978 30.4004 43.6099 30.2203 44.1752C30.0875 44.5916 29.9821 45.0091 29.9068 45.416C29.549 47.3524 28.6554 49.0805 27.3229 50.4134C25.7281 52.008 23.6847 52.8497 21.41 52.8497C21.3923 52.8497 21.3743 52.8497 21.3566 52.8496C18.0507 52.8305 14.4492 51.0746 11.4759 48.032C8.5348 45.022 6.8849 41.412 6.94914 38.1274C6.99394 35.8417 7.88543 33.8124 9.52716 32.2589C10.8316 31.0252 12.4971 30.1928 14.3436 29.8517C18.0139 29.1744 22.0223 26.1539 23.8746 22.6697C24.195 22.0669 24.6552 21.4699 25.2819 20.8437C27.8703 18.2553 31.4018 19.5977 33.3696 20.7013L24.5727 29.4984C22.9443 29.4202 21.29 30.0013 20.0492 31.2421C18.9183 32.373 18.2955 33.8766 18.2955 35.4759C18.2955 37.0751 18.9183 38.5786 20.0491 39.7096C21.1799 40.8405 22.6834 41.4633 24.2828 41.4633C25.8821 41.4633 27.3857 40.8405 28.5169 39.7096C29.7573 38.469 30.3384 36.8148 30.2603 35.1867L39.0486 26.3982C40.1407 28.3807 41.4428 31.9544 38.7231 34.6742C38.2621 35.1356 37.7364 35.5294 37.1607 35.8443C36.8703 36.0031 36.5764 36.1805 36.287 36.3718C35.792 36.6988 35.6559 37.3652 35.9829 37.8602C36.1895 38.1729 36.5314 38.3423 36.8802 38.3423C37.0836 38.3423 37.2891 38.2846 37.4713 38.1642C37.7111 38.0058 37.9534 37.8596 38.1916 37.7293C38.9471 37.3159 39.6373 36.799 40.2427 36.193C41.855 34.5807 42.6247 32.5044 42.4685 30.1884C42.3511 28.4478 41.7165 26.6082 40.6236 24.8233L49.2963 16.1507L49.9265 16.7808C50.1363 16.9906 50.4112 17.0955 50.6861 17.0955C50.961 17.0955 51.236 16.9906 51.4456 16.7808C51.8651 16.3613 51.8651 15.6811 51.4456 15.2616L50.8155 14.6314L51.634 13.813L52.2642 14.4432C52.474 14.653 52.7489 14.7579 53.0238 14.7579C53.2987 14.7579 53.5737 14.653 53.7834 14.4432C54.2028 14.0237 54.2028 13.3435 53.7834 12.9239L53.1531 12.2937L54.6871 10.7596C54.8885 10.5579 55.0016 10.2846 55.0016 9.99971ZM26.9975 38.1903C26.2723 38.9154 25.3082 39.3148 24.2827 39.3148C23.2573 39.3148 22.2933 38.9155 21.5683 38.1903C20.0714 36.6935 20.0714 34.2579 21.5683 32.7612C22.3166 32.0129 23.2996 31.6388 24.2827 31.6388C25.2658 31.6388 26.2491 32.0129 26.9974 32.7611C28.4939 34.2579 28.4939 36.6936 26.9975 38.1903ZM29.6291 32.7794C29.3499 32.2246 28.9792 31.7046 28.5168 31.2421C28.5168 31.2421 28.5167 31.2419 28.5167 31.2418C28.0542 30.7795 27.5342 30.4088 26.9797 30.1297L42.7895 14.3196L45.4394 16.9689L29.6291 32.7794ZM46.9586 15.4499L44.309 12.8003L45.1274 11.9819L47.7771 14.6314L46.9586 15.4499ZM49.2962 13.112L46.6467 10.4625L47.4651 9.64404L50.1147 12.2936L49.2962 13.112ZM48.9843 8.12466L49.7584 7.35058L52.4082 9.99993L51.634 10.7743L48.9843 8.12466Z" fill="#3A3A3A"/>
<path d="M15.6929 8.54303C15.6929 8.19681 15.5261 7.87186 15.2448 7.67012C14.9634 7.46827 14.6022 7.41445 14.2742 7.52553L5.85643 10.3753C5.42019 10.523 5.1266 10.9323 5.1266 11.3928V19.5132C4.67188 19.3083 4.16775 19.1942 3.63752 19.1942C1.63185 19.1942 0 20.826 0 22.8317C0 24.8374 1.63174 26.4693 3.63752 26.4693C5.6433 26.4693 7.27504 24.8375 7.27504 22.8317C7.27504 22.7693 7.27504 12.1633 7.27504 12.1633L13.5444 10.0408V16.6633C13.0897 16.4584 12.5855 16.3443 12.0553 16.3443C10.0495 16.3443 8.41779 17.9761 8.41779 19.9818C8.41779 21.9876 10.0495 23.6194 12.0553 23.6194C14.0611 23.6194 15.6928 21.9876 15.6928 19.9818C15.6929 19.9194 15.6929 8.54303 15.6929 8.54303ZM3.63752 24.3208C2.81639 24.3208 2.14844 23.6529 2.14844 22.8317C2.14844 22.0106 2.81649 21.3427 3.63752 21.3427C4.45854 21.3427 5.1266 22.0107 5.1266 22.8317C5.12671 23.6528 4.45865 24.3208 3.63752 24.3208ZM12.0554 21.4709C11.2343 21.4709 10.5663 20.8029 10.5663 19.9818C10.5663 19.1607 11.2344 18.4928 12.0554 18.4928C12.8766 18.4928 13.5445 19.1608 13.5445 19.9818C13.5445 20.803 12.8764 21.4709 12.0554 21.4709Z" fill="#3A3A3A"/>
<path d="M50.0735 37.7937L46.4457 36.5655C46.1176 36.4545 45.7565 36.5084 45.4752 36.7101C45.1938 36.9119 45.027 37.2368 45.027 37.583V45.7033C44.5723 45.4984 44.0681 45.3843 43.5379 45.3843C41.5321 45.3843 39.9004 47.0161 39.9004 49.0219C39.9004 51.0276 41.5321 52.6594 43.5379 52.6594C45.5437 52.6594 47.1754 51.0276 47.1754 49.0219C47.1754 48.9594 47.1754 48.7692 47.1754 48.7354V39.0808L49.3846 39.8287C49.9465 40.0192 50.5563 39.7176 50.7465 39.1557C50.9368 38.5937 50.6354 37.9839 50.0735 37.7937ZM43.5379 50.5109C42.7168 50.5109 42.0488 49.8429 42.0488 49.0219C42.0488 48.2007 42.7169 47.5328 43.5379 47.5328C44.359 47.5328 45.027 48.2008 45.027 49.0219C45.027 49.843 44.359 50.5109 43.5379 50.5109Z" fill="#3A3A3A"/>
<path d="M29.3643 11.5572C29.1528 11.5572 28.9414 11.4949 28.759 11.3703C28.001 10.8533 24.1751 8.20452 23.2861 6.8234C22.8989 6.22183 22.3944 5.26718 22.4804 3.92601C22.6236 1.70023 24.4457 -0.024963 26.626 -0.00122276C27.8516 0.0120975 28.8262 0.663504 29.4715 1.27259C30.1325 0.686277 31.1123 0.0600077 32.2815 0.0600077C32.2933 0.0600077 32.305 0.0600077 32.3168 0.0601151C34.4983 0.0836405 36.2817 1.84751 36.3769 4.07565C36.4343 5.41531 35.9095 6.35998 35.5098 6.95402C34.5855 8.32687 30.7165 10.8843 29.9503 11.383C29.7721 11.4993 29.5681 11.5572 29.3643 11.5572ZM26.5833 2.14711C25.5693 2.14711 24.6926 3.00272 24.6243 4.06394C24.5883 4.62533 24.7239 5.088 25.0926 5.66066C25.5219 6.32786 27.6844 7.99344 29.3781 9.1855C31.0906 8.03372 33.2809 6.41799 33.7274 5.75466C34.1086 5.18811 34.2544 4.72824 34.2304 4.16761C34.1848 3.09844 33.3158 2.21962 32.2936 2.20866C31.4376 2.20125 30.5122 3.23196 30.3127 3.509C30.1055 3.79689 29.7713 3.96297 29.4148 3.95523C29.0601 3.94664 28.7326 3.76338 28.5396 3.46571C28.3008 3.10531 27.4815 2.15678 26.6028 2.14721C26.5964 2.14711 26.5898 2.14711 26.5833 2.14711Z" fill="#3A3A3A"/>
</g>
<defs>
<clipPath id="clip0_366:333">
<rect width="55" height="55" fill="white"/>
</clipPath>
</defs>
</symbol>

<symbol id="icon-display1" viewBox="0 0 16 16" >
<rect x="9" width="7" height="7"/>
<rect width="7" height="7"/>
<rect x="9" y="9" width="7" height="7"/>
<rect y="9" width="7" height="7"/>
</symbol>

<symbol id="icon-display2" viewBox="0 0 17 16" >
<path d="M0 0.625076H4.25V4.43468H0V0.625076ZM6.375 0.625076H10.625V4.43468H6.375V0.625076ZM12.75 0.625076H17V4.43468H12.75V0.625076ZM0 6.33948H4.25V10.1491H0V6.33948ZM6.375 6.33948H10.625V10.1491H6.375V6.33948ZM12.75 6.33948H17V10.1491H12.75V6.33948ZM0 12.0539H4.25V15.8635H0V12.0539ZM6.375 12.0539H10.625V15.8635H6.375V12.0539ZM12.75 12.0539H17V15.8635H12.75V12.0539Z"/>
</symbol>

<symbol id="icon-display3" viewBox="0 0 20 17" >
<path d="M1.875 0.625076C1.50416 0.625076 1.14165 0.734443 0.833307 0.939346C0.524964 1.14425 0.284641 1.43549 0.142727 1.77623C0.000812411 2.11697 -0.0363188 2.49191 0.0360284 2.85364C0.108376 3.21537 0.286952 3.54764 0.549176 3.80843C0.811399 4.06922 1.14549 4.24683 1.50921 4.31878C1.87292 4.39073 2.24992 4.3538 2.59253 4.21266C2.93514 4.07152 3.22798 3.83251 3.43401 3.52585C3.64003 3.21919 3.75 2.85866 3.75 2.48984C3.75 1.99528 3.55246 1.52097 3.20083 1.17125C2.8492 0.821542 2.37228 0.625076 1.875 0.625076ZM1.875 6.84097C1.50416 6.84097 1.14165 6.95033 0.833307 7.15524C0.524964 7.36014 0.284641 7.65137 0.142727 7.99212C0.000812411 8.33286 -0.0363188 8.7078 0.0360284 9.06953C0.108376 9.43126 0.286952 9.76353 0.549176 10.0243C0.811399 10.2851 1.14549 10.4627 1.50921 10.5347C1.87292 10.6066 2.24992 10.5697 2.59253 10.4286C2.93514 10.2874 3.22798 10.0484 3.43401 9.74174C3.64003 9.43508 3.75 9.07455 3.75 8.70573C3.75 8.21116 3.55246 7.73685 3.20083 7.38714C2.8492 7.03743 2.37228 6.84097 1.875 6.84097ZM1.875 13.0569C1.50416 13.0569 1.14165 13.1662 0.833307 13.3711C0.524964 13.576 0.284641 13.8673 0.142727 14.208C0.000812411 14.5487 -0.0363188 14.9237 0.0360284 15.2854C0.108376 15.6471 0.286952 15.9794 0.549176 16.2402C0.811399 16.501 1.14549 16.6786 1.50921 16.7506C1.87292 16.8225 2.24992 16.7856 2.59253 16.6444C2.93514 16.5033 3.22798 16.2643 3.43401 15.9576C3.64003 15.651 3.75 15.2904 3.75 14.9216C3.75 14.4271 3.55246 13.9527 3.20083 13.603C2.8492 13.2533 2.37228 13.0569 1.875 13.0569ZM19.375 13.6784H6.875C6.70924 13.6784 6.55027 13.7439 6.43306 13.8605C6.31585 13.9771 6.25 14.1352 6.25 14.3V15.5432C6.25 15.7081 6.31585 15.8662 6.43306 15.9827C6.55027 16.0993 6.70924 16.1648 6.875 16.1648H19.375C19.5408 16.1648 19.6997 16.0993 19.8169 15.9827C19.9342 15.8662 20 15.7081 20 15.5432V14.3C20 14.1352 19.9342 13.9771 19.8169 13.8605C19.6997 13.7439 19.5408 13.6784 19.375 13.6784ZM19.375 1.24667H6.875C6.70924 1.24667 6.55027 1.31215 6.43306 1.42872C6.31585 1.5453 6.25 1.7034 6.25 1.86825V3.11143C6.25 3.27629 6.31585 3.43439 6.43306 3.55096C6.55027 3.66753 6.70924 3.73302 6.875 3.73302H19.375C19.5408 3.73302 19.6997 3.66753 19.8169 3.55096C19.9342 3.43439 20 3.27629 20 3.11143V1.86825C20 1.7034 19.9342 1.5453 19.8169 1.42872C19.6997 1.31215 19.5408 1.24667 19.375 1.24667ZM19.375 7.46255H6.875C6.70924 7.46255 6.55027 7.52804 6.43306 7.64461C6.31585 7.76118 6.25 7.91929 6.25 8.08414V9.32732C6.25 9.49218 6.31585 9.65028 6.43306 9.76685C6.55027 9.88342 6.70924 9.94891 6.875 9.94891H19.375C19.5408 9.94891 19.6997 9.88342 19.8169 9.76685C19.9342 9.65028 20 9.49218 20 9.32732V8.08414C20 7.91929 19.9342 7.76118 19.8169 7.64461C19.6997 7.52804 19.5408 7.46255 19.375 7.46255Z"/>
</symbol>

<symbol id="icon-nav-right" viewBox="0 0 7 14" >
<path d="M1.15916 13.0098C0.954392 13.0102 0.755951 12.9389 0.598283 12.8082C0.509544 12.7347 0.436191 12.6443 0.382424 12.5423C0.328657 12.4404 0.295534 12.3288 0.284951 12.214C0.274368 12.0993 0.286534 11.9835 0.320751 11.8734C0.354968 11.7634 0.410564 11.6611 0.484356 11.5726L4.41046 6.87526L0.624575 2.16918C0.551779 2.07954 0.497416 1.9764 0.464612 1.86568C0.431809 1.75496 0.42121 1.63885 0.433426 1.52402C0.445642 1.40919 0.48043 1.29791 0.535794 1.19657C0.591157 1.09523 0.666003 1.00583 0.756029 0.93351C0.846703 0.853729 0.952888 0.793552 1.06792 0.756754C1.18295 0.719956 1.30435 0.707333 1.4245 0.719677C1.54464 0.73202 1.66093 0.769064 1.76608 0.828483C1.87123 0.887902 1.96296 0.968414 2.03552 1.06497L6.26836 6.32315C6.39725 6.47996 6.46772 6.67665 6.46772 6.87964C6.46772 7.08262 6.39725 7.27932 6.26836 7.43613L1.88654 12.6943C1.79862 12.8004 1.68695 12.8842 1.56056 12.939C1.43418 12.9938 1.29666 13.0181 1.15916 13.0098Z"/>
</symbol>

<symbol id="icon-quote" viewBox="0 0 99 99" >
<path d="M90.55 35.9741L90.4469 35.2811L90.3396 35.3059C89.6067 31.8781 87.9181 28.728 85.4694 26.2199C83.0207 23.7119 79.9119 21.9484 76.5027 21.1335C73.0935 20.3187 69.5233 20.4858 66.2051 21.6154C62.8869 22.7451 59.9564 24.7912 57.7526 27.517C55.5488 30.2428 54.1619 33.5369 53.7522 37.0181C53.3426 40.4993 53.9269 44.0253 55.4377 47.1882C56.9485 50.3511 59.324 53.0216 62.2893 54.8908C65.2546 56.7599 68.6885 57.7512 72.1938 57.75C73.1136 57.75 73.9964 57.6098 74.875 57.4819C74.5904 58.4389 74.2975 59.4124 73.8273 60.2869C73.357 61.5574 72.6228 62.6587 71.8926 63.7684C71.2821 64.9688 70.2055 65.7814 69.4135 66.8085C68.5844 67.8067 67.4541 68.4709 66.559 69.3C65.6804 70.1662 64.5295 70.5994 63.6138 71.2099C62.6568 71.7585 61.8235 72.3649 60.9325 72.6536L58.7091 73.5694L56.7539 74.382L58.7504 82.3804L61.213 81.7864C62.0009 81.5884 62.962 81.3574 64.0551 81.081C65.173 80.8748 66.3651 80.3096 67.6934 79.794C69.001 79.2041 70.5231 78.8123 71.9339 77.8676C73.3529 76.9684 74.9905 76.2176 76.4343 75.0131C77.8326 73.7715 79.5198 72.6949 80.7655 71.1191C82.1268 69.6424 83.4715 68.0914 84.5151 66.3259C85.7238 64.6429 86.5446 62.7949 87.4109 60.9675C88.1946 59.1401 88.8258 57.2715 89.3414 55.4565C90.319 51.8183 90.7563 48.3615 90.9254 45.4039C91.0656 42.4421 90.9831 39.9795 90.8099 38.1975C90.7519 37.4533 90.6652 36.7116 90.55 35.9741ZM45.175 35.9741L45.0719 35.2811L44.9646 35.3059C44.2317 31.8781 42.5431 28.728 40.0944 26.2199C37.6457 23.7119 34.5369 21.9484 31.1277 21.1335C27.7185 20.3187 24.1483 20.4858 20.8301 21.6154C17.5119 22.7451 14.5814 24.7912 12.3776 27.517C10.1738 30.2428 8.78688 33.5369 8.37722 37.0181C7.96756 40.4993 8.55194 44.0253 10.0627 47.1882C11.5735 50.3511 13.949 53.0216 16.9143 54.8908C19.8796 56.7599 23.3135 57.7512 26.8188 57.75C27.7386 57.75 28.6214 57.6098 29.5 57.4819C29.2154 58.4389 28.9225 59.4124 28.4523 60.2869C27.982 61.5574 27.2478 62.6587 26.5176 63.7684C25.9071 64.9688 24.8305 65.7814 24.0385 66.8085C23.2094 67.8067 22.0791 68.4709 21.184 69.3C20.3054 70.1662 19.1545 70.5994 18.2388 71.2099C17.2818 71.7585 16.4485 72.3649 15.5575 72.6536L13.3341 73.5694C12.0925 74.0767 11.383 74.3738 11.383 74.3738L13.3795 82.3721L15.8421 81.7781C16.63 81.5801 17.5911 81.3491 18.6843 81.0727C19.8021 80.8665 20.9943 80.3014 22.3225 79.7857C23.6301 79.1959 25.1523 78.804 26.563 77.8594C27.982 76.9601 29.6196 76.2094 31.0634 75.0049C32.4618 73.7633 34.1489 72.6866 35.3946 71.1109C36.7559 69.6341 38.1006 68.0831 39.1443 66.3176C40.3529 64.6346 41.1738 62.7866 42.04 60.9593C42.8238 59.1319 43.4549 57.2633 43.9705 55.4482C44.9481 51.81 45.3854 48.3533 45.5545 45.3956C45.6948 42.4339 45.6123 39.9713 45.439 38.1893C45.3774 37.448 45.2894 36.7091 45.175 35.9741Z" fill="#C6C6C6" fill-opacity="0.31"/>
</symbol>

<symbol id="icon-reply" viewBox="0 0 14 13" >
<path d="M5.71253 8.787C5.78938 8.86365 5.83188 8.96629 5.83086 9.07281C5.82985 9.17933 5.78541 9.2812 5.70711 9.35649C5.62881 9.43177 5.52293 9.47445 5.41225 9.47533C5.30158 9.4762 5.19498 9.4352 5.11541 9.36116L2.30313 6.65121C2.22409 6.57503 2.17969 6.47178 2.17969 6.36412C2.17969 6.25647 2.22409 6.15321 2.30313 6.07704L5.11597 3.36979C5.19554 3.29575 5.30214 3.25475 5.41282 3.25563C5.52349 3.2565 5.62938 3.29918 5.70767 3.37447C5.78597 3.44975 5.83041 3.55163 5.83143 3.65814C5.83244 3.76466 5.78994 3.8673 5.71309 3.94396L3.61894 5.95896H8.03236C8.93002 5.95896 9.61381 6.09004 10.2211 6.37279L10.3595 6.44104C10.977 6.75601 11.482 7.24209 11.8093 7.83637C12.1526 8.45387 12.3102 9.14612 12.3102 10.0762C12.3102 10.1839 12.2657 10.2872 12.1865 10.3634C12.1074 10.4396 12 10.4824 11.8881 10.4824C11.7761 10.4824 11.6687 10.4396 11.5896 10.3634C11.5104 10.2872 11.466 10.1839 11.466 10.0762C11.466 9.27233 11.3376 8.71116 11.0647 8.21933C10.8162 7.7668 10.4318 7.39683 9.96162 7.15766C9.49 6.915 8.95647 6.7915 8.22033 6.77362L8.03292 6.77146H3.62175L5.71253 8.787Z"/>
</symbol>

<symbol id="icon-rectangle-shape"  viewBox="0 0 203 51" fill="none" xmlns="http://www.w3.org/2000/svg">
<path d="M16.3576 8.74223C15.6978 7.08087 15.7566 4.98317 16.4383 3.30899C17.1191 1.63711 18.3623 0.5 20.0143 0.5H184.669C186.396 0.5 187.658 1.70927 188.23 3.40113C188.804 5.09846 188.631 7.1599 187.574 8.64466C186.389 10.3084 185.751 11.8862 185.566 13.4057C185.381 14.9275 185.655 16.3569 186.24 17.7154C187.399 20.4049 189.801 22.8539 192.345 25.2736C192.722 25.6324 193.103 25.9909 193.484 26.35C195.706 28.4415 197.95 30.5541 199.654 32.8731C201.639 35.5744 202.847 38.4991 202.411 41.9123C202.032 44.8801 200.15 47.0158 197.535 48.426C194.911 49.8407 191.586 50.5 188.45 50.5H15.5356C10.6923 50.5 5.76793 49.0216 3.01926 45.2221C0.247913 41.3913 0.025256 38.1496 1.09326 35.2103C2.18139 32.2156 4.62683 29.4789 7.34283 26.7372C7.8226 26.2529 8.31106 25.7683 8.80074 25.2824C11.0495 23.0513 13.3239 20.7947 14.9011 18.426C16.8417 15.5113 17.7866 12.3405 16.3576 8.74223Z" stroke="#FFBEC1"/>
</symbol>

<symbol id="icon-rectangle-filled" viewBox="0 0 205 69">
<path d="M13.9275 7.53402C12.1402 4.45454 14.0114 0 17.5719 0H188.03C191.755 0 193.565 4.83661 191.316 7.80566C174.776 29.6413 210.591 39.0149 203.904 60.1243C201.96 66.2622 195.178 69 188.74 69H17.3804C11.3743 69 5.24275 66.6202 2.468 61.2936C-9.44713 38.4201 26.319 28.8847 13.9275 7.53402Z" fill="#FF656B"/>
</symbol>

<symbol id="icon-less-than" viewBox="0 0 20 20">
<path d="M13.891 17.418c0.268 0.272 0.268 0.709 0 0.979s-0.701 0.271-0.969 0l-7.83-7.908c-0.268-0.27-0.268-0.707 0-0.979l7.83-7.908c0.268-0.27 0.701-0.27 0.969 0s0.268 0.709 0 0.979l-7.141 7.419 7.141 7.418z"></path>
</symbol>

<symbol id="icon-bigger-than" viewBox="0 0 20 20">
<path d="M13.25 10l-7.141-7.42c-0.268-0.27-0.268-0.707 0-0.979 0.268-0.27 0.701-0.27 0.969 0l7.83 7.908c0.268 0.271 0.268 0.709 0 0.979l-7.83 7.908c-0.268 0.271-0.701 0.27-0.969 0s-0.268-0.707 0-0.979l7.141-7.417z"></path>
</symbol>


</defs>
</svg>
